<?xml version="1.0" encoding="UTF-8"?><svg id="Layer_1" xmlns="http://www.w3.org/2000/svg" width="1948.71" height="516.81" xmlns:xlink="http://www.w3.org/1999/xlink" viewBox="0 0 1948.71 516.81"><defs><style>.cls-1{stroke-width:4px;}.cls-1,.cls-2{fill:none;fill-rule:evenodd;stroke:#544e47;stroke-miterlimit:10;}.cls-3{fill:url(#Orchid_2-8);}.cls-3,.cls-4,.cls-5,.cls-6,.cls-7,.cls-8,.cls-9,.cls-10,.cls-11,.cls-12,.cls-13,.cls-14,.cls-15,.cls-16,.cls-17,.cls-18,.cls-19,.cls-20,.cls-21,.cls-22,.cls-23,.cls-24,.cls-25,.cls-26,.cls-27,.cls-28,.cls-29,.cls-30,.cls-31,.cls-32,.cls-33,.cls-34,.cls-35,.cls-36,.cls-37,.cls-38,.cls-39,.cls-40,.cls-41{stroke-width:0px;}.cls-4{fill:url(#Orchid_2-7);}.cls-5{fill:url(#Orchid_2-9);}.cls-6{fill:url(#Orchid_2-4);}.cls-7{fill:url(#Orchid_2-2);}.cls-8{fill:url(#Orchid_2-3);}.cls-9{fill:url(#Orchid_2-6);}.cls-10{fill:url(#Orchid_2-5);}.cls-11{opacity:.54;}.cls-11,.cls-29{fill:#b3a3b7;}.cls-42{opacity:.77;}.cls-2{stroke-width:6px;}.cls-12{fill:url(#Orchid_2-10);}.cls-13{opacity:.53;}.cls-13,.cls-25{fill:#e0e7e2;}.cls-14{fill:url(#Orchid_2);}.cls-15{fill:#f6f5f4;}.cls-16{fill:#f6f4f6;}.cls-17{fill:#f8f8f8;}.cls-18{fill:#2a1f22;}.cls-19{fill:#281726;}.cls-20{fill:#544e47;}.cls-21{fill:#191716;}.cls-22{fill:#110910;}.cls-23{fill:#221a1d;}.cls-24{fill:#171917;}.cls-26{fill:#d7e3e4;}.cls-27{fill:#d7cbd5;}.cls-28{fill:#abe1e5;}.cls-30{fill:#d0005c;}.cls-31{fill:#baccbf;}.cls-32{fill:#312b29;}.cls-33{fill:#f1f1f1;}.cls-34{fill:#fff;}.cls-35{fill:#f682a5;}.cls-36{fill:#e6bac6;}.cls-37{fill:#edcbe4;}.cls-38{fill:#eeedbf;}.cls-39{fill:#eeeced;}.cls-40{fill:#f0ecf1;}.cls-41{fill:#eaacbc;}</style><linearGradient id="Orchid_2" x1="778.54" y1="373.26" x2="789.24" y2="373.26" gradientTransform="translate(-65.74 -50.82) rotate(3.57)" gradientUnits="userSpaceOnUse"><stop offset="0" stop-color="#ff71ac"/><stop offset=".22" stop-color="#ff71ac" stop-opacity=".76"/><stop offset=".6" stop-color="#ff71ac" stop-opacity=".36"/><stop offset=".87" stop-color="#ff71ac" stop-opacity=".1"/><stop offset="1" stop-color="#ff71ac" stop-opacity="0"/></linearGradient><linearGradient id="Orchid_2-2" x1="856.18" y1="375.42" x2="866.88" y2="375.42" xlink:href="#Orchid_2"/><linearGradient id="Orchid_2-3" x1="702.32" y1="376.38" x2="715.03" y2="376.38" gradientTransform="translate(-253.25 -165.83) rotate(15.85)" xlink:href="#Orchid_2"/><linearGradient id="Orchid_2-4" x1="644.31" y1="375.97" x2="657.02" y2="375.97" gradientTransform="translate(-253.25 -165.83) rotate(15.85)" xlink:href="#Orchid_2"/><linearGradient id="Orchid_2-5" x1="1005.52" y1="393.03" x2="1018.2" y2="393.03" gradientTransform="translate(-11.11 -5.1) rotate(.6)" xlink:href="#Orchid_2"/><linearGradient id="Orchid_2-6" x1="949.52" y1="394.24" x2="962.2" y2="394.24" gradientTransform="translate(-11.11 -5.1) rotate(.6)" xlink:href="#Orchid_2"/><linearGradient id="Orchid_2-7" x1="1071.33" y1="453.35" x2="1083.06" y2="453.35" gradientTransform="translate(102.4 118.39) rotate(-5.37)" xlink:href="#Orchid_2"/><linearGradient id="Orchid_2-8" x1="1017.78" y1="454.4" x2="1029.5" y2="454.4" gradientTransform="translate(102.4 118.39) rotate(-5.37)" xlink:href="#Orchid_2"/><linearGradient id="Orchid_2-9" x1="1181.07" y1="320.93" x2="1191.77" y2="320.93" gradientTransform="translate(133.98 167.46) rotate(-6.38)" xlink:href="#Orchid_2"/><linearGradient id="Orchid_2-10" x1="1258.73" y1="322.11" x2="1269.43" y2="322.11" gradientTransform="translate(133.98 167.46) rotate(-6.38)" xlink:href="#Orchid_2"/></defs><path class="cls-1" d="m.86,1.81c113.04,53.59,491.45,218.87,1031.3,206.78,469.85-10.53,796.21-149.46,915.7-206.12"/><path class="cls-2" d="m1847.58,134.36c-2.04,13.93-40.01,20.18-47.48,21.97-7.47,1.79-49.31,16.5-53.13-.27-3.83-16.77,32.68-63.56,39.98-63.98,7.3-.42,62.68,28.35,60.63,42.28Z"/><path class="cls-20" d="m1776.01,72.43c-.31-2.96,2.31-4.77,4.93-5.13,1.19-.17,2.46-.06,3.42.63s1.46,2.12,1.74,3.37c.33,1.49.28,3.08-.1,4.56-.43,1.66-1.32,3.11-2,4.67-1.82,4.17-1.24,8.22-.11,12.49.99,3.73,6.77,2.15,5.79-1.6-.55-2.08-1.23-4.32-.86-6.5s1.76-4.04,2.52-6.04c1.59-4.22,1.35-9.71-1.26-13.51-5.62-8.14-21.1-3.13-20.05,7.06.17,1.61,1.26,3,3,3,1.49,0,3.17-1.38,3-3h0Z"/><path class="cls-38" d="m1908.5,203.83l-79.38-102.14c-.1-.12-.2-.23-.3-.35-1.66-2.4-4.63-3.63-7.58-2.87l-6.23,1.62c-1.14.3-1.84,1.52-1.55,2.72.07.27.13.54.19.82,3.92,17.36-3.6,34.21-16.8,37.65-13.19,3.43-27.06-7.86-30.98-25.22-.06-.27-.12-.55-.18-.82-.25-1.21-1.39-1.95-2.53-1.65l-6.87,1.79c-.09.02-.18.04-.28.05-3.04.3-5.74,2.59-6.51,5.84l-30.38,129.07c-.95,4.05,1.44,8.13,5.32,9.06l10.34,2.47c3.88.93,7.84-1.63,8.79-5.69l16.18-68.77c.53-2.26,3.57-2.27,4.08-.01l18.15,80.45c.91,4.03,4.84,6.51,8.73,5.49l66.06-17.18c3.89-1.01,6.33-5.14,5.42-9.17l-17.17-76.08c-.52-2.29,2.26-3.76,3.67-1.95l40.06,51.55c2.49,3.21,7.09,3.67,10.22,1.02l8.33-7.05c3.13-2.65,3.64-7.44,1.15-10.64Z"/><ellipse class="cls-32" cx="1801.24" cy="228.44" rx="12.46" ry="13.75" transform="translate(-11.59 126.94) rotate(-4.02)"/><path class="cls-32" d="m1844.01,222.91c.18.27.13.33.01.15-.9,1.12-1.36,1.35-2.51-.16-8.15-10.69-13.57-10.17-16.77,3.65-.45,1.96-1.09,1.85-2.39,1.23-.04.32-.03.22,0,0-1.3-.62-1.78-.44-1.17-2.71,4.29-16.03,13.05-17.66,22.89-4.8,1.39,1.82.85,1.52-.05,2.64Z"/><ellipse class="cls-15" cx="1804.37" cy="231.25" rx="4.56" ry="5.12" transform="translate(-13.76 170.89) rotate(-5.4)"/><ellipse class="cls-15" cx="1795.84" cy="223.91" rx="3.53" ry="3.33" transform="translate(1445.82 1999.49) rotate(-85.96)"/><path class="cls-32" d="m1846.6,212.6l-4,6.52c-.31.5-1.06.47-1.69-.06h0c-.63-.53-.89-1.36-.59-1.86l4-6.52c.31-.5,1.06-.47,1.69.06h0c.63.53.89,1.36.59,1.86Z"/><path class="cls-32" d="m1789.13,230.87l-9.25-4.99c-.71-.38-.92-1.28-.49-2h0c.44-.72,1.36-1,2.07-.62l9.25,4.99c.71.38.92,1.28.49,2h0c-.44.72-1.36,1-2.07.62Z"/><path class="cls-32" d="m1850.34,214.2l-5.86,9.15c-.45.7-1.32.83-1.94.29h0c-.62-.54-.77-1.54-.32-2.24l5.86-9.15c.45-.7,1.32-.83,1.94-.29h0c.62.54.77,1.54.32,2.24Z"/><path class="cls-32" d="m1788.76,225.85l-6.68-4.07c-.51-.31-.54-1.13-.07-1.82h0c.47-.7,1.27-1.01,1.78-.7l6.68,4.07c.51.31.54,1.13.07,1.82h0c-.47.7-1.27,1.01-1.78.7Z"/><path class="cls-32" d="m1790.46,222.17l-5.4-3.93c-.41-.3-.32-1.07.21-1.72h0c.53-.65,1.29-.94,1.7-.64l5.4,3.93c.41.3.32,1.07-.21,1.72h0c-.53.65-1.29.94-1.7.64Z"/><path class="cls-32" d="m1842.67,212.05l-3.21,5.41c-.25.41-.96.32-1.59-.21h0c-.63-.53-.95-1.29-.7-1.7l3.21-5.41c.25-.41.96-.32,1.59.21h0c.63.53.95,1.29.7,1.7Z"/><path class="cls-32" d="m1813.2,238.76c2.27-1.71,7.96-2.84,11.51-3.31,1.31-.17,2.74,1.16,3.36,2.55,1.46,3.28,1.95,6.43.54,9.82-1.34,3.23-4.13,5.84-7.11,5.52-1.62-.18-4.74-1.19-6.7-3.75-1.44-1.89-2.56-4.7-2.69-5.76-.12-.99-.53-3.85,1.08-5.07Z"/><path class="cls-30" d="m1817.2,251.56c-5.85-4-3.07-5.29.2-6.52,5.67-2.13,7.02.75,7.2,1.04.88,1.45,2.01,3.58,1.43,5.12-1.05,2.82-5.89,2.37-8.83.36Z"/><path class="cls-33" d="m1781.08,247.39c.92,3.96,1.85,7.93,2.77,11.89.18.79,1.09,1.26,1.85,1.05.81-.22,1.23-1.05,1.05-1.85-.92-3.96-1.85-7.93-2.77-11.89-.18-.79-1.09-1.26-1.85-1.05-.81.22-1.23,1.05-1.05,1.85h0Z"/><path class="cls-33" d="m1783.84,259.17c.3,1.4.6,2.8.9,4.2.17.77,1.1,1.29,1.85,1.05.81-.26,1.22-1.02,1.05-1.85-.3-1.4-.6-2.8-.9-4.2-.17-.77-1.1-1.29-1.85-1.05-.81.26-1.22,1.02-1.05,1.85h0Z"/><path class="cls-33" d="m1784.74,263.36c.23,1,.45,2.01.68,3.01.08.36.38.71.69.9s.8.27,1.16.15c.8-.26,1.23-1.02,1.05-1.85-.23-1-.45-2.01-.68-3.01-.08-.36-.38-.71-.69-.9s-.8-.27-1.16-.15c-.8.26-1.23,1.02-1.05,1.85h0Z"/><path class="cls-33" d="m1785.42,266.38c.08.5.35.97.61,1.4.16.26.34.5.53.75s.43.43.68.62c.39.28.85.45,1.3.6.2.07.41.14.62.18s.43.08.64.09c.24.01.47-.03.7-.07.35-.05.73-.4.9-.69.19-.32.27-.8.15-1.16s-.34-.71-.69-.9l-.36-.15c-.27-.07-.53-.07-.8,0h-.06c.13,0,.27-.03.4-.04-.1,0-.2,0-.3,0l.4.05c-.42-.06-.85-.21-1.24-.37l.36.15c-.18-.08-.34-.17-.5-.28l.3.23c-.14-.11-.27-.24-.38-.39l.23.3c-.24-.32-.46-.69-.62-1.05l.15.36c-.06-.14-.1-.28-.12-.43-.05-.35-.4-.73-.69-.9-.32-.19-.8-.27-1.16-.15s-.71.34-.9.69l-.15.36c-.07.27-.07.53,0,.8h0Z"/><path class="cls-33" d="m1790.46,269.89c1.58-.21,3.15-.56,4.68-1.02.75-.23,1.3-1.06,1.05-1.85s-1.04-1.29-1.85-1.05c-1.53.46-3.09.81-4.68,1.02-.34.05-.73.41-.9.69-.19.32-.27.8-.15,1.16s.34.71.69.9l.36.15c.27.07.53.07.8,0h0Z"/><path class="cls-33" d="m1795.23,268.89c1.26-.33,2.52-.66,3.78-.98.76-.2,1.29-1.08,1.05-1.85s-1.03-1.26-1.85-1.05c-1.26.33-2.52.66-3.78.98-.76.2-1.29,1.08-1.05,1.85s1.03,1.26,1.85,1.05h0Z"/><path class="cls-33" d="m1799,267.89c1.02-.26,2.05-.5,3.08-.73.36-.08.72-.38.9-.69s.27-.8.15-1.16-.34-.71-.69-.9c-.37-.19-.75-.24-1.16-.15-1.03.23-2.05.47-3.08.73-.36.09-.71.37-.9.69s-.27.8-.15,1.16c.25.79,1.03,1.25,1.85,1.05h0Z"/><path class="cls-33" d="m1788.66,259.34c.23,1.54.65,3.71,2.06,4.62,1.5.96,3.38.27,4.95-.12,3.7-.9,7.41-1.8,11.11-2.71,1.87-.46,1.08-3.35-.8-2.89-3.09.75-6.17,1.5-9.26,2.26-.72.18-1.44.35-2.16.53-.65.16-1.34.41-2.01.43-.32,0-.28-.08-.19,0-.16-.14-.22-.52-.29-.71-.24-.72-.41-1.45-.52-2.2-.12-.8-1.13-1.24-1.85-1.05-.86.24-1.17,1.04-1.05,1.85h0Z"/><path class="cls-33" d="m1727.45,252.5c-.79-.06-1.14-1.05-1.13-1.71.02-1.32.47-2.69.77-3.97.66-2.81,1.44-5.59,2.22-8.37.52-1.86-2.37-2.66-2.89-.8-.97,3.48-1.94,6.96-2.69,10.49-.35,1.63-.67,3.27.07,4.85.69,1.47,2.06,2.39,3.66,2.51.81.06,1.5-.73,1.5-1.5,0-.86-.69-1.44-1.5-1.5h0Z"/><path class="cls-33" d="m1761,117.03c-1.54.5-3.04,1.09-4.51,1.75s-2.53,1.55-3.19,3.05c-1.27,2.87-2.05,5.93-2.84,8.96-.49,1.87,2.41,2.67,2.89.8.7-2.69,1.41-5.39,2.43-7.98.18-.45.37-.93.68-1.3.36-.44.93-.65,1.43-.87,1.27-.58,2.58-1.07,3.91-1.5.77-.25,1.27-1.04,1.05-1.85-.21-.76-1.07-1.3-1.85-1.05h0Z"/><path class="cls-33" d="m1750.43,130.9c-.94,2.7-1.74,5.45-2.41,8.23-.18.76.24,1.66,1.05,1.85s1.65-.23,1.85-1.05c.67-2.78,1.48-5.52,2.41-8.23.26-.74-.29-1.67-1.05-1.85-.84-.19-1.57.25-1.85,1.05h0Z"/><path class="cls-33" d="m1815.48,123.83c-.58,3.76-3.03,6.72-4.93,9.95-.98,1.67,1.61,3.18,2.59,1.51,2.01-3.42,4.61-6.64,5.23-10.67.12-.8-.2-1.61-1.05-1.85-.71-.2-1.72.24-1.85,1.05h0Z"/><path class="cls-33" d="m1847.17,163.32c-1.7.11-3.27.87-4.35,2.2-1.25,1.54-1.55,3.45-1.44,5.39.24,4.26,1.13,8.48,2,12.65.39,1.89,3.28,1.09,2.89-.8-.69-3.36-1.4-6.74-1.75-10.16-.22-2.24-.55-6.07,2.65-6.28,1.92-.13,1.93-3.13,0-3h0Z"/><path class="cls-33" d="m1809.54,265.14c3.66-1.24,7.4-2.23,11.19-2.94.8-.15,1.25-1.11,1.05-1.85-.23-.84-1.05-1.2-1.85-1.05-3.8.71-7.53,1.69-11.19,2.94-.77.26-1.27,1.03-1.05,1.85.21.75,1.07,1.31,1.85,1.05h0Z"/><path class="cls-2" d="m834.68,291.35c-10.69,14.22-85,5.2-99.89,4.02-14.89-1.17-100.63-2.64-99.57-22.38,1.07-19.73,92.58-55.17,106.48-52.59,13.9,2.58,103.67,56.72,92.98,70.94Z"/><path class="cls-20" d="m733.26,193.52c.29-1.6,1.24-2.71,2.86-3.41s3.89-.78,5.45-.52c1.72.28,3.37.88,4.5,2s1.48,2.8,1.44,4.51c-.05,1.89-.66,3.71-1.65,5.31-1.13,1.82-2.89,3.11-4.34,4.66-3.49,3.77-4.09,8.41-4.18,13.35-.07,3.86,5.93,3.86,6,0,.03-1.88.04-3.78.52-5.61s1.46-3.1,2.79-4.4c3.13-3.06,5.81-6.22,6.58-10.68s0-8.95-3.44-11.86c-3.12-2.64-7.46-3.72-11.49-3.34-4.81.45-9.89,3.24-10.83,8.38-.29,1.59.44,3.23,2.1,3.69,1.46.4,3.4-.49,3.69-2.1h0Z"/><path class="cls-27" d="m733.17,369.31c-6.09-.75-14.77-.77-21.27-1.37-1.17-.11-1.76-.67-1.68-2.02,1.1-19.64,2.58-41.09,3.29-60.3.39-10.56-5.53-13.02-13.49-14.51-1.81-.34-5.35-.35-7.15-.18-7.92.74-14.31,3.29-14.84,13.71-1.32,26.05-3.01,55.14-4.43,81.19-.57,10.42,5.17,14.11,13.26,16.33,1.29.35,2.34-.13,5.09.29,2.75.42-3.91-.57,3.4.24,7.31.81,25.85,1.2,35.8,2.57,9.76,1.34,17.27-10.22,17.84-15.59.49-4.69.16-1.09.16-1.09-.31-10.88-5.65-18-15.99-19.27Z"/><ellipse class="cls-19" cx="699.66" cy="348.93" rx="15.2" ry="9.05" transform="translate(314 1029.03) rotate(-86.95)"/><ellipse class="cls-17" cx="701.36" cy="353.19" rx="4.97" ry="3.75" transform="translate(315.98 1037.4) rotate(-87.34)"/><ellipse class="cls-17" cx="697.18" cy="344.88" rx="3.87" ry="2.71" transform="translate(318.22 1024.14) rotate(-87.16)"/><path class="cls-19" d="m693.6,338.88l-3.18-3.32c-.24-.25-.23-.65.04-.89h0c.26-.24.67-.23.92.03l3.18,3.32c.24.25.23.65-.04.89h0c-.26.24-.67.23-.92-.03Z"/><path class="cls-19" d="m695.47,337l-2.58-3.87c-.2-.3-.12-.68.18-.87h0c.3-.19.7-.1.9.2l2.58,3.87c.2.3.12.68-.18.87h0c-.3.19-.7.1-.9-.2Z"/><path class="cls-19" d="m697.5,335.79l-2.39-4c-.18-.31-.08-.69.22-.86h0c.31-.17.7-.06.89.25l2.39,4c.18.31.08.69-.22.86h0c-.31.17-.7.06-.89-.25Z"/><path class="cls-14" d="m690.83,366.67c-3.15,1.21-3.02,3.25-2.48,5.34.59,2.25,4.32,3.27,6.9,2.46.2-.06,3.36-1.11,3.47-3.77.07-1.72-1.16-3.3-2.75-3.94-1.56-.62-4.59-.31-5.14-.09Z"/><path class="cls-32" d="m700.93,367.4c-.06-.13-.04-.15,0-.07.44-.42.64-.49,1.05.23,2.88,5.08,5.2,5.2,7.27-.51.29-.81.56-.72,1.07-.38.03-.14.02-.09,0,0,.52.34.73.3.35,1.23-2.65,6.58-6.44,6.73-9.92.61-.49-.87-.28-.7.16-1.13Z"/><path class="cls-11" d="m748.81,390.09c-.72,6.5-7.33,16.24-15.26,12.97-7.93-3.28-11.12-10.95-8.42-19.75,2.7-8.79,8.34-14.69,15.03-12.1,6.69,2.58,9.38,12.38,8.66,18.88Z"/><path class="cls-29" d="m712.77,317.51c-12.55.16-22.66-.56-35.1-2.28-.08-.01-.16-.1-.15-.21.16-1.45.08-2.92.31-4.37.02-.11.14-.17.22-.16,12.3,2.36,22.44,2.89,34.89,2.4.08,0,.2.08.2.19-.06,1.41-.19,2.82-.2,4.23,0,.11-.09.19-.17.19Z"/><path class="cls-29" d="m713.14,309.6c-12.55.16-22.66-.56-35.1-2.28-.08-.01-.16-.1-.15-.21.16-1.45.08-2.92.31-4.37.02-.11.14-.17.22-.16,12.3,2.36,22.44,2.89,34.89,2.4.08,0,.2.08.2.19-.06,1.41-.19,2.82-.2,4.23,0,.11-.09.19-.17.19Z"/><path class="cls-11" d="m693.13,385.6c.65,6.54,1.37,17.68-6.79,16.37-8.16-1.31-13.15-6.89-12.77-15.87.38-8.98-.92-15.95,6.47-15.97,7.39-.02,12.44,8.93,13.09,15.46Z"/><path class="cls-40" d="m685.53,317.07c-.99-.19-2.01-.32-3.01-.31s-2.12.26-2.86,1.04-.98,1.79-1.1,2.82c-.1.91-.12,1.83-.09,2.74.02.78.67,1.54,1.5,1.5s1.52-.66,1.5-1.5c-.03-.96-.01-1.94.11-2.9l-.05.4c.03-.24.08-.47.15-.7.02-.05.03-.1.05-.15.08-.24-.13.26-.05.11.01-.03.17-.3.17-.3.02.02-.25.28-.09.13.04-.04.07-.07.11-.11.19-.19-.21.13-.08.07.04-.02.09-.05.14-.08.15-.09-.34.12-.11.04.05-.02.1-.03.15-.05.13-.04.26-.06.39-.08l-.4.05c.79-.1,1.61-.01,2.39.09l-.4-.05c.26.04.53.08.79.13.4.08.79.06,1.16-.15.31-.18.61-.54.69-.9.17-.74-.22-1.69-1.05-1.85h0Z"/><path class="cls-40" d="m678.51,323.32l-.31,5.74c-.04.78.72,1.53,1.5,1.5.85-.04,1.45-.66,1.5-1.5l.31-5.74c.04-.78-.72-1.53-1.5-1.5-.85.04-1.45.66-1.5,1.5h0Z"/><path class="cls-40" d="m685.07,319.99c.72.03,1.45.09,2.16.18l-.4-.05c.45.06.9.14,1.34.22.4.08.8.06,1.16-.15.31-.18.61-.54.69-.9.09-.38.07-.81-.15-1.16-.2-.31-.52-.61-.9-.69-1.29-.25-2.59-.41-3.9-.46-.79-.03-1.54.71-1.5,1.5.04.84.66,1.47,1.5,1.5h0Z"/><g class="cls-42"><path class="cls-40" d="m679.28,392.88c-2.2-3.39-1.4-8.19-1.29-12.01.14-4.67.33-9.34.56-14,.1-1.93-2.9-1.92-3,0-.25,4.99-.44,9.99-.59,14.99-.12,4.15-.66,8.88,1.73,12.54,1.05,1.61,3.65.11,2.59-1.51h0Z"/></g><path class="cls-40" d="m680.08,310.58c3.3.88,6.71,1.34,10.12,1.35.78,0,1.54-.69,1.5-1.5s-.66-1.5-1.5-1.5c-3.22-.01-6.21-.42-9.33-1.25-.76-.2-1.66.25-1.85,1.05s.24,1.63,1.05,1.85h0Z"/><path class="cls-20" d="m697.89,294.76h0c-1.39.27-2.69-.89-2.89-2.58l-1.83-15.4c-.2-1.69.77-3.3,2.16-3.58h0c1.39-.27,2.69.89,2.89,2.58l1.83,15.4c.2,1.69-.77,3.3-2.16,3.58Z"/><path class="cls-20" d="m696.72,293.91h0c-1.23-.81-1.67-2.71-.99-4.22l6.19-13.76c.68-1.51,2.24-2.09,3.47-1.28h0c1.23.81,1.67,2.71.99,4.22l-6.19,13.76c-.68,1.51-2.24,2.09-3.47,1.28Z"/><path class="cls-27" d="m810.71,376.19c-6.11-.74-14.81-.78-21.34-1.37-1.17-.11-1.76-.66-1.69-1.98,1.08-19.24,2.53-40.25,3.22-59.07.38-10.35-5.56-12.77-13.55-14.24-1.81-.34-5.36-.35-7.17-.19-7.95.71-14.35,3.2-14.86,13.41-1.28,25.52-2.94,54.01-4.34,79.54-.56,10.21,5.21,13.83,13.33,16.02,1.29.35,2.35-.12,5.11.3,2.76.42-3.92-.56,3.41.25,7.33.81,25.93,1.22,35.91,2.57,9.79,1.33,17.31-9.98,17.87-15.24.49-4.59.16-1.07.16-1.07-.32-10.66-5.69-17.64-16.07-18.91Z"/><ellipse class="cls-19" cx="776.99" cy="356.31" rx="14.93" ry="9.05" transform="translate(380.05 1113.35) rotate(-86.97)"/><ellipse class="cls-17" cx="778.68" cy="360.51" rx="4.89" ry="3.75" transform="translate(383.2 1122.02) rotate(-87.4)"/><ellipse class="cls-17" cx="774.5" cy="352.34" rx="3.8" ry="2.71" transform="translate(384.75 1108.7) rotate(-87.2)"/><path class="cls-19" d="m770.92,346.44l-3.18-3.27c-.24-.25-.23-.64.04-.87h0c.26-.23.67-.22.92.03l3.18,3.27c.24.25.23.64-.04.87h0c-.26.23-.67.22-.92-.03Z"/><path class="cls-19" d="m772.78,344.59l-2.59-3.8c-.2-.29-.12-.67.18-.85h0c.3-.18.7-.09.9.2l2.59,3.8c.2.29.12.67-.18.85h0c-.3.18-.7.09-.9-.2Z"/><path class="cls-19" d="m774.81,343.41l-2.4-3.93c-.18-.3-.08-.68.22-.84h0c.31-.17.7-.06.89.24l2.4,3.93c.18.3.08.68-.22.84h0c-.31.17-.7.06-.89-.24Z"/><path class="cls-7" d="m768.17,373.73c-3.15,1.18-3.02,3.19-2.47,5.24.59,2.21,4.32,3.22,6.9,2.43.2-.06,3.36-1.08,3.47-3.7.07-1.69-1.17-3.25-2.76-3.87-1.56-.61-4.59-.31-5.14-.1Z"/><path class="cls-32" d="m778.27,374.46c-.06-.12-.04-.15,0-.07.44-.41.64-.48,1.05.22,2.89,5,5.2,5.11,7.27-.49.29-.79.56-.71,1.07-.37.03-.13.02-.09,0,0,.52.34.73.3.35,1.21-2.64,6.46-6.43,6.6-9.92.59-.49-.85-.28-.69.16-1.11Z"/><path class="cls-11" d="m826.18,396.81c-.71,6.39-7.31,15.95-15.25,12.72-7.94-3.23-11.13-10.77-8.44-19.41,2.69-8.64,8.32-14.42,15.01-11.87,6.69,2.54,9.39,12.17,8.68,18.56Z"/><path class="cls-29" d="m790.06,325.47c-12.55.14-22.66-.58-35.1-2.28-.08-.01-.16-.1-.15-.21.16-1.43.08-2.87.31-4.29.02-.11.14-.17.22-.15,12.3,2.33,22.44,2.86,34.89,2.4.08,0,.2.08.2.18-.06,1.38-.19,2.77-.19,4.16,0,.11-.09.19-.17.19Z"/><path class="cls-29" d="m790.42,317.69c-12.55.14-22.66-.58-35.1-2.28-.08-.01-.16-.1-.15-.21.16-1.43.08-2.87.31-4.29.02-.11.14-.17.22-.15,12.3,2.33,22.44,2.86,34.89,2.4.08,0,.2.08.2.18-.06,1.38-.19,2.77-.19,4.16,0,.11-.09.19-.17.19Z"/><path class="cls-11" d="m770.49,392.34c.66,6.42,1.39,17.37-6.78,16.08-8.16-1.3-13.16-6.78-12.78-15.6.37-8.82-.93-15.67,6.46-15.68,7.39,0,12.45,8.78,13.1,15.21Z"/><path class="cls-40" d="m762.83,324.97c-.99-.19-2.01-.32-3.01-.31s-2.11.26-2.86,1.02-.98,1.77-1.1,2.79c-.1.89-.12,1.79-.09,2.69.02.78.67,1.54,1.5,1.5s1.52-.66,1.5-1.5c-.03-.95-.01-1.91.11-2.84l-.05.4c.03-.23.08-.47.15-.69.02-.05.03-.1.05-.15.08-.24-.13.27-.05.11.02-.03.18-.28.17-.29.01.03-.25.28-.09.13.03-.03.08-.07.11-.11-.16.22-.22.16-.08.07.04-.03.09-.05.14-.08.15-.09-.35.12-.11.04.05-.02.1-.03.15-.05.13-.04.26-.06.39-.08l-.4.05c.79-.09,1.61-.01,2.39.09l-.4-.05c.26.04.53.08.79.13.4.08.79.06,1.16-.15.31-.18.61-.54.69-.9.17-.74-.22-1.69-1.05-1.85h0Z"/><path class="cls-40" d="m755.81,331.13l-.3,5.63c-.04.78.72,1.53,1.5,1.5.85-.04,1.45-.66,1.5-1.5l.3-5.63c.04-.78-.72-1.53-1.5-1.5-.85.04-1.45.66-1.5,1.5h0Z"/><path class="cls-40" d="m762.36,327.89c.72.03,1.45.09,2.16.18l-.4-.05c.45.06.9.13,1.34.22.4.08.79.06,1.16-.15.31-.18.61-.54.69-.9.09-.38.07-.81-.15-1.16-.2-.31-.52-.61-.9-.69-1.29-.25-2.6-.41-3.9-.46-.79-.03-1.54.71-1.5,1.5.04.84.66,1.47,1.5,1.5h0Z"/><g class="cls-42"><path class="cls-40" d="m756.65,399.45c-2.18-3.29-1.41-7.93-1.3-11.65.13-4.63.32-9.26.55-13.89.09-1.93-2.91-1.92-3,0-.24,4.96-.44,9.92-.57,14.88-.11,4.05-.61,8.62,1.74,12.17,1.06,1.6,3.66.1,2.59-1.51h0Z"/></g><path class="cls-40" d="m757.37,318.65c3.3.86,6.71,1.33,10.12,1.34.78,0,1.54-.69,1.5-1.5s-.66-1.5-1.5-1.5c-3.22-.01-6.21-.42-9.33-1.24-.76-.2-1.66.25-1.85,1.05s.24,1.63,1.05,1.85h0Z"/><path class="cls-20" d="m775.67,302.43h0c-1.39.27-2.69-.89-2.89-2.58l-1.83-15.4c-.2-1.69.77-3.3,2.16-3.58h0c1.39-.27,2.69.89,2.89,2.58l1.83,15.4c.2,1.69-.77,3.3-2.16,3.58Z"/><path class="cls-20" d="m774.17,301.35h0c-1.2-.87-1.58-2.79-.84-4.27l6.67-13.44c.73-1.48,2.31-1.98,3.51-1.11h0c1.2.87,1.58,2.79.84,4.27l-6.67,13.44c-.73,1.48-2.31,1.98-3.51,1.11Z"/><path class="cls-2" d="m240.71,161.84c-10.84,10.64-72.41-6.87-84.83-9.84-12.42-2.97-84.61-15.6-81.18-32.19,3.42-16.6,85.2-34.52,96.6-30.48,11.4,4.04,80.25,61.88,69.42,72.52Z"/><path class="cls-20" d="m168.18,65.12c.29-.84,1.45-1.63,2.66-1.89,1.56-.33,3.29-.03,4.76.54,1.18.46,2.44,1.27,3,2.34.69,1.32.47,2.84.09,4.15-1,3.46-3.98,4.89-6.58,7.07-3.06,2.57-4.07,6.4-4.71,10.18-.27,1.6.42,3.23,2.1,3.69,1.44.4,3.42-.49,3.69-2.1.53-3.12,1.02-5.98,3.69-7.93,1.5-1.1,3.1-2.09,4.34-3.49s2.27-3.09,2.96-4.92c1.35-3.58,1.18-7.79-1.22-10.86s-6.26-4.5-10-4.76c-4.55-.32-9.01,1.95-10.55,6.38-.53,1.53.61,3.28,2.1,3.69,1.65.45,3.16-.56,3.69-2.1h0Z"/><path class="cls-31" d="m198.61,216.68c.16-.77.2-1.55.15-2.32l3.53-43.04c.42-6.5,2.2-7.75-3.8-9.11l-86.45-19.61c-6.01-1.36-5.05,1.33-8.19,7.21l-13.5,41.48c-.03.13-.04.27-.06.4-.03.13-.08.26-.11.39l-26.62,158.11c-1.09,5.2-2.45,4.39,3.56,5.76l27.3,6.19c6.01,1.36,5.54-3.69,6.7-9.2l37.68-122.27-16.07,132.95c-1.09,5.2-2.45,4.39,3.57,5.76l27.38,6.21c6.02,1.37,5.56-3.69,6.72-9.2l38.21-149.7Z"/><path class="cls-13" d="m199.98,174.04c-31-6.74-63.28-14.09-94.28-21.24-1.05-.24-1.79-1.27-1.51-2.24.71-2.47,1.74-4.86,2.43-7.35.26-.94,1.53-1.4,2.43-1.18,27.02,6.38,66.58,16.37,92.69,20.95.9.16,1.82,1.18,1.63,2.17-.48,2.42-.6,4.99-1,7.43-.17,1.04-1.31,1.69-2.38,1.46Z"/><path class="cls-25" d="m102.48,187.52c3.14-.53,5.96-1.98,8.73-3.47s5.65-3.08,8.12-5.16c4.56-3.83,7.18-9.28,9.62-14.58.8-1.74-1.79-3.27-2.59-1.51-2.27,4.95-4.64,10.04-8.82,13.7-2.28,1.99-4.99,3.43-7.64,4.86s-5.24,2.77-8.22,3.28c-1.9.32-1.09,3.21.8,2.89h0Z"/><path class="cls-25" d="m194.4,206.45c-2.19-1.47-4.45-2.85-6.57-4.43-2.43-1.81-4.11-4.12-5.78-6.63-.98-1.48-2.03-3.07-2.57-4.78-.48-1.53-.45-3.15-.2-4.72.53-3.25,1.66-6.36,1.66-9.69,0-1.93-3-1.93-3,0,0,3.58-1.41,6.93-1.77,10.47-.39,3.85,1.2,7.11,3.28,10.24,1.82,2.74,3.68,5.27,6.3,7.28,2.28,1.75,4.74,3.25,7.12,4.85,1.61,1.08,3.11-1.52,1.51-2.59h0Z"/><path class="cls-13" d="m98.04,362.13c-6.84.28-26.08-5.5-34.78-7.27-.29-.06-.57-1.23-.4-2.03.44-2.04,1.03-5.51,1.39-7.57.14-.78.61-1.68,1.02-1.6,12.09,2.56,23.23,6.33,35.5,8.13.42.06.53,1.17.35,1.94-.45,1.86-1.08,5.14-1.86,6.88-.33.74-.99,1.5-1.23,1.51Z"/><path class="cls-13" d="m156.81,375.22c-6.84.28-26.08-5.5-34.78-7.27-.29-.06-.57-1.23-.4-2.03.44-2.04,1.03-5.51,1.39-7.57.14-.78.61-1.68,1.02-1.6,12.09,2.56,23.23,6.33,35.5,8.13.42.06.53,1.17.35,1.94-.45,1.86-1.08,5.14-1.86,6.88-.33.74-.99,1.5-1.23,1.51Z"/><ellipse class="cls-24" cx="127.87" cy="191.97" rx="15.35" ry="15.73" transform="translate(-23.95 18.32) rotate(-7.5)"/><ellipse class="cls-16" cx="122.49" cy="185.8" rx="2.81" ry="3.27" transform="translate(-89.12 254.7) rotate(-74.64)"/><ellipse class="cls-16" cx="127.24" cy="197.19" rx="5.63" ry="6.53" transform="translate(-96.6 267.66) rotate(-74.64)"/><ellipse class="cls-24" cx="164.1" cy="201.01" rx="15.35" ry="15.73" transform="translate(-24.82 23.13) rotate(-7.5)"/><ellipse class="cls-16" cx="171.46" cy="197.73" rx="2.81" ry="3.27" transform="translate(-64.62 310.7) rotate(-74.64)"/><ellipse class="cls-16" cx="162.57" cy="206.03" rx="5.63" ry="6.53" transform="translate(-79.16 308.21) rotate(-74.64)"/><path class="cls-21" d="m134.94,209.85c3.31-.37,10.14,1.53,14.3,2.93,1.53.52,2.5,2.45,2.54,4.02.1,3.7-.81,6.78-3.95,9.11-2.98,2.21-7.28,3.13-10.45,1.31-1.72-.99-4.71-3.5-5.69-6.81-.72-2.44-.66-5.53-.31-6.56.32-.95,1.2-3.74,3.55-4Z"/><path class="cls-30" d="m132.9,222.98c-2.28-5.06,2.62-5.28,4.26-5.49,2.85-.36,9.85,2.84,10.41,3.67,2.76,4.15-.79,5.38-3.49,6.59-4.94,2.22-10.04-2.23-11.18-4.77Z"/><path class="cls-22" d="m132.88,148.42h0c-1.31.01-2.37-1.13-2.36-2.55l.11-12.86c.01-1.41,1.09-2.58,2.4-2.59h0c1.31-.01,2.37,1.13,2.36,2.55l-.11,12.86c-.01,1.41-1.09,2.58-2.4,2.59Z"/><path class="cls-22" d="m131.91,147.54h0c-1.03-.85-1.22-2.47-.42-3.6l7.3-10.3c.8-1.13,2.31-1.37,3.34-.52h0c1.03.85,1.22,2.47.42,3.6l-7.3,10.3c-.8,1.13-2.31,1.37-3.34.52Z"/><path class="cls-22" d="m182.86,159.75h0c-1.31.01-2.37-1.13-2.36-2.55l.11-12.86c.01-1.41,1.09-2.58,2.4-2.59h0c1.31-.01,2.37,1.13,2.36,2.55l-.11,12.86c-.01,1.41-1.09,2.58-2.4,2.59Z"/><path class="cls-22" d="m181.88,158.88h0c-1.03-.85-1.22-2.47-.42-3.6l7.3-10.3c.8-1.13,2.31-1.37,3.34-.52h0c1.03.85,1.22,2.47.42,3.6l-7.3,10.3c-.8,1.13-2.31,1.37-3.34.52Z"/><path class="cls-2" d="m408.1,220.17c-9.72,10.31-57.48-7.44-67.16-10.47-9.69-3.03-66.43-16.1-62.08-32.31,4.34-16.21,71.72-32.95,80.49-28.88,8.77,4.06,58.48,61.36,48.76,71.67Z"/><path class="cls-20" d="m359.81,124.78c.93-2.39,4.09-2.09,5.75-.95.79.54,1.37,1.37,1.48,2.56.13,1.39-.28,2.93-.82,4.21s-1.38,2.48-2.41,3.45c-1.16,1.09-2.53,1.93-3.65,3.05-2.58,2.59-3.6,6.14-4.42,9.61-.89,3.75,4.89,5.36,5.79,1.6.46-1.94.88-3.97,1.91-5.71.96-1.62,2.62-2.59,4.02-3.78,3.33-2.81,5.36-7.16,5.58-11.5.24-4.66-2.78-8.57-7.17-9.92-5.04-1.56-9.96.96-11.84,5.78-.59,1.51.65,3.29,2.1,3.69,1.7.47,3.1-.58,3.69-2.1h0Z"/><path class="cls-41" d="m412.41,208.92c-6.01-11.41-13.69-23.65-19.81-34.92-1.63-3-2.77-3.5-5.18-5.11-.41-.27-.7-.27-1.06-.64-2.21-2.22-11.96-6.16-13.66-4.51-4.48,4.36-8.2,12.78-14.69,18.06-1.11.9-.42.93-4.34,2.57-2.91,1.22-5.68,1.06-7.39.87-2.09-1.28-5.12-3.51-7.39-7.18-7.03-10.48.23-20.36-5.9-26.01-3.53-3.26-9.59-3.35-12.89-3.57-2.63-.17-4.71.23-7.15.74-.39.08-.76.23-1.12.32-1.75.41-3.19.83-4.77,1.73-12.12,6.84-23.66,15.2-34.05,24.25-6.32,5.5-7.14,11.17-5.9,18.81.92,5.69,4.29,9.01,8.62,11.09,5.83,2.78,8.42,1.9,14.53.85,1.15-.2,4.77-2.78,6.01-3.76-6.81,23.69-12.95,48.37-18.53,72.28-1.29,5.51.29,7.97,5.46,9.53,21.92,6.62,44.59,12.88,66.87,17.95,5.25,1.19,7.83-.38,9.25-5.69,6.38-23.97,12.86-48.46,19.52-72.47,1,1.57,1.44,3.5,2.65,4.98,5.2,6.4,10.03,7.07,18.27,7.7,4.83.37,10.64-3.16,12.52-7.79,3.2-7.91,4.28-12.23.15-20.08Z"/><path class="cls-37" d="m365.44,425.74s0-.02,0-.03c.07-.19.2-.38.18-.59-.17-1.75-.09-4.45-.33-6.94-.6-29.09-1.84-58.16-2.77-87.28-.52-16.41-.61-33,.66-49.41-34.36,4.56-53.39-2.04-81.05-23.29-9.66,24.28-20.27,48.28-33.1,70.83-9.37,16.48-19.76,31.93-30.24,47.44-.77,1.14-1.22,2.36-1.4,3.57-.12.32-.23.64-.32.97-2.03,7.48,4.23,15.89,13.99,18.79,8.61,2.56,17.05-.03,20.32-5.81.22.06.43.12.65.18-.13,6.72,5.76,13.57,14.37,16.13,9.63,2.86,22.13,1.85,24.42-5.36.01,0,.02,0,.03,0-.04.11-.08.22-.11.33-2.03,7.48,8.43,14.76,18.19,17.65,8.96,2.66,17.75-.26,20.7-6.54.09.03.18.06.27.1-.85,7.02,5.28,14.24,14.38,16.94,6.83,2.03,14.06,2.07,18.18-1.41,1.71-1.53,2.22-3.42,2.98-6.26Z"/><path class="cls-35" d="m337.4,269.04c-3.43-.27-3.58-.11-4.98.1-2.7.41-5.59.98-7.38,2.33-.39-.29-.81-.54-1.27-.73-.15-.06-.31-.12-.47-.17l-1.38-.41-.69-.21c-.37-.11-.75-.17-1.13-.18-1-1.65-2.6-3.25-4.15-4.72-1.05-.99-1.09-1.21-4.08-2.98-5.64-3.34-13.74-12.38-14.63-2.37-.71,7.96-1.91,12.23-1.29,18.18.77,7.48,4.54,6.93,10.07,7.82.87.14,2.1.08,3.34-.1-4.81,6.09-8.85,12.67-9.45,20.45-.11,1.36.16,2.11,1.47,1.42,1.91-1.01,3.11-.65,4.27.77.8.97,1.26,1.23,1.64-.12.87-3.14.78-6.43,2.07-9.53.95-2.28,3.56-4.74,5.91-7.81,2.02-2.64,4.21-4.89,6.4-7.18.28,2.01.53,4.03.64,6.19.18,3.44.76,6.51.41,8.71-.48,2.98-1.89,5.5-2.64,8.33-.32,1.21.06,1.22.95.83,1.29-.58,2.17-.32,2.92,1.32.52,1.12.99.66,1.48-.44,2.45-5.49,2.94-11.44,2.74-17.42.52.4,1.02.74,1.47.96,5.07,2.48,7.9,5.13,12.54-.63,3.69-4.58,4.98-8.82,8.65-15.84,4.62-8.82-6.94-6.04-13.41-6.55Z"/><path class="cls-41" d="m225.61,369.64c-3.55,3.95-7.05,8.66-6.45,14.28.09.81.63,1.5,1.5,1.5.74,0,1.59-.69,1.5-1.5-.52-4.84,2.52-8.76,5.57-12.16,1.29-1.43-.83-3.56-2.12-2.12h0Z"/><path class="cls-41" d="m219.1,383.88c.21,4.7,3.71,8.34,7.41,10.83.65.44,1.69.15,2.05-.54.4-.76.16-1.58-.54-2.05-.84-.56-1.37-.96-2.11-1.61-.7-.62-1.35-1.29-1.93-2.02.1.12-.02-.03-.05-.07-.07-.09-.14-.19-.2-.28-.15-.21-.29-.43-.42-.65-.25-.41-.48-.83-.67-1.27.07.16-.05-.13-.07-.18-.04-.1-.07-.2-.11-.31-.08-.23-.15-.46-.2-.7-.14-.55-.14-.61-.17-1.16-.04-.78-.66-1.54-1.5-1.5-.78.04-1.54.66-1.5,1.5h0Z"/><path class="cls-41" d="m258.36,380.11c-2.99,4.84-5.49,10.07-4.68,15.91.11.8,1.14,1.24,1.85,1.05.87-.24,1.16-1.04,1.05-1.85-.68-4.92,1.89-9.57,4.38-13.59,1.02-1.65-1.58-3.16-2.59-1.51h0Z"/><path class="cls-41" d="m253.56,395.59c.39,4.49,3.31,8.05,7.02,10.37.67.42,1.68.16,2.05-.54.39-.74.17-1.61-.54-2.05-.37-.23-.74-.47-1.09-.73-.1-.08-.21-.15-.31-.23.12.1-.02-.02-.06-.05-.18-.15-.36-.3-.53-.45-.33-.29-.64-.6-.94-.91-.16-.17-.31-.34-.46-.52-.07-.08-.13-.16-.2-.24-.18-.22.19.27-.1-.13-.26-.36-.5-.72-.72-1.11-.12-.2-.23-.41-.33-.62-.05-.09-.09-.19-.13-.28-.03-.06-.09-.22-.03-.07-.18-.43-.32-.87-.43-1.32-.05-.2-.09-.4-.13-.6,0-.03-.06-.41-.04-.26.02.14-.02-.27-.02-.26-.07-.78-.64-1.54-1.5-1.5-.75.03-1.57.66-1.5,1.5h0Z"/><path class="cls-41" d="m296.4,393.17c-2.51,4.58-4.67,9.69-3.25,14.98.5,1.86,3.39,1.07,2.89-.8-1.2-4.47.85-8.83,2.95-12.67.93-1.69-1.66-3.21-2.59-1.51h0Z"/><path class="cls-41" d="m293.08,408.13c.85,4.09,4.36,7.05,8,8.72.71.33,1.65.23,2.05-.54.35-.66.22-1.7-.54-2.05-.83-.38-1.63-.81-2.4-1.31-.18-.12-.37-.24-.55-.37-.09-.06-.18-.13-.27-.19-.34-.25.12.11-.06-.05-.35-.3-.7-.59-1.02-.91s-.61-.64-.88-.98c.13.16.02.03-.04-.06-.06-.09-.13-.18-.19-.27-.12-.18-.24-.36-.35-.55s-.21-.37-.31-.57c-.06-.11-.11-.23-.16-.35.09.19.03.07-.02-.05-.16-.41-.28-.84-.37-1.27-.16-.77-1.11-1.29-1.85-1.05-.81.26-1.22,1.02-1.05,1.85h0Z"/><path class="cls-32" d="m323.69,341.61c6.77-.95,15.55,1.26,18.53,6.38,10.34,17.8-6.53,38.68-19.93,33.24-10.13-4.11-14.41-13.54-11.11-24.07,1.73-5.53,5.48-14.56,12.52-15.55Z"/><path class="cls-32" d="m272.94,326.72c6.77-.95,15.55,1.26,18.53,6.38,10.34,17.8-6.53,38.68-19.93,33.24-10.13-4.11-14.41-13.54-11.11-24.07,1.73-5.53,5.48-14.56,12.52-15.55Z"/><path class="cls-34" d="m273.94,336.15c-1.71.23-3.58,1.72-3.67,3.7-.1,2.24,2.13,4.17,4.28,3.85,2.28-.33,4.05-3.13,3.42-5.25-.51-1.72-2.46-2.52-4.03-2.3Z"/><path class="cls-34" d="m276.4,347.94c2.43-1.23,5.71-.91,7.58,1.51,2.25,2.92,1.5,7.65-1.05,10-3.24,2.99-8.88,1.65-10.35-2.34-1.2-3.25.64-7.57,3.82-9.18Z"/><path class="cls-34" d="m327.44,363.17c2.43-1.23,5.71-.91,7.58,1.51,2.25,2.92,1.5,7.65-1.05,10-3.24,2.99-8.88,1.65-10.35-2.34-1.2-3.25.64-7.57,3.82-9.18Z"/><path class="cls-34" d="m324.4,351.18c-1.71.23-3.58,1.72-3.67,3.7-.1,2.24,2.13,4.17,4.28,3.85,2.28-.33,4.05-3.13,3.42-5.25-.51-1.72-2.46-2.52-4.03-2.3Z"/><path class="cls-8" d="m323.91,383.78c-4.03.9-4.5,3.76-4.5,6.77,0,3.25,4.02,5.59,7.27,5.11.25-.04,4.24-.7,5.18-4.36.61-2.36-.35-4.85-2-6.12-1.62-1.25-5.24-1.55-5.94-1.4Z"/><path class="cls-6" d="m268.23,367.54c-4.03.9-4.5,3.76-4.5,6.77,0,3.25,4.02,5.59,7.27,5.11.25-.04,4.24-.7,5.18-4.36.61-2.36-.35-4.85-2-6.12-1.62-1.25-5.24-1.55-5.94-1.4Z"/><path class="cls-32" d="m290.08,372.33c3.25-.31,9.73,2.02,13.64,3.7,1.44.62,2.21,2.79,2.1,4.53-.25,4.1-1.43,7.48-4.7,9.96-3.11,2.36-7.38,3.24-10.29,1.13-1.58-1.15-4.25-4.03-4.89-7.72-.47-2.72-.12-6.15.31-7.28.4-1.04,1.52-4.1,3.83-4.32Z"/><path class="cls-30" d="m287.35,387.29c-3.89-7.45-.33-7.04,3.7-6.27,6.99,1.33,6.84,4.96,6.87,5.36.14,1.95.15,4.72-1.27,5.89-2.6,2.14-7.34-1.22-9.3-4.97Z"/><path class="cls-32" d="m347.63,346.26l-9.95,7.47c-.76.57-1.78.37-2.27-.45h0c-.5-.82-.28-1.94.48-2.51l9.95-7.47c.76-.57,1.78-.37,2.27.45h0c.5.82.28,1.94-.48,2.51Z"/><path class="cls-32" d="m351.62,350.03l-10.47,6.52c-.8.5-1.8.2-2.23-.66h0c-.43-.86-.13-1.97.67-2.46l10.47-6.52c.8-.5,1.8-.2,2.23.66h0c.43.86.13,1.97-.67,2.46Z"/><path class="cls-32" d="m353.46,355.07l-10.95,5.44c-.84.42-1.8.02-2.15-.89h0c-.35-.91.04-1.98.87-2.39l10.95-5.44c.84-.42,1.8-.02,2.15.89h0c.35.91-.04,1.98-.87,2.39Z"/><path class="cls-32" d="m265.5,337.45l-6.88-10.42c-.53-.79-.35-1.93.39-2.53h0c.74-.6,1.77-.44,2.29.35l6.88,10.42c.53.79.35,1.93-.39,2.53h0c-.74.6-1.77.44-2.29-.35Z"/><path class="cls-32" d="m268.9,335.49l-6.02-11.06c-.46-.84-.2-1.96.59-2.49h0c.78-.53,1.79-.27,2.25.57l6.02,11.06c.46.84.2,1.96-.59,2.49h0c-.78.53-1.79.27-2.25-.57Z"/><path class="cls-32" d="m272.46,334.4l-4.63-11.86c-.35-.91.04-1.98.87-2.39h0c.84-.42,1.8-.02,2.15.89l4.63,11.86c.35.91-.04,1.98-.87,2.39h0c-.84.42-1.8.02-2.15-.89Z"/><path class="cls-41" d="m336.3,405.06c-2.57,4.55-4.81,9.66-3.34,14.96.51,1.86,3.41,1.07,2.89-.8-1.24-4.48.88-8.83,3.04-12.65.95-1.68-1.64-3.2-2.59-1.51h0Z"/><path class="cls-41" d="m332.91,419.99c.89,4.15,4.53,7.09,8.23,8.75.71.32,1.65.23,2.05-.54.35-.66.23-1.71-.54-2.05-.85-.38-1.68-.82-2.47-1.32-.19-.12-.38-.25-.56-.37-.09-.06-.18-.13-.27-.2,0,0-.31-.23-.17-.12s-.14-.11-.16-.13c-.1-.08-.2-.17-.31-.26-.17-.14-.33-.29-.49-.45-.32-.31-.62-.65-.91-.99-.18-.21.05.07-.05-.06-.06-.09-.13-.18-.19-.27-.13-.18-.25-.36-.36-.55s-.22-.37-.32-.57c-.06-.11-.11-.23-.17-.35-.12-.26.03.11-.03-.05-.15-.42-.29-.83-.38-1.27-.17-.77-1.1-1.29-1.85-1.05-.81.26-1.22,1.02-1.05,1.85h0Z"/><path class="cls-41" d="m315.04,385.7c1.93,0,1.93-3,0-3s-1.93,3,0,3h0Z"/><path class="cls-36" d="m303.37,303.97l.82-3.64c.23-1.02.41-2.08.9-3.02s1.15-1.79,1.76-2.66c.69-.98,1.38-1.97,2.07-2.95.35-.5.09-1.25-.4-1.54-.56-.33-1.19-.1-1.54.4-.69.98-1.38,1.97-2.07,2.95-.65.93-1.37,1.84-1.86,2.86s-.77,2.21-1.02,3.36l-.82,3.64c-.32,1.41,1.85,2.01,2.17.6h0Z"/><path class="cls-36" d="m296.94,274.79c-.29,2.66-.32,5.79,1.91,7.7,2.08,1.79,5.16,2.21,7.81,2.33.78.03,1.54-.71,1.5-1.5-.04-.84-.66-1.46-1.5-1.5-.32-.01-.65-.03-.97-.06-.13-.01-.27-.03-.4-.04-.08,0-.16-.02-.24-.03.1.01.1.01,0,0-.58-.08-1.16-.2-1.74-.34-.24-.06-.48-.12-.72-.2-.13-.04-.26-.08-.39-.13-.06-.02-.43-.17-.15-.05-.21-.09-.41-.19-.61-.3-.12-.07-.23-.14-.34-.21-.34-.22.18.18-.12-.09-.08-.08-.17-.15-.25-.23-.03-.03-.29-.33-.2-.21.11.14-.1-.15-.12-.18-.07-.12-.14-.23-.2-.36-.02-.04-.16-.42-.07-.14-.04-.11-.08-.21-.11-.32-.08-.24-.13-.49-.18-.73-.09-.43.02.29-.02-.14-.02-.16-.03-.33-.04-.49-.01-.27-.01-.54,0-.82.02-.65.09-1.3.16-1.95.08-.78-.75-1.53-1.5-1.5-.88.04-1.41.66-1.5,1.5h0Z"/><path class="cls-36" d="m330.59,275.89c4.95-1.4,10.17-1.59,15.21-.55,1.88.39,2.69-2.5.8-2.89-5.57-1.15-11.32-1-16.8.55-1.86.52-1.07,3.42.8,2.89h0Z"/><path class="cls-36" d="m317.64,272.32c-2.71,2.26-3.68,6.22-1.91,9.35.39.68,1.38.97,2.05.54s.95-1.32.54-2.05c-.08-.15-.16-.29-.23-.44.16.32-.05-.15-.07-.22-.05-.16-.09-.32-.13-.48-.02-.08-.16-.58-.05-.22-.09-.29-.04-.7-.02-.99,0-.08.01-.17.02-.25-.03.19-.03.2,0,.03.03-.16.06-.32.11-.48s.09-.31.14-.46c.03-.07.05-.15.08-.22-.07.17-.08.18,0,.03.15-.28.29-.56.47-.83.04-.06.36-.46.12-.18.1-.12.2-.24.31-.36.22-.23.45-.45.69-.65.61-.5.56-1.61,0-2.12-.64-.59-1.48-.54-2.12,0h0Z"/><path class="cls-41" d="m282.05,171.5c-2.83,1.92-5.26,4.29-7.29,7.04-.47.63-.13,1.7.54,2.05.78.41,1.55.14,2.05-.54.12-.16.23-.31.35-.47-.12.16-.08.11.02-.02.06-.08.12-.15.18-.23.24-.3.49-.6.75-.89.5-.57,1.02-1.11,1.57-1.64s1.11-1.03,1.7-1.5c.15-.12.29-.26.45-.36-.1.06-.16.12-.03.02.09-.07.19-.14.28-.21.31-.23.63-.45.95-.67.65-.44,1-1.34.54-2.05-.42-.64-1.36-1.01-2.05-.54h0Z"/><path class="cls-36" d="m281.51,172.4c-2.7,2.1-5.26,4.39-7.66,6.84-.55.56-.6,1.57,0,2.12s1.54.6,2.12,0c2.39-2.45,4.95-4.73,7.66-6.84.62-.48.55-1.62,0-2.12-.66-.61-1.46-.52-2.12,0h0Z"/><path class="cls-36" d="m273.56,179.68c-1.41,1.86-2.66,3.78-3.54,5.96-.14.34-.02.86.15,1.16s.54.61.9.69c.38.09.81.07,1.16-.15s.54-.51.69-.9c.02-.06.05-.12.08-.18-.02.08-.11.26-.03.08.05-.12.11-.24.16-.36.11-.24.23-.48.35-.71.25-.48.53-.96.82-1.42.57-.91,1.21-1.79,1.86-2.64.22-.29.24-.82.15-1.16-.1-.35-.36-.73-.69-.9-.35-.18-.77-.28-1.16-.15s-.65.36-.9.69h0Z"/><path class="cls-36" d="m270.22,185.28c-.57.85-.75,1.87-.82,2.87-.06.9-.05,1.8-.07,2.7-.02.78.7,1.54,1.5,1.5s1.48-.66,1.5-1.5c.02-1.07-.02-2.16.12-3.21l-.05.4c.05-.36.14-.71.27-1.05l-.15.36c.08-.19.18-.37.29-.54.44-.65.15-1.69-.54-2.05-.76-.4-1.58-.16-2.05.54h0Z"/><path class="cls-36" d="m269.34,190.64c-.05,1.71.25,3.46.89,5.04.15.38.33.68.69.9.32.19.8.27,1.16.15s.71-.34.9-.69.3-.79.15-1.16c-.36-.9-.61-1.83-.74-2.78l.05.4c-.08-.62-.11-1.24-.09-1.86.02-.79-.71-1.54-1.5-1.5s-1.48.66-1.5,1.5h0Z"/><path class="cls-36" d="m396.03,230.73c-.58-.12-1.15-.29-1.71-.51-.06-.02-.12-.06-.18-.07.14.03.24.11.04.01-.14-.06-.27-.12-.41-.19-.27-.13-.53-.27-.79-.43-.24-.14-.48-.3-.71-.46-.12-.08-.24-.19-.36-.26.34.21-.03-.03-.13-.11-.47-.4-.91-.83-1.32-1.3-.51-.6-1.6-.57-2.12,0-.58.63-.55,1.49,0,2.12,1.77,2.05,4.25,3.52,6.89,4.09.77.16,1.66-.23,1.85-1.05.17-.75-.23-1.67-1.05-1.85h0Z"/><path class="cls-36" d="m390.3,227.4c-1.02-.84-1.97-1.76-2.83-2.76-.2-.24-.4-.48-.6-.72-.22-.27.13.18.01.01-.05-.07-.11-.14-.16-.21-.09-.13-.19-.25-.28-.38-.39-.55-.76-1.12-1.1-1.71-.4-.68-1.37-.98-2.05-.54s-.96,1.33-.54,2.05c1.42,2.41,3.25,4.6,5.42,6.38.32.26.64.44,1.06.44.37,0,.81-.16,1.06-.44.51-.55.65-1.59,0-2.12h0Z"/><path class="cls-36" d="m385.29,221.66c-1.8-2.86-3.13-5.7-4.14-8.84-.24-.75-1.05-1.3-1.85-1.05-.75.24-1.3,1.05-1.05,1.85,1.08,3.35,2.57,6.58,4.44,9.56.42.66,1.36.99,2.05.54s.99-1.34.54-2.05h0Z"/><path class="cls-36" d="m330.39,160.99c-.06,4.75.55,9.69,1.97,14.23.62,1.99,1.48,3.91,2.75,5.57,1.38,1.81,3.14,3.23,4.93,4.62,1.51,1.17,3.64-.94,2.12-2.12s-3.18-2.45-4.45-4-2.02-3.36-2.57-5.24c-1.25-4.21-1.81-8.67-1.75-13.06.02-1.93-2.98-1.93-3,0h0Z"/><path class="cls-2" d="m1682.1,183.61c-5.72,14.29-68.83,24.31-81.34,26.84-12.51,2.53-83.4,21.49-86.78,4.9-3.38-16.59,64.28-67.48,76.28-68.61,12-1.13,97.57,22.58,91.84,36.86Z"/><path class="cls-20" d="m1577.96,126.48c-.08-1.21.39-2.31,1.51-3.2s2.68-1.41,3.96-1.59c1.39-.2,2.9-.1,4,.52s1.63,1.81,1.93,3.1c.37,1.55.23,3.15-.24,4.67-.51,1.62-1.57,3-2.38,4.48-2.22,4.09-1.76,8.24-.71,12.6.91,3.75,6.69,2.16,5.79-1.6-.5-2.05-1.12-4.3-.56-6.4s2.04-3.68,2.89-5.57c1.96-4.38,2.05-10.01-.93-13.98-5.73-7.65-21.98-3.3-21.27,6.97.11,1.62,1.3,3,3,3,1.54,0,3.11-1.37,3-3h0Z"/><path class="cls-31" d="m1665.15,251.44c-.15-.77-.43-1.5-.78-2.17l-13.65-40.77c-2.17-6.11-1.03-8-7.05-6.71l-86.65,18.61c-6.02,1.29-4.09,3.34-4.65,10.04l3.94,43.55c.03.13.07.26.1.39.02.13.03.27.06.4l37.7,155.52c1.04,5.2-.52,5.04,5.5,3.75l27.36-5.88c6.02-1.29,3.62-5.71,2.51-11.23l-13.54-127.49,37.46,128.11c1.04,5.2-.52,5.04,5.52,3.75l27.44-5.89c6.04-1.3,3.63-5.71,2.53-11.23l-23.81-152.75Z"/><path class="cls-13" d="m1649.68,211.96c-30.96,6.94-63.32,13.86-94.44,20.44-1.05.22-2.13-.41-2.26-1.41-.32-2.56-.31-5.17-.67-7.73-.13-.97.85-1.92,1.76-2.11,27.19-5.59,67.23-13.18,92.88-20.02.89-.24,2.13.31,2.34,1.3.51,2.41,1.41,4.81,2,7.2.25,1.02-.53,2.1-1.6,2.34Z"/><path class="cls-25" d="m1565.74,265.56c2.5-1.7,4.43-3.92,6.27-6.3,1.98-2.56,4.01-5.13,5.52-8,2.99-5.67,3.33-12.07,3.48-18.35.05-1.93-2.95-1.93-3,0-.14,5.72-.34,11.66-3.07,16.84-1.36,2.57-3.14,4.89-4.9,7.19s-3.47,4.44-5.81,6.03c-1.59,1.08-.09,3.68,1.51,2.59h0Z"/><path class="cls-25" d="m1657.51,243.93c-2.75-.45-5.52-.77-8.24-1.38-3.13-.71-5.82-2.33-8.47-4.1-1.41-.94-2.92-1.98-3.88-3.41-.82-1.21-1.26-2.59-1.59-4-.72-3.12-.98-6.24-2.25-9.21-.76-1.77-3.34-.24-2.59,1.51,1.3,3.02,1.32,6.39,2.21,9.52,1.01,3.55,3.22,5.88,6.21,7.92,2.78,1.9,5.77,3.73,9.07,4.54,2.87.7,5.82,1.03,8.74,1.5,1.89.31,2.7-2.58.8-2.89h0Z"/><path class="cls-13" d="m1630.34,426.64c-6.14,3.14-25.97,6-34.61,8.05-.29.07-1-.88-1.16-1.68-.4-2.05-1.22-5.47-1.7-7.49-.18-.77-.1-1.8.3-1.89,12.05-2.77,23.7-4.03,35.61-7.57.41-.12.95.85,1.08,1.62.32,1.89,1.03,5.14,1,7.07-.01.82-.32,1.78-.53,1.89Z"/><path class="cls-13" d="m1689.16,413.77c-6.14,3.14-25.97,6-34.61,8.05-.29.07-1-.88-1.16-1.68-.4-2.05-1.22-5.47-1.7-7.49-.18-.77-.1-1.8.3-1.89,12.05-2.77,23.7-4.03,35.61-7.57.41-.12.95.85,1.08,1.62.32,1.89,1.03,5.14,1,7.07-.01.82-.32,1.78-.53,1.89Z"/><ellipse class="cls-24" cx="1590.84" cy="258.76" rx="15.72" ry="15.35" transform="translate(1127.7 1802.53) rotate(-82.54)"/><ellipse class="cls-16" cx="1583.52" cy="255.4" rx="3.27" ry="2.81" transform="translate(-13.49 404.77) rotate(-14.51)"/><ellipse class="cls-16" cx="1592.32" cy="263.79" rx="6.53" ry="5.63" transform="translate(-15.31 407.24) rotate(-14.51)"/><ellipse class="cls-24" cx="1627.49" cy="251.71" rx="15.72" ry="15.35" transform="translate(1166.56 1832.73) rotate(-82.54)"/><ellipse class="cls-16" cx="1632.93" cy="245.61" rx="3.27" ry="2.81" transform="translate(-9.47 416.83) rotate(-14.51)"/><ellipse class="cls-16" cx="1628.05" cy="256.94" rx="6.53" ry="5.63" transform="translate(-12.46 415.97) rotate(-14.51)"/><path class="cls-21" d="m1604.31,272.09c2.88-1.73,9.87-2.88,14.21-3.36,1.6-.18,3.25,1.18,3.9,2.59,1.54,3.34,1.92,6.53-.04,9.98-1.86,3.28-5.42,5.94-9.03,5.61-1.96-.18-5.67-1.21-7.86-3.81-1.61-1.92-2.77-4.77-2.86-5.86-.08-1-.37-3.92,1.68-5.15Z"/><path class="cls-30" d="m1607.61,284.94c-4.07-3.65.32-5.92,1.74-6.81,2.46-1.53,10.11-1.57,10.95-1.04,4.15,2.62,1.39,5.24-.6,7.48-3.65,4.11-10.04,2.21-12.09.37Z"/><path class="cls-20" d="m1578.34,216.9h0c-1.19.56-2.61-.03-3.15-1.33l-4.94-11.78c-.54-1.3-.01-2.82,1.18-3.38h0c1.19-.56,2.61.03,3.15,1.33l4.94,11.78c.54,1.3.01,2.82-1.18,3.38Z"/><path class="cls-20" d="m1577.11,216.51h0c-1.28-.34-2.08-1.74-1.79-3.11l2.63-12.48c.29-1.37,1.57-2.22,2.85-1.88h0c1.28.34,2.08,1.74,1.79,3.11l-2.63,12.48c-.29,1.37-1.57,2.22-2.85,1.88Z"/><path class="cls-20" d="m1628.43,206.14h0c-1.19.56-2.61-.03-3.15-1.33l-4.94-11.78c-.54-1.3-.01-2.82,1.18-3.38h0c1.19-.56,2.61.03,3.15,1.33l4.94,11.78c.54,1.3.01,2.82-1.18,3.38Z"/><path class="cls-20" d="m1627.2,205.76h0c-1.28-.34-2.08-1.74-1.79-3.11l2.63-12.48c.29-1.37,1.57-2.22,2.85-1.88h0c1.28.34,2.08,1.74,1.79,3.11l-2.63,12.48c-.29,1.37-1.57,2.22-2.85,1.88Z"/><path class="cls-2" d="m578.32,262.58c-8.01,12.06-50.09.24-58.6-1.57-8.51-1.81-58.19-7.52-55.09-24.96,3.11-17.45,60.79-44.17,68.55-41.17,7.76,3.01,53.14,55.63,45.14,67.7Z"/><path class="cls-20" d="m529.9,170.85c.87-2.77,5.12-2.75,7.75-1.89,1.21.39,2.55,1.19,3.21,2.09.98,1.35.87,3.15.5,4.61s-1.09,2.89-2.15,4.03c-1.28,1.37-2.89,2.33-4.3,3.54-3.27,2.8-4.28,6.82-4.85,10.91-.22,1.6.39,3.22,2.1,3.69,1.4.39,3.46-.48,3.69-2.1.25-1.79.48-3.67,1.15-5.37.54-1.38,1.48-2.38,2.63-3.28,1.46-1.15,3.01-2.16,4.22-3.58,1.31-1.54,2.29-3.23,2.97-5.15,1.37-3.86,1.05-8.32-1.66-11.5-2.45-2.87-6.44-4.23-10.11-4.41-4.71-.24-9.45,2.14-10.92,6.81-1.16,3.69,4.63,5.27,5.79,1.6h0Z"/><path class="cls-38" d="m612.28,355.81l-39.33-132.33c-.05-.16-.11-.31-.17-.47-.71-3.01-3.28-5.55-6.66-6.2l-7.15-1.38c-1.31-.25-2.56.56-2.75,1.82-.04.28-.09.57-.14.85-3.26,18.04-18.19,30.28-33.35,27.35-15.16-2.93-24.8-19.93-21.54-37.97.05-.29.11-.57.16-.85.25-1.24-.63-2.47-1.93-2.72l-7.89-1.53c-.1-.02-.21-.05-.31-.08-3.29-1.14-7.06-.26-9.23,2.43l-86.07,106.43c-2.7,3.34-1.94,8.26,1.71,10.94l9.7,7.12c3.64,2.67,8.83,2.12,11.54-1.22l45.85-56.7c1.51-1.86,4.67-.46,4.24,1.89l-15.12,83.59c-.76,4.19,2.28,8.33,6.75,9.19l75.89,14.68c4.47.86,8.75-1.86,9.51-6.05l14.29-79.05c.43-2.38,3.94-2.47,4.64-.11l19.85,66.79c1.24,4.16,5.82,6.72,10.18,5.71l11.63-2.71c4.36-1.02,6.92-5.25,5.69-9.41Z"/><ellipse class="cls-32" cx="490.45" cy="328.9" rx="14.05" ry="14.22" transform="translate(-98.93 365.63) rotate(-37.41)"/><path class="cls-32" d="m537.22,343.64c.07.33,0,.37-.05.15-1.41.63-1.98.63-2.54-1.32-3.95-13.78-9.8-15.81-18.97-4.39-1.3,1.62-1.91,1.22-3,.04-.17.28-.12.19,0,0-1.09-1.18-1.66-1.24-.07-3.08,11.23-12.98,21.02-10.42,25.81,6.16.68,2.35.24,1.82-1.17,2.44Z"/><ellipse class="cls-15" cx="492.51" cy="332.99" rx="5.17" ry="5.27" transform="translate(-43.09 74.95) rotate(-8.34)"/><ellipse class="cls-15" cx="486.75" cy="322.17" rx="3.61" ry="3.8" transform="translate(32.61 688.87) rotate(-72.42)"/><path class="cls-32" d="m544.26,335.21l-6.91,4.23c-.53.32-1.3-.06-1.73-.84h0c-.43-.79-.35-1.69.17-2.01l6.91-4.23c.53-.32,1.3.06,1.73.84h0c.43.79.35,1.69-.17,2.01Z"/><path class="cls-32" d="m476.84,325.55l-7.5-8.96c-.57-.68-.42-1.62.34-2.09h0c.76-.47,1.84-.3,2.41.38l7.5,8.96c.57.68.42,1.62-.34,2.09h0c-.76.47-1.84.3-2.41-.38Z"/><path class="cls-32" d="m547.47,338.44l-9.96,5.82c-.76.44-1.72.16-2.14-.63h0c-.42-.79-.14-1.8.62-2.24l9.96-5.82c.76-.44,1.72-.16,2.14.63h0c.42.79.14,1.8-.62,2.24Z"/><path class="cls-32" d="m478.57,320.68l-5.22-6.91c-.4-.53-.08-1.3.7-1.73h0c.79-.43,1.75-.35,2.15.18l5.22,6.91c.4.53.08,1.3-.7,1.73h0c-.79.43-1.75.35-2.15-.18Z"/><path class="cls-32" d="m481.89,318.04l-3.94-6.18c-.3-.47.12-1.15.95-1.51h0c.82-.36,1.74-.27,2.04.2l3.94,6.18c.3.47-.12,1.15-.95,1.51h0c-.82.36-1.74.27-2.04-.2Z"/><path class="cls-32" d="m540.42,332.87l-5.62,3.55c-.43.27-1.13-.15-1.57-.93h0c-.44-.79-.44-1.64-.01-1.92l5.62-3.55c.43-.27,1.13.15,1.57.93h0c.44.79.44,1.64.01,1.92Z"/><path class="cls-32" d="m498.51,344.11c3.08-.54,9.47,1.05,13.35,2.27,1.43.45,2.36,2.36,2.41,3.95.13,3.75-.68,6.91-3.58,9.43-2.76,2.39-6.75,3.54-9.72,1.85-1.61-.92-4.42-3.32-5.37-6.62-.7-2.43-.68-5.58-.36-6.64.29-.98,1.08-3.85,3.27-4.23Z"/><path class="cls-30" d="m497.26,357.92c-4.39-6.45-.96-6.37,2.96-5.99,6.79.65,6.98,3.96,7.04,4.32.31,1.76.58,4.28-.67,5.45-2.29,2.15-7.12-.52-9.33-3.77Z"/><path class="cls-33" d="m461.72,337.13c-.71,4.13-1.43,8.26-2.14,12.39-.14.8.21,1.62,1.05,1.85.72.2,1.71-.24,1.85-1.05.71-4.13,1.43-8.26,2.14-12.39.14-.8-.21-1.62-1.05-1.85-.72-.2-1.71.24-1.85,1.05h0Z"/><path class="cls-33" d="m459.62,349.42l-.83,4.34c-.08.4-.06.79.15,1.16.18.31.54.61.9.69.74.17,1.69-.22,1.85-1.05l.83-4.34c.08-.4.06-.79-.15-1.16-.18-.31-.54-.61-.9-.69-.74-.17-1.69.22-1.85,1.05h0Z"/><path class="cls-33" d="m458.78,353.76c-.19,1.04-.38,2.09-.57,3.13-.07.4-.06.79.15,1.16.18.31.54.61.9.69.38.09.81.07,1.16-.15.31-.2.62-.52.69-.9.19-1.04.38-2.09.57-3.13.07-.4.06-.79-.15-1.16-.18-.31-.54-.61-.9-.69-.38-.09-.81-.07-1.16.15-.31.2-.62.52-.69.9h0Z"/><path class="cls-33" d="m458.22,356.89c-.18.69-.07,1.35.05,2.04.09.53.26,1.08.58,1.52s.66.79,1.06,1.13c.51.43,1.01.82,1.65,1.01.75.22,1.67-.27,1.85-1.05s-.24-1.61-1.05-1.85c-.06-.02-.12-.04-.19-.06l.36.15c-.18-.08-.34-.19-.5-.31l.3.23c-.38-.3-.77-.62-1.08-1l.23.3c-.12-.15-.22-.32-.29-.49l.15.36c-.15-.37-.2-.77-.26-1.16l.05.4c-.03-.21-.04-.42-.02-.63l-.05.4c.01-.07.02-.13.04-.2.1-.38.05-.82-.15-1.16-.18-.31-.54-.61-.9-.69-.78-.18-1.63.24-1.85,1.05h0Z"/><path class="cls-33" d="m461.54,362.53c1.73.53,3.5.94,5.29,1.22.41.06.78.07,1.16-.15.31-.18.61-.54.69-.9.09-.38.07-.81-.15-1.16-.2-.31-.52-.63-.9-.69-1.79-.28-3.56-.69-5.29-1.22-.75-.23-1.67.27-1.85,1.05-.19.81.24,1.6,1.05,1.85h0Z"/><path class="cls-33" d="m466.91,363.81l4.34.84c.4.08.79.06,1.16-.15.31-.18.61-.54.69-.9.17-.74-.22-1.69-1.05-1.85l-4.34-.84c-.4-.08-.79-.06-1.16.15-.31.18-.61.54-.69.9-.17.74.22,1.69,1.05,1.85h0Z"/><path class="cls-33" d="m471.26,364.63c1.17.23,2.34.48,3.5.75.39.09.81.05,1.16-.15.31-.18.61-.54.69-.9.09-.38.07-.81-.15-1.16-.21-.32-.51-.6-.9-.69-1.16-.27-2.33-.51-3.5-.75-.4-.08-.8-.06-1.16.15-.31.18-.61.54-.69.9-.09.38-.07.81.15,1.16.2.32.52.61.9.69h0Z"/><path class="cls-33" d="m464.56,351.82c-.46,1.73-.99,4.22.34,5.71,1.17,1.31,3.21,1.47,4.82,1.8,4.16.87,8.32,1.73,12.48,2.6,1.88.39,2.69-2.5.8-2.89-3.5-.73-7.01-1.46-10.51-2.19-1.57-.33-3.32-.49-4.83-1.05-.46-.17-.56-.22-.56-.71,0-.85.14-1.67.36-2.48.49-1.87-2.4-2.67-2.89-.8h0Z"/><path class="cls-33" d="m403.75,317.17c-.72-.38-1.08-1.12-.95-1.84.1-.52.54-1.1.88-1.56.45-.61.92-1.2,1.39-1.79,1.97-2.46,4.06-4.81,6.14-7.17.54-.61.6-1.52,0-2.12-.55-.55-1.58-.61-2.12,0-2.55,2.87-5.08,5.75-7.42,8.8-1.01,1.31-2.03,2.73-1.87,4.48.15,1.58,1,3.04,2.43,3.79,1.71.89,3.23-1.7,1.51-2.59h0Z"/><path class="cls-33" d="m495.89,206.21c-1.78-.24-3.55-.42-5.35-.49-.84-.03-1.71-.06-2.53.17s-1.51.68-2.16,1.2c-2.51,1.99-4.58,4.54-6.65,6.96-.53.62-.6,1.52,0,2.12.54.54,1.59.62,2.12,0,1.86-2.19,3.74-4.38,5.88-6.3.41-.37.85-.79,1.38-1.01.57-.23,1.23-.16,1.82-.14,1.57.05,3.14.17,4.7.39.8.11,1.61-.19,1.85-1.05.19-.7-.24-1.73-1.05-1.85h0Z"/><path class="cls-33" d="m479.13,214.15c-2.11,2.08-4.1,4.27-5.98,6.56-.5.61-.64,1.54,0,2.12.55.51,1.59.65,2.12,0,1.88-2.29,3.88-4.48,5.98-6.56.56-.55.59-1.58,0-2.12s-1.52-.59-2.12,0h0Z"/><path class="cls-33" d="m558.51,218.53c-1.19,4.34-2.65,8.6-4.39,12.76-.31.75.34,1.65,1.05,1.85.86.24,1.53-.3,1.85-1.05,1.73-4.15,3.2-8.41,4.39-12.76.51-1.86-2.38-2.66-2.89-.8h0Z"/><path class="cls-33" d="m554.1,231.28c-.07.33-.18.64-.29.95.04-.12.07-.16,0-.01-.04.08-.07.15-.11.23-.07.15-.15.3-.23.44-.34.61-.74,1.17-1.16,1.73-.22.3-.44.59-.67.89-.02.02-.18.24-.1.12s-.08.1-.1.12c-.11.15-.23.29-.35.44-.48.6-.97,1.19-1.47,1.77s-.63,1.54,0,2.12c.56.51,1.58.64,2.12,0,1.09-1.28,2.14-2.6,3.14-3.95.91-1.23,1.75-2.55,2.09-4.06.17-.76-.23-1.66-1.05-1.85-.76-.17-1.66.23-1.85,1.05h0Z"/><path class="cls-33" d="m549.46,238.1c-.9,1.33-2.34,2.55-3.73,3.47-1.74,1.16-3.6,2.13-5.36,3.26-.68.44-.96,1.33-.54,2.05.4.68,1.37.98,2.05.54,3.62-2.32,7.69-4.12,10.17-7.81.44-.65.15-1.69-.54-2.05-.76-.4-1.58-.16-2.05.54h0Z"/><path class="cls-33" d="m565.43,289.4c-1.68-.65-3.57-.53-5.2.21-1.85.84-2.89,2.52-3.6,4.34-1.57,4.02-2.38,8.32-3.23,12.54-.16.79.23,1.62,1.05,1.85.74.2,1.68-.25,1.85-1.05.74-3.66,1.48-7.33,2.65-10.88.44-1.33.88-3,2.11-3.83,1.08-.73,2.4-.74,3.59-.28.76.29,1.65-.32,1.85-1.05.23-.85-.29-1.55-1.05-1.85h0Z"/><path class="cls-33" d="m483.76,367.02c4.2.52,8.37,1.34,12.47,2.41,1.87.49,2.67-2.41.8-2.89-4.36-1.13-8.79-1.96-13.27-2.52-.81-.1-1.5.76-1.5,1.5,0,.89.69,1.4,1.5,1.5h0Z"/><path class="cls-2" d="m1042.1,287.4c-7.32,13.02-61.85,8.88-72.75,8.61-10.91-.27-73.52,2.79-73.4-14.58.12-17.37,65.7-53.13,75.93-51.57,10.23,1.56,77.55,44.52,70.23,57.55Z"/><path class="cls-20" d="m964.44,206.97c.31-2.45,4.06-3.27,6.1-2.89,1.18.22,2.4.74,3.01,1.5,1.01,1.25,1.07,3.19.91,4.71-.37,3.55-2.79,5.65-4.75,8.39-2.35,3.28-2.49,7.36-2.39,11.24s6.1,3.87,6,0c-.08-3.17-.13-6.16,1.97-8.72,1.15-1.4,2.39-2.73,3.25-4.33s1.47-3.36,1.74-5.17c.57-3.82,0-8.29-3.12-10.93-2.88-2.44-6.66-3.14-10.32-2.53-4.56.75-7.83,4.22-8.41,8.74-.2,1.61,1.53,3,3,3,1.79,0,2.79-1.39,3-3h0Z"/><path class="cls-28" d="m1058.39,278.76l-38.88-30.99c-1.82-1.45-7.65-2.08-9.82-1.88-.39.04-.79.07-1.18.07h.03c-2.66-.03-4.91,1.83-5.44,4.4-3.72,17.93-17.91,31.1-34.64,30.92-16.57-.18-30.32-13.45-33.9-31.15-.59-2.91-3.18-5.01-6.19-5.05l-4.47-.05c-2.56-.03-4.87,1.06-6.47,2.8-.06.04-.12.08-.17.13l-38.53,31.32c-3.66,2.97-4.18,8.35-1.15,11.96l16.92,20.19c3.02,3.61,8.49,4.12,12.14,1.15l8.02-6.52-.98,98.18c-.05,4.67,3.8,8.54,8.54,8.59l89.11.98c4.74.05,8.66-3.73,8.71-8.4l1.01-100.92,9.81,7.82c3.69,2.94,9.15,2.38,12.13-1.26l16.69-20.34c2.98-3.63,2.4-9.01-1.29-11.95Z"/><ellipse class="cls-18" cx="986.6" cy="371.4" rx="20.53" ry="14.01" transform="translate(606.15 1354.55) rotate(-89.47)"/><ellipse class="cls-39" cx="993.84" cy="366.17" rx="3.54" ry="3.59" transform="translate(585.77 1343.56) rotate(-87.56)"/><ellipse class="cls-39" cx="985.34" cy="378.57" rx="8.14" ry="8.27" transform="translate(-7.38 19.8) rotate(-1.15)"/><ellipse class="cls-18" cx="950.91" cy="372.02" rx="20.53" ry="14.01" transform="translate(570.17 1319.48) rotate(-89.47)"/><ellipse class="cls-39" cx="943.78" cy="366.64" rx="3.54" ry="3.59" transform="translate(537.37 1293.98) rotate(-87.56)"/><ellipse class="cls-39" cx="952.03" cy="379.22" rx="8.14" ry="8.27" transform="translate(-7.4 19.13) rotate(-1.15)"/><ellipse class="cls-23" cx="969.79" cy="399.54" rx="7.43" ry="6.47" transform="translate(563.43 1366.5) rotate(-89.6)"/><path class="cls-26" d="m917.71,387.32v8.38c-.02,2.65-.29,5.49.31,8.1.5,2.13,1.82,3.98,3.89,4.8,2.45.97,5.09.41,7.64.45,1.45.02,1.45-2.23,0-2.25-2.16-.03-4.47.5-6.57-.2s-2.89-2.94-3.01-5.04c-.27-4.71-.02-9.51-.01-14.23,0-1.45-2.25-1.45-2.25,0h0Z"/><path class="cls-26" d="m892.44,275.38l-4.95,4.43c-1.38,1.23-3.14,2.46-3.83,4.24s-.01,3.71.92,5.28c1.05,1.78,2.37,3.44,3.74,4.98.97,1.08,2.55-.51,1.59-1.59-1.16-1.3-2.23-2.67-3.16-4.14-.82-1.3-1.67-2.93-.65-4.36.94-1.3,2.42-2.33,3.61-3.39l4.31-3.86c1.08-.97-.51-2.55-1.59-1.59h0Z"/><path class="cls-26" d="m1016.83,251.64c-1.45-.05-2.89-.06-4.34-.02s-2.82-.03-3.63,1.29c-.34.55-.57,1.18-.84,1.76-.32.68-.64,1.36-.95,2.04-.65,1.39-1.3,2.78-1.95,4.18-.26.55-.15,1.21.4,1.54.49.29,1.28.15,1.54-.4,1.15-2.46,2.3-4.92,3.45-7.38.09-.2.22-.4.29-.6.03-.09.22-.15-.01-.05.02,0,.14-.05.16-.05.62-.04,1.24-.06,1.86-.08,1.34-.03,2.69-.02,4.03.03,1.45.05,1.45-2.2,0-2.25h0Z"/><path class="cls-26" d="m1005.26,260.74c-2.29,3.61-3.61,7.86-6.52,11.06-.97,1.07.62,2.67,1.59,1.59,3.05-3.37,4.46-7.73,6.87-11.52.78-1.23-1.17-2.36-1.94-1.14h0Z"/><path class="cls-26" d="m919.94,387.34c.06-.58.13-1.15.13-1.73s-.05-1.17-.12-1.75c-.04-.31-.1-.57-.33-.8-.2-.2-.52-.34-.8-.33s-.59.11-.8.33c-.19.2-.36.51-.33.8.07.58.12,1.16.12,1.75s-.07,1.16-.13,1.73c-.03.27.15.61.33.8.2.2.52.34.8.33s.59-.11.8-.33c.21-.23.3-.48.33-.8h0Z"/><path class="cls-26" d="m888.22,294.2c.29.33.56.67.83,1.02.1.12-.12-.16-.03-.04.03.04.06.08.1.13.06.08.13.17.19.26.13.18.27.37.4.55.5.72.97,1.46,1.4,2.22.29.51,1.03.73,1.54.4s.71-.99.4-1.54c-.92-1.63-2.02-3.17-3.24-4.59-.38-.45-1.2-.42-1.59,0-.44.48-.41,1.11,0,1.59h0Z"/><path class="cls-10" d="m993.35,393.3c-3.66,1.93-3.4,4.76-2.64,7.61.82,3.08,5.29,4.2,8.31,2.87.23-.1,3.92-1.81,3.9-5.51,0-2.4-1.56-4.49-3.47-5.25-1.88-.74-5.45-.06-6.09.28Z"/><path class="cls-9" d="m937.34,393.93c-3.66,1.93-3.4,4.76-2.64,7.61.82,3.08,5.29,4.2,8.31,2.87.23-.1,3.92-1.81,3.9-5.51,0-2.4-1.56-4.49-3.47-5.25-1.88-.74-5.45-.06-6.09.28Z"/><path class="cls-2" d="m1233.28,266.76c-5.03,14.17-51.91,15.55-61.24,16.4-9.32.85-62.43,10.49-63.95-7.42-1.52-17.91,51.08-61.53,59.95-60.98,8.87.55,70.26,37.83,65.23,52Z"/><path class="cls-20" d="m1161.01,191.28c.01-1.21.37-2.43,1.24-3.17.42-.36.84-.54,1.3-.68s.18-.08.6-.11c0,0,.98.03.53-.03,1.12.14,1.86.61,2.41,1.74.69,1.42.83,3.12.82,4.67s-.28,3.22-.86,4.75-1.45,2.86-2.07,4.34c-1.52,3.61-1.29,7.45-.87,11.26.18,1.61,1.25,3,3,3,1.48,0,3.18-1.38,3-3-.24-2.21-.58-4.56-.25-6.77.29-1.91,1.29-3.46,2.1-5.17,2.02-4.27,2.64-9.46,1.17-14.02s-5.34-7.33-10.07-6.66-8.02,5.03-8.06,9.84c-.04,3.86,5.96,3.87,6,0h0Z"/><path class="cls-41" d="m1233.34,253.82c-8.87-8.98-19.46-18.12-28.39-26.91-2.38-2.34-3.52-2.38-6.12-3.03-.44-.11-.69,0-1.12-.21-2.62-1.34-12.3-1.36-13.22.96-2.45,6.14-2.92,16.03-6.8,23.89-.66,1.34-.06,1.1-2.9,4.3-2.12,2.38-4.54,3.33-6.08,3.82-2.21-.44-5.55-1.46-8.69-4.21-9.45-7.64-6.41-20.4-13.51-23.58-4.1-1.84-9.35.49-12.26,1.59-2.32.88-3.98,2.11-5.91,3.59-.31.23-.58.53-.87.76-1.37,1.11-2.48,2.1-3.55,3.63-8.22,11.67-15.44,24.62-21.46,37.8-3.66,8.01-2.53,13.99,1.02,21.13,2.64,5.31,6.61,7.28,11.02,7.61,5.92.45,7.86-1.46,12.78-4.96.93-.66,3.21-4.68,3.96-6.16,1.82,26.36,4.53,53.43,7.48,79.51.68,6.01,2.84,7.83,7.79,7.33,21.02-2.16,42.57-4.97,63.41-8.83,4.91-.91,6.62-3.51,6.12-9.37-2.28-26.46-4.64-53.47-6.69-80.09,1.37,1.17,2.37,2.91,3.9,3.91,6.56,4.3,10.93,3.04,18.23.38,4.28-1.56,8.14-7.41,8.26-12.78.19-9.17-.28-13.91-6.38-20.09Z"/><path class="cls-37" d="m1263.2,488.87s0-.02-.01-.03c0-.22.05-.46-.04-.66-.72-1.68-1.52-4.4-2.53-6.79-9.95-28.77-20.45-57.28-30.69-85.95-5.77-16.16-11.22-32.67-15.46-49.55-28.11,18.28-46.65,19.31-77.35,9.16-.44,28.08-1.8,56.26-5.54,83.88-2.73,20.19-6.66,39.75-10.66,59.41-.29,1.44-.29,2.84-.05,4.12,0,.36,0,.73.04,1.09.68,8.27,8.8,14.16,18.14,13.15,8.24-.89,14.68-6.85,15.62-13.92.21-.03.41-.06.62-.08,2.06,6.75,9.36,11.24,17.6,10.35,9.22-1,19.66-7,19.29-15.11,0,0,.02,0,.03,0,0,.12,0,.25.02.37.68,8.27,12.04,11.35,21.39,10.34,8.58-.93,15.2-7.35,15.7-14.8.09,0,.17,0,.26,0,1.55,7.34,9.17,12.09,17.87,11.15,6.54-.71,12.78-3.56,15.2-8.67.98-2.21.81-4.3.54-7.44Z"/><path class="cls-35" d="m1188.24,343.77c-3.04,1.1-3.12,1.32-4.26,2.09-2.19,1.49-4.5,3.21-5.6,5.27-.43-.14-.87-.22-1.33-.22-.15,0-.31,0-.46.02l-1.32.14-.66.07c-.36.04-.7.13-1.03.27-1.4-1.24-3.29-2.21-5.1-3.05-1.22-.57-1.33-.78-4.48-1.35-5.94-1.08-15.85-6.86-13.37,3.48,1.97,8.23,2.32,12.96,4.78,18.65,3.09,7.15,6.15,5.1,11.21,3.78.8-.21,1.83-.76,2.84-1.43-2.17,8-3.51,16.18-1.51,24.18.35,1.4.82,2.04,1.73.83,1.32-1.77,2.47-1.89,3.93-.94,1,.65,1.49.72,1.37-.78-.27-3.48-1.42-6.73-1.31-10.33.08-2.65,1.53-6.15,2.55-10.15.88-3.45,2.04-6.56,3.19-9.72.89,1.89,1.77,3.81,2.56,5.91,1.27,3.36,2.77,6.19,3.18,8.52.55,3.17.16,6.24.42,9.36.12,1.34.45,1.2,1.09.45.92-1.09,1.76-1.19,2.94.15.81.91,1.07.26,1.13-1.03.33-6.45-1.18-12.58-3.29-18.47.58.19,1.12.33,1.58.37,5.17.44,8.46,1.96,10.6-5.64,1.7-6.05,1.43-10.78,2.32-19.26,1.12-10.65-7.94-3.25-13.68-1.18Z"/><path class="cls-41" d="m1124.4,489.03c-1.8,5.44-3.12,11.26-.74,16.74.32.74,1.41.91,2.05.54.77-.45.86-1.31.54-2.05-2.01-4.63-.46-9.91,1.04-14.43.61-1.84-2.29-2.62-2.89-.8h0Z"/><path class="cls-41" d="m1123.45,505.4c1.59,4.29,5.6,6.82,9.88,7.89.76.19,1.66-.25,1.85-1.05s-.23-1.64-1.05-1.85c-.47-.12-.94-.25-1.39-.4-.22-.07-.43-.15-.65-.23-.12-.04-.24-.09-.35-.14-.1-.04-.09-.04,0,0l-.14-.06c-.87-.39-1.69-.86-2.47-1.41-.08-.06-.16-.12-.04-.02-.09-.07-.18-.15-.27-.22-.16-.14-.32-.28-.48-.42-.32-.31-.62-.63-.91-.98-.1-.12.09.13-.07-.08-.07-.09-.14-.19-.2-.28-.12-.17-.23-.35-.33-.53-.12-.2-.22-.4-.32-.61-.04-.08-.08-.17-.12-.25.12.28-.05-.14-.05-.16-.27-.73-1.03-1.31-1.85-1.05-.72.23-1.34,1.06-1.05,1.85h0Z"/><path class="cls-41" d="m1156.1,485.99c-.99,5.91-1.6,12.09,1.03,17.68.34.73,1.4.92,2.05.54.75-.44.88-1.32.54-2.05-2.24-4.77-1.57-10.35-.73-15.37.13-.8-.21-1.61-1.05-1.85-.72-.2-1.71.24-1.85,1.05h0Z"/><path class="cls-41" d="m1156.92,503.3c.78,1.89,1.95,3.59,3.56,4.87,1.71,1.36,3.71,2.27,5.84,2.72.77.16,1.66-.22,1.85-1.05.17-.75-.23-1.67-1.05-1.85-.44-.09-.88-.2-1.31-.34-.21-.06-.41-.13-.61-.2-.11-.04-.22-.08-.34-.13-.08-.03-.3-.13-.11-.04-.42-.19-.83-.4-1.23-.63-.19-.11-.38-.23-.56-.35-.1-.07-.2-.14-.3-.21-.05-.03-.29-.23-.06-.04-.63-.51-1.19-1.08-1.71-1.71-.11-.13.11.16-.05-.07-.06-.09-.13-.18-.19-.27-.11-.17-.22-.34-.32-.51-.12-.19-.22-.39-.33-.6-.04-.08-.08-.16-.12-.25,0-.02-.19-.43-.07-.15-.3-.72-1.01-1.32-1.85-1.05-.7.23-1.37,1.07-1.05,1.85h0Z"/><path class="cls-41" d="m1193.04,484.22c-.64,5.29-.92,11.08,2.02,15.79,1.02,1.63,3.62.13,2.59-1.51-2.65-4.24-2.18-9.53-1.61-14.28.1-.81-.76-1.5-1.5-1.5-.89,0-1.4.69-1.5,1.5h0Z"/><path class="cls-41" d="m1195,500c2.04,3.69,6.08,5.39,10.13,5.62.78.05,1.53-.72,1.5-1.5-.04-.85-.66-1.45-1.5-1.5-.21-.01-.43-.03-.64-.05-.11-.01-.21-.02-.32-.03-.51-.06.13.02-.16-.02-.42-.07-.84-.15-1.25-.26-.44-.11-.86-.25-1.29-.41-.05-.02-.23-.09-.08-.03-.1-.04-.19-.09-.29-.13-.2-.09-.4-.2-.59-.3-.32-.18-.63-.38-.93-.59-.02-.02-.24-.18-.13-.09s-.1-.08-.12-.1c-.16-.13-.31-.27-.46-.42-.27-.26-.52-.53-.75-.83.13.17,0-.01-.06-.09s-.11-.15-.16-.23c-.12-.18-.22-.36-.33-.55-.38-.69-1.38-.97-2.05-.54s-.94,1.32-.54,2.05h0Z"/><path class="cls-32" d="m1199.96,421.63c5.52-3.65,13.8-4.96,18.02-1.04,14.67,13.62,6.92,41.19-6.39,41.12-10.06-.06-16.8-7.74-17.37-19.56-.3-6.21,0-16.72,5.74-20.51Z"/><path class="cls-32" d="m1151.43,427.07c5.52-3.65,13.8-4.96,18.02-1.04,14.67,13.62,6.92,41.19-6.39,41.12-10.06-.06-16.8-7.74-17.37-19.56-.3-6.21,0-16.72,5.74-20.51Z"/><path class="cls-34" d="m1155.35,436.07c-1.4.91-2.52,3.15-1.96,5.16.64,2.27,3.18,3.3,4.93,2.13,1.86-1.25,2.48-4.74,1.24-6.6-1-1.51-2.93-1.53-4.22-.69Z"/><path class="cls-34" d="m1161.28,446.85c1.7-2.2,4.62-3.19,7.02-1.52,2.88,2.01,3.77,7.04,2.34,10.4-1.82,4.28-7.12,5.19-9.67,1.81-2.09-2.77-1.9-7.81.32-10.69Z"/><path class="cls-34" d="m1210.18,441.64c1.7-2.2,4.62-3.19,7.02-1.52,2.88,2.01,3.77,7.04,2.34,10.4-1.82,4.28-7.12,5.19-9.67,1.81-2.09-2.77-1.9-7.81.32-10.69Z"/><path class="cls-34" d="m1203.68,430.9c-1.4.91-2.52,3.15-1.96,5.16.64,2.27,3.18,3.3,4.93,2.13,1.86-1.25,2.48-4.74,1.24-6.6-1-1.51-2.93-1.53-4.22-.69Z"/><path class="cls-4" d="m1213.83,463.61c-3.18,2.5-2.66,5.54-1.68,8.55,1.05,3.25,5.28,3.97,7.91,2.19.21-.14,3.42-2.4,3.05-6.42-.24-2.6-1.87-4.7-3.71-5.31-1.8-.59-5.01.54-5.57.98Z"/><path class="cls-3" d="m1160.61,469.67c-3.18,2.5-2.66,5.54-1.68,8.55,1.05,3.25,5.28,3.97,7.91,2.19.21-.14,3.42-2.4,3.05-6.42-.24-2.6-1.87-4.7-3.71-5.31-1.8-.59-5.01.54-5.57.98Z"/><path class="cls-32" d="m1180.98,465.71c2.7-1.6,9.03-1.88,12.95-1.77,1.44.04,2.81,1.91,3.28,3.68,1.11,4.19,1.2,8.03-.82,11.82-1.92,3.6-5.31,6.19-8.5,5.24-1.73-.52-4.97-2.32-6.72-5.74-1.29-2.52-2.1-6.08-2.09-7.38,0-1.2-.02-4.7,1.9-5.84Z"/><path class="cls-30" d="m1183.48,481.73c-5.77-5.87-2.57-6.89,1.15-7.73,6.45-1.46,7.5,2.22,7.65,2.6.75,1.89,1.66,4.65.82,6.38-1.55,3.17-6.72,1.71-9.62-1.24Z"/><path class="cls-32" d="m1222.09,416.7l-6.15,11.43c-.47.87-1.41,1.08-2.1.46h0c-.69-.62-.87-1.82-.4-2.7l6.15-11.43c.47-.87,1.41-1.08,2.1-.46h0c.69.62.87,1.82.4,2.7Z"/><path class="cls-32" d="m1226.75,418.87l-6.9,10.69c-.53.82-1.48.92-2.13.23h0c-.65-.69-.75-1.91-.22-2.72l6.9-10.69c.53-.82,1.48-.92,2.13-.23h0c.65.69.75,1.91.22,2.72Z"/><path class="cls-32" d="m1229.97,423.16l-7.67,9.8c-.59.75-1.54.74-2.14-.02h0c-.6-.76-.61-1.99-.02-2.73l7.67-9.8c.59-.75,1.54-.74,2.14.02h0c.6.76.61,1.99.02,2.73Z"/><path class="cls-32" d="m1148.5,440.75l-9.3-7.64c-.71-.58-.93-1.78-.48-2.68h0c.44-.89,1.38-1.15,2.09-.56l9.3,7.64c.71.58.93,1.78.48,2.68h0c-.44.89-1.38,1.15-2.09.56Z"/><path class="cls-32" d="m1150.8,437.43l-8.77-8.62c-.67-.66-.8-1.87-.3-2.71h0c.5-.84,1.45-.99,2.12-.33l8.77,8.62c.67.66.8,1.87.3,2.71h0c-.5.84-1.45.99-2.12.33Z"/><path class="cls-32" d="m1153.5,434.92l-7.84-9.98c-.6-.76-.61-1.99-.02-2.73h0c.59-.75,1.54-.74,2.14.02l7.84,9.98c.6.76.61,1.99.02,2.73h0c-.59.75-1.54.74-2.14-.02Z"/><path class="cls-41" d="m1231.26,480.12c-.7,5.29-1.05,11.1,1.94,15.8,1.03,1.63,3.63.12,2.59-1.51-2.69-4.24-2.15-9.55-1.53-14.29.11-.8-.77-1.5-1.5-1.5-.9,0-1.39.69-1.5,1.5h0Z"/><path class="cls-41" d="m1233.14,495.92c2.09,3.73,6.24,5.36,10.33,5.56.78.04,1.54-.72,1.5-1.5-.04-.85-.66-1.46-1.5-1.5-1.6-.08-3.34-.43-4.75-1.19-.33-.18-.65-.37-.95-.59-.08-.05-.15-.11-.23-.16-.19-.14.15.13-.03-.02-.16-.14-.32-.27-.47-.42-.27-.26-.52-.53-.76-.82.13.16,0-.01-.06-.09s-.11-.15-.16-.23c-.12-.18-.23-.36-.33-.55-.38-.68-1.38-.97-2.05-.54s-.95,1.32-.54,2.05h0Z"/><path class="cls-36" d="m1170.36,392.34l-.44-3.65c-.14-1.21-.34-2.43-.26-3.65.07-1.15.4-2.29.64-3.41.28-1.26.55-2.52.83-3.77.31-1.41-1.86-2.01-2.17-.6-.54,2.47-1.29,4.99-1.53,7.52-.11,1.22.06,2.43.21,3.63l.47,3.93c.07.6.47,1.12,1.12,1.12.55,0,1.2-.52,1.12-1.12h0Z"/><path class="cls-36" d="m1155.1,365.48c.55,2.48,1.32,5.42,3.72,6.75s5.57.49,7.97-.48c.75-.3,1.28-1,1.05-1.85-.2-.71-1.09-1.35-1.85-1.05-1.05.43-2.13.75-3.25.95-.36.06-.33.06-.6.08-.25.02-.5.03-.75.02-.33-.01-.75-.09-1.06-.27s-.53-.37-.77-.66c.07.09-.14-.2-.16-.23-.06-.09-.12-.18-.17-.27-.14-.23-.26-.47-.37-.71.06.13-.04-.11-.05-.12-.05-.14-.1-.28-.15-.42-.09-.26-.17-.52-.24-.78-.16-.58-.29-1.18-.43-1.77-.18-.79-1.09-1.25-1.85-1.05-.81.22-1.22,1.05-1.05,1.85h0Z"/><path class="cls-36" d="m1184.85,353.1c3.68-3.26,8.12-5.56,12.95-6.56.79-.16,1.25-1.1,1.05-1.85-.23-.82-1.05-1.21-1.85-1.05-5.33,1.1-10.21,3.73-14.27,7.33-.61.54-.55,1.57,0,2.12.6.6,1.51.54,2.12,0h0Z"/><path class="cls-36" d="m1172.25,354.82c-1.54,3.2-1.48,7.42,1.23,10,.57.54,1.56.61,2.12,0s.61-1.54,0-2.12c-.12-.12-.23-.24-.35-.36-.11-.13-.11-.13,0,0-.05-.07-.1-.14-.15-.21-.17-.25-.31-.52-.45-.79-.07-.16-.07-.16,0,0-.03-.08-.06-.17-.09-.25-.04-.13-.09-.26-.12-.38-.05-.17-.09-.35-.13-.53-.02-.09-.03-.18-.05-.27.02.15.02.17,0,.06-.03-.36-.05-.72-.04-1.08,0-.15.02-.29.03-.43.02-.18.02-.19,0-.03.01-.1.03-.19.05-.28.06-.33.14-.66.24-.98.06-.18.12-.36.19-.54.07-.16.07-.18.01-.03.04-.09.08-.17.12-.25.34-.71.22-1.65-.54-2.05-.67-.35-1.69-.22-2.05.54h0Z"/><path class="cls-41" d="m1108.72,268.82c-1.76,2.96-3.05,6.2-3.86,9.54-.18.76.24,1.66,1.05,1.85s1.65-.23,1.85-1.05c.78-3.22,1.88-6,3.56-8.83.4-.68.17-1.68-.54-2.05s-1.62-.18-2.05.54h0Z"/><path class="cls-36" d="m1108.73,269.58c-1.72,3.32-3.22,6.74-4.53,10.24-.27.74.31,1.68,1.05,1.85.85.19,1.55-.26,1.85-1.05,1.22-3.27,2.61-6.41,4.23-9.52.37-.72.19-1.63-.54-2.05-.67-.39-1.68-.18-2.05.54h0Z"/><path class="cls-36" d="m1104.2,279.98c-.61,2.4-1.1,4.85-1.15,7.33-.02.78.7,1.54,1.5,1.5s1.48-.66,1.5-1.5c.01-.58.05-1.15.1-1.73.01-.13.03-.26.04-.4.01-.09.02-.18.03-.26-.02.16-.02.18,0,.07.05-.28.09-.57.14-.85.2-1.13.46-2.25.74-3.37.19-.76-.25-1.66-1.05-1.85s-1.64.23-1.85,1.05h0Z"/><path class="cls-36" d="m1103.13,286.91c-.4,2.02.38,3.97.97,5.87.23.75,1.06,1.3,1.85,1.05s1.29-1.04,1.05-1.85c-.37-1.2-.83-2.41-1-3.66l.05.4c-.05-.38-.06-.76-.01-1.14l-.05.4c.01-.09.03-.19.05-.28.08-.4.06-.8-.15-1.16-.18-.31-.54-.61-.9-.69-.74-.17-1.68.22-1.85,1.05h0Z"/><path class="cls-36" d="m1104.04,292.56c.54,1.82,1.42,3.48,2.61,4.96.23.28.72.44,1.06.44.37,0,.81-.16,1.06-.44s.46-.66.44-1.06c-.02-.42-.18-.73-.44-1.06-.06-.07-.12-.15-.18-.23l.23.3c-.62-.82-1.14-1.71-1.54-2.66l.15.36c-.19-.46-.36-.93-.5-1.41-.22-.75-1.06-1.3-1.85-1.05s-1.29,1.04-1.05,1.85h0Z"/><path class="cls-36" d="m1226.03,282.27c-.13.03-.31.09-.44.08.22-.03.24-.03.07,0-.06,0-.11.01-.17.02-.28.03-.55.04-.83.04-.26,0-.52-.01-.78-.03-.11,0-.23-.01-.33-.04.42.1-.06-.02-.15-.03-.51-.1-1.02-.24-1.51-.42-.07-.03-.14-.05-.21-.08.18.08.2.09.05.02-.1-.05-.21-.09-.31-.14-.27-.13-.54-.28-.8-.44-.67-.41-1.68-.17-2.05.54s-.18,1.62.54,2.05c2.32,1.41,5.06,1.89,7.72,1.35.77-.15,1.28-1.11,1.05-1.85-.26-.82-1.02-1.21-1.85-1.05h0Z"/><path class="cls-36" d="m1220.12,281.12c-.14-.05-.27-.1-.4-.15-.07-.03-.13-.05-.2-.08-.33-.13.2.09,0,0-.26-.12-.53-.24-.79-.37-.56-.27-1.1-.58-1.63-.9s-1.02-.67-1.51-1.04c-.16-.12-.05,0,.04.03-.06-.02-.13-.1-.18-.14-.12-.09-.23-.19-.35-.28-.26-.22-.51-.44-.76-.67-.58-.53-1.56-.61-2.12,0-.53.58-.62,1.55,0,2.12,2.07,1.91,4.46,3.39,7.1,4.37.74.27,1.68-.31,1.85-1.05.19-.85-.26-1.55-1.05-1.85h0Z"/><path class="cls-36" d="m1214.31,277.58c-1.24-1.07-2.41-2.21-3.51-3.43-.55-.61-1.08-1.24-1.58-1.88-.06-.07-.11-.14-.16-.21-.26-.34.1.13-.05-.07-.12-.16-.24-.32-.36-.48-.27-.36-.53-.73-.78-1.09-.45-.64-1.34-1-2.05-.54-.64.41-1.02,1.36-.54,2.05,1.98,2.86,4.28,5.5,6.92,7.77.59.51,1.55.63,2.12,0,.52-.56.64-1.57,0-2.12h0Z"/><path class="cls-36" d="m1147.01,238.59c1.4,4.48,3.38,8.89,5.93,12.84,1.2,1.86,2.6,3.6,4.39,4.93s4.07,2.16,6.24,2.9c1.83.62,2.62-2.28.8-2.89s-3.8-1.28-5.4-2.5-2.77-2.85-3.8-4.52c-2.23-3.61-4.01-7.51-5.27-11.55-.57-1.84-3.47-1.05-2.89.8h0Z"/><path class="cls-2" d="m1475.14,250.22c-8.24,15.99-82.88,20.9-97.74,22.51-14.86,1.61-99.54,16.08-101.67-3.56s82.3-71.53,96.4-71.56c14.11-.04,111.24,36.62,103.01,52.61Z"/><path class="cls-20" d="m1359.52,172.44c.07-3.44,4.47-5.05,7.52-5.15,1.75-.06,3.54.18,4.94,1.2,1.18.85,1.82,2.6,2,4.16.21,1.8-.08,3.7-.77,5.38-.84,2.04-2.39,3.7-3.6,5.52-2.92,4.37-2.58,9.2-1.86,14.16.23,1.6,2.27,2.49,3.69,2.1,1.72-.47,2.33-2.08,2.1-3.69-.27-1.87-.55-3.84-.3-5.72s1.2-3.37,2.3-4.87c2.57-3.53,4.49-7.15,4.5-11.64s-1.7-8.8-5.64-10.95c-3.57-1.95-8.05-2.07-11.9-.93-4.76,1.42-8.87,5.22-8.98,10.44-.08,3.86,5.92,3.86,6,0h0Z"/><path class="cls-27" d="m1387.72,345.85c-6.12.39-14.67,1.98-21.17,2.6-1.17.11-1.84-.33-1.98-1.68-2.08-19.55-4.08-40.95-6.47-60-1.32-10.47-7.54-11.8-15.63-11.79-1.84,0-5.32.65-7.07,1.15-7.69,2.2-13.56,5.89-12.4,16.26,2.9,25.9,5.92,54.86,8.71,80.79,1.12,10.37,7.37,12.94,15.69,13.62,1.33.11,2.28-.56,5.06-.66,2.78-.1-3.94.17,3.39-.39,7.33-.56,25.66-3.62,35.68-4.12,9.83-.49,15.37-13.27,15.06-18.67-.27-4.71-.02-1.1-.02-1.1-2.06-10.66-8.46-16.68-18.86-16.01Z"/><ellipse class="cls-19" cx="1351.43" cy="332" rx="9.05" ry="15.19" transform="translate(-25.43 129.93) rotate(-5.45)"/><ellipse class="cls-17" cx="1353.78" cy="335.88" rx="3.75" ry="4.97" transform="translate(-23.2 113.46) rotate(-4.76)"/><ellipse class="cls-17" cx="1348.33" cy="328.47" rx="2.72" ry="3.87" transform="translate(-23.76 120.48) rotate(-5.07)"/><path class="cls-19" d="m1343.84,323.22l-3.66-2.68c-.28-.2-.33-.6-.11-.88h0c.22-.28.63-.35.91-.14l3.66,2.68c.28.2.33.6.11.88h0c-.22.28-.63.35-.91.14Z"/><path class="cls-19" d="m1345.37,321.02l-3.16-3.33c-.24-.25-.22-.65.04-.89h0c.26-.24.67-.22.92.03l3.16,3.33c.24.25.22.65-.04.89h0c-.26.24-.67.22-.92-.03Z"/><path class="cls-19" d="m1347.19,319.46l-3-3.5c-.23-.27-.19-.66.08-.89h0c.27-.22.68-.19.91.08l3,3.5c.23.27.19.66-.08.89h0c-.27.22-.68.19-.91-.08Z"/><path class="cls-5" d="m1345.59,351.11c-2.91,1.78-2.45,3.76-1.58,5.72.94,2.1,4.78,2.42,7.19,1.15.19-.1,3.13-1.71,2.81-4.36-.21-1.71-1.68-3.04-3.34-3.37-1.64-.32-4.57.55-5.08.86Z"/><path class="cls-32" d="m1355.65,349.96c-.08-.11-.06-.14,0-.07.37-.5.55-.6,1.07.03,3.66,4.47,5.96,4.16,7.08-1.85.16-.85.43-.81,1-.57.01-.14,0-.09,0,0,.56.24.77.16.55,1.15-1.55,6.98-5.26,7.82-9.67,2.44-.62-.76-.39-.64-.02-1.14Z"/><path class="cls-11" d="m1406.47,363.42c.34,6.54-4.6,17.36-12.95,15.6-8.34-1.75-12.72-8.72-11.47-17.89,1.24-9.16,5.85-16.01,12.85-14.71,7,1.3,11.23,10.45,11.57,16.99Z"/><path class="cls-29" d="m1359.28,298.62c-12.33,2.49-22.41,3.66-34.94,4.27-.08,0-.17-.07-.18-.18-.08-1.46-.39-2.9-.4-4.36,0-.11.11-.19.19-.19,12.49.04,22.56-1.32,34.75-4.11.08-.02.21.04.22.15.17,1.4.27,2.82.49,4.21.02.11-.06.21-.14.22Z"/><path class="cls-29" d="m1358.37,290.76c-12.33,2.49-22.41,3.66-34.94,4.27-.08,0-.17-.07-.18-.18-.08-1.46-.39-2.9-.4-4.36,0-.11.11-.19.19-.19,12.49.04,22.56-1.32,34.75-4.11.08-.02.21.04.22.15.17,1.4.27,2.82.49,4.21.02.11-.06.21-.14.22Z"/><path class="cls-11" d="m1350.9,369.33c1.69,6.32,4.19,17.16-4.05,17.39-8.25.23-14.06-4.34-15.13-13.26-1.07-8.92-3.47-15.54,3.81-16.93,7.28-1.39,13.69,6.48,15.38,12.8Z"/><path class="cls-40" d="m1332.22,303.24c-1,0-2,.09-2.98.28s-1.92.68-2.53,1.52c-.56.78-.69,1.82-.64,2.75.05,1.03.21,2.06.4,3.07.15.77,1.12,1.28,1.85,1.05.82-.27,1.21-1.02,1.05-1.85-.08-.39-.16-.79-.2-1.19.04.42,0,.04,0-.04-.01-.09-.02-.18-.03-.27-.02-.19-.04-.39-.05-.58-.02-.34.03-.69,0-1.02,0,.12-.06.33,0,.08.02-.09.04-.17.07-.26.08-.25.03.01-.04.07.02-.02.13-.2.13-.23-.03.09-.22.25-.04.07s0,.02-.08.05c.07-.02.14-.1.21-.13.16-.09.26-.05-.06,0,.3-.05.59-.18.89-.24.08-.01.16-.03.24-.04.05,0,.11-.02.16-.02l-.18.02c.19,0,.4-.05.59-.06.41-.03.83-.05,1.25-.05.78,0,1.54-.69,1.5-1.5s-.66-1.5-1.5-1.5h0Z"/><path class="cls-40" d="m1326.44,310.42l.62,5.71c.04.41.14.76.44,1.06.26.26.69.46,1.06.44.74-.03,1.59-.66,1.5-1.5l-.62-5.71c-.04-.41-.14-.76-.44-1.06-.26-.26-.69-.46-1.06-.44-.74.03-1.59.66-1.5,1.5h0Z"/><path class="cls-40" d="m1332.55,306.17c.14-.02.27-.04.41-.06l-.4.05c1.03-.14,2.07-.2,3.11-.19.38,0,.79-.17,1.06-.44s.46-.69.44-1.06c-.04-.82-.66-1.49-1.5-1.5-1.31-.01-2.62.11-3.92.3-.35.05-.73.4-.9.69-.19.32-.27.8-.15,1.16s.34.71.69.9l.36.15c.27.07.53.07.8,0h0Z"/><g class="cls-42"><path class="cls-40" d="m1338.34,379c-2.61-2.81-2.61-7.65-3.09-11.24-.62-4.63-1.18-9.26-1.71-13.9-.21-1.9-3.22-1.92-3,0,.58,5.1,1.21,10.19,1.89,15.27.56,4.14.79,8.77,3.78,11.99,1.32,1.42,3.44-.71,2.12-2.12h0Z"/></g><path class="cls-40" d="m1326.13,297.87c3.41.25,6.82.05,10.19-.58.8-.15,1.25-1.11,1.05-1.85-.23-.84-1.05-1.2-1.85-1.05-3.05.56-6.23.7-9.39.47-.78-.06-1.53.73-1.5,1.5.04.86.66,1.44,1.5,1.5h0Z"/><path class="cls-20" d="m1340.96,278.97h0c-1.32.53-2.79-.38-3.26-2.01l-4.28-14.83c-.47-1.63.23-3.4,1.55-3.92h0c1.32-.53,2.79.38,3.26,2.01l4.28,14.83c.47,1.63-.23,3.4-1.55,3.92Z"/><path class="cls-20" d="m1339.67,278.35h0c-1.34-.57-2.08-2.36-1.65-3.97l3.88-14.7c.43-1.62,1.87-2.47,3.21-1.91h0c1.34.57,2.08,2.36,1.65,3.97l-3.88,14.7c-.43,1.62-1.87,2.47-3.21,1.91Z"/><path class="cls-27" d="m1465.19,338.23c-6.14.4-14.71,1.99-21.24,2.61-1.17.11-1.84-.32-1.98-1.64-2.04-19.15-3.99-40.12-6.35-58.78-1.3-10.26-7.53-11.54-15.64-11.51-1.84,0-5.34.65-7.09,1.14-7.71,2.18-13.62,5.81-12.48,15.96,2.85,25.38,5.8,53.74,8.54,79.14,1.09,10.16,7.36,12.66,15.71,13.3,1.33.1,2.29-.56,5.08-.66,2.79-.1-3.95.18,3.4-.39,7.35-.57,25.74-3.62,35.79-4.13,9.86-.51,15.44-13.05,15.15-18.33-.26-4.61-.01-1.08-.01-1.08-2.04-10.44-8.44-16.32-18.87-15.64Z"/><ellipse class="cls-19" cx="1428.78" cy="324.92" rx="9.05" ry="14.92" transform="translate(-24.32 136.52) rotate(-5.42)"/><ellipse class="cls-17" cx="1431.13" cy="328.73" rx="3.75" ry="4.88" transform="translate(-21.95 117.17) rotate(-4.65)"/><ellipse class="cls-17" cx="1425.69" cy="321.46" rx="2.72" ry="3.8" transform="translate(-22.61 125.63) rotate(-5.01)"/><path class="cls-19" d="m1421.21,316.31l-3.66-2.63c-.28-.2-.33-.59-.11-.87h0c.22-.28.63-.34.91-.14l3.66,2.63c.28.2.33.59.11.87h0c-.22.28-.63.34-.91.14Z"/><path class="cls-19" d="m1422.75,314.15l-3.16-3.26c-.24-.25-.22-.64.04-.88h0c.26-.23.67-.22.91.03l3.16,3.26c.24.25.22.64-.04.88h0c-.26.23-.67.22-.91-.03Z"/><path class="cls-19" d="m1424.56,312.61l-3-3.43c-.23-.26-.19-.65.08-.87h0c.28-.22.68-.19.91.08l3,3.43c.23.26.19.65-.08.87h0c-.28.22-.68.19-.91-.08Z"/><path class="cls-12" d="m1422.9,343.71c-2.91,1.75-2.46,3.7-1.59,5.62.93,2.07,4.77,2.37,7.19,1.11.19-.1,3.13-1.69,2.82-4.29-.2-1.68-1.67-2.98-3.34-3.3-1.64-.31-4.57.55-5.08.86Z"/><path class="cls-32" d="m1432.97,342.55c-.08-.11-.06-.14,0-.06.37-.49.56-.6,1.07.03,3.65,4.39,5.95,4.07,7.09-1.83.16-.84.43-.8,1-.56.01-.14,0-.09,0,0,.56.24.77.16.54,1.13-1.56,6.86-5.27,7.69-9.67,2.42-.62-.75-.39-.63-.02-1.12Z"/><path class="cls-11" d="m1483.75,355.67c.33,6.42-4.63,17.07-12.97,15.36-8.34-1.71-12.7-8.54-11.44-17.55,1.26-9,5.87-15.75,12.87-14.48,7,1.26,11.21,10.25,11.54,16.67Z"/><path class="cls-29" d="m1436.69,292.11c-12.33,2.47-22.41,3.64-34.94,4.27-.08,0-.17-.07-.18-.18-.07-1.43-.38-2.84-.39-4.28,0-.11.11-.19.19-.19,12.49.01,22.56-1.35,34.75-4.11.08-.02.21.04.22.14.16,1.37.26,2.77.48,4.13.02.11-.06.2-.14.22Z"/><path class="cls-29" d="m1435.79,284.38c-12.33,2.47-22.41,3.64-34.94,4.27-.08,0-.17-.07-.18-.18-.07-1.43-.38-2.84-.39-4.28,0-.11.11-.19.19-.19,12.49.01,22.56-1.35,34.75-4.11.08-.02.21.04.22.14.16,1.37.26,2.77.48,4.13.02.11-.06.2-.14.22Z"/><path class="cls-11" d="m1428.18,361.6c1.68,6.2,4.16,16.85-4.08,17.09-8.25.24-14.05-4.24-15.11-13-1.05-8.76-3.44-15.26,3.84-16.64,7.28-1.38,13.67,6.34,15.35,12.54Z"/><path class="cls-40" d="m1409.63,296.67c-1.01,0-2.03.09-3.02.29s-1.91.69-2.52,1.54c-.55.76-.66,1.78-.62,2.7.05,1.01.2,2.02.4,3.01.15.77,1.12,1.28,1.85,1.05.82-.27,1.21-1.02,1.05-1.85-.07-.38-.17-.78-.2-1.17.03.42,0,.05,0-.03-.01-.11-.02-.21-.04-.32-.02-.17-.03-.34-.05-.52s-.02-.35-.02-.53c0-.13.05-.31.02-.44-.04.25-.04.3-.02.14l.02-.08c.02-.08.04-.16.06-.25.07-.25-.13.24-.04.09.04-.07.08-.15.13-.22.09-.15-.23.24-.05.07.03-.03.06-.06.09-.09.09-.08.04-.04-.14.11.06-.02.12-.08.17-.11s.33-.15.08-.05,0,0,.05-.01c.08-.03.16-.05.24-.07.15-.04.3-.07.45-.1.08-.01.15-.03.23-.04.1-.02.41-.11.03,0,.18-.05.4-.05.59-.06.41-.04.83-.05,1.25-.05.78,0,1.54-.69,1.5-1.5s-.66-1.5-1.5-1.5h0Z"/><path class="cls-40" d="m1403.84,303.77l.61,5.61c.04.41.14.76.44,1.06.26.26.69.46,1.06.44.74-.03,1.59-.66,1.5-1.5l-.61-5.61c-.04-.41-.14-.76-.44-1.06-.26-.26-.69-.46-1.06-.44-.74.03-1.59.66-1.5,1.5h0Z"/><path class="cls-40" d="m1409.95,299.61c.14-.02.27-.04.41-.06l-.4.05c1.03-.14,2.07-.2,3.11-.19.38,0,.79-.17,1.06-.44s.46-.69.44-1.06c-.04-.82-.66-1.49-1.5-1.5-1.31,0-2.62.11-3.92.31-.35.05-.73.4-.9.69-.19.32-.27.8-.15,1.16s.34.71.69.9l.36.15c.27.07.53.07.8,0h0Z"/><g class="cls-42"><path class="cls-40" d="m1415.6,371.11c-2.57-2.72-2.58-7.39-3.05-10.88-.61-4.59-1.18-9.18-1.7-13.78-.21-1.9-3.22-1.92-3,0,.57,5.06,1.2,10.12,1.88,15.16.54,4.03.8,8.51,3.74,11.62,1.33,1.41,3.45-.72,2.12-2.12h0Z"/></g><path class="cls-40" d="m1403.55,291.46c3.41.24,6.82.03,10.18-.59.8-.15,1.25-1.11,1.05-1.85-.23-.84-1.05-1.19-1.85-1.05-3.05.56-6.23.7-9.39.48-.78-.06-1.53.73-1.5,1.5.04.86.66,1.44,1.5,1.5h0Z"/><path class="cls-20" d="m1418.8,272.09h0c-1.32.53-2.79-.38-3.26-2.01l-4.28-14.83c-.47-1.63.23-3.4,1.55-3.92h0c1.32-.53,2.79.38,3.26,2.01l4.28,14.83c.47,1.63-.23,3.4-1.55,3.92Z"/><path class="cls-20" d="m1417.52,271.47h0c-1.34-.57-2.08-2.36-1.65-3.97l3.88-14.7c.43-1.62,1.87-2.47,3.21-1.91h0c1.34.57,2.08,2.36,1.65,3.97l-3.88,14.7c-.43,1.62-1.87,2.47-3.21,1.91Z"/></svg>