<?xml version="1.0" encoding="UTF-8"?><svg id="Layer_1" xmlns="http://www.w3.org/2000/svg" width="180" height="350" viewBox="0 0 180 350"><defs><style>.cls-1{opacity:.53;}.cls-1,.cls-2,.cls-3,.cls-4,.cls-5,.cls-6,.cls-7,.cls-8,.cls-9{stroke-width:0px;}.cls-1,.cls-9{fill:#e2e8e3;}.cls-2{fill:#f7f5f7;}.cls-3{fill:#7a7232;}.cls-4{fill:#191817;}.cls-5{fill:#171917;}.cls-6{fill:#beccc1;}.cls-7{fill:#ae245c;}.cls-8{fill:#8f724a;}</style></defs><path class="cls-6" d="m173.5,91.91c0-1.19-.19-2.33-.51-3.44l-8.17-64.15c-1.41-9.66.85-12.07-8.45-12.07H22.5c-9.3,0-7.05,3.62-9.86,13.28l-7.05,65.17c0,.2.03.4.04.6,0,.2-.04.4-.04.6l9.86,240.17c0,7.97-2.25,7.24,7.05,7.24h42.27c9.3,0,7.05-7.24,7.05-15.69l17.64-191.41,17.61,199.86c0,7.97-2.26,7.24,7.07,7.24h42.4c9.33,0,7.07-7.24,7.07-15.69l9.89-231.72Z"/><path class="cls-1" d="m162.25,29.08c-47.91.43-97.9.38-145.96.23-1.62,0-3.04-1.27-2.93-2.78.28-3.86,1.06-7.69,1.3-11.56.09-1.47,1.82-2.55,3.23-2.54,41.93.37,103.49,1.85,143.51-.11,1.38-.07,3.06,1.12,3.08,2.64.05,3.7.66,7.5.83,11.2.07,1.57-1.41,2.91-3.06,2.92Z"/><path class="cls-9" d="m21.72,80.62c3.35-1.34,6.28-3.31,9.08-5.57,2.86-2.31,5.68-4.74,8.35-7.27s5.16-5.38,7.09-8.57c1.81-2.99,3.18-6.24,4.29-9.55,1.25-3.78,2.15-7.66,3.03-11.53.43-1.88-2.46-2.68-2.89-.8-1.87,8.25-3.88,16.82-9.24,23.6-2.79,3.53-6.25,6.48-9.65,9.39s-6.74,5.75-10.85,7.4c-1.77.71-1,3.61.8,2.89h0Z"/><path class="cls-9" d="m163.78,79.04c-2.89-1.12-5.82-2.13-8.69-3.3s-5.69-2.3-7.97-4.25c-3.29-2.81-6.63-5.68-9.34-9.07-2.49-3.12-3.18-6.74-3.2-10.65-.02-4.4.41-8.77-.53-13.12-.41-1.89-3.3-1.09-2.89.8,1.69,7.81-1.55,16.53,3.35,23.58,2.54,3.65,5.95,6.66,9.29,9.55,2.66,2.3,5.4,3.9,8.63,5.29,3.47,1.48,7.04,2.71,10.56,4.07,1.8.7,2.58-2.2.8-2.89h0Z"/><path class="cls-1" d="m70.12,338.11c-10.02,2.68-40.25.62-53.66.91-.45.01-1.22-1.61-1.22-2.83.02-3.13-.2-8.41-.3-11.54-.04-1.18.38-2.67,1.01-2.68,18.67-.27,36.31,1.55,55,.11.65-.05,1.15,1.54,1.12,2.72-.08,2.87,0,7.88-.6,10.69-.26,1.19-1,2.52-1.34,2.61Z"/><path class="cls-1" d="m161.06,337.76c-10.02,2.68-40.25.62-53.66.91-.45.01-1.22-1.61-1.22-2.83.02-3.13-.2-8.41-.3-11.54-.04-1.18.38-2.67,1.01-2.68,18.67-.27,36.31,1.55,55,.11.65-.05,1.15,1.54,1.12,2.72-.08,2.87,0,7.88-.6,10.69-.26,1.19-1,2.52-1.34,2.61Z"/><ellipse class="cls-5" cx="61.25" cy="79.24" rx="23.25" ry="23.53"/><ellipse class="cls-2" cx="51.39" cy="72" rx="4.93" ry="4.22"/><ellipse class="cls-2" cx="61.96" cy="87.08" rx="9.86" ry="8.45"/><ellipse class="cls-5" cx="117.62" cy="80.44" rx="23.25" ry="23.53"/><ellipse class="cls-2" cx="127.48" cy="73.2" rx="4.93" ry="4.22"/><ellipse class="cls-2" cx="116.91" cy="88.29" rx="9.86" ry="8.45"/><path class="cls-4" d="m82.3,103.88c3.42-2.44,4.44-3.25,9.93-2.83,2.03.16,7.76,4.71,8.55,7.41,1.51,5.18,1.32,10.44-1.91,14.71-3.23,4.27-5.98,6.24-12.05,4.65-3.29-.86-7.35-3.69-8.96-7.14-1.2-2.57-1.69-7.02-.69-9.78,1-2.76,2.69-5.28,5.13-7.02Z"/><path class="cls-7" d="m82.42,125.61c-9.11-5.07,1.85-10.72,7.2-11.31,9.65-1.05,9.53,7.53,9.53,7.53.88,1.8-4.65,5.73-6.6,6.37-4.04,1.34-5.67-.12-10.13-2.6Z"/><path class="cls-8" d="m125.38,140.29c.02-.68-.14-9.31,6.78-13.9,6.91-4.59,17.94-3.19,20.17,1.36,1.53,3.12-8.1,14.28-.56,13.11,21.96-3.39,6.3,3.85,2.81,6.84-3.38,2.9,8.43-1.78,11.23.57,2.21,1.85,2.19,7.06,0,10.26-3.1,4.53-9.1,2.91-10.67,6.84-1.2,3.01,1.87,5.08.56,7.98-1.44,3.21-4.5,13.65-8.65,12.17-5.34-1.9-10.54,2.07-11.17,2.41-.42.23,1.6-16.8.73-15.16-1.46,2.76-9.91,1.23-15.72-.57-12.19-3.77-24.26-12.28-23.02-15.39,1.74-4.35,16.19,2.92,19.4-3.88,1.56-3.29,7.9-4.45,8.11-12.65Z"/><path class="cls-3" d="m161.19,187.95c1.14.78,6.04,32.42,4.09,40.83-1.57,6.74-10.18,11.93-14.49,10.29-4.68-1.78-3.13-3.34-6.51-4.05-3.28-.69,1.75,1.91,0,10.86-1.74,8.9-13.73,9.38-16.91,13.28-3.94,4.82-25.6-1.97-15.5-7.24s-1.85-10.63-1.4-11.42c1.78-3.11,3.05-4.78,5.63-9.1,3.39-5.67-1.99-1.01-4.23-2.41-1.17-.74,1.49-11.33,0-12.07-2.57-1.28,9.36-7.72,12.68-10.86,1.6-1.51,4.15-6.76,18.32-4.83,12.36,1.68,14.57-15.84,18.32-13.28Z"/><path class="cls-8" d="m34.17,32.25c.25-.43,3.24-5.96,8.69-7.33,5.45-1.36,11.05,2.02,10.66,5.43-.26,2.34-4,4.56.58,5.53,13.34,2.8-3.44,6.59-6.44,7.7-2.9,1.08,11.36,1.02,12.07,3.16.56,1.68-7.37,4.74-9.72,6.29-3.33,2.19-6.06-.2-8.33,1.95-1.74,1.65-.78,3.66-2.53,5.22-1.94,1.72-7.34,7.69-9.11,5.8-2.27-2.42-6.56-1.07-7.03-.99-.31.05,2.56-8.26,1.49-7.41-1.79,1.43-3.06,1.26-5.64-1.21-5.39-5.16-7.58-18.12-5.79-19.82,2.51-2.38,8.64-.71,12.83-4.31,2.03-1.75,5.22,5.18,8.25,0Z"/></svg>