<?xml version="1.0" encoding="UTF-8"?><svg id="Layer_1" xmlns="http://www.w3.org/2000/svg" width="180" height="250" xmlns:xlink="http://www.w3.org/1999/xlink" viewBox="0 0 180 250"><defs><style>.cls-1{fill:url(#Orchid);}.cls-1,.cls-2,.cls-3,.cls-4,.cls-5,.cls-6,.cls-7,.cls-8,.cls-9,.cls-10,.cls-11,.cls-12{stroke-width:0px;}.cls-2{fill:#7a7232;opacity:.79;}.cls-3{fill:#8f724a;}.cls-3,.cls-13{opacity:.7;}.cls-4{opacity:.54;}.cls-4,.cls-10{fill:#b1a5b7;}.cls-14{opacity:.77;}.cls-5{fill:#f9f9f9;}.cls-6{fill:#261825;}.cls-7{fill:#302b29;}.cls-8{fill:#d6ccd5;}.cls-9{fill:#b1d8dd;}.cls-11{fill:#fcf3f0;}.cls-12{fill:#f0edf2;}</style><linearGradient id="Orchid" x1="42.57" y1="177.48" x2="64.68" y2="177.48" gradientUnits="userSpaceOnUse"><stop offset="0" stop-color="#ff7bac"/><stop offset=".22" stop-color="#ff7bac" stop-opacity=".76"/><stop offset=".6" stop-color="#ff7bac" stop-opacity=".36"/><stop offset=".87" stop-color="#ff7bac" stop-opacity=".1"/><stop offset="1" stop-color="#ff7bac" stop-opacity="0"/></linearGradient></defs><path class="cls-8" d="m135.61,169.43c-12.66-.7-30.57.45-44.07.12-2.42-.06-3.71-1.13-3.71-3.92-.09-40.44.39-84.64-.45-124.14-.46-21.72-12.97-25.95-29.59-27.92-3.77-.45-11.08.02-14.77.61-16.27,2.61-29.14,8.71-28.97,30.16.41,53.62.41,113.51.59,167.15.07,21.46,12.37,28.23,29.34,31.67,2.7.55,4.82-.58,10.54-.1,5.73.49-8.14-.63,7.05.03,15.19.66,53.5-1.09,74.2.35,20.3,1.41,34.43-23.33,34.95-34.43.45-9.69.2-2.25.2-2.25-1.94-22.28-13.81-36.14-35.32-37.33Z"/><ellipse class="cls-6" cx="64" cy="132.23" rx="18.71" ry="31.24"/><ellipse class="cls-5" cx="68.01" cy="140.75" rx="7.75" ry="10.22"/><ellipse class="cls-5" cx="58.39" cy="124.28" rx="5.61" ry="7.95"/><path class="cls-6" d="m50.29,112.46l-6.96-6.37c-.53-.49-.54-1.31-.03-1.83h0c.51-.53,1.36-.56,1.89-.07l6.96,6.37c.53.49.54,1.31.03,1.83h0c-.51.53-1.36.56-1.89.07Z"/><path class="cls-6" d="m53.91,108.34l-5.79-7.57c-.44-.58-.32-1.39.27-1.81h0c.59-.42,1.43-.29,1.87.28l5.79,7.57c.44.58.32,1.39-.27,1.81h0c-.59.42-1.43.29-1.87-.28Z"/><path class="cls-6" d="m57.97,105.59l-5.42-7.88c-.41-.6-.25-1.4.36-1.79h0c.61-.39,1.44-.22,1.86.39l5.42,7.88c.41.6.25,1.4-.36,1.79h0c-.61.39-1.44.22-1.86-.39Z"/><path class="cls-1" d="m47.91,169.84c-6.35,2.91-5.84,7.09-4.47,11.29,1.48,4.53,9.3,6.12,14.54,4.1.41-.16,6.8-2.73,6.71-8.21-.06-3.54-2.8-6.61-6.15-7.69-3.29-1.06-9.51,0-10.62.51Z"/><path class="cls-7" d="m90.75,175.55c.18.22.15.28.03.13-.67,1.08-1.05,1.33-2.22.13-8.27-8.52-12.96-7.47-14.3,5.02-.19,1.77-.76,1.74-1.96,1.34,0,.29,0,.19,0,0-1.2-.4-1.6-.2-1.31-2.26,2.06-14.55,9.57-16.93,19.54-6.69,1.41,1.45.91,1.24.23,2.33Z"/><path class="cls-4" d="m170.39,209.91c-.7,13.44-13.18,34.33-29.95,28.7-16.77-5.63-24.27-20.94-19.75-39.35,4.52-18.41,15.45-31.27,29.56-26.89,14.11,4.38,20.84,24.11,20.14,37.54Z"/><path class="cls-10" d="m87.29,65.99c-25.88,2.05-46.84,1.97-72.71.15-.17-.01-.34-.18-.33-.41.15-3-.18-6.01.12-9,.02-.23.26-.37.43-.35,25.67,3.14,46.66,2.84,72.3.13.16-.02.42.13.43.35.04,2.9-.05,5.82.11,8.71.01.22-.16.41-.33.42Z"/><path class="cls-10" d="m87.1,49.71c-25.88,2.05-46.84,1.97-72.71.15-.17-.01-.34-.18-.33-.41.15-3-.18-6.01.12-9,.02-.23.26-.37.43-.35,25.67,3.14,46.66,2.84,72.3.13.16-.02.42.13.43.35.04,2.9-.05,5.82.11,8.71.01.22-.16.41-.33.42Z"/><path class="cls-4" d="m54.92,208.36c2.13,13.32,4.94,36.08-12.06,34.52-17-1.56-27.97-12.32-28.26-30.8-.29-18.48-3.81-32.59,11.45-33.64,15.26-1.05,26.74,16.6,28.87,29.92Z"/><path class="cls-12" d="m30.37,70.34c-1.84-.22-3.74-.32-5.59-.15-1.69.15-3.44.6-4.58,1.96s-1.45,3.02-1.54,4.71c-.11,1.87-.02,3.76.14,5.62.07.81.64,1.5,1.5,1.5.76,0,1.57-.69,1.5-1.5-.15-1.68-.21-3.36-.16-5.05,0-.36.03-.71.06-1.07,0-.04.06-.48.03-.26.02-.16.05-.32.09-.48.07-.31.15-.63.28-.92-.09.21.11-.2.12-.21.02-.04.25-.39.12-.21.68-.91,1.84-1.05,2.96-1.12,1.7-.09,3.41-.02,5.09.19.81.1,1.5-.76,1.5-1.5,0-.89-.69-1.4-1.5-1.5h0Z"/><path class="cls-12" d="m18.86,82.41l.05,11.81c0,1.93,3.01,1.93,3,0l-.05-11.81c0-1.93-3.01-1.93-3,0h0Z"/><path class="cls-12" d="m30.23,73.31c2.43-.08,4.87.04,7.28.35.78.1,1.53-.76,1.5-1.5-.04-.9-.66-1.39-1.5-1.5-2.42-.31-4.85-.43-7.28-.35-.78.02-1.54.67-1.5,1.5s.66,1.53,1.5,1.5h0Z"/><g class="cls-14"><path class="cls-12" d="m25.92,226.17c-2.44-3.18-3.4-7.07-3.8-11-.45-4.43-.45-8.92-.58-13.37-.29-9.89-.47-19.77-.56-29.66-.02-1.93-3.02-1.93-3,0,.09,10.22.28,20.44.59,30.66.24,8.14-.5,18.04,4.76,24.88.5.65,1.28.97,2.05.54.64-.36,1.03-1.41.54-2.05h0Z"/></g><path class="cls-12" d="m19.25,54.7c6.8,1.32,13.71,1.82,20.62,1.38,1.92-.12,1.93-3.12,0-3-6.65.42-13.29,0-19.83-1.28-1.89-.37-2.69,2.52-.8,2.89h0Z"/><g class="cls-13"><path class="cls-12" d="m123.14,238.97c3.07,0,6.14,0,9.22.01,2.9,0,5.96.28,8.82-.27,2.59-.5,4.89-1.95,7.03-3.42s4.25-2.95,5.71-5.15c1.07-1.61-1.53-3.12-2.59-1.51-1.27,1.92-3.3,3.18-5.17,4.44-2.05,1.38-4.2,2.66-6.71,2.86s-5.23.05-7.82.04h-8.49c-1.93-.02-1.93,2.98,0,2.99h0Z"/></g><path class="cls-3" d="m47.46,48.06c8.93,1.45,2.99-9.79,9.23-2.47,4.96,5.83,17.17,5.78,19.24,8.67,4.52,6.34-2.01,8.22,0,10.84,2.66,3.47,8.26,2.21,10.99,5.78,2.14,2.8.21,9.48-3.43,13.01-3.01,2.91-5.25,1.79-6.87,4.34-2.85,4.46-10.14-5.34-12.66-1.87-2.06,2.84-.06,12.74-4.12,10.12-4.81-3.11.31,2.24-3.82-.3-6.08-3.74-2.21-11.31-6.48-14.88-3.1-2.58-13.3.97-10.69-3.19,3.27-5.22,9.44-3.59,10.99-7.95,1.33-3.76-4.62-7.43-7.56-10.12-5.13-4.69-7.37-4.04-8.93-7.23-2.03-4.14,5.91-6.09,14.13-4.76Z"/><path class="cls-2" d="m44.23,191.54c5.67.99,2.59-.07,6.55,4.97,3.15,4.01,11.67,3.56,12.22,5.96,1.36,5.93,7.45,6.68,8.54,9.15,1.31,2.98-4.35,4.5-2.62,6.96,1.36,1.93,14.84-1.49,16.15,1.49,1.16,2.65-3.77,9.18-4.8,10.93-1.81,3.07-15.23,1.88-16.83,4.27-1.31,1.95-5.28,1.81-7.85,0-3.05-2.14-2.61-2.23-5.24-3.98-3.86-2.57-7.76-.53-10.47-2.98-1.97-1.78-2.09-6.58-.44-9.44,2.08-3.59-4.23-3.75-3.24-6.75.85-2.59,7.29-3.82,5.43-5.67-3.26-3.23-4.68-2.78-5.67-4.97-1.29-2.85,3.07-10.85,8.29-9.94Z"/><path class="cls-9" d="m51.66,164.82c-.33,1.77-1.85,3.82-4.19,3.52-2.34-.31-3.99-3.8-3.74-5.7.25-1.91,3.2-8.69,3.92-6.36.94,3.03,4.37,6.64,4.01,8.55Z"/><path class="cls-11" d="m44.51,163.06c.02.46.15.89.32,1.31s.35.85.61,1.23c.46.69,1.12,1.21,1.89,1.51.19.07.41-.08.46-.26.06-.21-.07-.39-.26-.46-.6-.23-1.12-.68-1.47-1.21-.2-.31-.36-.66-.5-1s-.27-.73-.29-1.12c-.02-.48-.77-.48-.75,0h0Z"/><path class="cls-9" d="m62.3,180.01c-.33,1.77-1.85,3.82-4.19,3.52-2.34-.31-3.99-3.8-3.74-5.7.25-1.91,3.2-8.69,3.92-6.36.94,3.03,4.37,6.64,4.01,8.55Z"/><path class="cls-11" d="m55.15,178.25c.02.46.15.89.32,1.31s.35.85.61,1.23c.46.69,1.12,1.21,1.89,1.51.19.07.41-.08.46-.26.06-.21-.07-.39-.26-.46-.6-.23-1.12-.68-1.47-1.21-.2-.31-.36-.66-.5-1s-.27-.73-.29-1.12c-.02-.48-.77-.48-.75,0h0Z"/></svg>