<?xml version="1.0" encoding="UTF-8"?><svg id="Layer_1" xmlns="http://www.w3.org/2000/svg" width="250" height="400" xmlns:xlink="http://www.w3.org/1999/xlink" viewBox="0 0 250 400"><defs><style>.cls-1{fill:url(#Orchid);}.cls-1,.cls-2,.cls-3,.cls-4,.cls-5,.cls-6,.cls-7,.cls-8,.cls-9,.cls-10{stroke-width:0px;}.cls-2{fill:url(#Orchid-2);}.cls-3{fill:#7a7232;}.cls-4{fill:#302b29;}.cls-5{fill:#e2b0bd;}.cls-6{fill:#e0bdc7;}.cls-7{fill:#8f724a;}.cls-8{fill:#fff;}.cls-9{fill:#e8cde3;}.cls-10{fill:#e889a6;}</style><linearGradient id="Orchid" x1="161.08" y1="325.28" x2="178.72" y2="325.28" gradientUnits="userSpaceOnUse"><stop offset="0" stop-color="#ff7bac"/><stop offset=".22" stop-color="#ff7bac" stop-opacity=".76"/><stop offset=".6" stop-color="#ff7bac" stop-opacity=".36"/><stop offset=".87" stop-color="#ff7bac" stop-opacity=".1"/><stop offset="1" stop-color="#ff7bac" stop-opacity="0"/></linearGradient><linearGradient id="Orchid-2" x1="80.53" y1="325.67" x2="98.17" y2="325.67" xlink:href="#Orchid"/></defs><path class="cls-5" d="m217.32,60.18c-12.2-12.82-26.95-26.08-39.26-38.65-3.28-3.35-4.98-3.56-8.8-4.75-.64-.2-1.03-.09-1.66-.43-3.77-2.09-18.27-3.47-19.95-.6-4.43,7.57-6.34,20.26-13.12,29.85-1.16,1.64-.22,1.41-4.88,5.14-3.46,2.77-7.22,3.66-9.58,4.08-3.26-.87-8.14-2.65-12.52-6.64-13.24-11.17-7.1-27.19-17.37-32.29-5.92-2.94-14.08-.67-18.58.35-3.59.81-6.23,2.17-9.31,3.81-.49.26-.93.6-1.39.86-2.19,1.24-3.97,2.37-5.76,4.19-13.75,13.9-26.17,29.59-36.82,45.75-6.47,9.82-5.51,17.69-1.07,27.38,3.3,7.21,9.02,10.31,15.59,11.35,8.82,1.4,11.97-.79,19.78-4.62,1.47-.72,5.39-5.59,6.69-7.39-.51,34.24.24,69.52,1.46,103.56.28,7.85,3.3,10.5,10.79,10.53,31.78.15,64.44-.48,96.15-2.54,7.48-.49,10.36-3.6,10.32-11.23-.17-34.44-.4-69.6-.21-104.2,1.91,1.69,3.2,4.09,5.36,5.59,9.3,6.46,16.02,5.45,27.29,3.03,6.61-1.42,13.12-8.41,13.95-15.33,1.41-11.79,1.29-17.98-7.11-26.8Z"/><path class="cls-9" d="m233.26,367.42s0-.03-.01-.04c.02-.28.13-.59.03-.86-.87-2.27-1.73-5.89-2.97-9.11-11.39-38.49-23.63-76.7-35.47-115.1-6.67-21.64-12.82-43.69-17.1-66.05-44.39,19.66-72.31,18.39-117.1,1.03-4.11,36.14-9.61,72.29-18.59,107.39-6.56,25.65-14.86,50.32-23.27,75.12-.62,1.82-.78,3.62-.57,5.31-.04.47-.07.94-.07,1.41,0,10.76,11.46,19.49,25.59,19.49,12.47,0,22.84-6.79,25.12-15.77.31,0,.62-.01.93-.02,2.27,8.99,12.65,15.79,25.13,15.79,13.94,0,30.34-6.29,30.78-16.79.01,0,.03,0,.04,0,0,.16-.02.32-.02.48,0,10.76,16.66,16.31,30.8,16.31,12.98,0,23.69-7.36,25.36-16.89.13,0,.26.02.39.03,1.42,9.68,12.26,16.87,25.43,16.87,9.9,0,19.6-2.8,23.86-9.06,1.73-2.72,1.73-5.44,1.72-9.52Z"/><path class="cls-10" d="m138.67,169.88c-4.7.99-4.84,1.27-6.64,2.1-3.47,1.62-7.14,3.51-9.04,6.02-.62-.24-1.28-.4-1.97-.47-.23-.02-.46-.04-.69-.04h-3c-.54,0-1.07.07-1.58.2-1.95-1.79-4.67-3.31-7.28-4.65-1.76-.91-1.9-1.19-6.55-2.36-8.78-2.22-22.93-11.05-20.48,2.63,1.95,10.88,1.89,17.03,4.88,24.71,3.75,9.66,8.6,7.43,16.34,6.44,1.22-.16,2.84-.72,4.44-1.45-4.23,10.01-7.25,20.37-5.23,30.96.35,1.85.98,2.75,2.49,1.31,2.2-2.1,3.93-2.09,6-.67,1.42.98,2.14,1.13,2.15-.81.03-4.52-1.3-8.87-.7-13.5.44-3.41,3.04-7.71,5.07-12.73,1.75-4.32,3.86-8.18,5.97-12.09,1.11,2.56,2.18,5.16,3.11,7.98,1.49,4.5,3.39,8.37,3.71,11.43.44,4.16-.53,8.07-.51,12.13,0,1.74.53,1.6,1.57.73,1.52-1.28,2.79-1.28,4.39.6,1.1,1.29,1.56.49,1.82-1.17,1.29-8.27-.22-16.39-2.67-24.28.84.33,1.64.58,2.32.69,7.69,1.29,12.45,3.71,16.58-5.8,3.28-7.56,3.47-13.71,5.84-24.5,2.98-13.57-11.5-5.3-20.36-3.42Z"/><path class="cls-5" d="m25.96,348.24c-3.23,6.48-6.21,13.94-3.4,21.13.29.75,1.01,1.28,1.85,1.05.72-.2,1.35-1.08,1.05-1.85-2.52-6.43.2-13.02,3.1-18.82.86-1.72-1.73-3.24-2.59-1.51h0Z"/><path class="cls-5" d="m22.46,369.34c1.92,5.95,7.83,9.33,13.46,11.1,1.85.58,2.64-2.31.8-2.89-4.56-1.44-9.8-4.16-11.36-9.01-.59-1.83-3.49-1.05-2.89.8h0Z"/><path class="cls-5" d="m73.7,349.1c-2.18,7.39-3.72,15.24-.56,22.58.32.75,1.41.9,2.05.54.77-.44.86-1.31.54-2.05-2.8-6.5-1.05-13.8.86-20.27.55-1.86-2.35-2.65-2.89-.8h0Z"/><path class="cls-5" d="m72.91,371.31c2.07,5.61,7.18,9.09,12.77,10.65,1.86.52,2.66-2.37.8-2.89-4.52-1.26-9-4.02-10.67-8.55-.28-.76-1.02-1.28-1.85-1.05-.73.2-1.33,1.08-1.05,1.85h0Z"/><path class="cls-5" d="m129.44,351.45c-1.64,6.87-2.75,14.4,1.02,20.79.98,1.66,3.58.15,2.59-1.51-3.35-5.66-2.17-12.42-.72-18.48.45-1.88-2.44-2.68-2.89-.8h0Z"/><path class="cls-5" d="m130.38,372.23c2.59,5.01,8.22,7.45,13.54,8.21.8.11,1.61-.2,1.85-1.05.19-.7-.24-1.73-1.05-1.85-4.58-.66-9.5-2.48-11.75-6.83-.37-.72-1.38-.93-2.05-.54-.73.43-.91,1.33-.54,2.05h0Z"/><path class="cls-5" d="m187.25,351.5c-1.73,6.84-2.94,14.41.9,20.79.99,1.65,3.59.15,2.59-1.51-3.41-5.66-2.13-12.44-.6-18.48.47-1.87-2.42-2.67-2.89-.8h0Z"/><path class="cls-5" d="m188.06,372.28c2.66,5.07,8.46,7.43,13.86,8.16.8.11,1.61-.19,1.85-1.05.19-.7-.24-1.74-1.05-1.85-4.64-.63-9.75-2.38-12.06-6.78-.9-1.71-3.49-.2-2.59,1.51h0Z"/><path class="cls-7" d="m77.5,48c13,2,5.93-.13,15,10,7.22,8.07,25,8,28,12,6.58,8.78-2.92,11.38,0,15,3.87,4.8,12.03,3.06,16,8,3.12,3.88.31,13.12-5,18-4.38,4.03-7.64,2.48-10,6-4.14,6.18,3.67,14.19,0,19-3,3.93-12.09,3.64-18,0-6.99-4.3-5.99-4.48-12-8-8.85-5.17-17.78-1.06-24-6-4.51-3.58-4.79-13.25-1-19,4.76-7.22,13.75-4.96,16-11,1.94-5.2-6.73-10.28-11-14-7.47-6.5-10.73-5.59-13-10-2.95-5.73,7.04-21.84,19-20Z"/><path class="cls-3" d="m199.88,326.71c8.25-10.3,11.9-10.98,11.61-15.95-.18-3.08,1.26-5.44-8.03-11.4-12.33-7.9-3.78-13.32-11.1-15.13-8.76-2.16-28.61,2.22-31.12,7.65-2.48,5.39,5.68,9.77,2.94,16.58-2.14,5.31-8.25,5.43-9.03,10.15-.8,4.86,5.45,6.15,5.7,11.81.31,7.01-9.06,9.83-8.11,15.33.82,4.71,11.3,9.46,17.36,9.75,11.19.52,12.68-12.54,14.31-14.29,6.83-7.38,9.06-6.49,15.47-14.5Z"/><path class="cls-4" d="m149.69,261.91c8.72-3.94,21.3-4.47,27.15,1.17,20.33,19.61,5.33,54.08-14.62,52.13-15.07-1.47-24.24-12.33-23.65-27.65.31-8.05,2.05-21.56,11.12-25.65Z"/><path class="cls-4" d="m76.26,262.15c8.72-3.94,21.3-4.47,27.15,1.17,20.33,19.61,5.33,54.08-14.62,52.13-15.07-1.47-24.24-12.33-23.65-27.65.31-8.05,2.05-21.56,11.12-25.65Z"/><path class="cls-8" d="m81.03,274.32c-2.2.98-4.17,3.71-3.57,6.38.68,3.02,4.36,4.7,7.14,3.43,2.94-1.35,4.3-5.76,2.68-8.34-1.31-2.09-4.21-2.38-6.25-1.47Z"/><path class="cls-8" d="m88.61,289.03c2.81-2.6,7.32-3.47,10.71-.98,4.08,3,4.79,9.6,2.23,13.73-3.26,5.27-11.31,5.71-14.72.98-2.79-3.86-1.89-10.33,1.78-13.73Z"/><path class="cls-8" d="m162.56,289.14c2.81-2.6,7.32-3.47,10.71-.98,4.08,3,4.79,9.6,2.23,13.73-3.26,5.27-11.31,5.71-14.72.98-2.79-3.86-1.89-10.33,1.78-13.73Z"/><path class="cls-8" d="m154.13,274.38c-2.2.98-4.17,3.71-3.57,6.38.68,3.02,4.36,4.7,7.14,3.43,2.94-1.35,4.3-5.76,2.68-8.34-1.31-2.09-4.21-2.38-6.25-1.47Z"/><path class="cls-1" d="m165.33,317.97c-5.07,2.79-4.66,6.78-3.57,10.79,1.18,4.33,7.42,5.85,11.6,3.92.33-.15,5.43-2.61,5.35-7.85-.05-3.38-2.23-6.32-4.91-7.36-2.63-1.02-7.58,0-8.48.49Z"/><path class="cls-2" d="m84.79,318.37c-5.07,2.79-4.66,6.78-3.57,10.79,1.18,4.33,7.42,5.85,11.6,3.92.33-.15,5.43-2.61,5.35-7.85-.05-3.38-2.23-6.32-4.91-7.36-2.63-1.02-7.58,0-8.48.49Z"/><path class="cls-4" d="m183.48,258.64l-10.62,13.88c-.81,1.06-2.25,1.2-3.21.3h0c-.96-.89-1.09-2.47-.28-3.53l10.62-13.88c.81-1.06,2.25-1.2,3.21-.3h0c.96.89,1.09,2.47.28,3.53Z"/><path class="cls-4" d="m190.2,262.08l-11.66,12.82c-.89.98-2.33.98-3.22,0h0c-.89-.98-.89-2.57,0-3.54l11.66-12.82c.89-.98,2.33-.98,3.22,0h0c.89.98.89,2.57,0,3.54Z"/><path class="cls-4" d="m194.49,268.07l-12.7,11.57c-.97.88-2.41.74-3.21-.33h0c-.8-1.07-.67-2.65.3-3.53l12.7-11.57c.97-.88,2.41-.74,3.21.33h0c.8,1.07.67,2.65-.3,3.53Z"/><path class="cls-4" d="m70.19,279.39l-13.01-11.15c-.99-.85-1.17-2.43-.4-3.52h0c.77-1.09,2.21-1.29,3.2-.44l13.01,11.15c.99.85,1.17,2.43.4,3.52h0c-.77,1.09-2.21,1.29-3.2.44Z"/><path class="cls-4" d="m74.04,275.43l-12.09-12.34c-.92-.94-.98-2.53-.12-3.54h0c.86-1.01,2.3-1.07,3.22-.13l12.09,12.34c.92.94.98,2.53.12,3.54h0c-.86,1.01-2.3,1.07-3.22.13Z"/><path class="cls-4" d="m78.41,272.57l-10.53-13.96c-.8-1.07-.67-2.65.3-3.53h0c.97-.88,2.41-.74,3.21.33l10.53,13.96c.8,1.07.67,2.65-.3,3.53h0c-.97.88-2.41.74-3.21-.33Z"/><path class="cls-4" d="m148.2,340.89c.21.54.15.36,0,0-2.17,1.52-3.36,1.73-4.88-1.37-10.71-21.88-20.83-23.39-32.71-1.18-1.68,3.14-2.82,2.68-4.99,1.05-.21.53-.14.36,0,0-2.17-1.63-3.14-1.54-1.04-5.15,14.85-25.52,31.95-24.43,44.89,1.89,1.83,3.73.9,3.24-1.27,4.76Z"/><path class="cls-5" d="m31.09,60.83c-3.01,3.59-5.38,7.61-7.07,11.99-.29.76.32,1.65,1.05,1.85.85.23,1.55-.29,1.85-1.05,1.49-3.86,3.64-7.49,6.3-10.66.52-.62.61-1.51,0-2.12-.53-.53-1.6-.62-2.12,0h0Z"/><path class="cls-6" d="m30.78,62.11c-2.86,3.87-5.45,7.92-7.77,12.13-.93,1.69,1.66,3.21,2.59,1.51,2.32-4.21,4.92-8.26,7.77-12.13.48-.65.11-1.67-.54-2.05-.76-.45-1.57-.12-2.05.54h0Z"/><path class="cls-6" d="m22.83,74.81c-1.19,2.98-2.18,5.99-2.56,9.19-.09.78.76,1.53,1.5,1.5.89-.04,1.4-.66,1.5-1.5.02-.19.03-.22,0-.09.01-.11.03-.22.05-.32.02-.16.05-.32.08-.48.07-.38.14-.75.22-1.12.16-.72.35-1.43.57-2.13.44-1.44.97-2.85,1.52-4.24.29-.73-.32-1.68-1.05-1.85-.87-.2-1.53.27-1.85,1.05h0Z"/><path class="cls-6" d="m20.38,83.59c-.43,1.28-.31,2.65-.04,3.96.24,1.18.57,2.35.87,3.52.19.76,1.09,1.29,1.85,1.05s1.25-1.03,1.05-1.85c-.27-1.09-.57-2.18-.82-3.28-.06-.26-.11-.52-.15-.78-.07-.4.02.32,0-.09-.01-.14-.02-.28-.03-.42,0-.23-.05-.56.02-.78-.11.35,0,.02.02-.07.03-.16.08-.31.13-.46.25-.74-.29-1.67-1.05-1.85-.83-.19-1.58.25-1.85,1.05h0Z"/><path class="cls-6" d="m21.16,90.78c.58,2.39,1.7,4.57,3.2,6.51.22.28.72.44,1.06.44.37,0,.81-.16,1.06-.44s.46-.66.44-1.06c-.02-.42-.18-.73-.44-1.06.27.34-.02-.03-.07-.1-.08-.11-.16-.22-.23-.33-.15-.22-.3-.45-.44-.68-.27-.44-.52-.9-.75-1.37-.05-.11-.1-.21-.15-.32-.03-.06-.05-.12-.08-.18-.06-.15-.05-.12.03.08-.14-.18-.21-.53-.29-.75-.18-.51-.33-1.02-.46-1.54-.18-.76-1.09-1.29-1.85-1.05-.79.26-1.25,1.03-1.05,1.85h0Z"/><path class="cls-6" d="m201.45,95.58c-3.23.25-6.23-.5-8.94-2.26-.66-.43-1.69-.16-2.05.54-.39.75-.17,1.6.54,2.05,3.07,1.99,6.81,2.95,10.46,2.67.78-.06,1.54-.65,1.5-1.5-.03-.76-.66-1.57-1.5-1.5h0Z"/><path class="cls-6" d="m192.3,93.37c-1.67-.71-3.27-1.56-4.79-2.56-.37-.24-.74-.5-1.1-.76-.17-.12-.34-.25-.51-.37-.04-.03-.19-.15-.07-.05-.1-.08-.21-.16-.31-.24-.72-.57-1.41-1.18-2.07-1.82-.57-.54-1.56-.61-2.12,0s-.61,1.54,0,2.12c2.75,2.63,5.96,4.78,9.46,6.27.72.31,1.64.24,2.05-.54.34-.64.23-1.72-.54-2.05h0Z"/><path class="cls-6" d="m183.38,87.64c-3.39-3.04-6.37-6.46-8.87-10.25-.45-.68-1.33-.96-2.05-.54-.67.39-.99,1.37-.54,2.05,2.64,4,5.77,7.66,9.34,10.86.6.54,1.53.59,2.12,0,.55-.55.61-1.58,0-2.12h0Z"/><path class="cls-6" d="m86.7,192.82c.54,3.41,1.47,7.3,4.82,9.04,1.58.82,3.39,1.03,5.14.97,2.02-.06,4.04-.37,5.99-.86s1.08-3.36-.8-2.89c-1.59.4-3.2.66-4.84.74-1.32.06-2.78.07-3.99-.55-2.6-1.32-3.04-4.68-3.45-7.24-.13-.8-1.13-1.25-1.85-1.05-.85.23-1.18,1.04-1.05,1.85h0Z"/><path class="cls-6" d="m131.48,181.67c6.19-3.86,13.22-6.24,20.5-6.85,1.91-.16,1.93-3.16,0-3-7.81.66-15.36,3.12-22.01,7.26-1.64,1.02-.13,3.62,1.51,2.59h0Z"/><path class="cls-6" d="m114.1,180.29c-2.61,3.79-2.67,9.16.73,12.51,1.38,1.36,3.5-.76,2.12-2.12-1.11-1.09-1.73-2.6-1.78-4.08-.06-1.73.51-3.33,1.52-4.79.46-.67.12-1.66-.54-2.05-.74-.44-1.59-.13-2.05.54h0Z"/><path class="cls-6" d="m105.85,231.12l-.21-4.77c-.07-1.58-.24-3.22.08-4.78s.9-2.92,1.42-4.35c.57-1.58,1.14-3.17,1.7-4.75.49-1.37-1.68-1.95-2.17-.6-.59,1.64-1.18,3.29-1.77,4.93-.53,1.47-1.15,2.96-1.42,4.51s-.18,3.11-.11,4.68l.22,5.13c.06,1.44,2.31,1.45,2.25,0h0Z"/><path class="cls-6" d="m91.24,30.38c1.61,6.21,4.18,12.41,7.64,17.82,1.6,2.51,3.52,4.8,5.93,6.57s5.45,2.98,8.32,4.11c1.8.71,2.58-2.19.8-2.89-2.63-1.04-5.32-2.1-7.61-3.81s-3.88-3.86-5.29-6.18c-3.08-5.07-5.42-10.67-6.9-16.41-.48-1.87-3.38-1.08-2.89.8h0Z"/></svg>