<?xml version="1.0" encoding="UTF-8"?><svg id="Layer_1" xmlns="http://www.w3.org/2000/svg" width="270" height="270" xmlns:xlink="http://www.w3.org/1999/xlink" viewBox="0 0 270 270"><defs><style>.cls-1{fill:url(#Orchid);}.cls-1,.cls-2,.cls-3,.cls-4,.cls-5,.cls-6,.cls-7,.cls-8,.cls-9{stroke-width:0px;}.cls-2{fill:url(#Orchid-2);}.cls-3{fill:#7a7232;}.cls-4{fill:#281f22;}.cls-5{fill:#211a1d;}.cls-6{fill:#dae4e5;}.cls-7{fill:#b7e0e5;}.cls-8{fill:#8f724a;}.cls-9{fill:#efedee;}</style><linearGradient id="Orchid" x1="164.97" y1="229.51" x2="182.61" y2="229.51" gradientUnits="userSpaceOnUse"><stop offset="0" stop-color="#ff7bac"/><stop offset=".22" stop-color="#ff7bac" stop-opacity=".76"/><stop offset=".6" stop-color="#ff7bac" stop-opacity=".36"/><stop offset=".87" stop-color="#ff7bac" stop-opacity=".1"/><stop offset="1" stop-color="#ff7bac" stop-opacity="0"/></linearGradient><linearGradient id="Orchid-2" x1="93.23" y1="231.87" x2="110.87" y2="231.87" xlink:href="#Orchid"/></defs><path class="cls-7" d="m260.19,60.41l-54.53-43.17c-2.55-2.02-10.67-2.81-13.69-2.5-.55.06-1.09.11-1.64.11h.05c-3.7,0-6.8,2.67-7.51,6.3-4.92,25.38-24.49,44.2-47.77,44.2s-42.38-18.52-47.6-43.47c-.86-4.1-4.49-7.03-8.68-7.03h-6.22c-3.56,0-6.75,1.58-8.96,4.06-.08.06-.16.11-.24.18L10.24,63.92c-5.05,4.25-5.69,11.86-1.44,16.91l23.82,28.26c4.25,5.05,11.86,5.69,16.91,1.44l11.07-9.33v138.67c0,6.6,5.4,12,12,12h124c6.6,0,12-5.4,12-12V97.31l13.76,10.89c5.17,4.1,12.76,3.21,16.86-1.96l22.94-28.98c4.1-5.17,3.21-12.76-1.96-16.86Z"/><path class="cls-6" d="m66.41,215.88l.1,11.87c.03,3.62-.29,7.48.5,11.04.66,2.99,2.44,5.57,5.36,6.68,3.33,1.27,6.93.43,10.37.44,1.45,0,1.45-2.24,0-2.25-3.09-.01-6.39.8-9.4-.23s-4.21-4.22-4.44-7.24c-.25-3.29-.12-6.64-.15-9.94l-.09-10.39c-.01-1.45-2.26-1.45-2.25,0h0Z"/><path class="cls-6" d="m29.58,58.53c-2.27,2.11-4.55,4.22-6.82,6.33-1.83,1.7-4.25,3.42-5.16,5.84s.04,4.98,1.29,7.09c1.47,2.47,3.29,4.75,5.21,6.88.97,1.08,2.56-.52,1.59-1.59-1.66-1.84-3.19-3.8-4.52-5.9-1.26-1.97-2.46-4.43-.98-6.61,1.28-1.89,3.38-3.4,5.04-4.94l5.95-5.52c1.06-.99-.53-2.58-1.59-1.59h0Z"/><path class="cls-6" d="m202,23.21c-2.01-.06-4.02-.05-6.04.04-1.77.07-3.75-.05-4.72,1.73s-1.65,3.64-2.46,5.44c-.86,1.93-1.73,3.85-2.59,5.78-.25.56-.16,1.2.4,1.54.48.29,1.29.15,1.54-.4,1.55-3.45,3.09-6.9,4.64-10.35.26-.57.41-1.27,1.11-1.37.82-.12,1.68-.1,2.5-.13,1.87-.07,3.74-.07,5.6-.02,1.45.04,1.45-2.21,0-2.25h0Z"/><path class="cls-6" d="m186.41,36c-3.16,5.16-4.95,11.21-8.98,15.82-.95,1.09.64,2.68,1.59,1.59,4.18-4.78,6.06-10.92,9.33-16.27.76-1.24-1.19-2.37-1.94-1.14h0Z"/><path class="cls-6" d="m68.63,215.92c.08-.81.16-1.63.15-2.45s-.09-1.65-.19-2.47c-.04-.31-.1-.57-.33-.8-.2-.2-.52-.34-.8-.33-.54.02-1.21.5-1.12,1.12.11.82.19,1.64.19,2.47s-.08,1.63-.15,2.45c-.06.59.56,1.15,1.12,1.12.66-.03,1.06-.5,1.12-1.12h0Z"/><path class="cls-6" d="m23.94,84.51c.4.47.8.94,1.18,1.43.01.01.14.18.08.11s.07.09.08.11c.09.12.18.24.27.36.19.25.38.51.56.77.71,1.01,1.37,2.05,1.98,3.12.29.51,1.03.73,1.54.4s.72-.99.4-1.54c-1.29-2.26-2.8-4.38-4.5-6.34-.39-.45-1.2-.43-1.59,0-.44.48-.41,1.11,0,1.59h0Z"/><path class="cls-8" d="m198.39,48.74c5.48-5.23,8.21-7.84,12.74-8.54,6.35-.99,14.25,1.76,16.99,6.69,4.01,7.2-4.61,16.2-.85,18.95,1.8,1.31,3.97-.6,8.92,0,7.03.85,13.56,6.02,12.74,8.54-1.17,3.62-16.96.31-19.96,5.94-1.75,3.29,2.68,6.21.85,9.29-2.92,4.91-18.56,4.71-21.24,0-1.25-2.2,1.15-3.93.85-10.03-.17-3.45-.29-6.06-2.12-7.06-3.79-2.06-10.14,5.39-15.72,3.34-2.8-1.03-4.89-4.27-4.25-6.69,1.2-4.55,11.66-4.72,11.89-8.17.15-2.28-4.36-3.07-4.67-6.32-.11-1.1.27-2.56,3.82-5.94Z"/><path class="cls-3" d="m79.08,188.18c0,12.36,22.68-1.77,31.63,5.99,4.99,4.32-.65,9.23,4.99,13.78,6.71,5.41,13.46,7.17,17.2,1.8,2.15-3.09,5.68-8.06,4.99-11.38-.3-1.43-2.18-10.5-8.88-13.78-4.86-2.38-7.88.44-10.54-2.4-3.04-3.24-2.5-10.52,0-11.98,1.47-.86,2.7.81,4.44,0,3.2-1.5,4.07-9.53,1.66-11.38-.62-.48-1.09-.25-4.44,0-3.85.29-5.77.43-6.66,0-3.48-1.67-4.25-7.57-4.44-8.99-.31-2.37-.04-3.93,0-4.79.38-8.89-20.87-22.86-27.19-17.37-5.99,5.2,5.04,20.78-3.33,30.55-4.71,5.5-2.77,11.38-12.21,11.98-1.78.11,7.46,2.41,12.21,8.39,5.38,6.78.55,5.39.55,9.59Z"/><ellipse class="cls-4" cx="161.6" cy="192.36" rx="19.5" ry="29"/><circle class="cls-9" cx="171.6" cy="184.86" r="5"/><ellipse class="cls-9" cx="159.95" cy="202.49" rx="11.33" ry="11.68"/><ellipse class="cls-4" cx="111.95" cy="193.79" rx="19.5" ry="29"/><circle class="cls-9" cx="101.95" cy="186.29" r="5"/><ellipse class="cls-9" cx="113.61" cy="203.92" rx="11.33" ry="11.68"/><ellipse class="cls-5" cx="138.6" cy="232.36" rx="9" ry="10.5"/><path class="cls-1" d="m169.23,222.2c-5.07,2.79-4.66,6.78-3.57,10.79,1.18,4.33,7.42,5.85,11.6,3.92.33-.15,5.43-2.61,5.35-7.85-.05-3.38-2.23-6.32-4.91-7.36-2.63-1.02-7.58,0-8.48.49Z"/><path class="cls-2" d="m97.49,224.57c-5.07,2.79-4.66,6.78-3.57,10.79,1.18,4.33,7.42,5.85,11.6,3.92.33-.15,5.43-2.61,5.35-7.85-.05-3.38-2.23-6.32-4.91-7.36-2.63-1.02-7.58,0-8.48.49Z"/></svg>