<?xml version="1.0" encoding="UTF-8"?><svg id="Layer_1" xmlns="http://www.w3.org/2000/svg" width="330" height="280" viewBox="0 0 330 280"><defs><style>.cls-1{fill:#f7f3f2;}.cls-1,.cls-2,.cls-3,.cls-4,.cls-5,.cls-6,.cls-7,.cls-8,.cls-9{stroke-width:0px;}.cls-2{fill:#f2f2f2;}.cls-3{fill:#7a7232;}.cls-4{fill:#282420;}.cls-5{fill:#302b29;}.cls-6{fill:#b1d8dd;}.cls-7{fill:#8f724a;}.cls-8{fill:#fcf3f0;}.cls-9{fill:#efeec5;}</style></defs><path class="cls-9" d="m326.17,206.5L235.96,20.16c-.11-.22-.24-.43-.36-.65-1.8-4.29-6.1-7.34-11.1-7.34h-10.55c-1.93,0-3.5,1.58-3.46,3.51,0,.44.01.88.01,1.32,0,27.89-18.13,50.5-40.5,50.5s-40.5-22.61-40.5-50.5c0-.44,0-.88.01-1.32.04-1.93-1.53-3.51-3.46-3.51h-11.64c-.15,0-.31-.01-.46-.04-4.98-.75-10.13,1.66-12.54,6.3L6.14,202.32c-2.99,5.78-.63,12.91,5.25,15.84l15.67,7.83c5.88,2.94,13.14.62,16.14-5.16l50.76-97.97c1.67-3.22,6.54-2.03,6.54,1.59v129.26c0,6.48,5.4,11.78,12,11.78h112c6.6,0,12-5.3,12-11.78v-122.23c0-3.68,4.98-4.82,6.58-1.51l45.53,94.05c2.83,5.85,10.03,8.37,15.99,5.58l15.88-7.41c5.96-2.78,8.52-9.85,5.69-15.7Z"/><path class="cls-5" d="m122.24,206.41l-13.01-11.22c-.99-.86-1.02-2.3-.06-3.23h0c.96-.93,2.55-.98,3.54-.12l13.01,11.22c.99.86,1.02,2.3.06,3.23h0c-.96.93-2.55.98-3.54.12Z"/><path class="cls-5" d="m127.31,205.09l-7.4-10.35c-.56-.79-.03-2,1.2-2.7h0c1.23-.7,2.68-.63,3.24.16l7.4,10.35c.56.79.03,2-1.2,2.7h0c-1.23.7-2.68.63-3.24-.16Z"/><path class="cls-5" d="m135.7,204.92l-5.97-9.06c-.46-.69.13-1.75,1.32-2.37h0c1.18-.61,2.51-.55,2.97.14l5.97,9.06c.46.69-.13,1.75-1.32,2.37h0c-1.18.61-2.51.55-2.97-.14Z"/><path class="cls-2" d="m107.33,222.27c.05,6.38.1,12.76.14,19.13.01,1.93,3.01,1.93,3,0-.05-6.38-.1-12.76-.14-19.13-.01-1.93-3.01-1.93-3,0h0Z"/><path class="cls-2" d="m107.5,241.24c-.02,2.24-.05,4.48-.07,6.72,0,.78.7,1.54,1.5,1.5s1.49-.66,1.5-1.5c.02-2.24.05-4.48.07-6.72,0-.78-.7-1.54-1.5-1.5s-1.49.66-1.5,1.5h0Z"/><path class="cls-2" d="m107.42,247.96v4.84c0,.78.69,1.54,1.5,1.5s1.5-.66,1.5-1.5v-4.84c0-.78-.69-1.54-1.5-1.5s-1.5.66-1.5,1.5h0Z"/><path class="cls-2" d="m107.42,252.8c-.06.78.2,1.55.45,2.28.28.8.63,1.55,1.22,2.17.48.51,1.1.9,1.7,1.26.27.16.54.32.82.45.54.24.99.37,1.57.43.36.04.81-.19,1.06-.44.26-.26.46-.69.44-1.06s-.14-.79-.44-1.06c-.31-.28-.64-.4-1.06-.44h-.09c.13,0,.27.03.4.04-.13-.02-.26-.05-.39-.09-.05-.02-.25-.1-.03,0,.23.1-.02-.01-.07-.04-.23-.11-.45-.24-.66-.37s-.43-.25-.64-.39c-.1-.07-.21-.14-.3-.22.04.03.26.22.11.08-.05-.05-.1-.09-.15-.14-.08-.07-.16-.15-.23-.23-.17-.2-.01.04.05.08-.04-.02-.08-.11-.1-.15-.07-.11-.13-.23-.19-.35-.02-.05-.11-.24-.02-.02.1.24,0-.01-.02-.07-.19-.51-.38-1.04-.47-1.58l.05.4c-.02-.19-.03-.37-.02-.55.06-.78-.73-1.53-1.5-1.5-.86.04-1.44.66-1.5,1.5h0Z"/><path class="cls-2" d="m113.15,259.31c2.61.3,5.23.4,7.86.3.78-.03,1.54-.67,1.5-1.5-.04-.79-.66-1.53-1.5-1.5-2.62.1-5.25,0-7.86-.3-.78-.09-1.53.75-1.5,1.5.04.89.66,1.4,1.5,1.5h0Z"/><path class="cls-2" d="m121.14,259.67c2.14,0,4.27,0,6.41,0,.78,0,1.54-.69,1.5-1.5s-.66-1.5-1.5-1.5c-2.14,0-4.27,0-6.41,0-.78,0-1.54.69-1.5,1.5s.66,1.5,1.5,1.5h0Z"/><path class="cls-2" d="m127.54,259.64c1.73.01,3.46.05,5.19.11.79.03,1.54-.71,1.5-1.5-.04-.84-.66-1.47-1.5-1.5-1.73-.06-3.46-.1-5.19-.11-.78,0-1.54.69-1.5,1.5s.66,1.49,1.5,1.5h0Z"/><path class="cls-2" d="m115.16,243.4c-.17,2.28-.35,5.7,1.47,7.42s4.72,1.32,6.93,1.35c6.3.09,12.6.19,18.9.28,1.93.03,1.93-2.97,0-3-5.3-.08-10.61-.16-15.91-.24-1.33-.02-2.65-.04-3.98-.06-1-.01-2.09.08-3.07-.17-1.96-.49-1.45-4.05-1.33-5.59.15-1.93-2.85-1.92-3,0h0Z"/><path class="cls-2" d="m18.5,209.72c-1.51-.48-2.31-2.13-2.1-3.65.29-2.1,1.78-4.3,2.74-6.16,2.11-4.08,4.39-8.05,6.68-12.03.96-1.68-1.63-3.19-2.59-1.51-2.82,4.9-5.64,9.81-8.12,14.9-1.06,2.17-2.14,4.39-1.55,6.86.5,2.13,2.08,3.83,4.15,4.49,1.84.59,2.63-2.3.8-2.89h0Z"/><path class="cls-2" d="m121.43,17.4c-2.5.14-5,.42-7.47.82s-4.34,1.13-5.92,3.09c-3.04,3.79-5.37,8.12-7.71,12.37-.93,1.69,1.66,3.21,2.59,1.51,2.13-3.87,4.27-7.75,6.9-11.31.51-.69,1.07-1.41,1.79-1.89.86-.57,1.96-.69,2.96-.85,2.27-.37,4.56-.61,6.86-.74,1.92-.11,1.93-3.11,0-3h0Z"/><path class="cls-2" d="m100.26,33.84c-2.47,3.73-4.75,7.58-6.84,11.53-.38.72-.18,1.63.54,2.05.68.4,1.67.18,2.05-.54,2.08-3.96,4.37-7.81,6.84-11.53.45-.68.13-1.66-.54-2.05-.73-.43-1.6-.14-2.05.54h0Z"/><path class="cls-2" d="m214.76,17.1c-.56,6.7-1.54,13.35-2.91,19.93-.39,1.88,2.5,2.69,2.89.8,1.43-6.84,2.44-13.76,3.02-20.73.16-1.92-2.84-1.91-3,0h0Z"/><path class="cls-2" d="m211.77,37.42c-.09,1.99-.91,3.86-1.74,5.63-.95,2.03-1.97,4.02-3.06,5.99-.93,1.69,1.66,3.21,2.59,1.51,1.16-2.1,2.25-4.23,3.25-6.41s1.85-4.33,1.96-6.73c.03-.81-.71-1.5-1.5-1.5-.84,0-1.47.69-1.5,1.5h0Z"/><path class="cls-2" d="m206.83,49.15c-2.26,5.43-7.44,8.98-11.48,12.98-1.38,1.36.75,3.48,2.12,2.12,4.51-4.46,9.74-8.27,12.25-14.31.31-.75-.34-1.65-1.05-1.85-.86-.24-1.53.3-1.85,1.05h0Z"/><path class="cls-2" d="m242.44,121.64c-2.49-.46-5.05.03-7.11,1.56-2.22,1.64-3.26,4.09-3.76,6.74-1.23,6.59-1.3,13.38-1.42,20.06-.04,1.93,2.96,1.93,3,0,.11-5.67.2-11.36.96-16.98.3-2.24.55-4.89,2.14-6.64,1.33-1.47,3.43-2.21,5.39-1.84s2.7-2.54.8-2.89h0Z"/><path class="cls-2" d="m145.41,259.63c6.32-.44,12.66-.46,18.98-.04,1.93.13,1.92-2.87,0-3-6.32-.42-12.66-.4-18.98.04-1.92.13-1.93,3.14,0,3h0Z"/><path class="cls-3" d="m138.07,69.7c1.06.83,18.62,8.19,16.8,17.12-1.46,7.15-9.48,12.66-13.49,10.92-4.36-1.89-2.43-11.68-5.57-12.43-3.05-.74-2.57,4.7-4.2,14.2-1.62,9.44-7.61,23.34-10.57,27.47-3.66,5.11-20.56-10.24-11.16-15.83,9.03-5.37-6.44-11.06-6.02-11.9,1.66-3.29,9.49-4.47,11.89-9.06,3.15-6.02-1.6-12.19-3.68-13.68-1.09-.78-2.43.79-3.81,0-2.39-1.35,6.75-9.99,9.84-13.32,1.49-1.6-4.38-14.16,8.81-12.11,11.5,1.79,7.67,15.9,11.16,18.63Z"/><path class="cls-7" d="m192.09,147.32c.01-.56.31-8,5.88-11.81,5.57-3.8,14.04-2.35,15.84,1.42,1.24,2.58-1.37,4.78-.45,10.86.36,2.37.68,4.5,2.26,5.67,2.92,2.15,6.79-1.48,9.05.47,1.78,1.54,1.76,5.85,0,8.5-2.5,3.75-7.33,2.41-8.6,5.67-.97,2.5,1.5,4.21.45,6.61-1.16,2.66-5.7,4.06-9.05,2.83-4.3-1.58-6.28-7.37-6.79-7.09-.34.19,1.15,2.42.45,3.78-1.18,2.28-7.98,1.02-12.67-.47-9.82-3.12-19.56-10.17-18.55-12.75,1.4-3.61,22.75,4.21,25.34-1.42,1.26-2.73-3.34-5.48-3.17-12.28Z"/><path class="cls-7" d="m302,200c0-.3-2.17-9.86.76-11.92,2.92-2.06,3.02-.96,3.97,1.08.65,1.4,3.63,2.28,4.11,5.58.19,1.28.36,2.44,1.19,3.07,1.53,1.17,3.56-.8,4.75.26.93.83.93,3.17,0,4.61-1.31,2.04-3.85,1.31-4.51,3.07-.51,1.35-1.83,1.08-2.39,2.39-.61,1.44-.37,3.4-2.13,2.74-2.26-.86-3.3-4-3.56-3.84-.18.1.61,1.31.24,2.05-.62,1.24-4.19.55-6.65-.26-5.16-1.69-10.26-5.52-9.74-6.91.74-1.96,4.21-1.56,5.57-4.62.66-1.48,8.31,6.4,8.4,2.71Z"/><rect class="cls-4" x="119" y="201" width="45" height="10" rx="5" ry="5"/><path class="cls-5" d="m216.76,206.41l13.01-11.22c.99-.86,1.02-2.3.06-3.23h0c-.96-.93-2.55-.98-3.54-.12l-13.01,11.22c-.99.86-1.02,2.3-.06,3.23h0c.96.93,2.55.98,3.54.12Z"/><path class="cls-5" d="m211.69,205.09l7.4-10.35c.56-.79.03-2-1.2-2.7h0c-1.23-.7-2.68-.63-3.24.16l-7.4,10.35c-.56.79-.03,2,1.2,2.7h0c1.23.7,2.68.63,3.24-.16Z"/><path class="cls-5" d="m203.3,204.92l5.97-9.06c.46-.69-.13-1.75-1.32-2.37h0c-1.18-.61-2.51-.55-2.97.14l-5.97,9.06c-.46.69.13,1.75,1.32,2.37h0c1.18.61,2.51.55,2.97-.14Z"/><rect class="cls-4" x="175" y="201" width="45" height="10" rx="5" ry="5" transform="translate(395 412) rotate(180)"/><path class="cls-6" d="m122.98,238.33c-.29,2.33-1.65,5.03-3.73,4.63-2.09-.4-3.56-4.99-3.34-7.5.22-2.51,2.85-11.43,3.49-8.37.84,3.98,3.89,8.74,3.58,11.24Z"/><path class="cls-5" d="m188.26,245.04c.18.48.09.56-.04.24-1.85,1.34-2.66,1.52-3.96-1.24-9.19-19.45-18.05-20.78-28.18-1.08-1.43,2.79-2.41,2.37-4.27.92-.18.47-.12.32,0,0-1.86-1.45-2.69-1.37-.9-4.58,12.66-22.64,27.29-21.64,38.39,1.75,1.57,3.31.81,2.64-1.04,3.99Z"/><path class="cls-1" d="m117.22,233.61c-.19,1.27-.31,2.54,0,3.81.29,1.15.87,2.2,1.67,3.07.33.36.86-.17.53-.53-.71-.78-1.22-1.72-1.47-2.74-.28-1.13-.18-2.27,0-3.41.07-.47-.65-.68-.72-.2h0Z"/><path class="cls-6" d="m132.96,225.09c-.48,2.45-2.69,5.29-6.1,4.87-3.41-.42-5.81-5.25-5.45-7.89.36-2.64,4.65-12.03,5.71-8.81,1.37,4.19,6.36,9.19,5.84,11.83Z"/><path class="cls-8" d="m122.72,222.66c.03.64.23,1.24.48,1.83s.5,1.14.87,1.65c.66.92,1.57,1.6,2.63,1.99.45.17.65-.56.2-.72-.89-.33-1.69-.94-2.23-1.72-.3-.44-.53-.93-.75-1.41-.23-.51-.42-1.05-.45-1.62-.02-.48-.78-.48-.75,0h0Z"/></svg>