<?xml version="1.0" encoding="UTF-8"?><svg id="Layer_1" xmlns="http://www.w3.org/2000/svg" width="380" height="430" viewBox="0 0 380 430"><defs><style>.cls-1{fill:#231f1e;stroke:#3a3737;stroke-miterlimit:10;stroke-width:3px;}.cls-2{fill:#6d4f23;}.cls-2,.cls-3,.cls-4,.cls-5,.cls-6,.cls-7,.cls-8,.cls-9,.cls-10,.cls-11{stroke-width:0px;}.cls-3{fill:#383434;}.cls-4{fill:#110e0e;}.cls-5{fill:#110d0d;}.cls-6{fill:#110f0f;}.cls-7{fill:#111010;}.cls-8{fill:#0f0e0e;}.cls-9{fill:#0c0b0b;}.cls-10{fill:#161414;}.cls-11{fill:#f4f2f2;}</style></defs><ellipse class="cls-1" cx="194.59" cy="279.71" rx="164.91" ry="149.79"/><path class="cls-11" d="m293.49,370.44c-.75,16.68-73.55,25.33-118.78,25.02-37.1-.25-54.1-6.53-66.86-16.01-4.71-3.5-25.83-19.43-28.35-45.67-.72-7.55.58-15.46,4.16-24.11,10.96-26.5,79.16,5.45,103.33,19.17,85.86,48.76,106.82,34.49,106.5,41.59Z"/><path class="cls-11" d="m216.34,291.56c14.97-2.38,30.04-4.24,43.76-5.08,13.95-.85,22.75.5,35.39,4.27,15.48-7.72,26.82-22.08,27-37.21.31-26.84-43.33-52.79-68.44-42.99-25.11,9.81-11.03,22.39-44.88,37.06-18.94,8.21,1.18,37.01,7.18,43.94Z"/><path class="cls-11" d="m81.98,291.81c12.1-2.28,26.08-5.81,38.22-5.21,12.34.61,29.96,1.14,40.63,4.62,6.78-10.46,20.32-24.56,20.48-39.81.29-27.06-35.32-10.14-55.17-19.5-19.85-9.37-58.51-27.27-63.27,16.84-2.66,24.68,7.17,28.19,19.11,43.06Z"/><ellipse class="cls-9" cx="256.84" cy="256.31" rx="29.61" ry="25.82"/><ellipse class="cls-11" cx="245.78" cy="249.32" rx="10.79" ry="10.76"/><path class="cls-7" d="m158.51,247.64c.49,20.68-13.38,26.89-31.32,27.99-17.94,1.1-32.52-4.75-34.71-23.44-2.19-18.69,14.41-31.66,30.83-22.27,16.42,9.39,34.71-2.96,35.2,17.72Z"/><path class="cls-11" d="m132.19,235.41c1.3,5-3.64,11.53-9.85,12.03-6.21.51-10.94-3.59-12.17-10s3.14-13.19,8.76-9.53c5.61,3.67,11.96,2.49,13.26,7.49Z"/><path class="cls-3" d="m130.18,158.78c1.7,1.54,3.8,2.5,5.53,3.99s3.11,3.85,2.56,6.18c-.58,2.44-2.95,3.85-5.08,4.96-7.92,4.12-15.85,8.23-23.77,12.35-.76.39-1.66.79-2.39.38-.47-.26-.74-.8-.9-1.34-.98-3.41,1.71-6.75,4.17-9.27,5.09-5.21,10.19-10.41,15.28-15.62,1.26-1.29,2.93-2.69,4.56-2.09"/><path class="cls-3" d="m133.87,157.22c4.5,1.55,6.48,8.66,11.31,8.6,1.85-.02,3.62-1.17,5.3-2.28,4.01-2.66,8.02-5.32,12.02-7.98.59-.39,1.26-.93,1.28-1.67.02-.84-.78-1.26-1.47-1.46-8.62-2.51-18.09.04-27.13,2.59"/><path class="cls-4" d="m300.81,293.78c-9.71-2.92-19.76-4.54-29.88-5.16-2.35-.14-4.6,2.17-4.5,4.5.11,2.56,1.98,4.35,4.5,4.5,2.36.14,4.72.34,7.08.6.62.07,1.24.15,1.87.22.55.07.62.08.2.02.31.04.62.09.93.13,1.16.17,2.31.35,3.46.55,4.71.82,9.37,1.93,13.95,3.31,2.25.68,5-.81,5.54-3.14s-.73-4.81-3.14-5.54h0Z"/><path class="cls-4" d="m272.29,288.51c-9.86-.43-19.73-.23-29.56.68-2.34.22-4.62,1.92-4.5,4.5.1,2.25,1.99,4.73,4.5,4.5,9.83-.91,19.7-1.1,29.56-.68,2.35.1,4.61-2.14,4.5-4.5-.11-2.53-1.98-4.39-4.5-4.5h0Z"/><path class="cls-4" d="m241.39,289.24c-9.12,1.26-18.23,2.68-27.3,4.26-2.32.41-3.84,3.38-3.14,5.54.81,2.5,3.04,3.58,5.54,3.14,9.07-1.59,18.18-3,27.3-4.26,2.34-.32,3.82-3.43,3.14-5.54-.83-2.57-3.03-3.49-5.54-3.14h0Z"/><path class="cls-6" d="m164.99,293.99c-9.9-3.11-19.98-5.42-30.32-6.4-2.35-.22-4.6,2.23-4.5,4.5.12,2.63,1.98,4.26,4.5,4.5,4.6.44,8.8,1.12,13.77,2.23s9.49,2.39,14.16,3.85c2.25.7,5.01-.83,5.54-3.14.56-2.45-.74-4.78-3.14-5.54h0Z"/><path class="cls-6" d="m136.06,287.5c-10.01-.44-20.03.06-29.96,1.33-2.33.3-4.62,1.86-4.5,4.5.1,2.18,2,4.82,4.5,4.5,9.94-1.28,19.95-1.77,29.96-1.33,2.35.1,4.61-2.14,4.5-4.5-.11-2.53-1.98-4.39-4.5-4.5h0Z"/><path class="cls-6" d="m104.76,288.9c-9.01,1.92-17.79,4.72-26.66,7.15-2.27.62-3.89,3.22-3.14,5.54s3.1,3.81,5.54,3.14c8.87-2.44,17.66-5.23,26.66-7.15,2.31-.49,3.86-3.32,3.14-5.54-.79-2.43-3.07-3.67-5.54-3.14h0Z"/><path class="cls-10" d="m196.81,252.91c-.37.87-.68,1.91-1.21,2.7l2.69-2.07h0c1.9,1.45,3.8,2.89,5.7,4.34-.2,1.61-.19,1.39,0,.77-.06.18-.56,1.29-.25.6.09-.2.18-.4.27-.61.43-.96.88-1.91,1.35-2.86.51-1.03,1.05-2.06,1.64-3.05.24-.4.5-.77.75-1.16.48-.73-.74.91-.24.32.56-.66.12.3-.45.27.29.01,1.13-.73,1.42-.9.43-.24.87-.47,1.31-.68.25-.12.51-.24.77-.36.1-.05.91-.4.44-.19s.34-.14.44-.18c.33-.13.66-.27.98-.4,2.24-.92,4.46-1.88,6.6-3.02,3.98-2.12,7.7-4.76,11.1-7.71,3.79-3.29,7.08-7.12,9.91-11.27,1.33-1.95.43-5.08-1.61-6.16-2.28-1.21-4.74-.47-6.16,1.61-.3.44-.6.87-.91,1.3-.12.16-1.04,1.39-.49.67-.69.89-1.41,1.75-2.16,2.59-1.45,1.63-3.01,3.18-4.65,4.63-.8.7-1.62,1.38-2.45,2.04.63-.5-.33.24-.52.38-.48.35-.97.7-1.47,1.04-1.82,1.24-3.71,2.37-5.67,3.39-.95.49-1.91.96-2.89,1.39-.11.05-.88.39-.39.18.45-.19-.2.08-.23.1-.66.27-1.31.53-1.97.8-2.4.99-4.94,2-6.93,3.73-1.71,1.5-2.84,3.88-3.84,5.88-1.08,2.15-2.39,4.43-2.7,6.83-.35,2.72,3.18,5.36,5.7,4.34s2.96-2.6,3.9-4.77.71-4.93-1.61-6.16c-1.94-1.03-5.16-.69-6.16,1.61h0Z"/><path class="cls-7" d="m239.74,227.64c-.36.46.5-.63.6-.75.29-.37.59-.73.88-1.1.64-.79,1.29-1.57,1.95-2.35,1.19-1.4,2.4-2.78,3.66-4.13.63-.68,1.28-1.34,1.96-1.97.36-.34.74-.66,1.12-.99.7-.6-.39.21.45-.33,1.28-.83,2.59-1.57,3.97-2.21.12-.06,1.15-.53.51-.24s.54-.21.66-.26c.6-.23,1.21-.44,1.82-.64,1.32-.43,2.66-.78,4.01-1.1,3.32-.79,6.68-1.39,10.01-2.08,2.31-.47,3.86-3.33,3.14-5.54-.79-2.45-3.06-3.65-5.54-3.14-6.63,1.36-13.31,2.41-19.47,5.36-7.43,3.56-12.59,10.55-17.52,16.92-1.45,1.87-.35,5.12,1.61,6.16,2.39,1.26,4.61.38,6.16-1.61h0Z"/><path class="cls-8" d="m182.96,232.18c-1.82.09-3.63.1-5.45,0-.83-.05-1.67-.12-2.5-.22-.13-.01-1.47-.2-.41-.05-.53-.08-1.05-.16-1.57-.25-3.18-.53-6.31-1.3-9.48-1.87-7.38-1.35-14.85-1.21-22.32-1.47-1.61-.06-3.22-.14-4.82-.26-.87-.07-1.74-.17-2.6-.25-1.42-.14.88.15-.53-.07-.57-.09-1.14-.18-1.71-.28-1.7-.31-3.39-.71-5.04-1.23-.83-.26-1.65-.56-2.46-.87-1.3-.51.41.2-.37-.16-.49-.23-.98-.46-1.46-.7-3.61-1.79-7.11-3.7-10.86-5.18-3.29-1.3-6.69-2.32-10.15-3.04-8.49-1.77-17.09-1.88-25.63-.41-2.33.4-3.84,3.38-3.14,5.54.81,2.51,3.04,3.57,5.54,3.14.43-.07.87-.14,1.31-.21,1.42-.24-.88.09.55-.08.88-.1,1.75-.2,2.63-.27,1.9-.15,3.82-.21,5.73-.18,1.62.02,3.23.11,4.84.26.44.04.88.09,1.32.14.06,0,1.5.2.55.07,1.02.15,2.03.32,3.05.51,3.47.67,6.88,1.64,10.19,2.9.41.16.82.32,1.24.48,1.34.53-.76-.36.56.23.67.3,1.35.61,2.01.93,1.8.87,3.54,1.84,5.32,2.74,6.85,3.46,14.14,4.78,21.75,5.17,3.53.18,7.07.2,10.6.3,1.77.05,3.54.11,5.3.23.88.06,1.76.13,2.63.22.44.04.87.1,1.31.14,1.08.12-.43-.08.54.07,3.63.58,7.2,1.47,10.82,2.09,4.21.73,8.44,1.12,12.71.91,2.35-.12,4.61-1.98,4.5-4.5-.1-2.33-1.98-4.63-4.5-4.5h0Z"/><path class="cls-3" d="m184.15,367.54c-36.5-7.73-81.96-11.93-103.53-47.24-.69-1.14-.2-1.19-.02-2.37.09-.62.53-1.12.71-1.77.33-1.23.99-1.3,1.77-.23,24.03,33.32,64.91,38.17,101.12,50.03,1.11.36,1.65.56,2.83,1.12.28.13.3,1.08.04,1.05-1.34-.19-1.74-.33-2.92-.58Z"/><path class="cls-3" d="m233.67,140.8c-24.15,1.4-43.71,2.42-68.19.35-5.3-.45-5.76-3.14-6.24-8.06-.29-2.98.4-8.49.71-11.43.52-4.85,2.66-7.45,6.88-7.13,19.51,1.5,46.28,1.81,65.63-.18,4.19-.43,6.35,2.56,6.85,7.27.3,2.85.91,8.25.6,11.16-.53,4.8-1.02,7.71-6.24,8.02Z"/><ellipse class="cls-5" cx="199.84" cy="115.93" rx="36.52" ry="4.57"/><path class="cls-3" d="m130.12,160.39l.06-.03-.36.15s.08-.03.13-.03l-.4.05s.09,0,.13,0l-.4-.05c.07.01.14.03.2.06l-.36-.15c.32.14.62.36.91.56s.59.41.88.63l-.3-.23c.62.48,1.2,1.01,1.68,1.63l-.23-.3c.16.21.31.43.45.66.4.67,1.37.98,2.05.54s.97-1.33.54-2.05c-.59-.99-1.4-1.84-2.3-2.56-.49-.39-.99-.75-1.52-1.1-.32-.21-.63-.4-.99-.52-.58-.2-1.14-.11-1.69.15-.32.16-.6.56-.69.9-.1.36-.05.84.15,1.16s.51.6.9.69c.41.09.78.03,1.16-.15h0Z"/><path class="cls-3" d="m131.48,162.13c.06.02.13.04.19.07l-.36-.15c.18.08.35.19.51.31l-.3-.23c.4.32.78.66,1.16.99s.8.67,1.12,1.07l-.23-.3c.14.18.25.37.34.58l-.15-.36c.07.17.11.34.14.51l-.05-.4c.02.16.02.31,0,.46l.05-.4s-.01.09-.02.13c-.08.4-.06.8.15,1.16.18.31.54.61.9.69.75.17,1.68-.23,1.85-1.05s.06-1.57-.29-2.32c-.26-.57-.7-1.03-1.16-1.44-.42-.37-.84-.74-1.26-1.1-.54-.46-1.07-.9-1.77-1.11-.75-.23-1.67.27-1.85,1.05s.24,1.6,1.05,1.85h0Z"/><path class="cls-3" d="m134.85,154.44c-.43.2-.87.45-1.18.82-.49.58-.74,1.3-.57,2.06.24,1.08,1.34,1.65,2.19,2.22.17.11.34.23.51.35.08.06.18.11.25.18-.27-.27-.06-.04.02.02.41.34.82.69,1.26,1,.32.23.66.43,1,.64.17.1.34.21.5.32.1.06.19.13.28.2.31.22-.19-.15.05.04.32.26.64.44,1.06.44.37,0,.81-.16,1.06-.44.51-.55.65-1.59,0-2.12s-1.3-.93-1.98-1.36c-.15-.1-.3-.2-.45-.3-.04-.03-.28-.19-.09-.06s-.05-.04-.09-.07c-.36-.3-.72-.61-1.1-.89-.57-.43-1.19-.81-1.77-1.23-.29-.21.26.22.04.02-.17-.15.1.15.14.23.09.2.09.38.05.59.03-.11.03-.1-.02.03-.06.13-.06.14,0,.03-.06.1-.21.26-.04.08.11-.13-.28.17-.05.05.16-.09.32-.17.48-.25.71-.33.95-1.41.54-2.05-.47-.73-1.29-.89-2.05-.54h0Z"/><path class="cls-2" d="m204.62,114.77c-2.4,1.09-6.4,1.44-8.77,1.27-3.13-.24-5.69.77-5.85-3.94-1.42-41.7-5.7-51.6-47.65-64.89-4.73-1.5-2.88-3.55-2.29-6.54.44-2.27,1.83-5.83,3.63-7.81,2.38-2.61,1.67-4.51,7.09-2.88,47.97,14.42,56.77,32.44,58.72,79.12.22,5.27-1.7,4.23-4.87,5.67Z"/><path class="cls-7" d="m205.78,114.69c-2.98.21-5.97.5-8.95.61-2.49.1-5.19-.13-6.84-2.23-.5-.64-1.6-.52-2.12,0-.63.63-.5,1.48,0,2.12,1.89,2.41,5.1,3.13,8.02,3.13,3.29,0,6.61-.4,9.89-.63,1.91-.14,1.93-3.14,0-3h0Z"/></svg>