<?xml version="1.0" encoding="UTF-8"?><svg id="Layer_1" xmlns="http://www.w3.org/2000/svg" width="630" height="380" viewBox="0 0 630 380"><defs><style>.cls-1{fill:#776f49;}.cls-1,.cls-2,.cls-3,.cls-4,.cls-5{stroke-width:0px;}.cls-2{fill:#6c774a;}.cls-3{fill:#8b9b61;}.cls-4{fill:#a0965c;}.cls-5{fill:#fff;}</style></defs><path class="cls-1" d="m149.33,102.54c32.86-2.69,52.41-44.24,77.39-41.31,16.25,1.91,45.52-16.91,71.03-4.11,26.35,13.22,14.98,39.4,28.19,53.3,12.99,13.67,52.63-4.73,66.08,12.54,13.82,17.75-17.38,44.82-6.17,61.11,10.65,15.47,1.35,42.9-12.19,58.63-23.03,26.76-37,47.79-58.44,30.14-22.12-18.21-54.9,24.82-75.63,27.14-15.96,1.78-24.42-45.2-61.31-34.68-7.48,2.13-60.89,11.64-81.85-13.07-12.85-15.14-57.18,23.33-70.5,2.16-16.96-26.96-8.39-79.87-10.85-95.46-2.29-14.48,44.88-85.6,72.23-85.41,32.33.23,35.73,31.17,62.01,29.02Z"/><path class="cls-4" d="m175.79,61.5c32.86-2.69,52.41-44.24,77.39-41.31,16.25,1.91,45.52-16.91,71.03-4.11,26.35,13.22,14.98,39.4,28.19,53.3,12.99,13.67,52.63-4.73,66.08,12.54,13.82,17.75-17.38,44.82-6.17,61.11,10.65,15.47,1.35,42.9-12.19,58.63-23.03,26.76-37,47.79-58.44,30.14-22.12-18.21-54.9,24.82-75.63,27.14-15.96,1.78-24.42-45.2-61.31-34.68-7.48,2.13-60.89,11.64-81.85-13.07-12.85-15.14-57.18,23.33-70.5,2.16-16.96-26.96-8.39-79.87-10.85-95.46-2.29-14.48,44.88-85.6,72.23-85.41,32.33.23,35.73,31.17,62.01,29.02Z"/><path class="cls-2" d="m467.32,309.42c-32.39,6.17-47.41,49.57-72.55,49.31-16.36-.17-43.46,21.66-70.19,11.64-27.61-10.34-19.09-37.58-33.71-50-14.37-12.21-51.83,10.3-67.04-5.44-15.63-16.18,12.51-46.41-.37-61.42-12.24-14.25-5.9-42.51,5.88-59.6,20.05-29.06,31.7-51.45,54.9-36.19,23.94,15.75,51.95-30.53,72.31-35.03,15.68-3.47,29.1,42.34,64.65,27.96,7.21-2.92,59.31-18.05,82.77,4.28,14.39,13.69,54.37-29.28,69.87-9.65,19.74,25,16.85,78.52,20.95,93.76,3.81,14.16-35.52,89.89-62.73,92.61-32.17,3.22-38.84-27.19-64.75-22.25Z"/><path class="cls-3" d="m494.06,281.48c-32.39,6.17-47.41,49.57-72.55,49.31-16.36-.17-43.46,21.66-70.19,11.64-27.61-10.34-19.09-37.58-33.71-50-14.37-12.21-51.83,10.3-67.04-5.44-15.63-16.18,12.51-46.41-.37-61.42-12.24-14.25-5.9-42.51,5.88-59.6,20.05-29.06,31.7-51.45,54.9-36.19,23.94,15.75,51.95-30.53,72.31-35.03,15.68-3.47,29.1,42.34,64.65,27.96,7.21-2.92,59.31-18.05,82.77,4.28,14.39,13.69,54.37-29.28,69.87-9.65,19.74,25,16.85,78.52,20.95,93.76,3.81,14.16-35.52,89.89-62.73,92.61-32.17,3.22-38.84-27.19-64.75-22.25Z"/><path class="cls-5" d="m151.18,174.28c-.79.47-1.63.76-2.5.85-.87.09-1.75-.02-2.65-.33-.9-.32-1.78-.86-2.64-1.62-.86-.76-1.66-1.76-2.4-2.99-.57-.95-1.01-1.88-1.31-2.77-.3-.9-.51-1.72-.63-2.49-.12-.76-.16-1.45-.12-2.05.04-.6.1-1.1.17-1.48l22.06-13.2c1.44.67,2.73,1.58,3.86,2.73,1.13,1.15,2.08,2.38,2.86,3.69.9,1.51,1.54,2.99,1.93,4.45.38,1.46.56,2.73.53,3.8l-1.53.91,6.76,11.3c-.46,1.43-1.07,2.91-1.85,4.43s-1.77,3.05-2.99,4.58c-1.22,1.53-2.71,3.06-4.46,4.58-1.75,1.52-3.81,3-6.2,4.42-2.31,1.38-4.69,2.52-7.15,3.41-2.46.89-4.94,1.48-7.43,1.76-2.49.28-4.97.23-7.42-.16s-4.84-1.17-7.16-2.34c-2.32-1.17-4.53-2.77-6.64-4.8s-4.06-4.55-5.87-7.57c-2.52-4.22-4.1-8.3-4.72-12.24-.62-3.94-.43-7.67.59-11.17,1.02-3.51,2.8-6.75,5.34-9.74,2.54-2.99,5.73-5.63,9.58-7.93,2.01-1.2,4.07-2.21,6.18-3.01s4.17-1.42,6.17-1.85c2-.43,3.9-.68,5.71-.76,1.81-.07,3.43.02,4.87.28.5.83.99,1.76,1.47,2.8.49,1.04.94,2.09,1.36,3.15.42,1.06.77,2.1,1.05,3.11.28,1.01.46,1.88.53,2.62l-19.61,11.73c-.1.5-.18,1.15-.23,1.93-.05.78-.02,1.66.1,2.62.12.97.36,2.02.72,3.15.36,1.13.9,2.3,1.62,3.51.92,1.53,1.9,2.74,2.96,3.63,1.05.89,2.12,1.51,3.19,1.88,1.08.36,2.14.48,3.19.34s2.02-.47,2.91-1c.45-.27.71-.53.78-.8.08-.27.05-.51-.09-.74l-.52-.87-.41.25Z"/><path class="cls-5" d="m173.13,126.34c.89-1.01,1.94-1.99,3.14-2.95,1.2-.96,2.51-1.84,3.92-2.66,1.41-.82,2.9-1.56,4.47-2.22s3.18-1.23,4.82-1.68c2.17-.6,4.38-1,6.62-1.2,2.24-.2,4.35-.12,6.34.24,1.99.36,3.8,1.03,5.42,2.02,1.63.99,2.92,2.35,3.88,4.09l20.62,37.24c-.82,2.02-2.23,3.89-4.25,5.6-2.01,1.71-4.79,3.06-8.32,4.05-1.56.43-3.06.7-4.5.8-1.44.1-2.76.02-3.96-.24s-2.25-.71-3.17-1.35c-.91-.64-1.63-1.5-2.13-2.57l-2.35-4.9c.85-.27,1.68-.61,2.48-1.03.8-.42,1.5-.86,2.11-1.32.61-.46,1.08-.92,1.42-1.37.34-.46.46-.86.37-1.2-.13-.45-.41-.77-.85-.95-.4.51-.89,1-1.48,1.48-.59.48-1.22.92-1.9,1.33-.68.4-1.38.76-2.09,1.06-.71.3-1.39.54-2.03.72-1.2.33-2.28.55-3.26.66-.98.1-1.84.14-2.6.11-.76-.03-1.43-.11-2-.24-.58-.13-1.07-.27-1.47-.43-.07.17-.12.36-.16.57-.03.21-.02.42.05.65.12.42.44.75.97.98.53.23,1.19.38,1.99.45.8.07,1.69.05,2.67-.04.98-.09,1.99-.25,3.04-.48.72,1.93,1.34,3.45,1.88,4.56.53,1.11.94,1.8,1.22,2.05-.12.55-.47,1.2-1.05,1.96-.59.75-1.36,1.53-2.33,2.31-.97.79-2.11,1.53-3.43,2.23s-2.77,1.27-4.36,1.71c-1.98.55-3.91.84-5.79.88-1.88.04-3.59-.16-5.12-.6-1.53-.44-2.85-1.12-3.94-2.05-1.1-.92-1.84-2.09-2.23-3.5-.09-.31-.16-.63-.22-.96s-.1-.68-.11-1.04l-2.3-42.74Zm25.69,16.32c-.78-1.61-1.4-2.89-1.86-3.86-.46-.96-.86-1.68-1.18-2.15-.33-.47-.62-.76-.87-.85-.25-.1-.53-.1-.84-.02-.2.05-.37.13-.52.24-.15.1-.29.2-.41.3l3.96,8.1c.14.08.33.12.55.12.23,0,.42-.03.59-.07.25-.07.48-.17.68-.3.2-.13.35-.24.45-.33l-.55-1.17Z"/><path class="cls-5" d="m266.4,155.8c1.03-.14,2.16-.53,3.41-1.15,1.24-.62,2.49-1.7,3.73-3.24.56-.71.86-1.35.91-1.9.07-.76-.27-1.17-1.02-1.24-.06,0-.11,0-.15,0-.04.01-.1.01-.15,0-2.43,4.1-5.88,5.96-10.38,5.56-1.12-.1-2.16-.31-3.1-.63-.94-.32-1.81-.78-2.6-1.38-.79-.6-1.52-1.37-2.19-2.31-.67-.94-1.29-2.08-1.87-3.43l-.26-.02c-.32-.03-.6.02-.84.15-.24.13-.38.38-.42.76-.04.5.08,1.04.38,1.62.54,1.11,1.14,2.07,1.81,2.89.67.82,1.36,1.52,2.08,2.1.72.58,1.44,1.03,2.16,1.36.73.33,1.39.55,1.99.66l-1.08,8.23c-.79.43-1.62.81-2.47,1.15-.86.34-1.82.6-2.88.78s-2.25.29-3.58.32c-1.32.03-2.83-.03-4.53-.18-1.61-.14-3.28-.45-5.01-.93-1.73-.48-3.29-1.15-4.69-2.03-1.4-.87-2.53-1.94-3.39-3.19-.86-1.25-1.21-2.74-1.06-4.46.08-.9.23-2.13.46-3.68.23-1.55.5-3.31.84-5.28.33-1.97.71-4.09,1.11-6.38.41-2.28.83-4.59,1.27-6.92.44-2.33.88-4.63,1.31-6.91.44-2.28.86-4.4,1.26-6.37.41-1.96.77-3.71,1.1-5.24.32-1.53.6-2.72.82-3.59.9-.68,1.91-1.24,3.02-1.67,1.11-.43,2.26-.75,3.46-.95,1.19-.2,2.39-.32,3.58-.34,1.19-.03,2.33,0,3.43.11,1.96.17,3.86.56,5.71,1.17,1.85.6,3.36,1.31,4.53,2.12l1.66,8.26-2.08,6.29c-.08.23-.14.44-.19.64-.05.2-.08.4-.1.61-.09.99.44,1.57,1.59,1.73l5.64-16.91c.51-.22,1.16-.44,1.95-.66.79-.22,1.66-.41,2.62-.56.96-.15,1.99-.25,3.1-.3,1.11-.05,2.24-.02,3.39.08,2.04.18,3.82.51,5.33.98,1.51.47,2.76,1.13,3.74,1.96s1.73,1.88,2.22,3.13c.5,1.25.77,2.76.82,4.52.04,1.85.09,4.09.16,6.71.07,2.62.14,5.4.2,8.33.06,2.93.11,5.89.17,8.9.05,3,.08,5.82.1,8.45.01,2.63,0,4.96-.01,6.99-.02,2.03-.07,3.52-.16,4.48-3.5,3.13-8.26,4.42-14.27,3.89-1.9-.17-3.63-.48-5.18-.95-1.56-.46-2.87-1.07-3.95-1.83-1.08-.76-1.91-1.65-2.5-2.67-.59-1.02-.89-2.19-.88-3.52l-.02-4.15Z"/><path class="cls-5" d="m353.99,137.18c.09.71.13,1.48.11,2.29-.02.81-.1,1.62-.24,2.44-.15.82-.33,1.62-.55,2.4-.22.78-.48,1.49-.77,2.13-1.23,2.75-2.68,4.56-4.33,5.42-1.65.86-3.4.88-5.25.05l-15.94-7.15c-.98-.44-1.64-.27-1.98.51-.02.05-.07.16-.14.32s-.09.28-.06.36l18.91,8.48c.06.51.07,1.08.03,1.72-.03.64-.11,1.3-.24,1.96-.12.67-.28,1.33-.47,2-.19.67-.41,1.28-.66,1.84-.72,1.6-1.52,2.97-2.41,4.09-.89,1.13-1.78,1.99-2.68,2.58l-8.58-3.85c-2.24-1.01-4.12-1.78-5.64-2.31s-2.74-.9-3.67-1.09c-.93-.19-1.61-.25-2.06-.18-.44.07-.72.23-.83.47-.1.21-.15.43-.17.65-.02.22.06.45.24.69.75.08,1.51.2,2.27.34.76.15,1.58.36,2.47.65.89.29,1.86.63,2.93,1.05,1.07.41,2.28.93,3.66,1.54l11.12,4.98c.1.56.18,1.16.23,1.81.06.65.04,1.37-.04,2.15-.08.78-.25,1.65-.5,2.59-.25.95-.63,1.99-1.15,3.14-.32.72-.72,1.46-1.19,2.23-.47.77-.99,1.5-1.56,2.21-.57.71-1.19,1.34-1.85,1.91s-1.36,1.01-2.07,1.33l-29.63-13.29c-1.56-.7-2.92-1.54-4.09-2.53-1.17-.99-2.08-2.12-2.71-3.38-.64-1.26-.97-2.65-.99-4.15-.02-1.5.35-3.12,1.13-4.86l17.08-38.1c.58-1.28,2.46-1.56,5.65-.83,3.19.73,7.79,2.44,13.81,5.13l22.83,10.24Z"/><path class="cls-5" d="m354.92,205.6c-2.09-1.24-4.02-2.68-5.8-4.33-1.78-1.65-3.3-3.47-4.58-5.45-1.28-1.98-2.27-4.12-2.98-6.41-.71-2.29-1.06-4.71-1.06-7.26s.41-5.22,1.22-8.01c.81-2.79,2.1-5.66,3.86-8.63,2.61-4.4,5.54-7.81,8.79-10.23,3.25-2.41,6.61-4.01,10.1-4.78,3.48-.77,6.98-.8,10.5-.07,3.52.73,6.87,2.03,10.05,3.92,3.78,2.24,6.8,4.88,9.07,7.91,2.27,3.03,3.78,6.29,4.54,9.76.76,3.48.76,7.12.02,10.93-.75,3.81-2.24,7.6-4.48,11.38-2.66,4.48-5.57,7.96-8.74,10.44-3.17,2.48-6.45,4.11-9.86,4.9s-6.86.8-10.37.05c-3.5-.75-6.93-2.12-10.29-4.11Zm17.67-26.38c.72-1.21,1.31-2.26,1.77-3.16.46-.9.81-1.67,1.03-2.33.19-.6.23-1.05.12-1.36-.11-.3-.3-.53-.57-.7-.27-.16-.51-.24-.71-.24-.2,0-.37,0-.52.02-.24.47-.46.91-.64,1.33-.18.42-.4.89-.65,1.4s-.56,1.1-.92,1.75c-.36.66-.81,1.45-1.36,2.38l-1.46,2.45c-.55.93-1.03,1.71-1.44,2.34-.41.63-.77,1.17-1.1,1.64-.33.47-.63.88-.91,1.24-.28.36-.57.76-.86,1.2.05.13.13.29.23.47.1.18.28.35.56.51.27.16.57.22.88.17.31-.05.69-.3,1.13-.76.47-.51.98-1.18,1.55-2.02.56-.84,1.21-1.86,1.92-3.07l1.95-3.29Z"/><path class="cls-5" d="m403.08,174.19c1.96-1.3,4.16-2.01,6.61-2.12s5.01.4,7.71,1.53c2.1.89,3.81,1.88,5.12,2.99,1.31,1.11,2.32,2.26,3.03,3.47.72,1.21,1.17,2.45,1.37,3.72.2,1.28.25,2.53.14,3.75l-12.1,25.15c.29.22.55.37.79.47.43.18.83.18,1.2,0s.75-.64,1.13-1.4l14.17-28.71c.62-.21,1.41-.31,2.36-.29.95.02,1.95.12,3.01.29,1.06.17,2.11.41,3.17.69,1.06.29,2.01.61,2.86.97,2.1.89,3.81,1.91,5.1,3.08,1.3,1.17,2.24,2.42,2.84,3.75.6,1.33.87,2.69.82,4.08-.05,1.39-.37,2.77-.95,4.15-.69,1.65-2.88,5.02-6.55,10.13-3.67,5.11-8.87,12.09-15.58,20.95-1.25,1.63-2.66,2.83-4.21,3.58-1.56.76-3.24,1.17-5.04,1.24-1.8.07-3.7-.14-5.69-.63-1.99-.49-4.02-1.17-6.1-2.05-1.41-.6-2.76-1.26-4.05-1.99-1.29-.73-2.49-1.52-3.6-2.35-1.11-.83-2.1-1.71-2.96-2.63-.87-.92-1.57-1.86-2.11-2.82-.07-2.6.04-5.71.31-9.33.27-3.62.71-7.56,1.33-11.82.62-4.26,1.42-8.76,2.38-13.48.97-4.72,2.13-9.51,3.49-14.37Z"/><path class="cls-5" d="m496.95,195.84c.28.66.52,1.39.73,2.17.21.79.35,1.59.43,2.42.08.83.12,1.65.12,2.46,0,.81-.06,1.57-.16,2.26-.44,2.98-1.34,5.11-2.7,6.39-1.36,1.28-3.04,1.77-5.04,1.47l-17.28-2.56c-1.06-.16-1.65.19-1.77,1.03,0,.06-.03.17-.05.35-.03.17-.01.29.03.36l20.5,3.03c.19.47.36,1.02.5,1.65.14.63.24,1.28.3,1.95.06.67.09,1.36.09,2.06,0,.7-.05,1.35-.14,1.96-.26,1.74-.66,3.27-1.21,4.59-.55,1.33-1.17,2.39-1.88,3.21l-9.31-1.38c-2.43-.36-4.45-.59-6.06-.7-1.61-.1-2.88-.12-3.83-.06-.95.07-1.62.2-2.03.39-.41.19-.63.42-.67.68-.03.23-.03.46.01.67.04.21.18.41.42.59.75-.13,1.51-.22,2.28-.28.77-.06,1.62-.08,2.55-.04.93.03,1.96.11,3.1.21,1.14.11,2.45.27,3.94.49l12.05,1.78c.25.51.48,1.07.72,1.68.23.61.41,1.3.55,2.08.13.77.21,1.65.22,2.63.02.98-.07,2.09-.25,3.34-.12.78-.3,1.61-.54,2.47-.25.87-.55,1.72-.9,2.55-.36.83-.78,1.62-1.27,2.34-.49.73-1.03,1.34-1.63,1.84l-32.12-4.75c-1.69-.25-3.23-.69-4.62-1.33-1.4-.63-2.57-1.47-3.53-2.52-.96-1.04-1.65-2.29-2.08-3.72-.43-1.44-.51-3.1-.23-4.98l6.11-41.3c.21-1.39,1.94-2.17,5.21-2.34,3.27-.17,8.16.23,14.68,1.19l24.75,3.66Z"/><path class="cls-5" d="m555.67,234.1c-.07,4.5-1.13,8.11-3.19,10.82-2.05,2.71-5.17,4.26-9.34,4.65-1.35.13-2.73.09-4.12-.1-1.4-.19-2.77-.64-4.13-1.35-1.36-.71-2.67-1.73-3.92-3.07s-2.4-3.09-3.41-5.26l-1.96-4.14c-1.12.08-2.04.1-2.74.06-.7-.04-1.33-.07-1.88-.11-.08.1-.15.22-.2.37-.06.15-.07.36-.05.62.03.35.29.63.77.83.48.21,1.43.29,2.85.24l3.05,6.06.35,3.71c-1.5,1.32-3.33,2.38-5.49,3.18-2.16.8-4.46,1.32-6.91,1.55-1.78.17-3.43.14-4.95-.09-1.52-.22-2.86-.67-4.02-1.32-1.17-.65-2.1-1.51-2.81-2.58-.71-1.06-1.14-2.37-1.28-3.92l-3.9-41.53c-.06-.67.21-1.36.81-2.08.6-.72,1.45-1.42,2.55-2.11,1.1-.69,2.4-1.35,3.91-1.98,1.51-.63,3.13-1.2,4.87-1.71,1.74-.52,3.55-.96,5.45-1.33,1.9-.37,3.78-.64,5.65-.82,4.17-.39,8.02-.3,11.54.28,3.52.58,6.59,1.65,9.21,3.21,2.61,1.56,4.71,3.6,6.3,6.11,1.59,2.51,2.54,5.52,2.87,9.01.19,2.04.06,3.95-.4,5.73-.46,1.78-1.14,3.39-2.05,4.82s-2.02,2.7-3.33,3.77c-1.31,1.08-2.71,1.94-4.22,2.58.05.52.23.88.53,1.05.31.18.66.25,1.06.21.4-.04.99-.24,1.77-.61.78-.37,1.64-.98,2.57-1.83l8.19,7.04Zm-31.4-14.91c.09.05.23.07.42.07.19,0,.31,0,.37-.01.69-.07,1.16-.33,1.41-.79.25-.46.32-1.19.23-2.18l-.15-1.57c-.1-1.02-.29-1.75-.58-2.19-.29-.44-.76-.63-1.43-.57-.14.01-.32.04-.51.09-.2.05-.35.11-.46.18.05.23.09.48.11.74.02.26.05.54.08.83l.51,5.42Z"/></svg>