<?xml version="1.0" encoding="UTF-8"?><svg id="Layer_1" xmlns="http://www.w3.org/2000/svg" width="650" height="220" viewBox="0 0 650 220"><defs><style>.cls-1{fill:#f4ed9a;stroke:#f4ed9a;stroke-width:5px;}.cls-1,.cls-2,.cls-3{stroke-miterlimit:10;}.cls-2{fill:#e8cde3;stroke:#b7e0e5;}.cls-2,.cls-3{stroke-width:30px;}.cls-3{fill:#eab9e4;stroke:#86eaf2;}.cls-4{fill:#e4eeef;stroke-width:0px;}</style></defs><rect class="cls-2" x="29.87" y="54.92" width="576.78" height="139.34" rx="69.67" ry="69.67"/><rect class="cls-3" x="41.08" y="38.24" width="576.78" height="139.34" rx="69.67" ry="69.67"/><path class="cls-1" d="m81.32,119.28c-2.1-1.02-3.15-2.53-3.15-4.53,0-.9.29-2.44.86-4.61,1.04-3.67,1.55-6.92,1.55-9.76,0-2.17-.16-3.86-.47-5.08-.32-1.22-1.05-2.38-2.2-3.48-.58-.53-.86-.92-.86-1.15,0-.4.39-.82,1.16-1.25s1.75-.8,2.93-1.1c1.18-.3,2.29-.45,3.32-.45,1.84,0,3.03.4,3.58,1.2.55.8.82,2.14.82,4,0,1-.46,3.77-1.38,8.31-.92,4.04-1.38,7.03-1.38,8.96,0,1.37.27,2.39.82,3.08.55.68,1.45,1.14,2.72,1.38,1.26.27,3.05.4,5.35.4,5.12,0,9.66-.52,13.63-1.55.69-.13,1.15-.2,1.38-.2.57,0,1.08.19,1.51.58.43.38.65.89.65,1.53,0,1.47-1.38,2.62-4.14,3.45-3.68,1.2-8.74,1.8-15.18,1.8-5.58,0-9.42-.51-11.51-1.53Z"/><path class="cls-1" d="m118.75,118.63c-2.44-1.45-3.67-3.48-3.67-6.08,0-2.3.89-4.44,2.67-6.41,1.78-1.97,4.2-3.53,7.25-4.68,3.05-1.15,6.35-1.73,9.92-1.73s6.21.49,8.28,1.48c2.07.99,3.11,2.29,3.11,3.93,0,1.3-.69,2.5-2.07,3.6s-3.23,1.98-5.56,2.63c-2.33.65-4.87.98-7.63.98-1.61,0-3.16-.12-4.66-.35-1.5-.23-2.76-.57-3.79-1,.06,1.54.96,2.77,2.72,3.7,1.75.94,4.01,1.4,6.77,1.4,1.67,0,3.38-.18,5.13-.53,1.75-.35,3.26-.83,4.53-1.43.8-.4,1.55-.6,2.24-.6.57,0,1.05.11,1.42.33.37.22.56.49.56.83,0,.73-1.09,1.7-3.28,2.9-3.85,2.14-8.42,3.2-13.71,3.2-4.37,0-7.78-.73-10.22-2.18Zm16.69-10.34c1.38-.5,2.07-1.13,2.07-1.9,0-.63-.46-1.13-1.38-1.48-.92-.35-2.19-.53-3.79-.53-2.19,0-4.05.33-5.61.98-1.55.65-2.67,1.56-3.36,2.73.8.3,1.84.53,3.1.7,1.26.17,2.53.25,3.79.25,2.07,0,3.79-.25,5.17-.75Z"/><path class="cls-1" d="m159.07,116.96c-.17-1.87-.65-3.85-1.42-5.93s-1.68-3.63-2.72-4.63c-.4-.37-.86-.64-1.38-.83-.52-.18-1.24-.31-2.16-.38-.63-.03-1.06-.14-1.29-.33-.23-.18-.34-.51-.34-.98,0-1.27.62-2.25,1.85-2.95,1.24-.7,2.75-1.05,4.53-1.05,3.16,0,5.4,1.06,6.73,3.18,1.32,2.12,1.98,4.71,1.98,7.78l-.09,3.15c0,.4.14.69.43.88.29.18.78.28,1.47.28,1.26,0,2.77-.29,4.53-.88,1.75-.58,3.25-1.39,4.48-2.43,1.24-1.03,1.85-2.17,1.85-3.4,0-.63-.17-1.26-.52-1.88-.34-.62-.83-1.13-1.47-1.53-.75-.47-1.27-.83-1.55-1.08-.29-.25-.43-.53-.43-.83,0-.53.46-1.06,1.38-1.58.92-.52,2.04-.93,3.36-1.25,1.32-.32,2.47-.48,3.45-.48,1.5,0,2.51.36,3.06,1.08.55.72.82,1.64.82,2.78,0,2.44-1.01,5.01-3.02,7.71s-4.61,4.96-7.8,6.76c-3.19,1.8-6.43,2.7-9.7,2.7-3.62,0-5.64-1.3-6.04-3.91Z"/><path class="cls-1" d="m194.39,118.63c-2.44-1.45-3.67-3.48-3.67-6.08,0-2.3.89-4.44,2.67-6.41,1.78-1.97,4.2-3.53,7.25-4.68,3.05-1.15,6.35-1.73,9.92-1.73s6.21.49,8.28,1.48c2.07.99,3.11,2.29,3.11,3.93,0,1.3-.69,2.5-2.07,3.6s-3.23,1.98-5.56,2.63c-2.33.65-4.87.98-7.63.98-1.61,0-3.16-.12-4.66-.35-1.5-.23-2.76-.57-3.79-1,.06,1.54.96,2.77,2.72,3.7,1.75.94,4.01,1.4,6.77,1.4,1.67,0,3.38-.18,5.13-.53,1.75-.35,3.26-.83,4.53-1.43.8-.4,1.55-.6,2.24-.6.57,0,1.05.11,1.42.33.37.22.56.49.56.83,0,.73-1.09,1.7-3.28,2.9-3.85,2.14-8.42,3.2-13.71,3.2-4.37,0-7.78-.73-10.22-2.18Zm16.69-10.34c1.38-.5,2.07-1.13,2.07-1.9,0-.63-.46-1.13-1.38-1.48-.92-.35-2.19-.53-3.79-.53-2.19,0-4.05.33-5.61.98-1.55.65-2.67,1.56-3.36,2.73.8.3,1.84.53,3.1.7,1.26.17,2.53.25,3.79.25,2.07,0,3.79-.25,5.17-.75Z"/><path class="cls-1" d="m230.53,119.83c-.78-.55-1.16-1.48-1.16-2.78,0-1.2.29-3.1.86-5.71.86-3.57,1.29-6.57,1.29-9.01,0-2.6-.2-4.9-.6-6.88-.4-1.99-1.24-3.71-2.5-5.18-.52-.67-.78-1.15-.78-1.45,0-.63.69-1.24,2.07-1.83s2.79-.88,4.23-.88c2.07,0,3.45.76,4.14,2.28.69,1.52,1.04,3.76,1.04,6.73,0,2.3-.14,4.3-.43,6.01-.29,1.7-.69,3.69-1.21,5.96-.63,2.37-.95,4.07-.95,5.11,0,1.1.3,1.92.91,2.45.6.53,1.71,1.07,3.32,1.6.4.13.7.27.91.4.2.13.3.3.3.5,0,.37-.26.83-.78,1.38-.52.55-1.35,1.04-2.5,1.48-1.15.43-2.62.65-4.4.65s-2.98-.28-3.75-.83Z"/><path class="cls-1" d="m282.79,119.21c-3.08-1.07-5.45-2.59-7.12-4.56-1.67-1.97-2.5-4.3-2.5-7.01,0-3.44,1.28-6.68,3.84-9.74,2.56-3.05,6.18-5.51,10.87-7.36,4.68-1.85,10.1-2.78,16.26-2.78,3.68,0,6.64.33,8.88.98,2.24.65,3.36,1.58,3.36,2.78,0,.9-.59,1.77-1.77,2.6-1.18.83-2.46,1.25-3.84,1.25-.57,0-1.04-.08-1.38-.25-1.61-.6-3.16-1.04-4.66-1.33-1.5-.28-3.19-.42-5.09-.42-3.97,0-7.38.53-10.22,1.58-2.85,1.05-5.02,2.47-6.51,4.26-1.5,1.79-2.24,3.73-2.24,5.83s.66,3.77,1.98,5.31c1.32,1.54,3.18,2.74,5.56,3.6,2.39.87,5.13,1.3,8.24,1.3,2.53,0,4.97-.29,7.33-.88,2.36-.58,4.49-1.39,6.38-2.43.8-.43,1.61-.65,2.42-.65.63,0,1.11.16,1.42.48s.47.66.47,1.03c0,.6-.3,1.26-.91,1.98-.6.72-1.48,1.41-2.63,2.08-2.13,1.23-4.74,2.2-7.85,2.9s-6.29,1.05-9.57,1.05c-4.08,0-7.66-.53-10.74-1.6Z"/><path class="cls-1" d="m323.84,118.91c-2.33-1.27-3.49-3.1-3.49-5.51,0-2.24,1-4.34,3.02-6.31-.92.33-1.61.5-2.07.5-.63,0-1.09-.21-1.38-.63-.29-.42-.43-.88-.43-1.38,0-1.13.8-2.09,2.42-2.85,1.55-.77,3.64-1.47,6.25-2.1s5.53-.95,8.75-.95c4.94,0,8.78.8,11.51,2.4,2.73,1.6,4.1,3.84,4.1,6.71,0,2.24-.81,4.27-2.42,6.11-1.61,1.84-3.87,3.28-6.77,4.33-2.9,1.05-6.2,1.58-9.88,1.58-4.08,0-7.29-.63-9.62-1.9Zm19.62-4.81c1.95-1.07,2.93-2.45,2.93-4.16s-.95-2.96-2.85-3.78c-1.9-.82-4.28-1.23-7.16-1.23-2.01,0-4.03.23-6.04.7-2.07,1.7-3.11,3.37-3.11,5.01s.83,2.85,2.5,3.73c1.67.88,3.79,1.33,6.38,1.33,2.93,0,5.38-.53,7.33-1.6Z"/><path class="cls-1" d="m361.23,119.51c1.49-3.54,2.24-6.42,2.24-8.66,0-1.67-.17-2.93-.52-3.78-.34-.85-.81-1.43-1.38-1.73-.58-.3-1.41-.57-2.5-.8-1.04-.23-1.55-.6-1.55-1.1,0-.47.33-.99.99-1.58.66-.58,1.58-1.08,2.76-1.48,1.18-.4,2.49-.6,3.92-.6,3.45,0,5.17,1.42,5.17,4.25,0,1.37-.43,3.24-1.29,5.61l.17.05c3.51-6.64,8.51-9.96,15.01-9.96,2.64,0,4.7.52,6.17,1.55,1.47,1.04,2.2,2.52,2.2,4.46v1.1c3.85-4.77,8.77-7.16,14.75-7.16,2.7,0,4.84.53,6.42,1.58,1.58,1.05,2.37,2.4,2.37,4.03,0,1-.38,2.19-1.12,3.55-.69,1.47-1.04,2.59-1.04,3.35,0,2,1.47,3.3,4.4,3.91.46.13.79.26.99.38.2.12.3.31.3.58,0,.73-.49,1.52-1.47,2.35s-2.59,1.25-4.83,1.25-3.9-.47-5.13-1.4c-1.24-.93-1.85-2.15-1.85-3.65,0-1.37.4-2.9,1.21-4.61.69-1.54,1.03-2.69,1.03-3.45s-.32-1.34-.95-1.73c-.63-.38-1.52-.58-2.67-.58-2.59,0-4.84.66-6.77,1.98-1.93,1.32-3.58,3.03-4.96,5.13.11.8.17,1.62.17,2.45,0,1.67-.35,2.92-1.04,3.75-1.04,1.43-2.9,2.15-5.61,2.15-.75,0-1.38-.08-1.9-.23-.52-.15-.78-.39-.78-.73.06-.2.42-1.36,1.08-3.48.66-2.12.99-4.35.99-6.68,0-1.57-.27-2.67-.82-3.3-.55-.63-1.42-.95-2.63-.95-2.59,0-4.99,1.12-7.2,3.35-2.21,2.24-3.9,4.64-5.04,7.21v.55c0,1.27-.6,2.29-1.81,3.08-1.21.78-2.79,1.18-4.74,1.18-2.07,0-2.99-.4-2.76-1.2Z"/><path class="cls-1" d="m426.52,133.1c-.92-.58-1.38-1.56-1.38-2.93,0-1.57.63-4.34,1.9-8.31,1.67-5.74,2.5-9.76,2.5-12.06,0-1.4-.27-2.54-.82-3.4-.55-.87-1.51-1.43-2.89-1.7-.75-.17-1.31-.33-1.68-.5-.38-.17-.56-.42-.56-.75,0-.47.33-.99.99-1.58.66-.58,1.58-1.08,2.76-1.48,1.18-.4,2.49-.6,3.92-.6,3.45,0,5.17,1.42,5.17,4.25,0,.83-.12,1.6-.34,2.3,1.78-2,4.05-3.61,6.81-4.83,2.76-1.22,5.78-1.83,9.06-1.83,3.45,0,6.17.68,8.15,2.03s2.98,3.18,2.98,5.48-.81,4.5-2.42,6.58c-1.61,2.09-3.87,3.78-6.77,5.08-2.9,1.3-6.2,1.95-9.88,1.95s-6.9-.75-9.49-2.25c-.63,2.57-.95,4.77-.95,6.61,0,1.3.24,2.29.73,2.95.49.67,1.45,1.18,2.89,1.55.63.2.95.47.95.8,0,.37-.25.83-.73,1.38-.49.55-1.31,1.04-2.46,1.48-1.15.43-2.59.65-4.31.65-1.84,0-3.22-.29-4.14-.88Zm27-19.42c1.84-1.15,2.76-2.56,2.76-4.23,0-1.33-.63-2.39-1.9-3.15-1.27-.77-2.96-1.15-5.09-1.15-3.05,0-5.66.74-7.85,2.23-2.19,1.49-3.88,3.38-5.09,5.68,2.87,1.57,6.09,2.35,9.66,2.35,3.16,0,5.66-.58,7.5-1.73Z"/><path class="cls-1" d="m472.36,119.83c-.78-.55-1.17-1.48-1.17-2.78,0-1.2.29-3.1.86-5.71.86-3.57,1.29-6.57,1.29-9.01,0-2.6-.2-4.9-.6-6.88-.4-1.99-1.24-3.71-2.5-5.18-.52-.67-.78-1.15-.78-1.45,0-.63.69-1.24,2.07-1.83s2.79-.88,4.23-.88c2.07,0,3.45.76,4.14,2.28.69,1.52,1.04,3.76,1.04,6.73,0,2.3-.14,4.3-.43,6.01-.29,1.7-.69,3.69-1.21,5.96-.63,2.37-.95,4.07-.95,5.11,0,1.1.3,1.92.91,2.45.6.53,1.71,1.07,3.32,1.6.4.13.7.27.91.4.2.13.3.3.3.5,0,.37-.26.83-.78,1.38s-1.35,1.04-2.5,1.48-2.62.65-4.4.65-2.98-.28-3.75-.83Z"/><path class="cls-1" d="m492.71,118.63c-2.44-1.45-3.67-3.48-3.67-6.08,0-2.3.89-4.44,2.67-6.41,1.78-1.97,4.2-3.53,7.24-4.68,3.05-1.15,6.35-1.73,9.92-1.73s6.21.49,8.28,1.48c2.07.99,3.1,2.29,3.1,3.93,0,1.3-.69,2.5-2.07,3.6-1.38,1.1-3.23,1.98-5.56,2.63-2.33.65-4.87.98-7.63.98-1.61,0-3.16-.12-4.66-.35-1.5-.23-2.76-.57-3.79-1,.06,1.54.96,2.77,2.72,3.7,1.75.94,4.01,1.4,6.77,1.4,1.67,0,3.38-.18,5.13-.53,1.75-.35,3.26-.83,4.53-1.43.8-.4,1.55-.6,2.24-.6.57,0,1.05.11,1.42.33.37.22.56.49.56.83,0,.73-1.09,1.7-3.28,2.9-3.85,2.14-8.42,3.2-13.71,3.2-4.37,0-7.78-.73-10.22-2.18Zm16.69-10.34c1.38-.5,2.07-1.13,2.07-1.9,0-.63-.46-1.13-1.38-1.48-.92-.35-2.19-.53-3.79-.53-2.19,0-4.05.33-5.61.98-1.55.65-2.67,1.56-3.36,2.73.8.3,1.84.53,3.1.7,1.26.17,2.53.25,3.79.25,2.07,0,3.79-.25,5.17-.75Z"/><path class="cls-1" d="m532.04,118.88c-1.58-1.28-2.37-3.06-2.37-5.33,0-1.03.23-2.52.69-4.46l.95-4.16c-1.21.2-2.42.3-3.62.3-.63,0-1.11-.07-1.42-.2-.32-.13-.47-.37-.47-.7,0-.8.82-1.87,2.46-3.2,1.64-1.33,3.52-2.51,5.65-3.53,2.13-1.02,3.85-1.53,5.17-1.53s1.9.63,1.9,1.9c0,.57-.14,1.27-.43,2.1,2.87-.33,5.06-.5,6.55-.5,1.38,0,2.42.14,3.1.43.69.28,1.04.79,1.04,1.53,0,.8-.34,1.6-1.04,2.4-.69.8-1.41,1.2-2.16,1.2-.58,0-1.35-.07-2.33-.2-2.3-.3-4.63-.45-6.99-.45-1.04,2.54-1.55,4.57-1.55,6.11,0,1.87.79,3.17,2.37,3.9,1.58.73,4.04,1.1,7.37,1.1.98,0,1.67.09,2.07.28.4.18.6.51.6.98,0,1.1-.98,2.04-2.93,2.8-1.96.77-4.34,1.15-7.16,1.15-3.39,0-5.88-.64-7.46-1.93Z"/><path class="cls-1" d="m558.43,118.63c-2.44-1.45-3.67-3.48-3.67-6.08,0-2.3.89-4.44,2.67-6.41,1.78-1.97,4.2-3.53,7.24-4.68,3.05-1.15,6.35-1.73,9.92-1.73s6.21.49,8.28,1.48c2.07.99,3.1,2.29,3.1,3.93,0,1.3-.69,2.5-2.07,3.6-1.38,1.1-3.23,1.98-5.56,2.63-2.33.65-4.87.98-7.63.98-1.61,0-3.16-.12-4.66-.35-1.5-.23-2.76-.57-3.79-1,.06,1.54.96,2.77,2.72,3.7,1.75.94,4.01,1.4,6.77,1.4,1.67,0,3.38-.18,5.13-.53,1.75-.35,3.26-.83,4.53-1.43.8-.4,1.55-.6,2.24-.6.57,0,1.05.11,1.42.33.37.22.56.49.56.83,0,.73-1.09,1.7-3.28,2.9-3.85,2.14-8.42,3.2-13.71,3.2-4.37,0-7.78-.73-10.22-2.18Zm16.69-10.34c1.38-.5,2.07-1.13,2.07-1.9,0-.63-.46-1.13-1.38-1.48-.92-.35-2.19-.53-3.79-.53-2.19,0-4.05.33-5.61.98-1.55.65-2.67,1.56-3.36,2.73.8.3,1.84.53,3.1.7,1.26.17,2.53.25,3.79.25,2.07,0,3.79-.25,5.17-.75Z"/><path class="cls-4" d="m45.37,78.31c-5.37,6.1-7.32,13.65-8.25,21.54-.89,7.59-.51,15.31,1.08,22.79,2.97,13.99,10.72,26.68,21.26,36.27,5.96,5.43,12.73,9.96,20.03,13.39,2.13,1,4.95.67,6.16-1.61,1.05-2,.66-5.09-1.61-6.16-3.14-1.48-6.19-3.14-9.12-5.02-1.25-.8-2.48-1.65-3.69-2.52-.33-.24-.65-.48-.97-.72-1.07-.78.67.55-.36-.27-.73-.58-1.45-1.16-2.15-1.76-2.37-2.01-4.61-4.17-6.71-6.47-.93-1.03-1.84-2.08-2.71-3.17-.24-.29-.47-.59-.7-.88.64.83-.11-.16-.2-.28-.51-.69-1.02-1.4-1.5-2.11-7.71-11.27-10.93-23.72-10.18-37.18.06-1,.13-2.01.23-3.01.04-.43.09-.86.14-1.28.03-.29.07-.57.11-.85-.06.49-.06.46.02-.08.28-1.75.58-3.48,1.03-5.2.24-.92.52-1.84.83-2.74.14-.39.28-.77.43-1.15-.34.87.31-.66.38-.81.43-.87.91-1.72,1.44-2.53.23-.35.47-.7.72-1.04-.48.66.55-.64.66-.76,1.55-1.77,1.87-4.65,0-6.36-1.7-1.56-4.7-1.89-6.36,0h0Z"/><path class="cls-4" d="m92.64,177.45c6.82,3.01,13.93,5.09,21.29,6.28,2.31.37,4.96-.6,5.54-3.14.49-2.16-.66-5.13-3.14-5.54-3.51-.57-6.99-1.32-10.41-2.3-1.62-.46-3.22-.97-4.8-1.53-.77-.27-1.54-.56-2.3-.86-.37-.15-.76-.28-1.13-.45,1.08.53-.29-.13-.5-.22-2.15-.95-4.93-.7-6.16,1.61-1.03,1.95-.69,5.14,1.61,6.16h0Z"/><path class="cls-4" d="m130.6,176.64l-1.82.36c-.59.14-1.1.41-1.53.81-.49.32-.88.74-1.16,1.26-.33.52-.51,1.07-.53,1.67-.13.6-.11,1.2.08,1.79l.45,1.07c.4.68.94,1.21,1.61,1.61l1.07.45c.8.21,1.6.21,2.39,0l1.82-.36c.59-.14,1.1-.41,1.53-.81.49-.32.88-.74,1.16-1.26.33-.52.51-1.07.53-1.67.13-.6.11-1.2-.08-1.79l-.45-1.07c-.4-.68-.94-1.21-1.61-1.61l-1.07-.45c-.8-.21-1.6-.21-2.39,0h0Z"/></svg>