<?xml version="1.0" encoding="UTF-8"?><svg id="Layer_1" xmlns="http://www.w3.org/2000/svg" width="150" height="130" viewBox="0 0 150 130"><defs><style>.cls-1{fill:#efe4e4;}.cls-1,.cls-2{stroke-width:0px;}.cls-2{fill:#e86767;}</style></defs><path class="cls-2" d="m132.44,14.79c-19.48-16.45-47.64,14.06-57.66,29.51C63.8,30.11,35.7-1.41,16.1,14.91c-20.43,17.01-1.01,56.18,10.87,73.94,9.98,14.91,36.74,38.36,54.09,36.91,14.97-3.43,33.41-24.22,41.78-37.96,10.66-17.49,29.98-55.8,9.6-73.01Z"/><path class="cls-1" d="m20.45,28.62c-2.91,3.35-4.65,7.53-4.47,12.01s2.1,8.89,4.54,12.71c.87,1.36,2.67,1.92,4.1,1.08,1.36-.79,1.95-2.73,1.08-4.1-.93-1.46-1.91-3.14-2.51-4.63s-1.11-3.36-1.2-4.73c-.19-3.06.64-5.73,2.69-8.09,1.06-1.22,1.2-3.04,0-4.24-1.09-1.09-3.17-1.23-4.24,0h0Z"/><path class="cls-1" d="m31.44,27.84c.69-.53,1.44-.97,2.24-1.31l-.72.3c.83-.35,1.7-.59,2.6-.72l-.8.11c.85-.11,1.71-.12,2.56-.02.71.08,1.64-.4,2.12-.88.52-.52.91-1.37.88-2.12s-.29-1.58-.88-2.12l-.61-.47c-.47-.27-.97-.41-1.51-.41-1.55-.18-3.18-.01-4.68.4s-2.99,1.11-4.23,2.06c-.65.5-1.15.97-1.38,1.79-.2.72-.11,1.67.3,2.31s1.03,1.2,1.79,1.38,1.69.18,2.31-.3h0Z"/></svg>