<?xml version="1.0" encoding="UTF-8"?><svg id="Layer_1" xmlns="http://www.w3.org/2000/svg" width="250" height="200" viewBox="0 0 250 200"><defs><style>.cls-1{fill:#564e24;opacity:.8;}.cls-1,.cls-2,.cls-3,.cls-4,.cls-5,.cls-6,.cls-7{stroke-width:0px;}.cls-2{fill:#ccbe76;opacity:.74;}.cls-3{fill:#a0965c;opacity:.87;}.cls-4{fill:#80651c;}.cls-5{fill:#8c5d03;}.cls-6{fill:#edebe8;}.cls-7{fill:#edcddc;}</style></defs><path class="cls-1" d="m113.87,48.94c11.78-.81,18.55-16.07,27.53-14.84,5.84.79,16.23-6,25.46-1.13,9.53,5.03,5.6,14.65,10.42,19.86,4.74,5.12,18.86-1.46,23.78,5,5.06,6.64-5.98,16.47-1.86,22.55,3.91,5.78.73,15.86-4.04,21.61-8.11,9.77-13,17.46-20.8,10.82-8.04-6.85-19.56,8.87-26.98,9.62-5.71.57-9.02-16.84-22.2-13.16-2.67.75-21.78,3.97-29.44-5.28-4.7-5.67-20.38,8.31-25.28.41-6.24-10.06-3.47-29.57-4.44-35.34-.9-5.37,15.61-31.39,25.43-31.17,11.6.26,13,11.72,22.42,11.07Z"/><path class="cls-2" d="m141.55,99.76c11.78-.81,20.99,3.98,29.97,5.2,5.84.79,13.8-26.05,23.03-21.18,9.53,5.03,5.6,14.65,10.42,19.86,4.74,5.12,18.86-1.46,23.78,5,5.06,6.64-8.15,14.75-4.03,20.83,3.91,5.78,2.9,17.58-1.87,23.33-8.11,9.77-16.02,19.63-23.81,12.99-8.04-6.85-16.54,6.7-23.96,7.44-5.71.57-9.02-16.84-22.2-13.16-2.67.75-5.07,20.4-12.73,11.16-4.7-5.67-37.1-8.12-42-16.02-6.24-10.06,16.37-21.99,15.4-27.77-.9-5.37-4.23-38.97,5.59-38.75,11.6.26,13,11.72,22.42,11.07Z"/><path class="cls-3" d="m71.38,90.88c8.52,8.72-8.55-23.37.43-22.15,5.84.79,43.33,1.3,52.56,6.17,9.53,5.03,5.6,14.65,10.42,19.86,4.74,5.12,18.86-1.46,23.78,5,5.06,6.64-5.98,16.47-1.86,22.55,3.91,5.78.73,15.86-4.04,21.61-8.11,9.77-13,17.46-20.8,10.82-8.04-6.85-19.56,8.87-26.98,9.62-5.71.57-5.05-18.65-18.23-14.96-2.67.75-17.51,16.2-25.17,6.96-4.7-5.67-19.05,9.53-23.95,1.64-6.24-10.06-23.07-25.66-19.42-40.68,1.27-5.22,7.26-27.33,17.08-27.11,11.6.26,22.47-13.34,36.17.68Z"/><path class="cls-7" d="m82.81,95.07c2.31-1.02,2.52-1.11,5.92-2.32l25.49,23.75-5.58,3.03-17.94-16.96,13.72,29.8-20.79,8.29-13.26-28.85-1.02,22.7-6.1.66-.36-31.92c3.83-1.77,3.75-1.94,6.43-2.54,1.57-.35,11.06,9.33,12.07,8.56,1.86-1.41.22-13.68,1.43-14.21Z"/><path class="cls-4" d="m88.1,107.34c-.44-.65,3.81-1.39,3.59-2.56-.15-.79-2.34-1.63-3.43-1.39-1.4.31-.77.96-1.55,1.01-1.02.07-2.72-1.98-3.49-1.91-.51.05.45,1.5-.34,3.55-.27.69.28,2.15.76,2.5.62.44,2.68-.02,3.87.28,2.78.69-1.89,3.34-.34,3.55,1.06.14,4.38-1.39,5.14-2.49.38-.55.51-.9.23-1.19-.22-.23-.59-.33-2.48-.79-1.74-.43-1.88-.45-1.95-.56Z"/><path class="cls-5" d="m83.79,116.72c5.24.45,7.08-1.43,8.17.07.82,1.11.53,3.16.21,4.22-.46,1.51-1.36,2.13-1.12,2.65.34.74,2.16-.39,3.49.49,1.57,1.04,2.5,4.92.74,7.23-1.74,2.29-5.27,1.92-6.13.49-.49-.82-.36-2.39-.27-3.46.1-1.2.3-1.46.1-1.85-.68-1.36-4.45-.94-4.7.21-.15.69,1.04,1.26.86,1.91-.22.81-2.43,1.42-3.45.16-.66-.82-.71-2.29-.14-2.92.47-.52,1.03-.1,1.61-.51,1.35-.95,1.16-5.25-.3-6.06-.99-.55-2.17.72-2.69.12-.37-.43-.16-1.55.37-2.19.76-.9,2.04-.68,3.24-.58Z"/><path class="cls-6" d="m112.49,133.21h0c-1-.55-1.34-1.78-.77-2.73l18.29-30.31c.57-.95,1.86-1.28,2.86-.73h0c1,.55,1.34,1.78.77,2.73l-18.29,30.31c-.57.95-1.86,1.28-2.86.73Z"/><path class="cls-6" d="m132.44,133.76h0c-1.02.51-2.29.12-2.82-.86l-16.75-30.97c-.53-.98-.13-2.19.9-2.7h0c1.02-.51,2.29-.12,2.82.86l16.75,30.97c.53.98.13,2.19-.9,2.7Z"/></svg>