<?xml version="1.0" encoding="UTF-8"?><svg id="Layer_1" xmlns="http://www.w3.org/2000/svg" width="330" height="280" viewBox="0 0 330 280"><defs><style>.cls-1{fill:#f7f6f5;}.cls-1,.cls-2,.cls-3,.cls-4,.cls-5{stroke-width:0px;}.cls-2{fill:#f2f2f2;}.cls-3{fill:#302b29;}.cls-4{fill:#bf005c;}.cls-5{fill:#efeec5;}</style></defs><path class="cls-5" d="m323.51,205.59L233.3,19.26c-.11-.22-.24-.43-.36-.65-1.8-4.29-6.1-7.34-11.1-7.34h-10.55c-1.93,0-3.5,1.58-3.46,3.51,0,.44.01.88.01,1.32,0,27.89-18.13,50.5-40.5,50.5s-40.5-22.61-40.5-50.5c0-.44,0-.88.01-1.32.04-1.93-1.53-3.51-3.46-3.51h-11.64c-.15,0-.31-.01-.46-.04-4.98-.75-10.13,1.66-12.54,6.3L3.48,201.41c-2.99,5.78-.63,12.91,5.25,15.84l15.67,7.83c5.88,2.94,13.14.62,16.14-5.16l50.76-97.97c1.67-3.22,6.54-2.03,6.54,1.59v129.26c0,6.48,5.4,11.78,12,11.78h112c6.6,0,12-5.3,12-11.78v-122.23c0-3.68,4.98-4.82,6.58-1.51l45.53,94.05c2.83,5.85,10.03,8.37,15.99,5.58l15.88-7.41c5.96-2.78,8.52-9.85,5.69-15.7Z"/><ellipse class="cls-3" cx="142.84" cy="200.6" rx="20.5" ry="21.5"/><path class="cls-3" d="m212.86,209.94c.16.49.07.56-.05.24-1.91,1.26-2.73,1.39-3.9-1.42-8.28-19.85-17.07-21.6-28.1-2.39-1.56,2.72-2.52,2.26-4.31.73-.2.47-.14.31,0,0-1.79-1.53-2.62-1.49-.68-4.61,13.7-22.03,28.26-20.36,38.26,3.52,1.42,3.38.69,2.68-1.22,3.93Z"/><ellipse class="cls-1" cx="146.84" cy="206.1" rx="7.5" ry="8"/><circle class="cls-1" cx="135.84" cy="191.6" r="5.5"/><path class="cls-3" d="m221.21,194.47l-8.76,8.31c-.67.63-1.87.29-2.69-.76h0c-.82-1.05-.94-2.42-.27-3.06l8.76-8.31c.67-.63,1.87-.29,2.69.76h0c.82,1.05.94,2.42.27,3.06Z"/><path class="cls-3" d="m122.58,199.51l-13.01-11.22c-.99-.86-1.02-2.3-.06-3.23h0c.96-.93,2.55-.98,3.54-.12l13.01,11.22c.99.86,1.02,2.3.06,3.23h0c-.96.93-2.55.98-3.54.12Z"/><path class="cls-3" d="m226.62,198.37l-12.7,11.57c-.97.88-2.41.74-3.21-.33h0c-.8-1.07-.67-2.65.3-3.53l12.7-11.57c.97-.88,2.41-.74,3.21.33h0c.8,1.07.67,2.65-.3,3.53Z"/><path class="cls-3" d="m123.79,191.74l-9.23-8.81c-.7-.67-.46-1.92.55-2.79h0c1.01-.87,2.4-1.03,3.11-.36l9.23,8.81c.7.67.46,1.92-.55,2.79h0c-1.01.87-2.4,1.03-3.11.36Z"/><path class="cls-3" d="m127.85,186.84l-7.22-8.1c-.55-.62-.12-1.75.96-2.53h0c1.08-.78,2.41-.91,2.96-.29l7.22,8.1c.55.62.12,1.75-.96,2.53h0c-1.08.78-2.41.91-2.96.29Z"/><path class="cls-3" d="m215.12,192.08l-7.1,6.94c-.54.53-1.65.11-2.47-.94h0c-.82-1.05-1.05-2.33-.51-2.86l7.1-6.94c.54-.53,1.65-.11,2.47.94h0c.82,1.05,1.05,2.33.51,2.86Z"/><path class="cls-3" d="m158.27,220.98c4.25-1.69,13.77-1.16,19.63-.47,2.16.25,3.97,2.85,4.46,5.2,1.15,5.56.81,10.52-2.68,15.12-3.31,4.37-8.72,7.24-13.38,5.57-2.53-.91-7.16-3.68-9.37-8.34-1.62-3.44-2.4-8.14-2.23-9.81.16-1.54.54-6.06,3.57-7.26Z"/><path class="cls-4" d="m160.05,241.98c-7.93-8.37-3.01-9.24,2.68-9.81,9.86-.99,10.97,3.9,11.15,4.41.89,2.54,1.92,6.23.45,8.34-2.71,3.87-10.28,1.27-14.27-2.94Z"/><path class="cls-2" d="m104.67,221.37c.05,6.38.1,12.76.14,19.13.01,1.93,3.01,1.93,3,0-.05-6.38-.1-12.76-.14-19.13-.01-1.93-3.01-1.93-3,0h0Z"/><path class="cls-2" d="m104.85,240.33c-.02,2.24-.05,4.48-.07,6.72,0,.78.7,1.54,1.5,1.5s1.49-.66,1.5-1.5c.02-2.24.05-4.48.07-6.72,0-.78-.7-1.54-1.5-1.5s-1.49.66-1.5,1.5h0Z"/><path class="cls-2" d="m104.77,247.05v4.84c0,.78.69,1.54,1.5,1.5s1.5-.66,1.5-1.5v-4.84c0-.78-.69-1.54-1.5-1.5s-1.5.66-1.5,1.5h0Z"/><path class="cls-2" d="m104.77,251.9c-.06.78.2,1.55.45,2.28.28.8.63,1.55,1.22,2.17.48.51,1.1.9,1.7,1.26.27.16.54.32.82.45.54.24.99.37,1.57.43.36.04.81-.19,1.06-.44.26-.26.46-.69.44-1.06s-.14-.79-.44-1.06c-.31-.28-.64-.4-1.06-.44h-.09c.13,0,.27.03.4.04-.13-.02-.26-.05-.39-.09-.05-.02-.25-.1-.03,0,.23.1-.02-.01-.07-.04-.23-.11-.45-.24-.66-.37s-.43-.25-.64-.39c-.1-.07-.21-.14-.3-.22.04.03.26.22.11.08-.05-.05-.1-.09-.15-.14-.08-.07-.16-.15-.23-.23-.17-.2-.01.04.05.08-.04-.02-.08-.11-.1-.15-.07-.11-.13-.23-.19-.35-.02-.05-.11-.24-.02-.02.1.24,0-.01-.02-.07-.19-.51-.38-1.04-.47-1.58l.05.4c-.02-.19-.03-.37-.02-.55.06-.78-.73-1.53-1.5-1.5-.86.04-1.44.66-1.5,1.5h0Z"/><path class="cls-2" d="m110.49,258.41c2.61.3,5.23.4,7.86.3.78-.03,1.54-.67,1.5-1.5-.04-.79-.66-1.53-1.5-1.5-2.62.1-5.25,0-7.86-.3-.78-.09-1.53.75-1.5,1.5.04.89.66,1.4,1.5,1.5h0Z"/><path class="cls-2" d="m118.48,258.77h6.41c.78,0,1.54-.69,1.5-1.5s-.66-1.5-1.5-1.5h-6.41c-.78,0-1.54.69-1.5,1.5s.66,1.5,1.5,1.5h0Z"/><path class="cls-2" d="m124.89,258.74c1.73.01,3.46.05,5.19.11.79.03,1.54-.71,1.5-1.5-.04-.84-.66-1.47-1.5-1.5-1.73-.06-3.46-.1-5.19-.11-.78,0-1.54.69-1.5,1.5s.66,1.49,1.5,1.5h0Z"/><path class="cls-2" d="m112.5,242.5c-.17,2.28-.35,5.7,1.47,7.42s4.72,1.32,6.93,1.35c6.3.09,12.6.19,18.9.28,1.93.03,1.93-2.97,0-3-5.3-.08-10.61-.16-15.91-.24-1.33-.02-2.65-.04-3.98-.06-1-.01-2.09.08-3.07-.17-1.96-.49-1.45-4.05-1.33-5.59.15-1.93-2.85-1.92-3,0h0Z"/><path class="cls-2" d="m15.85,208.82c-1.51-.48-2.31-2.13-2.1-3.65.29-2.1,1.78-4.3,2.74-6.16,2.11-4.08,4.39-8.05,6.68-12.03.96-1.68-1.63-3.19-2.59-1.51-2.82,4.9-5.64,9.81-8.12,14.9-1.06,2.17-2.14,4.39-1.55,6.86.5,2.13,2.08,3.83,4.15,4.49,1.84.59,2.63-2.3.8-2.89h0Z"/><path class="cls-2" d="m118.78,16.49c-2.5.14-5,.42-7.47.82s-4.34,1.13-5.92,3.09c-3.04,3.79-5.37,8.12-7.71,12.37-.93,1.69,1.66,3.21,2.59,1.51,2.13-3.87,4.27-7.75,6.9-11.31.51-.69,1.07-1.41,1.79-1.89.86-.57,1.96-.69,2.96-.85,2.27-.37,4.56-.61,6.86-.74,1.92-.11,1.93-3.11,0-3h0Z"/><path class="cls-2" d="m97.6,32.94c-2.47,3.73-4.75,7.58-6.84,11.53-.38.72-.18,1.63.54,2.05.68.4,1.67.18,2.05-.54,2.08-3.96,4.37-7.81,6.84-11.53.45-.68.13-1.66-.54-2.05-.73-.43-1.6-.14-2.05.54h0Z"/><path class="cls-2" d="m212.1,16.19c-.56,6.7-1.54,13.35-2.91,19.93-.39,1.88,2.5,2.69,2.89.8,1.43-6.84,2.44-13.76,3.02-20.73.16-1.92-2.84-1.91-3,0h0Z"/><path class="cls-2" d="m209.11,36.52c-.09,1.99-.91,3.86-1.74,5.63-.95,2.03-1.97,4.02-3.06,5.99-.93,1.69,1.66,3.21,2.59,1.51,1.16-2.1,2.25-4.23,3.25-6.41s1.85-4.33,1.96-6.73c.03-.81-.71-1.5-1.5-1.5-.84,0-1.47.69-1.5,1.5h0Z"/><path class="cls-2" d="m204.17,48.24c-2.26,5.43-7.44,8.98-11.48,12.98-1.38,1.36.75,3.48,2.12,2.12,4.51-4.46,9.74-8.27,12.25-14.31.31-.75-.34-1.65-1.05-1.85-.86-.24-1.53.3-1.85,1.05h0Z"/><path class="cls-2" d="m239.78,120.74c-2.49-.46-5.05.03-7.11,1.56-2.22,1.64-3.26,4.09-3.76,6.74-1.23,6.59-1.3,13.38-1.42,20.06-.04,1.93,2.96,1.93,3,0,.11-5.67.2-11.36.96-16.98.3-2.24.55-4.89,2.14-6.64,1.33-1.47,3.43-2.21,5.39-1.84s2.7-2.54.8-2.89h0Z"/><path class="cls-2" d="m142.75,258.73c6.32-.44,12.66-.46,18.98-.04,1.93.13,1.92-2.87,0-3-6.32-.42-12.66-.4-18.98.04-1.92.13-1.93,3.14,0,3h0Z"/></svg>