<?xml version="1.0" encoding="UTF-8"?><svg id="Layer_1" xmlns="http://www.w3.org/2000/svg" width="180" height="350" viewBox="0 0 180 350"><defs><style>.cls-1{opacity:.53;}.cls-1,.cls-2,.cls-3,.cls-4,.cls-5,.cls-6,.cls-7{stroke-width:0px;}.cls-1,.cls-7{fill:#e2e8e3;}.cls-2{fill:#f7f5f7;}.cls-3{fill:#191716;}.cls-4{fill:#171917;}.cls-5{fill:#beccc1;}.cls-6{fill:#bf005c;}</style></defs><path class="cls-5" d="m172.41,91.15c0-1.19-.19-2.33-.51-3.44l-8.17-64.15c-1.41-9.66.85-12.07-8.45-12.07H21.41c-9.3,0-7.05,3.62-9.86,13.28l-7.05,65.17c0,.2.03.4.04.6,0,.2-.04.4-.04.6l9.86,240.17c0,7.97-2.25,7.24,7.05,7.24h42.27c9.3,0,7.05-7.24,7.05-15.69l17.64-191.41,17.61,199.86c0,7.97-2.26,7.24,7.07,7.24h42.4c9.33,0,7.07-7.24,7.07-15.69l9.89-231.72Z"/><path class="cls-1" d="m161.16,28.32c-47.91.43-97.9.38-145.96.23-1.62,0-3.04-1.27-2.93-2.78.28-3.86,1.06-7.69,1.3-11.56.09-1.47,1.82-2.55,3.23-2.54,41.93.37,103.49,1.85,143.51-.11,1.38-.07,3.06,1.12,3.08,2.64.05,3.7.66,7.5.83,11.2.07,1.57-1.41,2.91-3.06,2.92Z"/><path class="cls-7" d="m20.62,79.86c3.35-1.34,6.28-3.31,9.08-5.57s5.68-4.74,8.35-7.27,5.16-5.38,7.09-8.57c1.81-2.99,3.18-6.24,4.29-9.55,1.25-3.78,2.15-7.66,3.03-11.53.43-1.88-2.46-2.68-2.89-.8-1.87,8.25-3.88,16.82-9.24,23.6-2.79,3.53-6.25,6.48-9.65,9.39s-6.74,5.75-10.85,7.4c-1.77.71-1,3.61.8,2.89h0Z"/><path class="cls-7" d="m162.68,78.28c-2.89-1.12-5.82-2.13-8.69-3.3s-5.69-2.3-7.97-4.25c-3.29-2.81-6.63-5.68-9.34-9.07-2.49-3.12-3.18-6.74-3.2-10.65-.02-4.4.41-8.77-.53-13.12-.41-1.89-3.3-1.09-2.89.8,1.69,7.81-1.55,16.53,3.35,23.58,2.54,3.65,5.95,6.66,9.29,9.55,2.66,2.3,5.4,3.9,8.63,5.29,3.47,1.48,7.04,2.71,10.56,4.07,1.8.7,2.58-2.2.8-2.89h0Z"/><path class="cls-1" d="m69.02,337.35c-10.02,2.68-40.25.62-53.66.91-.45.01-1.22-1.61-1.22-2.83.02-3.13-.2-8.41-.3-11.54-.04-1.18.38-2.67,1.01-2.68,18.67-.27,36.31,1.55,55,.11.65-.05,1.15,1.54,1.12,2.72-.08,2.87,0,7.88-.6,10.69-.26,1.19-1,2.52-1.34,2.61Z"/><path class="cls-1" d="m159.97,337c-10.02,2.68-40.25.62-53.66.91-.45.01-1.22-1.61-1.22-2.83.02-3.13-.2-8.41-.3-11.54-.04-1.18.38-2.67,1.01-2.68,18.67-.27,36.31,1.55,55,.11.65-.05,1.15,1.54,1.12,2.72-.08,2.87,0,7.88-.6,10.69-.26,1.19-1,2.52-1.34,2.61Z"/><ellipse class="cls-4" cx="60.16" cy="78.48" rx="23.25" ry="23.53"/><ellipse class="cls-2" cx="50.3" cy="71.24" rx="4.93" ry="4.22"/><ellipse class="cls-2" cx="60.86" cy="86.33" rx="9.86" ry="8.45"/><ellipse class="cls-4" cx="116.52" cy="79.69" rx="23.25" ry="23.53"/><ellipse class="cls-2" cx="126.39" cy="72.45" rx="4.93" ry="4.22"/><ellipse class="cls-2" cx="115.82" cy="87.53" rx="9.86" ry="8.45"/><path class="cls-3" d="m76.17,102.3c4.77-1.64,15.47-1.12,22.04-.46,2.42.25,4.46,2.76,5.01,5.03,1.29,5.38.91,10.19-3.01,14.64-3.72,4.23-9.79,7-15.03,5.39-2.84-.88-8.05-3.56-10.52-8.07-1.82-3.32-2.7-7.88-2.5-9.5.18-1.49.61-5.87,4.01-7.03Z"/><path class="cls-6" d="m77.25,122.19c-4.94-6.64,2.23-8.59,4.6-9.44,4.1-1.47,15.44.88,16.52,1.92,5.37,5.15.51,8.13-3.1,10.8-6.62,4.89-15.53.07-18.02-3.27Z"/></svg>