<?xml version="1.0" encoding="UTF-8"?><svg id="Layer_1" xmlns="http://www.w3.org/2000/svg" width="270" height="270" xmlns:xlink="http://www.w3.org/1999/xlink" viewBox="0 0 270 270"><defs><style>.cls-1{fill:url(#Orchid);}.cls-1,.cls-2,.cls-3,.cls-4,.cls-5,.cls-6,.cls-7{stroke-width:0px;}.cls-2{fill:url(#Orchid-2);}.cls-3{fill:#281f22;}.cls-4{fill:#211a1d;}.cls-5{fill:#dae4e5;}.cls-6{fill:#b7e0e5;}.cls-7{fill:#efedee;}</style><linearGradient id="Orchid" x1="168.93" y1="231.63" x2="186.57" y2="231.63" gradientUnits="userSpaceOnUse"><stop offset="0" stop-color="#ff7bac"/><stop offset=".22" stop-color="#ff7bac" stop-opacity=".76"/><stop offset=".6" stop-color="#ff7bac" stop-opacity=".36"/><stop offset=".87" stop-color="#ff7bac" stop-opacity=".1"/><stop offset="1" stop-color="#ff7bac" stop-opacity="0"/></linearGradient><linearGradient id="Orchid-2" x1="91.01" y1="233.38" x2="108.65" y2="233.38" xlink:href="#Orchid"/></defs><path class="cls-6" d="m262.09,61.55l-54.53-43.17c-2.55-2.02-10.67-2.81-13.69-2.5-.55.06-1.09.11-1.64.11h.05c-3.7,0-6.8,2.67-7.51,6.3-4.92,25.38-24.49,44.2-47.77,44.2s-42.38-18.52-47.6-43.47c-.86-4.1-4.49-7.03-8.68-7.03h-6.22c-3.56,0-6.75,1.58-8.96,4.06-.08.06-.16.11-.24.18L12.14,65.06c-5.05,4.25-5.69,11.86-1.44,16.91l23.82,28.26c4.25,5.05,11.86,5.69,16.91,1.44l11.07-9.33v138.67c0,6.6,5.4,12,12,12h124c6.6,0,12-5.4,12-12V98.46l13.76,10.89c5.17,4.1,12.76,3.21,16.86-1.96l22.94-28.98c4.1-5.17,3.21-12.76-1.96-16.86Z"/><ellipse class="cls-3" cx="163.5" cy="193.5" rx="19.5" ry="29"/><circle class="cls-7" cx="173.5" cy="186" r="5"/><ellipse class="cls-7" cx="161.84" cy="203.64" rx="11.33" ry="11.68"/><ellipse class="cls-3" cx="113.84" cy="194.93" rx="19.5" ry="29"/><circle class="cls-7" cx="103.84" cy="187.43" r="5"/><ellipse class="cls-7" cx="115.5" cy="205.07" rx="11.33" ry="11.68"/><ellipse class="cls-4" cx="140.5" cy="233.5" rx="9" ry="10.5"/><path class="cls-5" d="m68.31,217.03l.1,11.87c.03,3.62-.29,7.48.5,11.04.66,2.99,2.44,5.57,5.36,6.68,3.33,1.27,6.93.43,10.37.44,1.45,0,1.45-2.24,0-2.25-3.09-.01-6.39.8-9.4-.23s-4.21-4.22-4.44-7.24c-.25-3.29-.12-6.64-.15-9.94l-.09-10.39c-.01-1.45-2.26-1.45-2.25,0h0Z"/><path class="cls-5" d="m31.47,59.67c-2.27,2.11-4.55,4.22-6.82,6.33-1.83,1.7-4.25,3.42-5.16,5.84s.04,4.98,1.29,7.09c1.47,2.47,3.29,4.75,5.21,6.88.97,1.08,2.56-.52,1.59-1.59-1.66-1.84-3.19-3.8-4.52-5.9-1.26-1.97-2.46-4.43-.98-6.61,1.28-1.89,3.38-3.4,5.04-4.94l5.95-5.52c1.06-.99-.53-2.58-1.59-1.59h0Z"/><path class="cls-5" d="m203.9,24.36c-2.01-.06-4.02-.05-6.04.04-1.77.07-3.75-.05-4.72,1.73s-1.65,3.64-2.46,5.44c-.86,1.93-1.73,3.85-2.59,5.78-.25.56-.16,1.2.4,1.54.48.29,1.29.15,1.54-.4,1.55-3.45,3.09-6.9,4.64-10.35.26-.57.41-1.27,1.11-1.37.82-.12,1.68-.1,2.5-.13,1.87-.07,3.74-.07,5.6-.02,1.45.04,1.45-2.21,0-2.25h0Z"/><path class="cls-5" d="m188.31,37.14c-3.16,5.16-4.95,11.21-8.98,15.82-.95,1.09.64,2.68,1.59,1.59,4.18-4.78,6.06-10.92,9.33-16.27.76-1.24-1.19-2.37-1.94-1.14h0Z"/><path class="cls-5" d="m70.52,217.06c.08-.81.16-1.63.15-2.45s-.09-1.65-.19-2.47c-.04-.31-.1-.57-.33-.8-.2-.2-.52-.34-.8-.33-.54.02-1.21.5-1.12,1.12.11.82.19,1.64.19,2.47s-.08,1.63-.15,2.45c-.06.59.56,1.15,1.12,1.12.66-.03,1.06-.5,1.12-1.12h0Z"/><path class="cls-5" d="m25.83,85.65c.4.47.8.94,1.18,1.43.01.01.14.18.08.11s.07.09.08.11c.09.12.18.24.27.36.19.25.38.51.56.77.71,1.01,1.37,2.05,1.98,3.12.29.51,1.03.73,1.54.4s.72-.99.4-1.54c-1.29-2.26-2.8-4.38-4.5-6.34-.39-.45-1.2-.43-1.59,0-.44.48-.41,1.11,0,1.59h0Z"/><path class="cls-1" d="m173.19,224.32c-5.07,2.79-4.66,6.78-3.57,10.79,1.18,4.33,7.42,5.85,11.6,3.92.33-.15,5.43-2.61,5.35-7.85-.05-3.38-2.23-6.32-4.91-7.36-2.63-1.02-7.58,0-8.48.49Z"/><path class="cls-2" d="m95.27,226.08c-5.07,2.79-4.66,6.78-3.57,10.79,1.18,4.33,7.42,5.85,11.6,3.92.33-.15,5.43-2.61,5.35-7.85-.05-3.38-2.23-6.32-4.91-7.36-2.63-1.02-7.58,0-8.48.49Z"/></svg>