<?xml version="1.0" encoding="UTF-8"?><svg id="Layer_1" xmlns="http://www.w3.org/2000/svg" width="180" height="250" xmlns:xlink="http://www.w3.org/1999/xlink" viewBox="0 0 180 250"><defs><style>.cls-1{fill:url(#Orchid);}.cls-1,.cls-2,.cls-3,.cls-4,.cls-5,.cls-6,.cls-7,.cls-8{stroke-width:0px;}.cls-2{opacity:.54;}.cls-2,.cls-7{fill:#b1a5b7;}.cls-9{opacity:.77;}.cls-10{opacity:.7;}.cls-3{fill:#f9f9f9;}.cls-4{fill:#261825;}.cls-5{fill:#302b29;}.cls-6{fill:#d6ccd5;}.cls-8{fill:#f0edf2;}</style><linearGradient id="Orchid" x1="38.17" y1="174.9" x2="60.29" y2="174.9" gradientUnits="userSpaceOnUse"><stop offset="0" stop-color="#ff7bac"/><stop offset=".22" stop-color="#ff7bac" stop-opacity=".76"/><stop offset=".6" stop-color="#ff7bac" stop-opacity=".36"/><stop offset=".87" stop-color="#ff7bac" stop-opacity=".1"/><stop offset="1" stop-color="#ff7bac" stop-opacity="0"/></linearGradient></defs><path class="cls-6" d="m131.21,166.85c-12.66-.7-30.57.45-44.07.12-2.42-.06-3.71-1.13-3.71-3.92-.09-40.44.39-84.64-.45-124.14-.46-21.72-12.97-25.95-29.59-27.92-3.77-.45-11.08.02-14.77.61-16.27,2.61-29.14,8.71-28.97,30.16.41,53.62.41,113.51.59,167.15.07,21.46,12.37,28.23,29.34,31.67,2.7.55,4.82-.58,10.54-.1,5.73.49-8.14-.63,7.05.03,15.19.66,53.5-1.09,74.2.35,20.3,1.41,34.43-23.33,34.95-34.43.45-9.69.2-2.25.2-2.25-1.94-22.28-13.81-36.14-35.32-37.33Z"/><ellipse class="cls-4" cx="59.61" cy="129.65" rx="18.71" ry="31.24"/><ellipse class="cls-3" cx="63.62" cy="138.17" rx="7.75" ry="10.22"/><ellipse class="cls-3" cx="53.99" cy="121.7" rx="5.61" ry="7.95"/><path class="cls-4" d="m45.89,109.87l-6.96-6.37c-.53-.49-.54-1.31-.03-1.83h0c.51-.53,1.36-.56,1.89-.07l6.96,6.37c.53.49.54,1.31.03,1.83h0c-.51.53-1.36.56-1.89.07Z"/><path class="cls-4" d="m49.51,105.75l-5.79-7.57c-.44-.58-.32-1.39.27-1.81h0c.59-.42,1.43-.29,1.87.28l5.79,7.57c.44.58.32,1.39-.27,1.81h0c-.59.42-1.43.29-1.87-.28Z"/><path class="cls-4" d="m53.57,103.01l-5.42-7.88c-.41-.6-.25-1.4.36-1.79h0c.61-.39,1.44-.22,1.86.39l5.42,7.88c.41.6.25,1.4-.36,1.79h0c-.61.39-1.44.22-1.86-.39Z"/><path class="cls-1" d="m43.51,167.26c-6.35,2.91-5.84,7.09-4.47,11.29,1.48,4.53,9.3,6.12,14.54,4.1.41-.16,6.8-2.73,6.71-8.21-.06-3.54-2.8-6.61-6.15-7.69-3.29-1.06-9.51,0-10.62.51Z"/><path class="cls-5" d="m64.44,167.37c-.14-.25-.1-.3,0-.14.86-.93,1.27-1.1,2.2.32,6.56,10.03,11.35,9.95,14.95-2.04.51-1.7,1.06-1.55,2.17-.92.05-.28.04-.19,0,0,1.11.64,1.54.52.88,2.48-4.68,13.87-12.48,14.68-20.39,2.62-1.12-1.71-.66-1.4.2-2.33Z"/><path class="cls-2" d="m165.99,207.33c-.7,13.44-13.18,34.33-29.95,28.7-16.77-5.63-24.27-20.94-19.75-39.35,4.52-18.41,15.45-31.27,29.56-26.89,14.11,4.38,20.84,24.11,20.14,37.54Z"/><path class="cls-7" d="m82.89,63.41c-25.88,2.05-46.84,1.97-72.71.15-.17-.01-.34-.18-.33-.41.15-3-.18-6.01.12-9,.02-.23.26-.37.43-.35,25.67,3.14,46.66,2.84,72.3.13.16-.02.42.13.43.35.04,2.9-.05,5.82.11,8.71.01.22-.16.41-.33.42Z"/><path class="cls-7" d="m82.7,47.12c-25.88,2.05-46.84,1.97-72.71.15-.17-.01-.34-.18-.33-.41.15-3-.18-6.01.12-9,.02-.23.26-.37.43-.35,25.67,3.14,46.66,2.84,72.3.13.16-.02.42.13.43.35.04,2.9-.05,5.82.11,8.71.01.22-.16.41-.33.42Z"/><path class="cls-2" d="m50.52,205.78c2.13,13.32,4.94,36.08-12.06,34.52-17-1.56-27.97-12.32-28.26-30.8-.29-18.48-3.81-32.59,11.45-33.64,15.26-1.05,26.74,16.6,28.87,29.92Z"/><path class="cls-8" d="m25.98,67.76c-1.84-.22-3.74-.32-5.59-.15-1.69.15-3.44.6-4.58,1.96s-1.45,3.02-1.54,4.71c-.11,1.87-.02,3.76.14,5.62.07.81.64,1.5,1.5,1.5.76,0,1.57-.69,1.5-1.5-.15-1.68-.21-3.36-.16-5.05,0-.36.03-.71.06-1.07,0-.04.06-.48.03-.26.02-.16.05-.32.09-.48.07-.31.15-.63.28-.92-.09.21.11-.2.12-.21.02-.04.25-.39.12-.21.68-.91,1.84-1.05,2.96-1.12,1.7-.09,3.41-.02,5.09.19.81.1,1.5-.76,1.5-1.5,0-.89-.69-1.4-1.5-1.5h0Z"/><path class="cls-8" d="m14.46,79.83c.02,3.94.03,7.87.05,11.81,0,1.93,3.01,1.93,3,0-.02-3.94-.03-7.87-.05-11.81,0-1.93-3.01-1.93-3,0h0Z"/><path class="cls-8" d="m25.83,70.72c2.43-.08,4.87.04,7.28.35.78.1,1.53-.76,1.5-1.5-.04-.9-.66-1.39-1.5-1.5-2.42-.31-4.85-.43-7.28-.35-.78.02-1.54.67-1.5,1.5s.66,1.53,1.5,1.5h0Z"/><g class="cls-9"><path class="cls-8" d="m21.53,223.58c-2.44-3.18-3.4-7.07-3.8-11-.45-4.43-.45-8.92-.58-13.37-.29-9.89-.47-19.77-.56-29.66-.02-1.93-3.02-1.93-3,0,.09,10.22.28,20.44.59,30.66.24,8.14-.5,18.04,4.76,24.88.5.65,1.28.97,2.05.54.64-.36,1.03-1.41.54-2.05h0Z"/></g><path class="cls-8" d="m14.85,52.12c6.8,1.32,13.71,1.82,20.62,1.38,1.92-.12,1.93-3.12,0-3-6.65.42-13.29,0-19.83-1.28-1.89-.37-2.69,2.52-.8,2.89h0Z"/><g class="cls-10"><path class="cls-8" d="m118.74,236.39h9.22c2.9.02,5.96.3,8.82-.25,2.59-.5,4.89-1.95,7.03-3.42s4.25-2.95,5.71-5.15c1.07-1.61-1.53-3.12-2.59-1.51-1.27,1.92-3.3,3.18-5.17,4.44-2.05,1.38-4.2,2.66-6.71,2.86s-5.23.05-7.82.04h-8.49c-1.93-.02-1.93,2.98,0,2.99h0Z"/></g></svg>