<?xml version="1.0" encoding="UTF-8"?><svg id="Layer_1" xmlns="http://www.w3.org/2000/svg" width="1920" height="1080" viewBox="0 0 1920 1080"><defs><style>.cls-1{fill:#eaeaea;stroke:#000;stroke-miterlimit:10;stroke-width:3px;}.cls-2{fill:#f2edef;}.cls-2,.cls-3,.cls-4,.cls-5,.cls-6,.cls-7,.cls-8{stroke-width:0px;}.cls-3{fill:#cccae8;}.cls-4{fill:#d6d4d5;}.cls-5{fill:#fff;}.cls-6{fill:#e4d6e5;}.cls-7{fill:#efe4e4;}.cls-8{fill:#e8b5e2;}</style></defs><rect class="cls-1" x="-42.5" y="-52.5" width="2031" height="1200"/><path class="cls-3" d="m236.84,802.07c13.8,46.29,27.6,92.58,41.4,138.88,13.8,46.29,27.6,92.58,41.4,138.88l1314.09.07,60.51-275.83c-166.99,34.39-378.82,65.37-625.51,72.04-341.57,9.24-627.4-31.44-831.89-74.04Z"/><ellipse class="cls-6" cx="965.54" cy="801.71" rx="728.7" ry="82.39"/><path class="cls-5" d="m986.16,1062.27c-146.07,0-291.3-7.45-464.44-18.64-10.5-.68-12.27-4.62-12.13-12.65.55-30.42,2.25-65.46,4.79-98.64.57-7.46,2.47-11.24,11.28-11.24.6,0,1.22.02,1.88.05,19.5,1.04,38.73,2.08,57.71,3.11,154.15,8.34,287.27,15.54,425.31,15.54s266.7-7.56,399.66-23.8c1.37-.17,2.62-.25,3.72-.25,7.08,0,9,3.36,10.42,10.41,6.38,31.81,12.2,66.35,16.4,97.26.56,4.12.59,7.31-1.08,9.46-1.49,1.92-4.43,3.08-9.25,3.64-150.57,17.57-291.75,25.75-444.29,25.75Z"/><path class="cls-5" d="m1413.95,916.24c6.78,0,8.54,3.09,9.93,10.01,6.38,31.8,12.2,66.33,16.4,97.23.54,4,.59,7.08-.97,9.09-1.4,1.81-4.24,2.91-8.91,3.45-150.55,17.57-291.71,25.75-444.24,25.75s-291.28-7.45-464.4-18.64c-10.15-.66-11.8-4.28-11.66-12.14.55-30.41,2.25-65.43,4.79-98.61.55-7.15,2.36-10.78,10.78-10.78.58,0,1.21.02,1.86.05,19.5,1.04,38.73,2.08,57.72,3.11,154.15,8.34,287.28,15.54,425.33,15.54s266.74-7.57,399.72-23.81c1.35-.16,2.58-.25,3.66-.25h0m0-1c-1.13,0-2.39.09-3.79.26-143.84,17.57-272.54,23.8-399.6,23.8-155.36,0-308.22-9.33-483-18.65-.67-.04-1.3-.05-1.91-.05-8.87,0-11.18,3.83-11.78,11.7-2.41,31.54-4.21,67.05-4.79,98.67-.15,8.43,1.87,12.47,12.6,13.16,166.75,10.78,315.33,18.64,464.47,18.64s284.93-7.15,444.35-25.75c10.75-1.25,11.89-5.34,10.76-13.67-4.24-31.22-10.18-66.24-16.41-97.29-1.44-7.18-3.52-10.81-10.91-10.81h0Z"/><path class="cls-2" d="m690.36,368.3c6.53.11,13.06.22,19.59.33,1.57.03,3.07-1.4,3-3s-1.32-2.97-3-3c-6.53-.11-13.06-.22-19.59-.33-1.57-.03-3.07,1.4-3,3s1.32,2.97,3,3h0Z"/><path class="cls-2" d="m720.34,369.01h3.81c.77,0,1.58-.33,2.12-.88.29-.27.5-.59.62-.97.19-.36.27-.74.26-1.16-.03-.78-.29-1.58-.88-2.12s-1.31-.88-2.12-.88h-3.81c-.77,0-1.58.33-2.12.88-.29.27-.5.59-.62.97-.19.36-.27.74-.26,1.16.03.78.29,1.58.88,2.12s1.31.88,2.12.88h0Z"/><path class="cls-2" d="m797.89,329.15h3.81c.77,0,1.58-.33,2.12-.88.29-.27.5-.59.62-.97.19-.36.27-.74.26-1.16-.03-.78-.29-1.58-.88-2.12s-1.31-.88-2.12-.88h-3.81c-.77,0-1.58.33-2.12.88-.29.27-.5.59-.62.97-.19.36-.27.74-.26,1.16.03.78.29,1.58.88,2.12s1.31.88,2.12.88h0Z"/><rect class="cls-4" x="522.4" y="374.62" width="205.89" height="55" rx="12" ry="12"/><path class="cls-2" d="m530.52,403.28c.03,4.5.05,9.01.08,13.51,0,1.57,1.37,3.07,3,3s3.01-1.32,3-3c-.03-4.5-.05-9.01-.08-13.51,0-1.57-1.37-3.07-3-3s-3.01,1.32-3,3h0Z"/><path class="cls-2" d="m530.62,416.61c.02,2.86.87,5.58,3.69,6.81,2.6,1.13,5.7,1.09,8.48.94,5.79-.3,11.52-.46,17.32-.37,3.86.06,3.86-5.94,0-6-4.8-.08-9.61-.14-14.4.17-2.26.15-4.53.35-6.79.2-.62-.04-1.82-.05-2.28-.46.18.16,0,.04,0-.27,0,.03-.02-.79-.02-1.02-.02-3.86-6.02-3.87-6,0h0Z"/><path class="cls-2" d="m570.94,423.6c6.53.11,13.06.22,19.59.33,1.57.03,3.07-1.4,3-3s-1.32-2.97-3-3c-6.53-.11-13.06-.22-19.59-.33-1.57-.03-3.07,1.4-3,3s1.32,2.97,3,3h0Z"/><path class="cls-2" d="m600.92,424.3h3.81c.77,0,1.58-.33,2.12-.88.29-.27.5-.59.62-.97.19-.36.27-.74.26-1.16-.03-.78-.29-1.58-.88-2.12s-1.31-.88-2.12-.88h-3.81c-.77,0-1.58.33-2.12.88-.29.27-.5.59-.62.97-.19.36-.27.74-.26,1.16.03.78.29,1.58.88,2.12s1.31.88,2.12.88h0Z"/><path class="cls-2" d="m722.97,400c-.03-4.5-.05-9.01-.08-13.51,0-1.57-1.37-3.07-3-3s-3.01,1.32-3,3c.03,4.5.05,9.01.08,13.51,0,1.57,1.37,3.07,3,3s3.01-1.32,3-3h0Z"/><path class="cls-2" d="m722.87,386.67c-.02-2.86-.87-5.58-3.69-6.81-2.6-1.13-5.7-1.09-8.48-.94-5.79.3-11.52.46-17.32.37-3.86-.06-3.86,5.94,0,6,4.8.08,9.61.14,14.4-.17,2.26-.15,4.53-.35,6.79-.2.62.04,1.82.05,2.28.46-.18-.16,0-.04,0,.27,0-.03.02.79.02,1.02.02,3.86,6.02,3.87,6,0h0Z"/><path class="cls-2" d="m678.47,384.44h3.81c.77,0,1.58-.33,2.12-.88.29-.27.5-.59.62-.97.19-.36.27-.74.26-1.16-.03-.78-.29-1.58-.88-2.12s-1.31-.88-2.12-.88h-3.81c-.77,0-1.58.33-2.12.88-.29.27-.5.59-.62.97-.19.36-.27.74-.26,1.16.03.78.29,1.58.88,2.12s1.31.88,2.12.88h0Z"/><rect class="cls-4" x="657.22" y="437.62" width="205.89" height="55" rx="12" ry="12"/><path class="cls-2" d="m665.33,466.28c.03,4.5.05,9.01.08,13.51,0,1.57,1.37,3.07,3,3s3.01-1.32,3-3c-.03-4.5-.05-9.01-.08-13.51,0-1.57-1.37-3.07-3-3s-3.01,1.32-3,3h0Z"/><path class="cls-2" d="m665.44,479.61c.02,2.86.87,5.58,3.69,6.81,2.6,1.13,5.7,1.09,8.48.94,5.79-.3,11.52-.46,17.32-.37,3.86.06,3.86-5.94,0-6-4.8-.08-9.61-.14-14.4.17-2.26.15-4.53.35-6.79.2-.62-.04-1.82-.05-2.28-.46.18.16,0,.04,0-.27,0,.03-.02-.79-.02-1.02-.02-3.86-6.02-3.87-6,0h0Z"/><path class="cls-2" d="m705.76,486.6c6.53.11,13.06.22,19.59.33,1.57.03,3.07-1.4,3-3s-1.32-2.97-3-3c-6.53-.11-13.06-.22-19.59-.33-1.57-.03-3.07,1.4-3,3s1.32,2.97,3,3h0Z"/><path class="cls-2" d="m735.74,487.3h3.81c.77,0,1.58-.33,2.12-.88.29-.27.5-.59.62-.97.19-.36.27-.74.26-1.16-.03-.78-.29-1.58-.88-2.12s-1.31-.88-2.12-.88h-3.81c-.77,0-1.58.33-2.12.88-.29.27-.5.59-.62.97-.19.36-.27.74-.26,1.16.03.78.29,1.58.88,2.12s1.31.88,2.12.88h0Z"/><path class="cls-2" d="m857.79,463c-.03-4.5-.05-9.01-.08-13.51,0-1.57-1.37-3.07-3-3s-3.01,1.32-3,3c.03,4.5.05,9.01.08,13.51,0,1.57,1.37,3.07,3,3s3.01-1.32,3-3h0Z"/><path class="cls-2" d="m857.69,449.67c-.02-2.86-.87-5.58-3.69-6.81-2.6-1.13-5.7-1.09-8.48-.94-5.79.3-11.52.46-17.32.37-3.86-.06-3.86,5.94,0,6,4.8.08,9.61.14,14.4-.17,2.26-.15,4.53-.35,6.79-.2.62.04,1.82.05,2.28.46-.18-.16,0-.04,0,.27,0-.03.02.79.02,1.02.02,3.86,6.02,3.87,6,0h0Z"/><path class="cls-2" d="m813.29,447.44h3.81c.77,0,1.58-.33,2.12-.88.29-.27.5-.59.62-.97.19-.36.27-.74.26-1.16-.03-.78-.29-1.58-.88-2.12s-1.31-.88-2.12-.88h-3.81c-.77,0-1.58.33-2.12.88-.29.27-.5.59-.62.97-.19.36-.27.74-.26,1.16.03.78.29,1.58.88,2.12s1.31.88,2.12.88h0Z"/><rect class="cls-4" x="1084.67" y="489.62" width="205.89" height="55" rx="12" ry="12"/><path class="cls-2" d="m1092.78,518.28c.03,4.5.05,9.01.08,13.51,0,1.57,1.37,3.07,3,3s3.01-1.32,3-3c-.03-4.5-.05-9.01-.08-13.51,0-1.57-1.37-3.07-3-3s-3.01,1.32-3,3h0Z"/><path class="cls-2" d="m1092.89,531.61c.02,2.86.87,5.58,3.69,6.81,2.6,1.13,5.7,1.09,8.48.94,5.79-.3,11.52-.46,17.32-.37,3.86.06,3.86-5.94,0-6-4.8-.08-9.61-.14-14.4.17-2.26.15-4.53.35-6.79.2-.62-.04-1.82-.05-2.28-.46.18.16,0,.04,0-.27,0,.03-.02-.79-.02-1.02-.02-3.86-6.02-3.87-6,0h0Z"/><path class="cls-2" d="m1133.21,538.6c6.53.11,13.06.22,19.59.33,1.57.03,3.07-1.4,3-3s-1.32-2.97-3-3c-6.53-.11-13.06-.22-19.59-.33-1.57-.03-3.07,1.4-3,3s1.32,2.97,3,3h0Z"/><path class="cls-2" d="m1163.19,539.3h3.81c.77,0,1.58-.33,2.12-.88.29-.27.5-.59.62-.97.19-.36.27-.74.26-1.16-.03-.78-.29-1.58-.88-2.12s-1.31-.88-2.12-.88h-3.81c-.77,0-1.58.33-2.12.88-.29.27-.5.59-.62.97-.19.36-.27.74-.26,1.16.03.78.29,1.58.88,2.12s1.31.88,2.12.88h0Z"/><path class="cls-2" d="m1285.24,515c-.03-4.5-.05-9.01-.08-13.51,0-1.57-1.37-3.07-3-3s-3.01,1.32-3,3c.03,4.5.05,9.01.08,13.51,0,1.57,1.37,3.07,3,3s3.01-1.32,3-3h0Z"/><path class="cls-2" d="m1285.14,501.67c-.02-2.86-.87-5.58-3.69-6.81-2.6-1.13-5.7-1.09-8.48-.94-5.79.3-11.52.46-17.32.37-3.86-.06-3.86,5.94,0,6,4.8.08,9.61.14,14.4-.17,2.26-.15,4.53-.35,6.79-.2.62.04,1.82.05,2.28.46-.18-.16,0-.04,0,.27,0-.03.02.79.02,1.02.02,3.86,6.02,3.87,6,0h0Z"/><path class="cls-2" d="m1240.74,499.44h3.81c.77,0,1.58-.33,2.12-.88.29-.27.5-.59.62-.97.19-.36.27-.74.26-1.16-.03-.78-.29-1.58-.88-2.12s-1.31-.88-2.12-.88h-3.81c-.77,0-1.58.33-2.12.88-.29.27-.5.59-.62.97-.19.36-.27.74-.26,1.16.03.78.29,1.58.88,2.12s1.31.88,2.12.88h0Z"/><rect class="cls-4" x="989.56" y="551.62" width="205.89" height="55" rx="12" ry="12"/><path class="cls-2" d="m997.68,580.28c.03,4.5.05,9.01.08,13.51,0,1.57,1.37,3.07,3,3s3.01-1.32,3-3c-.03-4.5-.05-9.01-.08-13.51,0-1.57-1.37-3.07-3-3s-3.01,1.32-3,3h0Z"/><path class="cls-2" d="m997.78,593.61c.02,2.86.87,5.58,3.69,6.81,2.6,1.13,5.7,1.09,8.48.94,5.79-.3,11.52-.46,17.32-.37,3.86.06,3.86-5.94,0-6-4.8-.08-9.61-.14-14.4.17-2.26.15-4.53.35-6.79.2-.62-.04-1.82-.05-2.28-.46.18.16,0,.04,0-.27,0,.03-.02-.79-.02-1.02-.02-3.86-6.02-3.87-6,0h0Z"/><path class="cls-2" d="m1038.11,600.6c6.53.11,13.06.22,19.59.33,1.57.03,3.07-1.4,3-3s-1.32-2.97-3-3c-6.53-.11-13.06-.22-19.59-.33-1.57-.03-3.07,1.4-3,3s1.32,2.97,3,3h0Z"/><path class="cls-2" d="m1068.09,601.3h3.81c.77,0,1.58-.33,2.12-.88.29-.27.5-.59.62-.97.19-.36.27-.74.26-1.16-.03-.78-.29-1.58-.88-2.12s-1.31-.88-2.12-.88h-3.81c-.77,0-1.58.33-2.12.88-.29.27-.5.59-.62.97-.19.36-.27.74-.26,1.16.03.78.29,1.58.88,2.12s1.31.88,2.12.88h0Z"/><path class="cls-2" d="m1190.13,577c-.03-4.5-.05-9.01-.08-13.51,0-1.57-1.37-3.07-3-3s-3.01,1.32-3,3c.03,4.5.05,9.01.08,13.51,0,1.57,1.37,3.07,3,3s3.01-1.32,3-3h0Z"/><path class="cls-2" d="m1190.03,563.67c-.02-2.86-.87-5.58-3.69-6.81-2.6-1.13-5.7-1.09-8.48-.94-5.79.3-11.52.46-17.32.37-3.86-.06-3.86,5.94,0,6,4.8.08,9.61.14,14.4-.17,2.26-.15,4.53-.35,6.79-.2.62.04,1.82.05,2.28.46-.18-.16,0-.04,0,.27,0-.03.02.79.02,1.02.02,3.86,6.02,3.87,6,0h0Z"/><path class="cls-2" d="m1145.63,561.44h3.81c.77,0,1.58-.33,2.12-.88.29-.27.5-.59.62-.97.19-.36.27-.74.26-1.16-.03-.78-.29-1.58-.88-2.12s-1.31-.88-2.12-.88h-3.81c-.77,0-1.58.33-2.12.88-.29.27-.5.59-.62.97-.19.36-.27.74-.26,1.16.03.78.29,1.58.88,2.12s1.31.88,2.12.88h0Z"/><rect class="cls-4" x="1362.87" y="204.97" width="205.89" height="55" rx="12" ry="12"/><path class="cls-2" d="m1370.99,233.63l.08,13.51c0,1.57,1.37,3.07,3,3s3.01-1.32,3-3l-.08-13.51c0-1.57-1.37-3.07-3-3s-3.01,1.32-3,3h0Z"/><path class="cls-2" d="m1371.09,246.96c.02,2.86.87,5.58,3.69,6.81,2.6,1.13,5.7,1.09,8.48.94,5.79-.3,11.52-.46,17.32-.37,3.86.06,3.86-5.94,0-6-4.8-.08-9.61-.14-14.4.17-2.26.15-4.53.35-6.79.2-.62-.04-1.82-.05-2.28-.46.18.16,0,.04,0-.27,0,.03-.02-.79-.02-1.02-.02-3.86-6.02-3.87-6,0h0Z"/><path class="cls-2" d="m1411.41,253.94c6.53.11,13.06.22,19.59.33,1.57.03,3.07-1.4,3-3s-1.32-2.97-3-3c-6.53-.11-13.06-.22-19.59-.33-1.57-.03-3.07,1.4-3,3s1.32,2.97,3,3h0Z"/><path class="cls-2" d="m1441.39,254.65h3.81c.77,0,1.58-.33,2.12-.88.29-.27.5-.59.62-.97.19-.36.27-.74.26-1.16-.03-.78-.29-1.58-.88-2.12s-1.31-.88-2.12-.88h-3.81c-.77,0-1.58.33-2.12.88-.29.27-.5.59-.62.97-.19.36-.27.74-.26,1.16.03.78.29,1.58.88,2.12s1.31.88,2.12.88h0Z"/><path class="cls-2" d="m1563.44,230.34c-.03-4.5-.05-9.01-.08-13.51,0-1.57-1.37-3.07-3-3s-3.01,1.32-3,3c.03,4.5.05,9.01.08,13.51,0,1.57,1.37,3.07,3,3s3.01-1.32,3-3h0Z"/><path class="cls-2" d="m1563.34,217.02c-.02-2.86-.87-5.58-3.69-6.81-2.6-1.13-5.7-1.09-8.48-.94-5.79.3-11.52.46-17.32.37-3.86-.06-3.86,5.94,0,6,4.8.08,9.61.14,14.4-.17,2.26-.15,4.53-.35,6.79-.2.62.04,1.82.05,2.28.46-.18-.16,0-.04,0,.27,0-.03.02.79.02,1.02.02,3.86,6.02,3.87,6,0h0Z"/><path class="cls-2" d="m1518.94,214.79h3.81c.77,0,1.58-.33,2.12-.88.29-.27.5-.59.62-.97.19-.36.27-.74.26-1.16-.03-.78-.29-1.58-.88-2.12s-1.31-.88-2.12-.88h-3.81c-.77,0-1.58.33-2.12.88-.29.27-.5.59-.62.97-.19.36-.27.74-.26,1.16.03.78.29,1.58.88,2.12s1.31.88,2.12.88h0Z"/><rect class="cls-4" x="1259.41" y="269.97" width="205.89" height="55" rx="12" ry="12"/><path class="cls-2" d="m1267.52,298.63c.03,4.5.05,9.01.08,13.51,0,1.57,1.37,3.07,3,3s3.01-1.32,3-3c-.03-4.5-.05-9.01-.08-13.51,0-1.57-1.37-3.07-3-3s-3.01,1.32-3,3h0Z"/><path class="cls-2" d="m1267.62,311.96c.02,2.86.87,5.58,3.69,6.81,2.6,1.13,5.7,1.09,8.48.94,5.79-.3,11.52-.46,17.32-.37,3.86.06,3.86-5.94,0-6-4.8-.08-9.61-.14-14.4.17-2.26.15-4.53.35-6.79.2-.62-.04-1.82-.05-2.28-.46.18.16,0,.04,0-.27,0,.03-.02-.79-.02-1.02-.02-3.86-6.02-3.87-6,0h0Z"/><path class="cls-2" d="m1307.95,318.94c6.53.11,13.06.22,19.59.33,1.57.03,3.07-1.4,3-3s-1.32-2.97-3-3c-6.53-.11-13.06-.22-19.59-.33-1.57-.03-3.07,1.4-3,3s1.32,2.97,3,3h0Z"/><path class="cls-2" d="m1337.93,319.65h3.81c.77,0,1.58-.33,2.12-.88.29-.27.5-.59.62-.97.19-.36.27-.74.26-1.16-.03-.78-.29-1.58-.88-2.12s-1.31-.88-2.12-.88h-3.81c-.77,0-1.58.33-2.12.88-.29.27-.5.59-.62.97-.19.36-.27.74-.26,1.16.03.78.29,1.58.88,2.12s1.31.88,2.12.88h0Z"/><path class="cls-2" d="m1459.98,295.34c-.03-4.5-.05-9.01-.08-13.51,0-1.57-1.37-3.07-3-3s-3.01,1.32-3,3c.03,4.5.05,9.01.08,13.51,0,1.57,1.37,3.07,3,3s3.01-1.32,3-3h0Z"/><path class="cls-2" d="m1459.87,282.02c-.02-2.86-.87-5.58-3.69-6.81-2.6-1.13-5.7-1.09-8.48-.94-5.79.3-11.52.46-17.32.37-3.86-.06-3.86,5.94,0,6,4.8.08,9.61.14,14.4-.17,2.26-.15,4.53-.35,6.79-.2.62.04,1.82.05,2.28.46-.18-.16,0-.04,0,.27,0-.03.02.79.02,1.02.02,3.86,6.02,3.87,6,0h0Z"/><path class="cls-2" d="m1415.47,279.79h3.81c.77,0,1.58-.33,2.12-.88.29-.27.5-.59.62-.97.19-.36.27-.74.26-1.16-.03-.78-.29-1.58-.88-2.12s-1.31-.88-2.12-.88h-3.81c-.77,0-1.58.33-2.12.88-.29.27-.5.59-.62.97-.19.36-.27.74-.26,1.16.03.78.29,1.58.88,2.12s1.31.88,2.12.88h0Z"/><rect class="cls-4" x="1476.79" y="270.97" width="205.89" height="55" rx="12" ry="12"/><path class="cls-2" d="m1484.9,299.63c.03,4.5.05,9.01.08,13.51,0,1.57,1.37,3.07,3,3s3.01-1.32,3-3c-.03-4.5-.05-9.01-.08-13.51,0-1.57-1.37-3.07-3-3s-3.01,1.32-3,3h0Z"/><path class="cls-2" d="m1485.01,312.96c.02,2.86.87,5.58,3.69,6.81,2.6,1.13,5.7,1.09,8.48.94,5.79-.3,11.52-.46,17.32-.37,3.86.06,3.86-5.94,0-6-4.8-.08-9.61-.14-14.4.17-2.26.15-4.53.35-6.79.2-.62-.04-1.82-.05-2.28-.46.18.16,0,.04,0-.27,0,.03-.02-.79-.02-1.02-.02-3.86-6.02-3.87-6,0h0Z"/><path class="cls-2" d="m1525.33,319.94c6.53.11,13.06.22,19.59.33,1.57.03,3.07-1.4,3-3s-1.32-2.97-3-3c-6.53-.11-13.06-.22-19.59-.33-1.57-.03-3.07,1.4-3,3s1.32,2.97,3,3h0Z"/><path class="cls-2" d="m1555.31,320.65h3.81c.77,0,1.58-.33,2.12-.88.29-.27.5-.59.62-.97.19-.36.27-.74.26-1.16-.03-.78-.29-1.58-.88-2.12s-1.31-.88-2.12-.88h-3.81c-.77,0-1.58.33-2.12.88-.29.27-.5.59-.62.97-.19.36-.27.74-.26,1.16.03.78.29,1.58.88,2.12s1.31.88,2.12.88h0Z"/><path class="cls-2" d="m1677.36,296.34c-.03-4.5-.05-9.01-.08-13.51,0-1.57-1.37-3.07-3-3s-3.01,1.32-3,3c.03,4.5.05,9.01.08,13.51,0,1.57,1.37,3.07,3,3s3.01-1.32,3-3h0Z"/><path class="cls-2" d="m1677.26,283.02c-.02-2.86-.87-5.58-3.69-6.81-2.6-1.13-5.7-1.09-8.48-.94-5.79.3-11.52.46-17.32.37-3.86-.06-3.86,5.94,0,6,4.8.08,9.61.14,14.4-.17,2.26-.15,4.53-.35,6.79-.2.62.04,1.82.05,2.28.46-.18-.16,0-.04,0,.27,0-.03.02.79.02,1.02.02,3.86,6.02,3.87,6,0h0Z"/><path class="cls-2" d="m1632.86,280.79h3.81c.77,0,1.58-.33,2.12-.88.29-.27.5-.59.62-.97.19-.36.27-.74.26-1.16-.03-.78-.29-1.58-.88-2.12s-1.31-.88-2.12-.88h-3.81c-.77,0-1.58.33-2.12.88-.29.27-.5.59-.62.97-.19.36-.27.74-.26,1.16.03.78.29,1.58.88,2.12s1.31.88,2.12.88h0Z"/><rect class="cls-4" x="1373.32" y="337.97" width="205.89" height="55" rx="12" ry="12"/><path class="cls-2" d="m1381.44,366.63c.03,4.5.05,9.01.08,13.51,0,1.57,1.37,3.07,3,3s3.01-1.32,3-3c-.03-4.5-.05-9.01-.08-13.51,0-1.57-1.37-3.07-3-3s-3.01,1.32-3,3h0Z"/><path class="cls-2" d="m1381.54,379.96c.02,2.86.87,5.58,3.69,6.81,2.6,1.13,5.7,1.09,8.48.94,5.79-.3,11.52-.46,17.32-.37,3.86.06,3.86-5.94,0-6-4.8-.08-9.61-.14-14.4.17-2.26.15-4.53.35-6.79.2-.62-.04-1.82-.05-2.28-.46.18.16,0,.04,0-.27,0,.03-.02-.79-.02-1.02-.02-3.86-6.02-3.87-6,0h0Z"/><path class="cls-2" d="m1421.86,386.94c6.53.11,13.06.22,19.59.33,1.57.03,3.07-1.4,3-3s-1.32-2.97-3-3c-6.53-.11-13.06-.22-19.59-.33-1.57-.03-3.07,1.4-3,3s1.32,2.97,3,3h0Z"/><path class="cls-2" d="m1451.85,387.65h3.81c.77,0,1.58-.33,2.12-.88.29-.27.5-.59.62-.97.19-.36.27-.74.26-1.16-.03-.78-.29-1.58-.88-2.12s-1.31-.88-2.12-.88h-3.81c-.77,0-1.58.33-2.12.88-.29.27-.5.59-.62.97-.19.36-.27.74-.26,1.16.03.78.29,1.58.88,2.12s1.31.88,2.12.88h0Z"/><path class="cls-2" d="m1573.89,363.34l-.08-13.51c0-1.57-1.37-3.07-3-3s-3.01,1.32-3,3l.08,13.51c0,1.57,1.37,3.07,3,3s3.01-1.32,3-3h0Z"/><path class="cls-2" d="m1573.79,350.02c-.02-2.86-.87-5.58-3.69-6.81-2.6-1.13-5.7-1.09-8.48-.94-5.79.3-11.52.46-17.32.37-3.86-.06-3.86,5.94,0,6,4.8.08,9.61.14,14.4-.17,2.26-.15,4.53-.35,6.79-.2.62.04,1.82.05,2.28.46-.18-.16,0-.04,0,.27,0-.03.02.79.02,1.02.02,3.86,6.02,3.87,6,0h0Z"/><path class="cls-2" d="m1529.39,347.79h3.81c.77,0,1.58-.33,2.12-.88.29-.27.5-.59.62-.97.19-.36.27-.74.26-1.16-.03-.78-.29-1.58-.88-2.12s-1.31-.88-2.12-.88h-3.81c-.77,0-1.58.33-2.12.88-.29.27-.5.59-.62.97-.19.36-.27.74-.26,1.16.03.78.29,1.58.88,2.12s1.31.88,2.12.88h0Z"/><rect class="cls-4" x="1521.73" y="396.97" width="205.89" height="55" rx="12" ry="12"/><path class="cls-2" d="m1529.84,425.63c.03,4.5.05,9.01.08,13.51,0,1.57,1.37,3.07,3,3s3.01-1.32,3-3c-.03-4.5-.05-9.01-.08-13.51,0-1.57-1.37-3.07-3-3s-3.01,1.32-3,3h0Z"/><path class="cls-2" d="m1529.95,438.96c.02,2.86.87,5.58,3.69,6.81,2.6,1.13,5.7,1.09,8.48.94,5.79-.3,11.52-.46,17.32-.37,3.86.06,3.86-5.94,0-6-4.8-.08-9.61-.14-14.4.17-2.26.15-4.53.35-6.79.2-.62-.04-1.82-.05-2.28-.46.18.16,0,.04,0-.27,0,.03-.02-.79-.02-1.02-.02-3.86-6.02-3.87-6,0h0Z"/><path class="cls-2" d="m1570.27,445.94c6.53.11,13.06.22,19.59.33,1.57.03,3.07-1.4,3-3s-1.32-2.97-3-3c-6.53-.11-13.06-.22-19.59-.33-1.57-.03-3.07,1.4-3,3s1.32,2.97,3,3h0Z"/><path class="cls-2" d="m1600.25,446.65h3.81c.77,0,1.58-.33,2.12-.88.29-.27.5-.59.62-.97.19-.36.27-.74.26-1.16-.03-.78-.29-1.58-.88-2.12s-1.31-.88-2.12-.88h-3.81c-.77,0-1.58.33-2.12.88-.29.27-.5.59-.62.97-.19.36-.27.74-.26,1.16.03.78.29,1.58.88,2.12s1.31.88,2.12.88h0Z"/><path class="cls-2" d="m1722.3,422.34c-.03-4.5-.05-9.01-.08-13.51,0-1.57-1.37-3.07-3-3s-3.01,1.32-3,3c.03,4.5.05,9.01.08,13.51,0,1.57,1.37,3.07,3,3s3.01-1.32,3-3h0Z"/><path class="cls-2" d="m1722.19,409.02c-.02-2.86-.87-5.58-3.69-6.81-2.6-1.13-5.7-1.09-8.48-.94-5.79.3-11.52.46-17.32.37-3.86-.06-3.86,5.94,0,6,4.8.08,9.61.14,14.4-.17,2.26-.15,4.53-.35,6.79-.2.62.04,1.82.05,2.28.46-.18-.16,0-.04,0,.27,0-.03.02.79.02,1.02.02,3.86,6.02,3.87,6,0h0Z"/><path class="cls-2" d="m1677.8,406.79h3.81c.77,0,1.58-.33,2.12-.88.29-.27.5-.59.62-.97.19-.36.27-.74.26-1.16-.03-.78-.29-1.58-.88-2.12s-1.31-.88-2.12-.88h-3.81c-.77,0-1.58.33-2.12.88-.29.27-.5.59-.62.97-.19.36-.27.74-.26,1.16.03.78.29,1.58.88,2.12s1.31.88,2.12.88h0Z"/><rect class="cls-4" x="359.47" y="143.66" width="205.89" height="55" rx="12" ry="12"/><path class="cls-2" d="m367.59,172.32c.03,4.5.05,9.01.08,13.51,0,1.57,1.37,3.07,3,3s3.01-1.32,3-3c-.03-4.5-.05-9.01-.08-13.51,0-1.57-1.37-3.07-3-3s-3.01,1.32-3,3h0Z"/><path class="cls-2" d="m367.69,185.64c.02,2.86.87,5.58,3.69,6.81,2.6,1.13,5.7,1.09,8.48.94,5.79-.3,11.52-.46,17.32-.37,3.86.06,3.86-5.94,0-6-4.8-.08-9.61-.14-14.4.17-2.26.15-4.53.35-6.79.2-.62-.04-1.82-.05-2.28-.46.18.16,0,.04,0-.27,0,.03-.02-.79-.02-1.02-.02-3.86-6.02-3.87-6,0h0Z"/><path class="cls-2" d="m408.02,192.63c6.53.11,13.06.22,19.59.33,1.57.03,3.07-1.4,3-3s-1.32-2.97-3-3c-6.53-.11-13.06-.22-19.59-.33-1.57-.03-3.07,1.4-3,3s1.32,2.97,3,3h0Z"/><path class="cls-2" d="m438,193.33h3.81c.77,0,1.58-.33,2.12-.88.29-.27.5-.59.62-.97.19-.36.27-.74.26-1.16-.03-.78-.29-1.58-.88-2.12s-1.31-.88-2.12-.88h-3.81c-.77,0-1.58.33-2.12.88-.29.27-.5.59-.62.97-.19.36-.27.74-.26,1.16.03.78.29,1.58.88,2.12s1.31.88,2.12.88h0Z"/><path class="cls-2" d="m560.04,169.03c-.03-4.5-.05-9.01-.08-13.51,0-1.57-1.37-3.07-3-3s-3.01,1.32-3,3c.03,4.5.05,9.01.08,13.51,0,1.57,1.37,3.07,3,3s3.01-1.32,3-3h0Z"/><path class="cls-2" d="m559.94,155.7c-.02-2.86-.87-5.58-3.69-6.81-2.6-1.13-5.7-1.09-8.48-.94-5.79.3-11.52.46-17.32.37-3.86-.06-3.86,5.94,0,6,4.8.08,9.61.14,14.4-.17,2.26-.15,4.53-.35,6.79-.2.62.04,1.82.05,2.28.46-.18-.16,0-.04,0,.27,0-.03.02.79.02,1.02.02,3.86,6.02,3.87,6,0h0Z"/><path class="cls-2" d="m515.54,153.47h3.81c.77,0,1.58-.33,2.12-.88.29-.27.5-.59.62-.97.19-.36.27-.74.26-1.16-.03-.78-.29-1.58-.88-2.12s-1.31-.88-2.12-.88h-3.81c-.77,0-1.58.33-2.12.88-.29.27-.5.59-.62.97-.19.36-.27.74-.26,1.16.03.78.29,1.58.88,2.12s1.31.88,2.12.88h0Z"/><rect class="cls-4" x="237.2" y="80.66" width="205.89" height="55" rx="12" ry="12"/><path class="cls-2" d="m245.31,109.32c.03,4.5.05,9.01.08,13.51,0,1.57,1.37,3.07,3,3s3.01-1.32,3-3c-.03-4.5-.05-9.01-.08-13.51,0-1.57-1.37-3.07-3-3s-3.01,1.32-3,3h0Z"/><path class="cls-2" d="m245.41,122.64c.02,2.86.87,5.58,3.69,6.81,2.6,1.13,5.7,1.09,8.48.94,5.79-.3,11.52-.46,17.32-.37,3.86.06,3.86-5.94,0-6-4.8-.08-9.61-.14-14.4.17-2.26.15-4.53.35-6.79.2-.62-.04-1.82-.05-2.28-.46.18.16,0,.04,0-.27,0,.03-.02-.79-.02-1.02-.02-3.86-6.02-3.87-6,0h0Z"/><path class="cls-2" d="m285.74,129.63c6.53.11,13.06.22,19.59.33,1.57.03,3.07-1.4,3-3s-1.32-2.97-3-3c-6.53-.11-13.06-.22-19.59-.33-1.57-.03-3.07,1.4-3,3s1.32,2.97,3,3h0Z"/><path class="cls-2" d="m315.72,130.33h3.81c.77,0,1.58-.33,2.12-.88.29-.27.5-.59.62-.97.19-.36.27-.74.26-1.16-.03-.78-.29-1.58-.88-2.12s-1.31-.88-2.12-.88h-3.81c-.77,0-1.58.33-2.12.88-.29.27-.5.59-.62.97-.19.36-.27.74-.26,1.16.03.78.29,1.58.88,2.12s1.31.88,2.12.88h0Z"/><path class="cls-2" d="m437.77,106.03c-.03-4.5-.05-9.01-.08-13.51,0-1.57-1.37-3.07-3-3s-3.01,1.32-3,3c.03,4.5.05,9.01.08,13.51,0,1.57,1.37,3.07,3,3s3.01-1.32,3-3h0Z"/><path class="cls-2" d="m437.66,92.7c-.02-2.86-.87-5.58-3.69-6.81-2.6-1.13-5.7-1.09-8.48-.94-5.79.3-11.52.46-17.32.37-3.86-.06-3.86,5.94,0,6,4.8.08,9.61.14,14.4-.17,2.26-.15,4.53-.35,6.79-.2.62.04,1.82.05,2.28.46-.18-.16,0-.04,0,.27,0-.03.02.79.02,1.02.02,3.86,6.02,3.87,6,0h0Z"/><path class="cls-2" d="m393.26,90.47h3.81c.77,0,1.58-.33,2.12-.88.29-.27.5-.59.62-.97.19-.36.27-.74.26-1.16-.03-.78-.29-1.58-.88-2.12s-1.31-.88-2.12-.88h-3.81c-.77,0-1.58.33-2.12.88-.29.27-.5.59-.62.97-.19.36-.27.74-.26,1.16.03.78.29,1.58.88,2.12s1.31.88,2.12.88h0Z"/><rect class="cls-4" x="158.64" y="489.32" width="205.89" height="55" rx="12" ry="12"/><path class="cls-2" d="m166.76,517.98c.03,4.5.05,9.01.08,13.51,0,1.57,1.37,3.07,3,3s3.01-1.32,3-3c-.03-4.5-.05-9.01-.08-13.51,0-1.57-1.37-3.07-3-3s-3.01,1.32-3,3h0Z"/><path class="cls-2" d="m166.86,531.31c.02,2.86.87,5.58,3.69,6.81,2.6,1.13,5.7,1.09,8.48.94,5.79-.3,11.52-.46,17.32-.37,3.86.06,3.86-5.94,0-6-4.8-.08-9.61-.14-14.4.17-2.26.15-4.53.35-6.79.2-.62-.04-1.82-.05-2.28-.46.18.16,0,.04,0-.27,0,.03-.02-.79-.02-1.02-.02-3.86-6.02-3.87-6,0h0Z"/><path class="cls-2" d="m207.18,538.3c6.53.11,13.06.22,19.59.33,1.57.03,3.07-1.4,3-3s-1.32-2.97-3-3c-6.53-.11-13.06-.22-19.59-.33-1.57-.03-3.07,1.4-3,3s1.32,2.97,3,3h0Z"/><path class="cls-2" d="m237.16,539h3.81c.77,0,1.58-.33,2.12-.88.29-.27.5-.59.62-.97.19-.36.27-.74.26-1.16-.03-.78-.29-1.58-.88-2.12s-1.31-.88-2.12-.88h-3.81c-.77,0-1.58.33-2.12.88-.29.27-.5.59-.62.97-.19.36-.27.74-.26,1.16.03.78.29,1.58.88,2.12s1.31.88,2.12.88h0Z"/><path class="cls-2" d="m359.21,514.7c-.03-4.5-.05-9.01-.08-13.51,0-1.57-1.37-3.07-3-3s-3.01,1.32-3,3c.03,4.5.05,9.01.08,13.51,0,1.57,1.37,3.07,3,3s3.01-1.32,3-3h0Z"/><path class="cls-2" d="m359.11,501.37c-.02-2.86-.87-5.58-3.69-6.81-2.6-1.13-5.7-1.09-8.48-.94-5.79.3-11.52.46-17.32.37-3.86-.06-3.86,5.94,0,6,4.8.08,9.61.14,14.4-.17,2.26-.15,4.53-.35,6.79-.2.62.04,1.82.05,2.28.46-.18-.16,0-.04,0,.27,0-.03.02.79.02,1.02.02,3.86,6.02,3.87,6,0h0Z"/><path class="cls-2" d="m314.71,499.14h3.81c.77,0,1.58-.33,2.12-.88.29-.27.5-.59.62-.97.19-.36.27-.74.26-1.16-.03-.78-.29-1.58-.88-2.12s-1.31-.88-2.12-.88h-3.81c-.77,0-1.58.33-2.12.88-.29.27-.5.59-.62.97-.19.36-.27.74-.26,1.16.03.78.29,1.58.88,2.12s1.31.88,2.12.88h0Z"/><rect class="cls-4" x="267.33" y="552.32" width="205.89" height="55" rx="12" ry="12"/><path class="cls-2" d="m275.45,580.98c.03,4.5.05,9.01.08,13.51,0,1.57,1.37,3.07,3,3s3.01-1.32,3-3c-.03-4.5-.05-9.01-.08-13.51,0-1.57-1.37-3.07-3-3s-3.01,1.32-3,3h0Z"/><path class="cls-2" d="m275.55,594.31c.02,2.86.87,5.58,3.69,6.81,2.6,1.13,5.7,1.09,8.48.94,5.79-.3,11.52-.46,17.32-.37,3.86.06,3.86-5.94,0-6-4.8-.08-9.61-.14-14.4.17-2.26.15-4.53.35-6.79.2-.62-.04-1.82-.05-2.28-.46.18.16,0,.04,0-.27,0,.03-.02-.79-.02-1.02-.02-3.86-6.02-3.87-6,0h0Z"/><path class="cls-2" d="m315.88,601.3c6.53.11,13.06.22,19.59.33,1.57.03,3.07-1.4,3-3s-1.32-2.97-3-3c-6.53-.11-13.06-.22-19.59-.33-1.57-.03-3.07,1.4-3,3s1.32,2.97,3,3h0Z"/><path class="cls-2" d="m345.86,602h3.81c.77,0,1.58-.33,2.12-.88.29-.27.5-.59.62-.97.19-.36.27-.74.26-1.16-.03-.78-.29-1.58-.88-2.12s-1.31-.88-2.12-.88h-3.81c-.77,0-1.58.33-2.12.88-.29.27-.5.59-.62.97-.19.36-.27.74-.26,1.16.03.78.29,1.58.88,2.12s1.31.88,2.12.88h0Z"/><path class="cls-2" d="m467.9,577.7c-.03-4.5-.05-9.01-.08-13.51,0-1.57-1.37-3.07-3-3s-3.01,1.32-3,3c.03,4.5.05,9.01.08,13.51,0,1.57,1.37,3.07,3,3s3.01-1.32,3-3h0Z"/><path class="cls-2" d="m467.8,564.37c-.02-2.86-.87-5.58-3.69-6.81-2.6-1.13-5.7-1.09-8.48-.94-5.79.3-11.52.46-17.32.37-3.86-.06-3.86,5.94,0,6,4.8.08,9.61.14,14.4-.17,2.26-.15,4.53-.35,6.79-.2.62.04,1.82.05,2.28.46-.18-.16,0-.04,0,.27,0-.03.02.79.02,1.02.02,3.86,6.02,3.87,6,0h0Z"/><path class="cls-2" d="m423.4,562.14h3.81c.77,0,1.58-.33,2.12-.88.29-.27.5-.59.62-.97.19-.36.27-.74.26-1.16-.03-.78-.29-1.58-.88-2.12s-1.31-.88-2.12-.88h-3.81c-.77,0-1.58.33-2.12.88-.29.27-.5.59-.62.97-.19.36-.27.74-.26,1.16.03.78.29,1.58.88,2.12s1.31.88,2.12.88h0Z"/><rect class="cls-4" x="51" y="552.32" width="205.89" height="55" rx="12" ry="12"/><path class="cls-2" d="m59.11,580.98c.03,4.5.05,9.01.08,13.51,0,1.57,1.37,3.07,3,3s3.01-1.32,3-3c-.03-4.5-.05-9.01-.08-13.51,0-1.57-1.37-3.07-3-3s-3.01,1.32-3,3h0Z"/><path class="cls-2" d="m59.21,594.31c.02,2.86.87,5.58,3.69,6.81,2.6,1.13,5.7,1.09,8.48.94,5.79-.3,11.52-.46,17.32-.37,3.86.06,3.86-5.94,0-6-4.8-.08-9.61-.14-14.4.17-2.26.15-4.53.35-6.79.2-.62-.04-1.82-.05-2.28-.46.18.16,0,.04,0-.27,0,.03-.02-.79-.02-1.02-.02-3.86-6.02-3.87-6,0h0Z"/><path class="cls-2" d="m99.54,601.3c6.53.11,13.06.22,19.59.33,1.57.03,3.07-1.4,3-3s-1.32-2.97-3-3c-6.53-.11-13.06-.22-19.59-.33-1.57-.03-3.07,1.4-3,3s1.32,2.97,3,3h0Z"/><path class="cls-2" d="m129.52,602h3.81c.77,0,1.58-.33,2.12-.88.29-.27.5-.59.62-.97.19-.36.27-.74.26-1.16-.03-.78-.29-1.58-.88-2.12s-1.31-.88-2.12-.88h-3.81c-.77,0-1.58.33-2.12.88-.29.27-.5.59-.62.97-.19.36-.27.74-.26,1.16.03.78.29,1.58.88,2.12s1.31.88,2.12.88h0Z"/><path class="cls-2" d="m251.57,577.7c-.03-4.5-.05-9.01-.08-13.51,0-1.57-1.37-3.07-3-3s-3.01,1.32-3,3c.03,4.5.05,9.01.08,13.51,0,1.57,1.37,3.07,3,3s3.01-1.32,3-3h0Z"/><path class="cls-2" d="m251.46,564.37c-.02-2.86-.87-5.58-3.69-6.81-2.6-1.13-5.7-1.09-8.48-.94-5.79.3-11.52.46-17.32.37-3.86-.06-3.86,5.94,0,6,4.8.08,9.61.14,14.4-.17,2.26-.15,4.53-.35,6.79-.2.62.04,1.82.05,2.28.46-.18-.16,0-.04,0,.27,0-.03.02.79.02,1.02.02,3.86,6.02,3.87,6,0h0Z"/><path class="cls-2" d="m207.06,562.14h3.81c.77,0,1.58-.33,2.12-.88.29-.27.5-.59.62-.97.19-.36.27-.74.26-1.16-.03-.78-.29-1.58-.88-2.12s-1.31-.88-2.12-.88h-3.81c-.77,0-1.58.33-2.12.88-.29.27-.5.59-.62.97-.19.36-.27.74-.26,1.16.03.78.29,1.58.88,2.12s1.31.88,2.12.88h0Z"/><path class="cls-7" d="m58.28,14.85c1.93,0,1.93-3,0-3s-1.93,3,0,3h0Z"/><path class="cls-8" d="m708.18,1016.49c-3.29-.32-5.8-1.41-7.53-3.27-1.73-1.86-2.42-4.57-2.08-8.13l3.81-39.37c.11-1.17.88-2.17,2.3-3,1.42-.83,3.23-1.5,5.43-1.99,2.2-.49,4.66-.81,7.38-.94,2.72-.13,5.45-.07,8.19.2,4.85.47,9.22,1.46,13.11,2.99,3.9,1.53,7.18,3.62,9.84,6.29,2.66,2.67,4.62,5.94,5.86,9.79,1.24,3.86,1.61,8.37,1.11,13.53-.44,4.52-1.6,8.46-3.47,11.81-1.88,3.35-4.37,6.09-7.48,8.22-3.11,2.13-6.77,3.61-10.97,4.46-4.2.84-8.85,1.02-13.94.53l-11.57-1.12Zm19.97-28.58c.14-1.4.22-2.61.26-3.62.04-1.01.01-1.86-.08-2.55-.09-.63-.26-1.05-.5-1.28-.24-.23-.53-.36-.86-.39-.34-.03-.6,0-.79.08-.19.08-.35.16-.48.24-.02.53-.02,1.02,0,1.48.02.46.02.97.01,1.55,0,.57-.04,1.23-.08,1.98-.04.75-.11,1.66-.22,2.74l-.27,2.84c-.1,1.08-.21,1.99-.31,2.73-.1.74-.2,1.39-.3,1.96s-.2,1.07-.31,1.52c-.1.45-.2.93-.28,1.45.11.1.26.21.43.33.17.12.43.2.76.23.33.03.64-.04.92-.22.28-.18.52-.57.74-1.17.22-.66.4-1.48.56-2.48.16-1,.3-2.2.44-3.6l.37-3.8Z"/><path class="cls-8" d="m758.68,978.7c.64-.33,1.27-.59,1.9-.77.63-.19,1.31-.43,2.04-.72-.56-.34-1.12-.79-1.69-1.37-.57-.57-1.08-1.25-1.52-2.04-.44-.78-.79-1.67-1.03-2.66-.24-.99-.32-2.08-.22-3.28.15-1.87.63-3.54,1.43-5.02.81-1.48,1.85-2.72,3.13-3.72,1.28-1,2.73-1.75,4.37-2.23,1.64-.49,3.37-.66,5.2-.51,1.86.15,3.55.61,5.07,1.37,1.52.77,2.82,1.75,3.89,2.95,1.07,1.2,1.88,2.59,2.41,4.18.53,1.58.73,3.27.59,5.05-.12,1.52-.5,2.91-1.14,4.16-.64,1.26-1.44,2.36-2.4,3.31-.97.95-2.07,1.72-3.32,2.32-1.24.59-2.52.97-3.82,1.13-.03.44.03.83.21,1.18.17.35.5.55.99.59,1.53.12,3.16-.34,4.9-1.38.09.07.23.18.43.34.2.16.42.36.65.58.23.22.44.44.64.65.2.21.32.36.38.45l-1.37,17.35c-.16,2.02-.07,3.76.28,5.25.34,1.48,1.13,2.65,2.35,3.51.01.24,0,.52-.02.86-.03.34-.05.59-.06.77-.18,2.22-.65,4.11-1.42,5.66s-1.77,2.81-3.02,3.75c-1.24.94-2.68,1.6-4.33,1.97-1.64.37-3.41.48-5.3.33-1.46-.12-2.98-.47-4.55-1.07s-2.97-1.5-4.21-2.71c-1.24-1.21-2.22-2.78-2.94-4.71-.72-1.92-.98-4.27-.76-7.05l2.25-28.48Z"/><path class="cls-8" d="m815.96,976.44c1.5.09,2.82.3,3.97.65,1.15.35,2.18.77,3.1,1.28.92.51,1.74,1.07,2.46,1.68.72.61,1.38,1.22,1.99,1.81.82-1.48,1.55-2.84,2.19-4.1.64-1.25,1.24-2.45,1.79-3.59.56-1.14,1.1-2.27,1.62-3.38.52-1.11,1.08-2.29,1.67-3.51.99-.18,2.25-.3,3.77-.38,1.52-.07,3.12-.06,4.81.03,1.31.08,2.63.22,3.95.45,1.32.22,2.77.54,4.34.95l-.62,10.75,13.71.79c.81,1.34,1.39,2.82,1.75,4.44.35,1.62.48,3.22.39,4.8-.09,1.49-.4,3.07-.94,4.72-.54,1.66-1.29,3.07-2.25,4.25l-12.33-.71-.38,6.62c-.12,2.02.23,3.48,1.04,4.39.81.91,1.99,1.41,3.55,1.5l1.97.11c.19.89.36,1.84.5,2.85.14,1.01.18,2.01.13,3-.23,4.07-1.74,7.09-4.52,9.07-2.78,1.98-6.63,2.83-11.56,2.55-2.48-.14-4.71-.59-6.71-1.35-2-.76-3.69-1.84-5.08-3.24s-2.43-3.11-3.11-5.13c-.68-2.02-.94-4.37-.79-7.07l.94-16.45c.05-.79-.04-1.31-.25-1.58-.21-.26-.52-.4-.92-.43-.37-.02-.71.08-1.03.29-.05.85-.15,1.75-.29,2.69-.15.95-.35,1.79-.61,2.54-1,.35-2.36.66-4.08.91-1.72.25-3.54.32-5.46.21-1.01-.06-1.9-.14-2.68-.24-.78-.1-1.48-.22-2.12-.36-.64-.14-1.22-.29-1.75-.45-.53-.16-1.06-.32-1.61-.47-.26.22-.4.55-.42.99-.02.41.24.75.79,1.01.55.27,1.55.57,3.01.92l-1.26,22.02c-1.08.58-2.16,1.04-3.25,1.38-1.09.33-2.16.58-3.19.74-1.04.16-2.02.25-2.96.27-.94.02-1.8,0-2.6-.04-1.71-.1-3.31-.34-4.79-.74-1.48-.39-2.76-.94-3.84-1.63-1.08-.69-1.91-1.54-2.5-2.54s-.84-2.18-.76-3.52l1.3-22.59c-.85-1.28-1.45-2.71-1.8-4.29-.35-1.58-.48-3.21-.38-4.91.08-1.4.39-2.94.93-4.61.54-1.67,1.31-3.14,2.3-4.4l7.02.4c1.9.11,3.46.49,4.7,1.15,1.23.66,2.19,1.53,2.86,2.63-.42.39-.82.86-1.21,1.43-.39.57-.72,1.12-1.02,1.68-.29.55-.53,1.08-.71,1.59-.18.5-.28.9-.3,1.19-.02.35.1.67.36.97.26.29.68.46,1.26.49.7-2.13,1.63-3.9,2.77-5.3,1.14-1.4,2.41-2.5,3.82-3.3,1.41-.8,2.91-1.34,4.51-1.61,1.6-.28,3.2-.37,4.82-.27Z"/><path class="cls-8" d="m873.36,979.86c2.17.07,3.96.43,5.36,1.07,1.4.65,2.53,1.47,3.37,2.46s1.45,2.11,1.82,3.36c.37,1.24.62,2.51.73,3.8-.11.67-.25,1.57-.41,2.69-.16,1.12-.31,2.38-.47,3.77-.15,1.39-.28,2.86-.39,4.41-.11,1.55-.19,3.09-.24,4.61-.01.32-.02.67-.03,1.03-.01.37,0,.7.01.99.18.09.35.16.52.19.17.04.33.05.48.06.49.02.84-.15,1.05-.49.21-.35.32-.81.34-1.4.08-2.46.23-4.89.46-7.31s.49-4.68.79-6.81c.3-2.13.62-4.05.97-5.77.35-1.72.66-3.12.94-4.19,1.38-.89,2.92-1.51,4.63-1.85,1.71-.34,3.58-.48,5.6-.41,2.11.07,3.96.35,5.53.86,1.58.51,2.88,1.14,3.91,1.91,1.03.77,1.8,1.63,2.31,2.58.51.96.74,1.93.71,2.92,0,.18-.09.75-.24,1.73-.15.98-.39,2.27-.7,3.87-.31,1.6-.69,3.47-1.14,5.61-.45,2.14-.98,4.43-1.6,6.87-.61,2.44-1.29,5.01-2.04,7.69-.75,2.69-1.56,5.4-2.44,8.12-1.5,4.58-3.25,8.3-5.25,11.15-2.01,2.85-4.18,5.07-6.51,6.65-2.33,1.58-4.76,2.64-7.29,3.17-2.53.53-5.06.76-7.6.68-2.6-.08-4.84-.47-6.72-1.16-1.88-.69-3.42-1.59-4.62-2.7-1.21-1.11-2.09-2.38-2.66-3.8-.57-1.42-.83-2.91-.78-4.46.05-1.49.32-2.91.8-4.26.49-1.35,1.27-2.74,2.36-4.17.25-.05.58-.08.99-.1.41-.02.8-.02,1.17,0,.92.03,1.83.11,2.75.24.91.13,1.65.25,2.19.36l7.17,1.5c.33.07.67.14,1,.21.33.07.67.11,1.01.12.52.02.96-.07,1.32-.27s.55-.67.57-1.43l-10.77-2.32c-1.12-.48-2.27-1.26-3.44-2.35-1.18-1.09-2.27-2.59-3.28-4.48-1.01-1.89-1.91-4.24-2.69-7.05-.78-2.81-1.34-6.15-1.68-10.03-.79-1.05-1.46-2.34-2.01-3.87-.55-1.53-.79-3.23-.73-5.1.05-1.61.32-3.21.8-4.81.48-1.6,1.23-3.08,2.26-4.46l11.8.38Z"/><path class="cls-8" d="m942.51,1029.47c-3.31,0-5.91-.86-7.8-2.55-1.89-1.69-2.84-4.32-2.83-7.9l.11-42.98c1.63-1.31,3.62-2.33,5.98-3.04,2.36-.71,4.78-1.06,7.26-1.06,1.71,0,3.39.23,5.03.67,1.64.44,3.09,1.11,4.36,2.01,1.27.9,2.28,2.04,3.05,3.41.76,1.38,1.14,2.99,1.14,4.84l-.06,24.04c-.77.06-1.59.2-2.46.43s-1.69.52-2.44.87c-.75.35-1.38.74-1.89,1.16-.51.42-.76.85-.76,1.29,0,.32.08.58.25.77.17.19.37.36.62.51,1.72-1.37,3.68-2.32,5.89-2.84s4.75-.78,7.63-.77l10.88.03c.46.76.87,1.56,1.23,2.4s.68,1.69.94,2.55c.26.87.46,1.72.61,2.57.15.85.22,1.64.22,2.37,0,1.05-.09,2.13-.26,3.23-.17,1.1-.41,2.15-.72,3.14s-.68,1.92-1.11,2.77c-.43.85-.92,1.57-1.48,2.15l-33.39-.09Z"/><path class="cls-8" d="m1026.66,1006.94c.04,2.02.29,3.69.78,5,.48,1.31,1.37,2.33,2.67,3.07.03.23.05.52.06.86,0,.34,0,.59.01.77.04,2.23-.29,4.15-1,5.78s-1.64,2.97-2.8,4.03c-1.16,1.06-2.49,1.85-3.98,2.38s-3.02.8-4.58.83c-1.1.02-2.18-.09-3.24-.32s-2.06-.59-3-1.07c-.94-.48-1.8-1.1-2.56-1.87-.76-.76-1.37-1.67-1.82-2.71-.52,0-.91.15-1.16.42-.26.27-.38.62-.37,1.06,0,.41.15.85.44,1.31.28.46.69.94,1.22,1.43-.97.66-2.28,1.17-3.92,1.52-1.65.35-3.33.54-5.04.57-2.79.05-5.33-.27-7.62-.96-2.29-.69-4.27-1.74-5.94-3.15-1.66-1.41-2.96-3.13-3.9-5.18-.94-2.05-1.43-4.42-1.48-7.12-.05-2.78.39-5.2,1.32-7.25.93-2.05,2.21-3.76,3.84-5.12,1.63-1.36,3.53-2.38,5.71-3.07s4.49-1.05,6.94-1.09c1.1-.02,2.08,0,2.94.06s1.59.12,2.21.2c.71.11,1.3.21,1.8.32.09-.29.13-.54.12-.75,0-.38-.22-.7-.64-.96-.42-.26-.96-.44-1.64-.56s-1.46-.2-2.35-.24c-.89-.04-1.79-.06-2.71-.04-2.08.04-4.16.29-6.23.77-2.07.48-3.93,1.18-5.57,2.12-.69-1.07-1.26-2.44-1.7-4.1-.44-1.66-.68-3.36-.71-5.09-.01-.82.02-1.65.12-2.49.09-.84.3-1.58.63-2.23.79-.37,1.8-.77,3.03-1.22s2.66-.87,4.3-1.26c1.63-.39,3.43-.74,5.4-1.04,1.97-.3,4.09-.47,6.35-.51,3.95-.07,7.41.29,10.38,1.09,2.97.8,5.45,1.98,7.43,3.54,1.99,1.56,3.49,3.5,4.51,5.81,1.02,2.31,1.56,4.93,1.61,7.86l.15,8.61Zm-23.79,2.57c-.71.01-1.2.19-1.48.53-.29.34-.42.73-.42,1.17,0,.59.24.99.69,1.22.45.23.98.33,1.59.32.98-.02,1.72-.26,2.24-.74.51-.48.76-1.33.74-2.56l-3.35.06Z"/><path class="cls-8" d="m1059.64,1025.74c-.36.31-.78.62-1.27.95-.49.33-1.09.62-1.78.88-.7.26-1.51.49-2.46.69-.94.2-2.04.32-3.29.37-1.38.05-2.8,0-4.28-.19-1.48-.18-2.92-.52-4.34-1.04-1.42-.52-2.77-1.23-4.06-2.15-1.29-.92-2.43-2.08-3.42-3.5-.99-1.41-1.8-3.1-2.43-5.05-.63-1.96-.99-4.25-1.09-6.88l-.43-11.02c-.68-1.06-1.28-2.29-1.8-3.69s-.81-3.01-.88-4.83c-.03-.79,0-1.61.07-2.46s.2-1.7.38-2.54.42-1.67.73-2.47c.31-.8.69-1.55,1.15-2.24l10.1-.39c1.77-.07,3.42.07,4.93.4,1.51.34,2.82.91,3.93,1.72,1.1.81,1.98,1.85,2.63,3.13.65,1.28,1.01,2.83,1.08,4.64l.55,14.23c.06,1.64.27,2.75.61,3.34s.76.87,1.25.85c.31-.01.54-.07.71-.16.17-.09.32-.2.47-.33-.17-.49-.31-1.09-.41-1.79-.1-.7-.18-1.61-.22-2.72l-.84-21.69c.57-.34,1.21-.7,1.91-1.06.71-.36,1.53-.7,2.47-1s1.99-.56,3.16-.78c1.17-.22,2.52-.36,4.05-.42,2.66-.1,4.97.15,6.92.76s3.44,1.41,4.46,2.4l.89,22.88c.08,2.02.38,3.75.89,5.18.52,1.43,1.43,2.5,2.75,3.21.04.23.07.52.08.85.01.34.02.59.03.77.09,2.23-.15,4.16-.72,5.79-.57,1.63-1.38,2.99-2.44,4.08-1.06,1.08-2.34,1.9-3.83,2.46-1.5.56-3.13.87-4.9.94-2.26.09-4.39-.33-6.37-1.25-1.98-.92-3.5-2.37-4.56-4.35-1.04.04-1.54.54-1.5,1.51.01.32.12.66.31,1,.2.34.47.67.82.98Z"/><path class="cls-8" d="m1090.88,978c1.28-.08,2.37.08,3.27.46.9.39,1.7.89,2.42,1.53-1.27,1.28-1.88,2.32-1.84,3.11.02.35.16.66.42.92s.68.38,1.26.34c.55-1.06,1.29-2.09,2.23-3.08.94-1,2.05-1.89,3.33-2.67s2.74-1.44,4.34-1.96c1.61-.52,3.35-.84,5.21-.96,2.2-.13,4.46,0,6.77.43,2.31.42,4.42,1.26,6.34,2.52s3.53,3.04,4.83,5.34c1.3,2.3,2.07,5.25,2.28,8.84.08,1.32.15,2.79.2,4.43.05,1.64.12,3.16.21,4.57.12,2.02.45,3.67.99,4.96.54,1.29,1.47,2.27,2.8,2.96.04.23.08.52.1.85.02.34.04.59.05.77.13,2.08-.1,3.93-.67,5.57-.58,1.63-1.41,3.03-2.51,4.18-1.1,1.15-2.4,2.05-3.91,2.68-1.51.63-3.14,1-4.88,1.11-1.83.11-3.6-.02-5.29-.41-1.7-.38-3.21-1.08-4.54-2.1-1.33-1.02-2.43-2.39-3.29-4.12-.86-1.72-1.36-3.87-1.52-6.45-.08-1.37-.11-2.68-.08-3.91.03-1.23.08-2.39.16-3.47.07-1.08.14-2.07.21-2.98.07-.91.08-1.75.03-2.51-.09-1.4-.3-2.35-.66-2.84-.35-.49-.88-.72-1.58-.67-.46.03-.88.17-1.26.43l1.03,7.11c-.1.89-.18,1.78-.23,2.68s-.09,1.74-.1,2.54c-.01.79-.02,1.51,0,2.16,0,.65.03,1.17.05,1.58.14,2.28.49,4.15,1.05,5.62s1.18,2.72,1.86,3.76c-1.26,1.43-2.95,2.61-5.05,3.54-2.11.93-4.53,1.49-7.28,1.65-1.38.08-2.79-.02-4.23-.32-1.44-.29-2.76-.79-3.96-1.5-1.19-.71-2.19-1.61-3-2.72-.8-1.11-1.25-2.46-1.35-4.04l-1.29-21.23c-.99-1.17-1.76-2.52-2.29-4.04-.54-1.52-.86-3.13-.96-4.83-.08-1.4.04-2.97.38-4.69.34-1.72.93-3.27,1.77-4.64l8.16-.49Z"/><path class="cls-8" d="m1183.87,997.24c.17,2.01.54,3.73,1.11,5.13.58,1.41,1.54,2.44,2.88,3.09.05.23.09.52.12.85.03.34.05.59.06.77.18,2.22-.03,4.16-.63,5.83-.6,1.67-1.45,3.07-2.54,4.2-1.09,1.13-2.36,2.01-3.82,2.63s-2.96.99-4.52,1.12c-1.1.09-2.18.06-3.26-.08-1.07-.15-2.09-.43-3.07-.85-.97-.42-1.86-.98-2.67-1.68-.81-.7-1.47-1.54-1.98-2.53-1.04.08-1.52.61-1.44,1.57.03.41.25.88.65,1.42.4.54.92,1.02,1.57,1.44-.84.57-1.9,1.04-3.16,1.41-1.26.37-2.5.6-3.72.7-1.8.15-3.62.11-5.45-.13-1.83-.23-3.61-.7-5.32-1.39-1.72-.7-3.34-1.64-4.89-2.82s-2.91-2.64-4.11-4.38c-1.2-1.74-2.21-3.77-3.01-6.08-.8-2.31-1.33-4.98-1.58-7.98-.31-3.83,0-7.28.95-10.35.95-3.08,2.38-5.72,4.3-7.94,1.92-2.22,4.27-3.97,7.03-5.27,2.77-1.3,5.8-2.08,9.09-2.36,2.32-.19,4.37-.14,6.14.16s3.3.68,4.57,1.17c.14-.16.25-.34.33-.53s.11-.37.1-.51c-.04-.47-.39-.87-1.04-1.19-.66-.33-1.48-.59-2.46-.79-.98-.2-2.06-.33-3.24-.4-1.17-.06-2.28-.05-3.32.03-.05-.55-.12-1.16-.22-1.81s-.23-1.29-.39-1.91c-.16-.62-.34-1.22-.54-1.81-.2-.58-.43-1.09-.68-1.51.64-.85,1.34-1.64,2.11-2.38.77-.74,1.64-1.39,2.63-1.96.98-.57,2.1-1.04,3.34-1.42,1.24-.38,2.67-.64,4.29-.77,1.77-.15,3.44-.03,5,.34,1.57.37,2.95,1,4.14,1.89s2.16,2.01,2.9,3.38c.74,1.37,1.19,2.97,1.34,4.81l2.37,28.91Zm-22.55-.18c-.08-.96-.13-1.79-.16-2.48-.03-.69-.04-1.29-.06-1.8-.01-.51-.01-.98,0-1.39.01-.41.03-.85.05-1.33-.13-.11-.29-.2-.46-.27-.17-.07-.4-.1-.67-.08-.31.03-.57.13-.78.33-.21.19-.37.59-.48,1.19-.1.6-.14,1.35-.11,2.26.03.91.1,2.02.21,3.33l.37,4.47c.06.76.21,1.3.43,1.62.23.32.63.46,1.21.41.43-.04.74-.16.94-.39l-.48-5.87Z"/><path class="cls-8" d="m1193.51,970.26c1.89-.19,3.49-.06,4.82.39,1.32.45,2.4,1.17,3.24,2.14-.35.45-.68.98-.97,1.6-.29.62-.54,1.23-.74,1.82-.2.59-.35,1.16-.45,1.68-.1.53-.14.93-.11,1.23.04.35.21.65.51.9.3.25.74.34,1.32.28.36-2.21.99-4.11,1.89-5.67.9-1.56,1.99-2.85,3.25-3.87,1.27-1.01,2.67-1.78,4.2-2.31,1.53-.52,3.1-.87,4.72-1.03,1.31-.13,2.52-.18,3.63-.13,1.11.05,2.12.16,3.03.33.91.17,1.72.39,2.42.66.7.27,1.3.54,1.79.81.61,1.17,1.09,2.44,1.45,3.78.35,1.35.6,2.68.73,3.99.24,2.36.22,4.35-.06,5.97-.28,1.62-.63,2.96-1.04,4.04-.46.28-1.05.58-1.76.89-.71.31-1.49.59-2.34.86s-1.76.5-2.72.7c-.96.2-1.92.35-2.86.45-1,.1-1.9.16-2.68.18-.78.02-1.5.01-2.15-.02-.65-.04-1.25-.09-1.79-.17-.55-.08-1.1-.15-1.66-.21-.22.26-.31.61-.26,1.04.04.41.36.7.94.88.59.18,1.62.32,3.11.43l2.24,21.95c-.97.75-1.97,1.37-2.99,1.87-1.03.5-2.04.92-3.04,1.24-1,.32-1.96.57-2.88.74s-1.78.29-2.57.37c-1.71.17-3.32.18-4.84.03-1.52-.15-2.87-.49-4.05-1-1.18-.51-2.13-1.22-2.87-2.11-.74-.9-1.17-2.02-1.31-3.36l-2.3-22.51c-1.04-1.13-1.86-2.45-2.46-3.95-.6-1.5-.99-3.09-1.16-4.79-.14-1.4-.08-2.97.19-4.7s.79-3.31,1.57-4.71l6.99-.71Z"/><path class="cls-8" d="m1242,965.07c2.16-.26,3.98-.18,5.47.24s2.72,1.06,3.7,1.92c.98.85,1.75,1.87,2.31,3.04.56,1.17.99,2.39,1.3,3.65,0,.68,0,1.59,0,2.72.01,1.13.05,2.4.12,3.79.06,1.4.16,2.87.28,4.42s.28,3.08.47,4.59c.04.32.08.66.12,1.02.04.36.1.69.17.98.19.06.37.1.54.11s.33,0,.48-.02c.49-.06.81-.28.96-.65.15-.37.2-.85.13-1.43-.3-2.44-.52-4.87-.66-7.29-.14-2.42-.23-4.7-.26-6.85s0-4.1.07-5.85.17-3.18.29-4.29c1.22-1.09,2.66-1.94,4.29-2.54s3.46-1.02,5.47-1.27c2.1-.26,3.96-.25,5.6,0,1.64.26,3.02.69,4.16,1.28,1.14.6,2.03,1.33,2.67,2.2.65.87,1.03,1.79,1.15,2.78.02.17.03.76.03,1.75,0,.99-.04,2.3-.1,3.93-.06,1.63-.15,3.54-.27,5.72-.12,2.18-.3,4.53-.53,7.04-.23,2.51-.51,5.15-.84,7.92-.33,2.77-.72,5.57-1.17,8.4-.78,4.76-1.94,8.7-3.48,11.83-1.55,3.12-3.35,5.65-5.41,7.57-2.06,1.92-4.3,3.34-6.72,4.25-2.42.92-4.89,1.53-7.41,1.83-2.58.32-4.86.28-6.82-.12-1.96-.4-3.62-1.05-4.98-1.96-1.36-.91-2.43-2.03-3.21-3.35-.78-1.32-1.26-2.75-1.45-4.29-.18-1.48-.13-2.93.14-4.33.27-1.41.84-2.9,1.7-4.48.24-.09.56-.17.96-.25.41-.08.79-.14,1.16-.19.91-.11,1.83-.17,2.75-.18.92,0,1.67,0,2.22.02l7.31.39c.34.02.68.04,1.02.05s.68,0,1.01-.04c.52-.06.94-.22,1.26-.46.32-.25.44-.75.35-1.5l-11-.65c-1.18-.3-2.43-.9-3.76-1.8-1.33-.9-2.64-2.21-3.93-3.92-1.29-1.72-2.54-3.9-3.74-6.56-1.2-2.66-2.27-5.88-3.19-9.66-.95-.92-1.81-2.09-2.58-3.51-.78-1.42-1.28-3.07-1.5-4.93-.2-1.6-.18-3.22.05-4.88.23-1.65.75-3.23,1.55-4.75l11.72-1.43Z"/></svg>