<?xml version="1.0" encoding="UTF-8"?><svg id="Layer_1" xmlns="http://www.w3.org/2000/svg" width="1457.41" height="277.83" viewBox="0 0 1457.41 277.83"><defs><style>.cls-1{fill:#cccae8;}.cls-1,.cls-2,.cls-3{stroke-width:0px;}.cls-2{fill:#fff;}.cls-3{fill:#e8b5e2;}</style></defs><path class="cls-1" d="m0,0c13.8,46.29,27.6,92.58,41.4,138.88,13.8,46.29,27.6,92.58,41.4,138.88l1314.09.07L1457.41,2c-166.99,34.39-378.82,65.37-625.51,72.04C490.33,83.28,204.49,42.6,0,0Z"/><path class="cls-2" d="m801.32,246.76c-146.06,0-291.3-7.45-464.43-18.64-10.5-.68-12.27-4.62-12.13-12.65.55-30.42,2.25-65.45,4.79-98.64.57-7.46,2.47-11.24,11.28-11.24.6,0,1.22.02,1.88.05,19.5,1.04,38.73,2.08,57.71,3.11,154.15,8.34,287.28,15.54,425.32,15.54s266.69-7.56,399.66-23.8c1.37-.17,2.62-.25,3.73-.25,7.08,0,9,3.36,10.42,10.41,6.38,31.81,12.2,66.35,16.4,97.26.56,4.12.59,7.31-1.08,9.46-1.49,1.92-4.43,3.08-9.25,3.64-150.57,17.57-291.75,25.75-444.3,25.75Z"/><path class="cls-2" d="m1229.12,100.73c6.78,0,8.54,3.09,9.93,10.01,6.38,31.8,12.2,66.33,16.4,97.23.54,4,.59,7.08-.97,9.09-1.41,1.81-4.24,2.91-8.91,3.45-150.55,17.57-291.71,25.75-444.24,25.75s-291.28-7.45-464.4-18.64c-10.15-.66-11.8-4.28-11.66-12.14.55-30.41,2.25-65.43,4.79-98.61.55-7.15,2.36-10.78,10.78-10.78.58,0,1.21.02,1.86.05,19.5,1.04,38.73,2.08,57.72,3.11,154.15,8.34,287.28,15.54,425.34,15.54s266.74-7.56,399.72-23.81c1.35-.16,2.58-.25,3.66-.25h0m0-1c-1.13,0-2.39.09-3.79.26-143.84,17.57-272.54,23.8-399.6,23.8-155.36,0-308.22-9.33-483-18.65-.67-.04-1.3-.05-1.91-.05-8.87,0-11.18,3.83-11.78,11.7-2.41,31.54-4.21,67.05-4.79,98.67-.15,8.43,1.87,12.47,12.6,13.16,166.75,10.78,315.33,18.64,464.47,18.64s284.93-7.15,444.35-25.75c10.75-1.25,11.89-5.34,10.76-13.67-4.24-31.22-10.18-66.24-16.41-97.29-1.44-7.18-3.52-10.81-10.91-10.81h0Z"/><path class="cls-3" d="m514.35,193.98c-3.29-.32-5.8-1.41-7.53-3.27-1.73-1.86-2.42-4.57-2.08-8.12l3.81-39.37c.11-1.17.88-2.17,2.3-3,1.42-.83,3.23-1.5,5.43-1.99,2.2-.49,4.66-.81,7.38-.94,2.72-.13,5.45-.07,8.19.2,4.85.47,9.22,1.46,13.11,2.99,3.9,1.53,7.18,3.62,9.84,6.29,2.66,2.67,4.62,5.94,5.86,9.79,1.24,3.86,1.61,8.37,1.11,13.53-.44,4.52-1.6,8.46-3.47,11.81-1.88,3.35-4.37,6.09-7.48,8.21-3.11,2.13-6.77,3.61-10.97,4.46-4.2.84-8.85,1.02-13.94.53l-11.57-1.12Zm19.97-28.58c.14-1.4.22-2.61.26-3.62.04-1.01.01-1.86-.08-2.54-.09-.63-.26-1.05-.5-1.29-.24-.23-.53-.36-.86-.39-.34-.03-.6,0-.79.08-.19.09-.35.16-.48.24-.02.53-.02,1.02,0,1.48.02.46.02.97.01,1.55s-.04,1.23-.08,1.98c-.04.75-.11,1.66-.22,2.74l-.27,2.84c-.1,1.08-.21,1.99-.31,2.73-.1.74-.2,1.39-.3,1.96s-.2,1.07-.31,1.52c-.1.45-.2.93-.28,1.45.11.1.26.21.43.33.17.12.43.2.76.23.33.03.64-.04.92-.22.28-.18.52-.57.74-1.17.22-.66.4-1.48.56-2.48.16-1,.3-2.2.44-3.6l.37-3.8Z"/><path class="cls-3" d="m564.84,156.2c.64-.33,1.27-.59,1.9-.78.63-.19,1.31-.43,2.04-.72-.56-.34-1.12-.79-1.69-1.37-.57-.57-1.08-1.25-1.52-2.04-.44-.78-.79-1.67-1.03-2.66-.24-.99-.32-2.08-.22-3.28.15-1.87.63-3.54,1.43-5.02.81-1.48,1.85-2.72,3.13-3.72,1.28-1,2.73-1.75,4.37-2.23,1.64-.49,3.37-.66,5.2-.52,1.86.15,3.55.61,5.07,1.37,1.52.77,2.82,1.75,3.89,2.95,1.07,1.2,1.88,2.6,2.41,4.18.53,1.58.73,3.27.59,5.05-.12,1.52-.5,2.91-1.14,4.16-.64,1.26-1.44,2.36-2.4,3.31-.97.95-2.07,1.72-3.32,2.32-1.24.59-2.52.97-3.82,1.13-.03.44.03.83.21,1.18.17.35.5.55.99.59,1.53.12,3.16-.34,4.9-1.38.09.07.23.18.43.34.2.16.42.36.65.58.23.22.44.44.64.65.2.21.32.36.38.45l-1.37,17.35c-.16,2.02-.07,3.76.28,5.25.34,1.48,1.13,2.65,2.35,3.51.01.24,0,.52-.02.86-.03.34-.05.59-.06.77-.18,2.22-.65,4.11-1.42,5.66-.77,1.56-1.77,2.81-3.02,3.75-1.24.94-2.68,1.6-4.33,1.97-1.64.37-3.41.48-5.3.33-1.46-.12-2.98-.47-4.55-1.06s-2.97-1.5-4.21-2.71c-1.24-1.21-2.22-2.78-2.94-4.71-.72-1.92-.98-4.27-.76-7.05l2.25-28.47Z"/><path class="cls-3" d="m622.13,153.94c1.5.09,2.82.3,3.97.64,1.15.35,2.18.77,3.1,1.28.92.51,1.74,1.07,2.46,1.68.72.61,1.38,1.22,1.99,1.81.82-1.48,1.55-2.84,2.19-4.1.64-1.25,1.24-2.45,1.79-3.59.56-1.14,1.1-2.27,1.62-3.38.52-1.12,1.08-2.29,1.67-3.51.99-.18,2.25-.3,3.77-.38,1.52-.07,3.12-.06,4.81.03,1.31.08,2.63.22,3.95.45s2.77.54,4.34.95l-.62,10.75,13.71.79c.81,1.34,1.39,2.82,1.75,4.44s.48,3.22.39,4.8c-.09,1.49-.4,3.06-.94,4.72-.54,1.66-1.29,3.07-2.25,4.25l-12.33-.71-.38,6.62c-.12,2.02.23,3.48,1.04,4.39.81.91,1.99,1.41,3.55,1.5l1.97.11c.19.89.36,1.84.5,2.85.14,1.01.18,2.01.13,3-.23,4.07-1.74,7.09-4.52,9.07-2.78,1.98-6.63,2.83-11.56,2.55-2.48-.14-4.71-.59-6.71-1.35-2-.76-3.69-1.84-5.08-3.24s-2.43-3.11-3.11-5.13c-.68-2.02-.94-4.38-.79-7.07l.94-16.45c.05-.79-.04-1.31-.25-1.58s-.52-.4-.92-.43c-.37-.02-.71.08-1.03.29-.05.85-.15,1.75-.29,2.69-.15.95-.35,1.79-.61,2.54-1,.36-2.36.66-4.08.91-1.72.25-3.54.32-5.46.21-1.01-.06-1.9-.14-2.68-.24-.78-.1-1.48-.22-2.12-.37-.64-.14-1.22-.29-1.75-.45-.53-.16-1.06-.32-1.61-.47-.26.22-.4.55-.42.99-.02.41.24.75.79,1.01.55.27,1.55.57,3.01.92l-1.26,22.03c-1.08.58-2.16,1.04-3.25,1.38-1.09.33-2.16.58-3.19.74-1.04.16-2.02.25-2.96.27-.94.02-1.8,0-2.6-.04-1.71-.1-3.31-.34-4.79-.74-1.48-.39-2.76-.94-3.84-1.63-1.08-.69-1.91-1.54-2.5-2.54s-.84-2.18-.76-3.52l1.3-22.6c-.85-1.28-1.45-2.71-1.8-4.29-.35-1.57-.48-3.21-.38-4.91.08-1.4.39-2.94.93-4.61.54-1.67,1.31-3.14,2.3-4.4l7.02.4c1.9.11,3.46.49,4.7,1.15,1.23.66,2.19,1.54,2.86,2.63-.42.39-.82.86-1.21,1.43-.39.57-.72,1.12-1.02,1.68-.29.55-.53,1.08-.71,1.59-.18.5-.28.9-.3,1.19-.02.35.1.67.36.97.26.29.68.46,1.26.49.7-2.13,1.63-3.9,2.77-5.3,1.14-1.4,2.41-2.5,3.82-3.3,1.41-.8,2.91-1.34,4.51-1.61,1.6-.28,3.2-.37,4.82-.27Z"/><path class="cls-3" d="m679.52,157.35c2.17.07,3.96.43,5.36,1.07,1.4.65,2.53,1.47,3.37,2.46s1.45,2.11,1.82,3.36c.37,1.24.62,2.51.73,3.8-.11.67-.25,1.57-.41,2.69-.16,1.12-.31,2.38-.47,3.77-.15,1.39-.28,2.86-.39,4.41-.11,1.55-.19,3.09-.24,4.61-.01.32-.02.67-.03,1.03-.01.37,0,.7.01.99.18.09.35.16.52.19.17.04.33.05.48.06.49.02.84-.15,1.05-.49.21-.35.32-.81.34-1.4.08-2.46.23-4.89.46-7.3.23-2.41.49-4.68.79-6.81.3-2.13.62-4.05.97-5.77.35-1.72.66-3.12.94-4.19,1.38-.89,2.92-1.51,4.63-1.85,1.71-.34,3.58-.48,5.6-.41,2.11.07,3.96.36,5.53.86,1.58.51,2.88,1.14,3.91,1.91s1.8,1.62,2.31,2.58.74,1.93.71,2.92c0,.18-.09.75-.24,1.73-.15.98-.39,2.27-.7,3.87-.31,1.6-.69,3.47-1.14,5.61-.45,2.14-.98,4.43-1.6,6.88-.61,2.44-1.29,5.01-2.04,7.69-.75,2.69-1.56,5.4-2.44,8.12-1.5,4.58-3.25,8.3-5.25,11.15-2.01,2.85-4.18,5.07-6.51,6.65-2.33,1.58-4.76,2.64-7.29,3.17-2.53.53-5.06.76-7.6.68-2.6-.08-4.84-.47-6.72-1.16-1.88-.69-3.42-1.59-4.62-2.7s-2.09-2.38-2.66-3.8c-.57-1.42-.83-2.91-.78-4.46.05-1.49.32-2.91.8-4.26.49-1.35,1.27-2.73,2.36-4.17.25-.05.58-.08.99-.1.41-.02.8-.02,1.17,0,.92.03,1.83.11,2.75.24.91.13,1.65.25,2.19.36l7.17,1.51c.33.07.67.14,1,.21.33.07.67.11,1.01.12.52.02.96-.07,1.32-.27s.55-.67.57-1.43l-10.77-2.32c-1.12-.48-2.27-1.26-3.44-2.35-1.18-1.09-2.27-2.59-3.28-4.48-1.01-1.89-1.91-4.24-2.69-7.05-.78-2.81-1.34-6.15-1.68-10.03-.79-1.05-1.46-2.34-2.01-3.87-.55-1.53-.79-3.23-.73-5.1.05-1.61.32-3.21.8-4.81.48-1.6,1.23-3.08,2.26-4.46l11.8.38Z"/><path class="cls-3" d="m748.68,206.97c-3.31,0-5.91-.86-7.8-2.55-1.89-1.69-2.84-4.32-2.83-7.89l.11-42.98c1.63-1.31,3.62-2.33,5.98-3.04,2.36-.71,4.78-1.06,7.26-1.06,1.71,0,3.39.23,5.03.67,1.64.44,3.09,1.11,4.36,2.01,1.27.9,2.28,2.04,3.05,3.41.76,1.38,1.14,2.99,1.14,4.84l-.06,24.04c-.77.06-1.59.2-2.46.43s-1.69.52-2.44.87c-.75.35-1.38.74-1.89,1.16-.51.42-.76.86-.76,1.29,0,.32.08.58.25.77.17.19.37.36.62.51,1.72-1.37,3.68-2.32,5.89-2.84s4.75-.78,7.63-.77l10.88.03c.46.76.87,1.56,1.23,2.4s.68,1.69.94,2.55c.26.87.46,1.72.61,2.57.15.85.22,1.64.22,2.37,0,1.05-.09,2.13-.26,3.23-.17,1.1-.41,2.15-.72,3.14-.31,1-.68,1.92-1.11,2.77-.43.85-.92,1.57-1.48,2.15l-33.39-.09Z"/><path class="cls-3" d="m832.82,184.44c.04,2.02.29,3.69.78,5s1.37,2.33,2.67,3.07c.03.23.05.52.06.86,0,.34,0,.59.01.77.04,2.23-.29,4.15-1,5.78-.71,1.62-1.64,2.97-2.8,4.03-1.16,1.06-2.49,1.85-3.98,2.38-1.49.52-3.02.8-4.58.83-1.1.02-2.18-.09-3.24-.32s-2.06-.59-3-1.07c-.94-.48-1.8-1.1-2.56-1.87-.76-.76-1.37-1.67-1.82-2.71-.52,0-.91.15-1.16.42-.26.27-.38.62-.37,1.06,0,.41.15.85.44,1.31.28.46.69.94,1.22,1.43-.97.66-2.28,1.17-3.92,1.52-1.65.35-3.33.54-5.04.57-2.79.05-5.33-.27-7.62-.96-2.29-.69-4.27-1.74-5.94-3.15-1.66-1.4-2.96-3.13-3.9-5.18-.94-2.05-1.43-4.42-1.48-7.12-.05-2.78.39-5.2,1.32-7.25.93-2.05,2.21-3.76,3.84-5.12,1.63-1.36,3.53-2.38,5.71-3.07,2.18-.68,4.49-1.05,6.94-1.09,1.1-.02,2.08,0,2.94.06.86.06,1.59.12,2.21.2.71.11,1.3.21,1.8.32.09-.29.13-.54.12-.75,0-.38-.22-.7-.64-.96-.42-.26-.96-.45-1.64-.56-.68-.12-1.46-.2-2.35-.24-.89-.04-1.79-.06-2.71-.04-2.08.04-4.16.29-6.23.77-2.07.48-3.93,1.18-5.57,2.12-.69-1.07-1.26-2.44-1.7-4.1-.44-1.66-.68-3.36-.71-5.09-.01-.82.02-1.65.12-2.48s.3-1.58.63-2.23c.79-.37,1.8-.77,3.03-1.22,1.23-.45,2.66-.87,4.3-1.26,1.63-.39,3.43-.74,5.4-1.04,1.97-.3,4.09-.47,6.35-.51,3.95-.07,7.41.29,10.38,1.09,2.97.8,5.45,1.98,7.43,3.54s3.49,3.5,4.51,5.81c1.02,2.31,1.56,4.93,1.61,7.86l.15,8.61Zm-23.79,2.57c-.71.01-1.2.19-1.48.53-.29.34-.42.73-.42,1.17,0,.59.24.99.69,1.22.45.23.98.33,1.59.32.98-.02,1.72-.26,2.24-.74.51-.48.76-1.33.74-2.56l-3.35.06Z"/><path class="cls-3" d="m865.8,203.24c-.36.31-.78.62-1.27.95s-1.09.62-1.78.88c-.7.26-1.51.49-2.46.69-.94.2-2.04.32-3.29.37-1.38.05-2.8,0-4.28-.19-1.48-.18-2.92-.52-4.34-1.04-1.42-.52-2.77-1.23-4.06-2.15-1.29-.92-2.43-2.08-3.42-3.49-.99-1.41-1.8-3.1-2.43-5.05-.63-1.96-.99-4.25-1.09-6.88l-.43-11.02c-.68-1.06-1.28-2.29-1.8-3.69s-.81-3.01-.88-4.83c-.03-.79,0-1.61.07-2.46s.2-1.7.38-2.54c.18-.84.42-1.67.73-2.47.31-.8.69-1.55,1.15-2.24l10.1-.39c1.77-.07,3.42.07,4.93.4,1.51.34,2.82.91,3.93,1.72,1.1.81,1.98,1.85,2.63,3.13.65,1.28,1.01,2.83,1.08,4.64l.55,14.23c.06,1.64.27,2.75.61,3.34s.76.87,1.25.85c.31-.01.54-.06.71-.16.17-.1.32-.2.47-.33-.17-.49-.31-1.09-.41-1.79-.1-.7-.18-1.61-.22-2.72l-.84-21.69c.57-.34,1.21-.7,1.91-1.06.71-.37,1.53-.7,2.47-1,.94-.3,1.99-.56,3.16-.78,1.17-.22,2.52-.36,4.05-.42,2.66-.1,4.97.15,6.92.77s3.44,1.41,4.46,2.4l.89,22.88c.08,2.02.38,3.75.89,5.18.52,1.43,1.43,2.5,2.75,3.21.04.23.07.52.08.86.01.34.02.59.03.77.09,2.22-.15,4.15-.72,5.79-.57,1.63-1.38,2.99-2.44,4.07-1.06,1.08-2.34,1.9-3.83,2.46-1.5.55-3.13.87-4.9.94-2.26.09-4.39-.33-6.37-1.25-1.98-.92-3.5-2.37-4.56-4.35-1.04.04-1.54.54-1.5,1.51.01.32.12.65.31,1,.2.34.47.67.82.98Z"/><path class="cls-3" d="m897.05,155.5c1.28-.08,2.37.08,3.27.46.9.39,1.7.89,2.42,1.53-1.27,1.28-1.88,2.31-1.84,3.11.02.35.16.66.42.92.26.26.68.38,1.26.34.55-1.06,1.29-2.09,2.23-3.08.94-1,2.05-1.89,3.33-2.67,1.29-.78,2.74-1.44,4.34-1.96,1.61-.52,3.35-.84,5.21-.96,2.2-.13,4.46,0,6.77.43s4.42,1.26,6.34,2.52,3.53,3.04,4.83,5.34c1.3,2.3,2.07,5.25,2.28,8.84.08,1.32.15,2.79.2,4.44s.12,3.16.21,4.57c.12,2.02.45,3.67.99,4.96.54,1.29,1.47,2.27,2.8,2.96.04.23.08.52.1.85.02.34.04.59.05.77.13,2.08-.1,3.93-.67,5.57-.58,1.63-1.41,3.03-2.51,4.18-1.1,1.15-2.4,2.05-3.91,2.68-1.51.63-3.14,1.01-4.88,1.11-1.83.11-3.6-.03-5.29-.41s-3.21-1.08-4.54-2.1c-1.33-1.02-2.43-2.39-3.29-4.12s-1.36-3.87-1.52-6.45c-.08-1.38-.11-2.68-.08-3.91.03-1.23.08-2.39.16-3.47.07-1.07.14-2.07.21-2.98.07-.91.08-1.75.03-2.51-.09-1.4-.3-2.35-.66-2.85-.35-.49-.88-.72-1.58-.67-.46.03-.88.17-1.26.43l1.03,7.11c-.1.89-.18,1.78-.23,2.68s-.09,1.74-.1,2.54c-.01.79-.02,1.51,0,2.16s.03,1.17.05,1.58c.14,2.28.49,4.15,1.05,5.62s1.18,2.72,1.86,3.76c-1.26,1.43-2.95,2.61-5.05,3.54-2.11.94-4.53,1.49-7.28,1.65-1.38.08-2.79-.02-4.23-.32-1.44-.29-2.76-.79-3.96-1.5s-2.19-1.61-3-2.72c-.8-1.11-1.25-2.46-1.35-4.04l-1.29-21.23c-.99-1.17-1.76-2.52-2.29-4.04-.54-1.52-.86-3.13-.96-4.83-.08-1.4.04-2.97.38-4.69.34-1.72.93-3.27,1.77-4.64l8.16-.49Z"/><path class="cls-3" d="m990.03,174.74c.17,2.01.54,3.72,1.11,5.13s1.54,2.44,2.88,3.09c.05.23.09.52.12.85s.05.59.06.77c.18,2.22-.03,4.16-.63,5.83s-1.45,3.07-2.54,4.2c-1.09,1.13-2.36,2.01-3.82,2.63s-2.96.99-4.52,1.12c-1.1.09-2.18.06-3.26-.09-1.07-.15-2.09-.43-3.07-.85-.97-.42-1.86-.98-2.67-1.68-.81-.7-1.47-1.54-1.98-2.53-1.04.09-1.52.61-1.44,1.57.03.41.25.88.65,1.42.4.54.92,1.02,1.57,1.44-.84.57-1.9,1.04-3.16,1.41-1.26.37-2.5.6-3.72.7-1.8.15-3.62.11-5.45-.12-1.83-.23-3.61-.7-5.32-1.39-1.72-.7-3.34-1.63-4.89-2.82s-2.91-2.64-4.11-4.38c-1.2-1.74-2.21-3.77-3.01-6.08-.8-2.31-1.33-4.98-1.58-7.98-.31-3.82,0-7.28.95-10.35.95-3.08,2.38-5.72,4.3-7.94,1.92-2.22,4.27-3.97,7.03-5.27s5.8-2.09,9.09-2.36c2.32-.19,4.37-.14,6.14.16s3.3.69,4.57,1.17c.14-.16.25-.34.33-.53s.11-.37.1-.51c-.04-.47-.39-.87-1.04-1.19-.66-.33-1.48-.59-2.46-.79-.98-.2-2.06-.33-3.24-.4-1.17-.06-2.28-.05-3.32.03-.05-.55-.12-1.16-.22-1.81-.1-.65-.23-1.29-.39-1.91s-.34-1.22-.54-1.81c-.2-.58-.43-1.09-.68-1.51.64-.85,1.34-1.64,2.11-2.38.77-.74,1.64-1.39,2.63-1.96.98-.57,2.1-1.04,3.34-1.42,1.24-.38,2.67-.64,4.29-.77,1.77-.15,3.44-.03,5,.34,1.57.37,2.95,1,4.14,1.89s2.16,2.01,2.9,3.38c.74,1.37,1.19,2.97,1.34,4.81l2.37,28.91Zm-22.55-.18c-.08-.96-.13-1.79-.16-2.48-.03-.69-.04-1.29-.06-1.8-.01-.51-.01-.97,0-1.39.01-.41.03-.85.05-1.33-.13-.11-.29-.2-.46-.27s-.4-.1-.67-.08c-.31.03-.57.13-.78.33-.21.19-.37.59-.48,1.19-.1.6-.14,1.35-.11,2.26.03.91.1,2.02.21,3.33l.37,4.47c.06.76.21,1.3.43,1.62.23.32.63.46,1.21.41.43-.04.74-.16.94-.39l-.48-5.87Z"/><path class="cls-3" d="m999.68,147.75c1.89-.19,3.49-.06,4.82.39,1.32.46,2.4,1.17,3.24,2.14-.35.45-.68.98-.97,1.6s-.54,1.22-.74,1.82c-.2.59-.35,1.15-.45,1.68-.1.53-.14.94-.11,1.23.04.35.21.65.51.9.3.25.74.34,1.32.28.36-2.21.99-4.11,1.89-5.67.9-1.56,1.99-2.85,3.25-3.87,1.27-1.01,2.67-1.78,4.2-2.31,1.53-.52,3.1-.87,4.72-1.03,1.31-.13,2.52-.18,3.63-.13,1.11.05,2.12.16,3.03.33s1.72.39,2.42.66c.7.27,1.3.54,1.79.81.61,1.18,1.09,2.44,1.45,3.79.35,1.35.6,2.68.73,3.99.24,2.36.22,4.35-.06,5.97-.28,1.62-.63,2.96-1.04,4.04-.46.28-1.05.58-1.76.89-.71.31-1.49.59-2.34.86s-1.76.5-2.72.7c-.96.2-1.92.35-2.86.45-1,.1-1.9.16-2.68.19-.78.02-1.5.01-2.15-.02-.65-.04-1.25-.09-1.79-.17-.55-.08-1.1-.15-1.66-.21-.22.26-.31.61-.26,1.04.04.41.36.7.94.88.59.18,1.62.32,3.11.43l2.24,21.95c-.97.75-1.97,1.37-2.99,1.87-1.03.5-2.04.92-3.04,1.24-1,.32-1.96.57-2.88.73s-1.78.29-2.57.37c-1.71.17-3.32.19-4.84.03-1.52-.15-2.87-.49-4.05-1s-2.13-1.22-2.87-2.12c-.74-.9-1.17-2.02-1.31-3.36l-2.3-22.52c-1.04-1.13-1.86-2.45-2.46-3.95-.6-1.5-.99-3.09-1.16-4.79-.14-1.4-.08-2.97.19-4.7.27-1.74.79-3.31,1.57-4.71l6.99-.71Z"/><path class="cls-3" d="m1048.17,142.56c2.16-.26,3.98-.18,5.47.24s2.72,1.06,3.7,1.92c.98.85,1.75,1.87,2.31,3.04s.99,2.39,1.3,3.65c0,.68,0,1.59,0,2.72.01,1.13.05,2.4.12,3.79.06,1.4.16,2.87.28,4.42s.28,3.08.47,4.59c.04.32.08.66.12,1.02.04.37.1.69.17.98.19.06.37.1.54.11.17,0,.33,0,.48-.02.49-.06.81-.28.96-.65.15-.37.2-.85.13-1.43-.3-2.44-.52-4.87-.66-7.29-.14-2.42-.23-4.7-.26-6.85s0-4.1.07-5.85c.08-1.75.17-3.18.29-4.29,1.22-1.09,2.66-1.94,4.29-2.54,1.64-.6,3.46-1.02,5.47-1.27,2.1-.26,3.96-.26,5.6,0,1.64.26,3.02.69,4.16,1.29,1.14.6,2.03,1.33,2.67,2.2s1.03,1.79,1.15,2.78c.02.17.03.76.03,1.74,0,.99-.04,2.3-.1,3.93-.06,1.63-.15,3.54-.27,5.72-.12,2.19-.3,4.53-.53,7.04-.23,2.51-.51,5.15-.84,7.92s-.72,5.57-1.17,8.4c-.78,4.76-1.94,8.7-3.48,11.83s-3.35,5.65-5.41,7.57c-2.06,1.92-4.3,3.34-6.72,4.25-2.42.91-4.89,1.53-7.41,1.83-2.58.32-4.86.28-6.82-.12s-3.62-1.05-4.98-1.96c-1.36-.91-2.43-2.03-3.21-3.35-.78-1.32-1.26-2.75-1.45-4.29-.18-1.48-.13-2.93.14-4.33.27-1.41.84-2.9,1.7-4.48.24-.09.56-.17.96-.25.41-.08.79-.14,1.16-.19.91-.11,1.83-.17,2.75-.18.92,0,1.67,0,2.22.02l7.31.39c.34.02.68.04,1.02.05s.68,0,1.01-.04c.52-.06.94-.22,1.26-.46.32-.24.44-.75.35-1.5l-11-.65c-1.18-.3-2.43-.9-3.76-1.8-1.33-.9-2.64-2.21-3.93-3.92-1.29-1.72-2.54-3.9-3.74-6.56s-2.27-5.88-3.19-9.66c-.95-.92-1.81-2.09-2.58-3.51s-1.28-3.07-1.5-4.93c-.2-1.6-.18-3.22.05-4.88.23-1.65.75-3.23,1.55-4.75l11.72-1.43Z"/></svg>