<?xml version="1.0" encoding="UTF-8"?><svg id="Layer_1" xmlns="http://www.w3.org/2000/svg" width="300" height="200" viewBox="0 0 300 200"><defs><style>.cls-1{fill:#b6bc7a;}.cls-1,.cls-2,.cls-3{stroke-width:0px;}.cls-2{fill:#8b9b61;}.cls-3{fill:#edede6;}</style></defs><path class="cls-2" d="m168.71,168.76c-20.3-2.18-36.8,23.06-51.68,18.09-9.68-3.23-29.58,5.73-43.69-5.85-14.58-11.97-4.76-27.98-11.26-38.81-6.39-10.65-32.56-3.22-38.83-16.31-6.44-13.46,15.54-27.67,10.52-39.85-4.77-11.56,3.93-28.66,13.91-37.47,16.98-15,27.81-27.27,38.91-12.96,11.45,14.77,36.16-9.86,49.03-8.89,9.91.74,9.86,32.97,33.48,30.44,4.79-.51,38.35-.37,48.37,18.56,6.14,11.61,37.39-8.59,43.15,7.08,7.34,19.96-3.73,54.07-3.96,64.72-.21,9.9-36.79,51.44-53.42,48.01-19.65-4.05-18.3-25.02-34.53-26.76Z"/><path class="cls-1" d="m187.71,139.36c-20.37,1.21-33.16,28.89-48.56,26.44-10.01-1.59-28.43,10.57-44,1.46-16.07-9.41-8.6-26.87-16.53-36.49-7.8-9.46-32.63,2.22-40.65-9.69-8.24-12.23,11.51-29.93,4.85-41.13-6.32-10.64-.1-28.98,8.54-39.34,14.7-17.64,23.69-31.57,36.65-19.26,13.37,12.7,34.37-15.74,47.23-16.91,9.9-.91,14.34,30.95,37.32,24.54,4.66-1.3,37.85-6.73,50.39,10.33,7.69,10.46,35.76-14.69,43.64-.15,10.03,18.51,3.83,54.06,5.09,64.63,1.17,9.82-29.21,56.94-46.12,56.3-19.99-.75-21.57-21.7-37.86-20.73Z"/><path class="cls-3" d="m84.7,103.5c-.54.51-1.3.98-2.29,1.39-.99.41-2.18.62-3.57.62-.73,0-1.44-.09-2.12-.26-.68-.17-1.28-.43-1.8-.78-.52-.35-.93-.79-1.24-1.33-.31-.54-.46-1.17-.46-1.9v-13.8h-4.58c-.5-.79-.86-1.57-1.08-2.35-.22-.78-.33-1.6-.33-2.48,0-.66.05-1.25.16-1.79.1-.54.24-1.01.41-1.44.17-.42.36-.79.58-1.12.22-.32.44-.59.66-.8h20.31c.37.61.68,1.38.93,2.29.26.91.38,1.84.38,2.76,0,.87-.1,1.62-.28,2.24-.19.62-.45,1.13-.79,1.52-.33.39-.73.68-1.19.87-.46.19-.96.28-1.51.28h-5.76c-.04.11-.06.22-.06.32,0,.13.03.23.08.31.05.08.16.15.32.2.16.06.39.1.69.12s.68.03,1.17.03h1.36v15.07Z"/><path class="cls-3" d="m93.74,81.7c.81,0,1.49.14,2.03.43.54.29.97.69,1.29,1.2-.17.2-.33.44-.48.73-.15.29-.28.57-.39.85-.11.28-.2.54-.27.79-.07.25-.1.45-.1.59,0,.17.06.33.18.46s.3.2.55.2c.25-1.06.6-1.94,1.05-2.66.45-.71.97-1.29,1.55-1.71.58-.43,1.21-.73,1.89-.91.67-.18,1.36-.27,2.05-.27.56,0,1.08.04,1.55.12.47.08.9.18,1.28.31s.71.28,1,.44.53.33.73.48c.21.6.36,1.24.45,1.91.09.67.14,1.33.14,1.97,0,1.16-.1,2.12-.29,2.89s-.4,1.41-.62,1.91c-.21.11-.47.23-.79.34s-.66.21-1.03.3c-.37.09-.77.15-1.19.2-.42.05-.83.08-1.24.08-.43,0-.82-.01-1.15-.04-.33-.03-.64-.07-.91-.12-.28-.05-.53-.11-.76-.17-.23-.06-.46-.12-.7-.18-.1.11-.16.28-.16.49,0,.2.12.36.36.47.24.11.68.24,1.31.36v10.76c-.45.31-.9.57-1.36.76-.46.19-.91.34-1.35.45s-.86.18-1.26.21c-.4.04-.77.05-1.11.05-.73,0-1.42-.07-2.06-.22-.64-.15-1.2-.38-1.68-.69-.48-.31-.85-.7-1.13-1.17-.27-.47-.41-1.04-.41-1.69v-11.04c-.39-.6-.68-1.28-.87-2.04-.19-.76-.28-1.55-.28-2.38,0-.69.1-1.44.28-2.27.19-.83.48-1.56.87-2.21h3.01Z"/><path class="cls-3" d="m115.13,81.7c.93,0,1.7.15,2.31.44.61.29,1.1.68,1.47,1.15.37.47.65,1.01.83,1.61.18.6.3,1.21.36,1.84-.04.33-.09.77-.14,1.32-.05.55-.1,1.17-.15,1.84-.05.68-.08,1.4-.11,2.15-.03.76-.04,1.51-.04,2.25v.5c0,.18,0,.34.02.48.08.04.15.07.23.09.07.01.14.02.21.02.21,0,.36-.09.44-.26.09-.17.13-.4.13-.69,0-1.2.03-2.39.1-3.57s.15-2.29.25-3.33.21-1.99.33-2.83c.12-.84.24-1.53.34-2.06.58-.46,1.23-.78,1.95-.98.73-.19,1.52-.29,2.39-.29s1.7.11,2.38.33c.68.22,1.25.51,1.7.87.45.36.79.76,1.02,1.22.23.46.34.93.34,1.42,0,.09-.03.37-.08.85-.05.48-.13,1.11-.25,1.9-.11.79-.25,1.7-.41,2.75-.16,1.05-.36,2.18-.59,3.38-.23,1.2-.48,2.46-.77,3.78-.28,1.32-.59,2.65-.93,4-.58,2.26-1.27,4.1-2.09,5.52-.82,1.42-1.72,2.54-2.69,3.34s-2,1.36-3.07,1.66c-1.07.3-2.15.45-3.24.45s-2.08-.15-2.89-.46-1.48-.72-2.01-1.24c-.53-.52-.93-1.12-1.19-1.81-.26-.69-.39-1.41-.39-2.17s.09-1.42.28-2.09c.19-.66.51-1.35.95-2.07.1-.03.25-.05.42-.06.18-.01.34-.02.5-.02.39,0,.79.03,1.18.08.39.05.71.1.94.14l3.08.62c.14.03.29.06.43.09s.29.04.43.04c.22,0,.41-.05.56-.15.15-.1.23-.33.23-.71l-4.64-.96c-.48-.21-.99-.58-1.5-1.09-.52-.51-1.01-1.23-1.46-2.13-.46-.91-.87-2.04-1.25-3.4-.37-1.36-.66-2.98-.85-4.87-.35-.5-.66-1.12-.91-1.85s-.38-1.56-.38-2.48c0-.79.09-1.57.28-2.36s.48-1.52.9-2.21h5.05Z"/><path class="cls-3" d="m144.93,79.41c.51-.36,1.09-.68,1.73-.97s1.32-.54,2.03-.74c.71-.2,1.45-.35,2.22-.46.77-.11,1.54-.16,2.31-.16,1.02,0,2.03.1,3.04.3s1.92.51,2.74.94c.83.43,1.53.98,2.12,1.66s.99,1.49,1.2,2.43l4.48,20.21c-.6.84-1.45,1.54-2.53,2.08-1.09.54-2.46.81-4.13.81-.73,0-1.42-.07-2.06-.21-.64-.14-1.21-.35-1.7-.63s-.9-.63-1.22-1.05c-.32-.42-.53-.92-.62-1.49l-.43-2.62c.41-.01.81-.07,1.21-.16.4-.09.76-.21,1.08-.34.32-.14.58-.29.79-.46.2-.17.3-.34.3-.51,0-.23-.08-.41-.26-.56-.24.19-.51.35-.82.5-.31.15-.65.27-.99.38-.35.1-.69.17-1.04.22-.35.05-.67.08-.97.08-.56,0-1.06-.04-1.5-.12-.44-.08-.82-.17-1.15-.29-.33-.11-.61-.24-.84-.38s-.43-.27-.59-.4c-.05.07-.1.15-.14.25-.04.09-.06.2-.06.31,0,.21.1.41.3.59s.47.34.82.47c.34.14.73.25,1.17.33.44.09.9.14,1.39.17.08,1,.17,1.8.27,2.39.1.59.19.97.28,1.13-.12.24-.35.5-.7.78-.35.28-.78.54-1.3.78-.52.24-1.11.44-1.77.6-.66.16-1.37.24-2.11.24-.93,0-1.81-.11-2.63-.34s-1.55-.55-2.16-.95-1.11-.9-1.47-1.48c-.37-.58-.55-1.23-.55-1.94,0-.16,0-.32.02-.48.01-.16.04-.33.08-.5l4.18-20.41Zm9.23,11.04c-.14-.86-.26-1.54-.34-2.06-.09-.51-.17-.9-.26-1.17-.09-.26-.18-.44-.27-.51-.1-.08-.22-.12-.36-.12-.09,0-.18.01-.26.04-.08.03-.15.06-.22.09l.75,4.33c.05.06.13.1.23.13.1.03.19.04.27.04.12,0,.23-.02.33-.05.1-.04.18-.07.24-.1l-.1-.62Z"/><path class="cls-3" d="m176.99,98.25s-.03.08-.04.15c-.01.07-.02.14-.02.21,0,.3.2.51.6.62s.93.17,1.6.17c.97,0,1.92-.09,2.85-.27.93-.18,1.72-.42,2.38-.72.79.23,1.45.58,1.98,1.04.54.46.98.99,1.32,1.58.34.59.59,1.21.74,1.89.15.67.23,1.34.23,1.99,0,1.36-.28,2.56-.83,3.6-.55,1.04-1.32,1.92-2.31,2.63-.99.71-2.17,1.24-3.55,1.61-1.38.37-2.88.55-4.52.55s-3.07-.17-4.29-.5-2.25-.79-3.06-1.37c-.82-.58-1.43-1.25-1.84-2.01s-.61-1.58-.61-2.45c0-.39.04-.75.13-1.1.08-.35.2-.67.33-.97.14-.3.29-.56.47-.78.18-.22.36-.39.56-.5.62.57,1.55,1.05,2.81,1.44s2.78.58,4.58.58c1,0,1.68-.05,2.06-.16.38-.11.57-.31.57-.61,0-.1-.01-.18-.04-.25-.03-.06-.05-.12-.08-.18-.31.07-.71.13-1.18.17s-.9.06-1.28.06c-1.11,0-2.19-.09-3.22-.27-1.03-.18-1.95-.48-2.74-.91s-1.43-.99-1.91-1.68c-.48-.69-.72-1.55-.72-2.58,0-.7.13-1.38.39-2.03.26-.65.67-1.14,1.24-1.47-.3-.2-.61-.47-.91-.8-.31-.34-.59-.75-.83-1.23-.25-.49-.45-1.04-.61-1.67-.16-.63-.24-1.34-.24-2.14,0-1.4.26-2.65.77-3.75s1.22-2.03,2.12-2.79c.9-.76,1.98-1.34,3.22-1.74,1.24-.4,2.6-.6,4.07-.6.84,0,1.62.08,2.34.25.72.17,1.34.35,1.87.55v-1.5c.3-.13.71-.24,1.23-.34.52-.1,1.08-.15,1.7-.15s1.19.05,1.71.15c.52.1.98.29,1.36.56s.68.65.89,1.14c.22.49.32,1.12.32,1.89,0,.36-.02.7-.06,1.04-.04.34-.11.67-.22,1-.14.47-.35.94-.61,1.42.17.46.3.96.38,1.5.09.54.13,1.21.13,2.01,0,1.3-.22,2.45-.67,3.44s-1.07,1.83-1.87,2.5c-.8.67-1.76,1.18-2.87,1.52-1.11.34-2.34.51-3.69.51-.42,0-.83-.02-1.24-.06-.41-.04-.71-.09-.9-.13Zm1.41-8.49c0-.24-.04-.43-.13-.57-.09-.14-.22-.2-.4-.2-.13,0-.25.05-.34.14-.1.09-.15.26-.15.5v2.21c.12.1.25.15.39.15.29,0,.46-.1.53-.29.06-.19.1-.5.1-.91v-1.03Z"/><path class="cls-3" d="m209.05,94.52c0,.99.1,1.8.29,2.44.2.64.57,1.15,1.12,1.52.01.12.02.25.02.42v.38c0,1.09-.16,2.02-.47,2.81s-.72,1.43-1.23,1.94c-.5.51-1.08.88-1.72,1.12-.64.24-1.3.36-1.96.36-.47,0-.93-.06-1.39-.18-.45-.12-.88-.3-1.28-.55s-.76-.55-1.08-.93-.57-.83-.76-1.34c-.22,0-.39.06-.5.19-.11.13-.17.3-.17.51,0,.2.06.42.18.64.12.23.29.46.51.71-.42.31-.98.55-1.69.71-.71.16-1.43.24-2.16.24-1.19,0-2.28-.18-3.25-.54-.98-.36-1.81-.89-2.51-1.59-.7-.7-1.24-1.55-1.63-2.56-.39-1.01-.58-2.17-.58-3.48s.21-2.53.62-3.53.97-1.81,1.68-2.46,1.53-1.13,2.47-1.45c.94-.31,1.93-.47,2.98-.47.47,0,.89.02,1.26.05.37.04.68.08.94.12.3.06.56.11.77.17.04-.14.06-.26.06-.36,0-.19-.09-.34-.27-.47-.18-.13-.41-.22-.7-.29-.29-.06-.62-.11-1-.14-.38-.03-.77-.04-1.16-.04-.89,0-1.78.11-2.67.32-.89.21-1.69.54-2.4.99-.29-.53-.52-1.2-.7-2.01s-.27-1.64-.27-2.49c0-.4.02-.8.07-1.21.05-.41.14-.77.28-1.08.34-.17.78-.36,1.31-.57.53-.21,1.15-.4,1.85-.58s1.47-.33,2.32-.46,1.75-.19,2.72-.19c1.69,0,3.17.21,4.43.62,1.26.42,2.31,1.01,3.15,1.79.84.78,1.47,1.74,1.89,2.87.42,1.14.63,2.42.63,3.85v4.2Zm-10.2,1.05c-.3,0-.51.08-.64.25-.12.16-.19.35-.19.57,0,.29.09.49.28.6s.42.17.68.17c.42,0,.74-.11.96-.34.22-.23.33-.64.33-1.24h-1.43Z"/><path class="cls-3" d="m211.29,84.51c.26-.19.52-.34.79-.45.26-.11.54-.26.84-.43-.25-.14-.5-.34-.77-.6-.26-.26-.5-.57-.72-.93-.22-.36-.39-.78-.53-1.25s-.21-1-.21-1.59c0-.91.15-1.75.44-2.5.29-.75.7-1.39,1.21-1.93s1.11-.95,1.79-1.25,1.41-.45,2.2-.45,1.54.16,2.21.47c.67.31,1.26.74,1.76,1.29s.89,1.19,1.17,1.94c.28.75.42,1.56.42,2.43,0,.74-.11,1.43-.34,2.07-.23.64-.53,1.2-.91,1.7-.38.5-.83.92-1.34,1.25-.51.34-1.04.57-1.59.7,0,.21.04.4.13.57.08.17.23.25.44.25.65,0,1.34-.29,2.04-.86.04.03.1.08.2.15.09.07.19.16.29.26s.2.2.29.29c.09.09.15.16.18.2v8.49c0,.99.1,1.83.29,2.54.2.71.57,1.25,1.12,1.62.01.12.02.25.02.42v.38c0,1.09-.14,2.02-.41,2.81s-.66,1.43-1.16,1.94c-.5.51-1.09.88-1.78,1.12s-1.44.36-2.25.36c-.63,0-1.29-.11-1.97-.34s-1.32-.61-1.89-1.16-1.04-1.27-1.41-2.18c-.37-.91-.56-2.04-.56-3.4v-13.93Z"/><path class="cls-3" d="m227.36,81.7c.55,0,1.01.11,1.38.32.37.21.7.49.99.82-.58.59-.86,1.07-.86,1.46,0,.17.05.33.16.46.1.14.28.2.53.2.26-.5.61-.98,1.03-1.44s.92-.86,1.49-1.2,1.2-.62,1.91-.83,1.45-.31,2.25-.31c.94,0,1.9.14,2.88.41.98.27,1.86.74,2.64,1.42.79.67,1.43,1.59,1.93,2.74.5,1.16.75,2.62.75,4.37,0,.64,0,1.36-.03,2.17-.02.8-.03,1.54-.03,2.23,0,.99.1,1.8.29,2.44.2.64.57,1.15,1.12,1.52.01.12.02.25.02.42v.38c0,1.01-.14,1.91-.43,2.69-.29.78-.68,1.43-1.18,1.96s-1.08.92-1.74,1.19c-.66.26-1.37.4-2.11.4-.79,0-1.54-.12-2.25-.35-.71-.24-1.34-.62-1.89-1.16-.54-.54-.98-1.24-1.3-2.1-.32-.86-.48-1.92-.48-3.18,0-.67.02-1.31.07-1.91.05-.6.1-1.16.16-1.68.06-.52.11-1,.17-1.45.05-.44.08-.85.08-1.22,0-.69-.07-1.15-.21-1.4-.14-.25-.36-.38-.66-.38-.2,0-.38.06-.55.17l.26,3.49c-.07.43-.12.86-.17,1.3-.05.44-.08.85-.11,1.23s-.05.74-.06,1.05c-.01.31-.02.57-.02.77,0,1.11.1,2.04.3,2.76.2.73.44,1.36.7,1.89-.58.66-1.33,1.18-2.25,1.58-.92.39-1.97.59-3.15.59-.59,0-1.19-.09-1.8-.28s-1.16-.47-1.65-.85c-.49-.38-.89-.85-1.21-1.42-.31-.56-.47-1.23-.47-2v-10.38c-.39-.6-.68-1.28-.87-2.04-.19-.76-.28-1.55-.28-2.38,0-.69.1-1.44.28-2.27.19-.83.48-1.56.87-2.21h3.5Z"/></svg>