<?xml version="1.0" encoding="UTF-8"?><svg id="Layer_1" xmlns="http://www.w3.org/2000/svg" width="180" height="150" xmlns:xlink="http://www.w3.org/1999/xlink" viewBox="0 0 180 150"><defs><style>.cls-1{fill:url(#Orchid_2-2);}.cls-1,.cls-2,.cls-3,.cls-4,.cls-5,.cls-6,.cls-7{stroke-width:0px;}.cls-2{fill:url(#Orchid_2);}.cls-3{fill:#2a1f22;}.cls-4{fill:#3a3429;}.cls-5{fill:#221a1d;}.cls-6{fill:#fff;}.cls-7{fill:#eeeced;}</style><linearGradient id="Orchid_2" x1="102.89" y1="90.1" x2="114.8" y2="90.1" gradientUnits="userSpaceOnUse"><stop offset="0" stop-color="#ff71ac"/><stop offset=".22" stop-color="#ff71ac" stop-opacity=".76"/><stop offset=".6" stop-color="#ff71ac" stop-opacity=".36"/><stop offset=".87" stop-color="#ff71ac" stop-opacity=".1"/><stop offset="1" stop-color="#ff71ac" stop-opacity="0"/></linearGradient><linearGradient id="Orchid_2-2" x1="64.98" y1="91.77" x2="76.89" y2="91.77" xlink:href="#Orchid_2"/></defs><ellipse class="cls-6" cx="88.06" cy="76" rx="81" ry="66"/><ellipse class="cls-3" cx="104.35" cy="67.15" rx="13.16" ry="17.9"/><ellipse class="cls-7" cx="111.1" cy="62.52" rx="3.38" ry="3.09"/><ellipse class="cls-7" cx="103.23" cy="73.41" rx="7.65" ry="7.21"/><ellipse class="cls-3" cx="70.83" cy="68.04" rx="13.16" ry="17.9"/><ellipse class="cls-7" cx="64.08" cy="63.41" rx="3.38" ry="3.09"/><ellipse class="cls-7" cx="71.95" cy="74.3" rx="7.65" ry="7.21"/><ellipse class="cls-5" cx="88.82" cy="91.85" rx="6.08" ry="6.48"/><path class="cls-2" d="m105.77,85.59c-3.42,1.72-3.15,4.18-2.41,6.66.8,2.67,5.01,3.61,7.83,2.42.22-.09,3.66-1.61,3.61-4.84-.03-2.09-1.51-3.9-3.31-4.54-1.77-.63-5.12,0-5.72.3Z"/><path class="cls-1" d="m67.86,87.26c-3.42,1.72-3.15,4.18-2.41,6.66.8,2.67,5.01,3.61,7.83,2.42.22-.09,3.66-1.61,3.61-4.84-.03-2.09-1.51-3.9-3.31-4.54-1.77-.63-5.12,0-5.72.3Z"/><ellipse class="cls-4" cx="55.85" cy="119.33" rx="3.14" ry="3"/><ellipse class="cls-4" cx="24.5" cy="77.33" rx="3.14" ry="3"/><ellipse class="cls-4" cx="34.95" cy="105.33" rx="3.14" ry="3"/><ellipse class="cls-4" cx="88.25" cy="22.33" rx="3.14" ry="3"/><ellipse class="cls-4" cx="54.01" cy="33.34" rx="3.14" ry="3"/><ellipse class="cls-4" cx="88.25" cy="127.33" rx="3.14" ry="3"/><ellipse class="cls-4" cx="31.01" cy="53.35" rx="3.14" ry="3"/><ellipse class="cls-4" cx="125.88" cy="33.33" rx="3.14" ry="3"/><ellipse class="cls-4" cx="145.73" cy="51.33" rx="3.14" ry="3"/><ellipse class="cls-4" cx="152" cy="75.33" rx="3.14" ry="3"/><ellipse class="cls-4" cx="142.6" cy="102.33" rx="3.14" ry="3"/><ellipse class="cls-4" cx="117.52" cy="119.33" rx="3.14" ry="3"/></svg>