<?xml version="1.0" encoding="UTF-8"?><svg id="Layer_1" xmlns="http://www.w3.org/2000/svg" width="396" height="478" xmlns:xlink="http://www.w3.org/1999/xlink" viewBox="0 0 396 478"><defs><style>.cls-1{stroke:#89cece;stroke-width:40px;}.cls-1,.cls-2,.cls-3,.cls-4{stroke-miterlimit:10;}.cls-1,.cls-3{fill:#d3ebed;}.cls-2{fill:#abe1e5;stroke-width:4px;}.cls-2,.cls-3{stroke:#abe1e5;}.cls-3{stroke-width:18px;}.cls-4{stroke:#481000;}.cls-4,.cls-5{fill:#312b29;}.cls-6{fill:url(#Orchid_2-2);}.cls-6,.cls-7,.cls-8,.cls-9,.cls-10,.cls-5,.cls-11,.cls-12,.cls-13,.cls-14,.cls-15,.cls-16{stroke-width:0px;}.cls-7{fill:url(#Orchid_2);}.cls-8{fill:#77d1e4;}.cls-9{fill:#21b5f7;}.cls-10{fill:#d0005c;}.cls-11{fill:#71c7ed;}.cls-12{fill:#fff;}.cls-13{fill:#edf4f4;}.cls-14{fill:#ffa4ff;}.cls-15{fill:#fcd;}.cls-16{fill:#f0ffcc;}</style><linearGradient id="Orchid_2" x1="205.4" y1="305.39" x2="225.3" y2="305.39" gradientTransform="translate(45.42 107.97) rotate(-7.25) scale(.96 1.05) skewX(-6.64)" gradientUnits="userSpaceOnUse"><stop offset="0" stop-color="#ff71ac"/><stop offset=".22" stop-color="#ff71ac" stop-opacity=".76"/><stop offset=".6" stop-color="#ff71ac" stop-opacity=".36"/><stop offset=".87" stop-color="#ff71ac" stop-opacity=".1"/><stop offset="1" stop-color="#ff71ac" stop-opacity="0"/></linearGradient><linearGradient id="Orchid_2-2" x1="114.55" y1="305.85" x2="134.45" y2="305.85" xlink:href="#Orchid_2"/></defs><path class="cls-1" d="m240.98,436.41l-88.89,11.31c-53.83,6.85-98.46-35.91-99.67-95.51l-3.85-189.38c-1.21-59.6,41.44-113.47,95.28-120.32l88.89-11.31c53.83-6.85,98.46,35.91,99.67,95.51l3.85,189.38c1.21,59.6-41.44,113.47-95.28,120.32Z"/><path class="cls-3" d="m250.96,444.86l-80.88,10.29c-53.83,6.85-98.46-35.91-99.67-95.51l-4.15-203.92c-1.21-59.6,41.44-113.47,95.28-120.32l80.88-10.29c53.83-6.85,98.46,35.91,99.67,95.51l4.15,203.92c1.21,59.6-41.44,113.47-95.28,120.32Z"/><path class="cls-2" d="m153.61,107.02c36.96-28.63,90.4-27.86,124.7,8.77,35.33,37.73,39.03,101.72,13.46,149.27-34.42,64.02-112.87,81.45-156.01,42.6-50.41-45.39-39.77-155.99,17.86-200.64Z"/><path class="cls-4" d="m233.18,329.16c9.24-5.94,22.7-8.3,29.1-2.29,22.25,20.89,7.03,64.52-14.37,64.89-16.17.28-26.25-11.57-26-30.13.13-9.76,1.67-26.29,11.28-32.46Z"/><path class="cls-12" d="m161.22,124.65c31.65-24.11,77.39-23.56,106.67,7.11,30.19,31.63,33.35,85.32,11.47,125.29-29.47,53.82-96.58,68.61-133.47,36.08-43.11-38-33.98-130.91,15.34-168.48Z"/><polygon class="cls-15" points="125.28 262.32 125.15 256.18 127.91 255.83 129.15 251.2 131.94 250.84 134.28 244.61 136.64 242.53 139.76 242.13 143.06 241.71 146.36 241.29 146.29 237.78 149.39 233.79 155.01 233.07 159.02 236.71 160.53 240.08 168.19 240.29 173.02 242.05 174.51 244.83 177.45 248.01 179.94 253.04 184.67 254.76 187.97 254.34 194.84 255.89 199.24 260.08 199.32 264.16 199.47 271.32 199.59 277.11 197.75 281.03 199.75 284.94 203.6 286.22 207.46 287.38 209.89 289.58 214.77 293.7 218.16 295.64 225.9 299.41 230.5 302.26 225.86 304.16 219.36 306.37 211.57 308.35 197.32 310.17 188.03 310.07 180.36 309.18 173.55 307.73 166.95 305.65 160.73 303 155.3 300.05 149.26 295.92 144.3 291.69 138.94 286.03 135.53 281.75 131.44 276.05 129.28 272.04 126.92 266.97 125.28 262.32"/><polygon class="cls-8" points="166.15 234.02 165.27 240.21 169.77 240.87 173.02 242.05 174.51 244.83 177.45 248.01 179.94 253.04 184.67 254.76 189.69 254.12 194.84 255.89 199.24 260.08 199.32 264.16 199.59 277.11 197.75 281.03 199.75 284.94 207.46 287.38 214.77 293.7 230.5 302.26 237.93 298.62 243.38 295.43 247.04 293.03 250.54 290.5 254.83 287.1 256.82 285.38 260.97 281.49 263.82 278.56 266.14 275.99 269.36 272.13 272.45 268.03 274.81 264.6 277.39 260.48 280.63 254.63 283.29 249.11 285.83 242.95 284.52 239.13 281.61 237.13 277.75 235.84 275.81 234.31 273.83 231.59 269.52 231.55 265.23 232.09 262.85 232.99 257.16 235.5 252.85 235.45 248.5 233.63 244.55 227.61 240.89 224.51 233.88 221.25 228.82 219.87 220.9 218.75 214.74 219.53 210.32 216.53 208.5 214.32 205.91 211.17 203.06 208.85 200.97 204.08 197.08 201.01 190.79 197.66 186.59 198.19 182.26 202.3 179.03 208.06 175.34 215.05 170.15 218.68 166.91 224.43 166.15 234.02"/><polygon class="cls-16" points="212.58 209.72 208.5 214.32 210.32 216.53 214.74 219.53 220.9 218.75 228.82 219.87 233.88 221.25 240.89 224.51 244.55 227.61 248.5 233.63 252.85 235.45 257.16 235.5 262.85 232.99 269.52 231.55 273.83 231.59 275.81 234.31 279.96 236.58 284.52 239.13 285.83 242.95 287.98 236.79 289.53 231.45 290.79 226.22 291.82 220.91 292.78 214.09 293.34 207.6 293.21 201.42 293.49 197.34 293.36 191.18 292.7 186.84 292.12 182.71 291.3 178.18 289.94 172.3 288.6 167.64 287.13 163.28 286.03 160.38 282.84 160.78 279.6 162.03 278.69 164.51 276.88 169.49 273.11 172.35 271.68 172.53 270.76 174.43 271.29 177.32 270.38 179.22 268.5 181.24 264.68 181.73 262.81 183.75 261.41 185.7 255.2 186.49 252.8 186.21 250.57 185.21 247.96 183.85 246.46 180.49 244.98 178.3 242.55 176.83 240.17 177.13 237.79 178.03 234.01 180.29 231.64 181.78 228.06 182.27 224.34 181.94 219.23 183.36 217.4 187.74 216.53 192.01 214.26 198.23 213.38 201.9 212.58 209.72"/><polygon class="cls-14" points="118.65 211.61 122.96 211.06 125.51 213.68 130.38 213.06 135.66 212.39 140.13 208.87 144.01 204.8 147.8 204.32 151.68 205.6 157.11 206.4 161.07 205.89 164.55 204.56 169.5 201.56 174.12 202.15 176.92 203.87 180.47 205.5 179.03 208.06 175.34 215.05 170.15 218.68 166.91 224.43 165.27 240.21 160.53 240.08 158.52 235.47 155.01 233.07 149.39 233.79 146.29 237.78 146.36 241.29 136.64 242.53 134.28 244.61 131.94 250.84 129.15 251.2 127.91 255.83 125.15 256.18 125.28 262.32 123.81 258.16 122.53 253.92 121.7 250.79 120.56 245.62 119.22 239.7 118.85 234.01 118.4 228.58 118.32 224.64 118.25 221.2 118.18 218.02 118.11 214.71 118.65 211.61"/><path class="cls-5" d="m154.56,339.47c9.24-5.94,22.7-8.3,29.1-2.29,22.25,20.89,7.03,64.52-14.37,64.89-16.17.28-26.25-11.57-26-30.13.13-9.76,1.67-26.29,11.28-32.46Z"/><path class="cls-12" d="m159.96,353.49c-2.34,1.48-4.38,5.04-3.66,8.18.8,3.55,4.79,5.08,7.73,3.17,3.11-2.03,4.46-7.54,2.66-10.43-1.46-2.34-4.56-2.3-6.72-.92Z"/><path class="cls-12" d="m168.44,370.21c2.95-3.52,7.76-5.18,11.44-2.64,4.44,3.06,5.37,10.93,2.73,16.27-3.36,6.8-11.97,8.42-15.74,3.19-3.08-4.27-2.28-12.21,1.57-16.82Z"/><path class="cls-12" d="m247.62,360.26c2.95-3.52,7.76-5.18,11.44-2.64,4.44,3.06,5.37,10.93,2.73,16.27-3.36,6.8-11.97,8.42-15.74,3.19-3.08-4.27-2.28-12.21,1.57-16.82Z"/><path class="cls-12" d="m238.23,343.6c-2.34,1.48-4.38,5.04-3.66,8.18.8,3.55,4.79,5.08,7.73,3.17,3.11-2.03,4.46-7.54,2.66-10.43-1.46-2.34-4.56-2.3-6.72-.92Z"/><path class="cls-7" d="m251.3,394.68c-5.36,4.05-4.82,8.81-3.56,13.51,1.37,5.07,8.09,6.05,12.51,3.15.34-.23,5.74-3.89,5.54-10.2-.13-4.08-2.55-7.33-5.43-8.21-2.84-.87-8.12,1.03-9.06,1.75Z"/><path class="cls-6" d="m165.07,406.13c-5.36,4.05-4.82,8.81-3.56,13.51,1.37,5.07,8.09,6.05,12.51,3.15.34-.23,5.74-3.89,5.54-10.2-.13-4.08-2.55-7.33-5.43-8.21-2.84-.87-8.12,1.03-9.06,1.75Z"/><path class="cls-5" d="m198.24,399.17c4.51-2.62,14.72-3.28,21-3.24,2.31.01,4.33,2.9,4.9,5.66,1.37,6.55,1.12,12.59-2.49,18.61-3.44,5.72-9.16,9.92-14.19,8.54-2.73-.75-7.76-3.46-10.23-8.78-1.82-3.92-2.77-9.49-2.63-11.53.13-1.88.43-7.38,3.64-9.25Z"/><path class="cls-10" d="m200.67,424.26c-8.69-9.02-3.45-10.74,2.62-12.2,10.53-2.54,11.84,3.21,12.05,3.81,1.02,2.95,2.21,7.25.68,10-2.8,5.04-10.98,2.94-15.36-1.61Z"/><path class="cls-9" d="m115.73,80.87c-5.42-.3-12.64,3.59-14.58,11.5-1.23,5.01.01,10.19,2.12,13.4,4.82,7.33,15.87,6.99,20.96-1.06,2.47-3.91,3.87-10.16,2.15-15.55-2.41-7.57-9.32-8.22-10.66-8.29Z"/><path class="cls-11" d="m132.11,99.05c-2.73-4.3-1.41-11.03,2.18-14.82,3.27-3.45,8.28-4.32,11.75-1.5,2.63,2.14,4.18,6.24,3.31,10.48-1.08,5.28-5.26,7.63-6.03,8.04-3.42,1.81-8.56,1.96-11.2-2.21Z"/><path class="cls-5" d="m269.27,320.61l-11.03,18.19c-.84,1.39-2.38,1.75-3.43.8h0c-1.05-.94-1.22-2.83-.38-4.22l11.03-18.19c.84-1.39,2.38-1.75,3.43-.8h0c1.05.94,1.22,2.83.38,4.22Z"/><path class="cls-5" d="m276.54,323.85l-12.17,17.06c-.93,1.3-2.47,1.5-3.45.44h0c-.98-1.06-1.02-2.97-.09-4.28l12.17-17.06c.93-1.3,2.47-1.5,3.45-.44h0c.98,1.06,1.02,2.97.09,4.28Z"/><path class="cls-5" d="m281.29,330.48l-13.31,15.7c-1.02,1.2-2.56,1.22-3.44.04h0c-.89-1.18-.78-3.1.23-4.3l13.31-15.7c1.02-1.2,2.56-1.22,3.44-.04h0c.89,1.18.78,3.1-.23,4.3Z"/><path class="cls-5" d="m148.48,361.08l-14.2-11.68c-1.08-.89-1.31-2.77-.51-4.19h0c.8-1.42,2.33-1.85,3.41-.96l14.2,11.68c1.08.89,1.31,2.77.51,4.19h0c-.8,1.42-2.33,1.85-3.41.96Z"/><path class="cls-5" d="m152.51,355.78l-13.24-13.24c-1.01-1.01-1.11-2.92-.21-4.26h0c.89-1.34,2.43-1.61,3.45-.6l13.24,13.24c1.01,1.01,1.11,2.92.21,4.26h0c-.89,1.34-2.43,1.61-3.45.6Z"/><path class="cls-5" d="m157.11,351.74l-11.61-15.41c-.89-1.18-.78-3.1.23-4.3h0c1.02-1.2,2.56-1.22,3.44-.04l11.61,15.41c.89,1.18.78,3.1-.23,4.3h0c-1.02,1.2-2.56,1.22-3.44.04Z"/><path class="cls-11" d="m272.77,191.08c-12.02,3.99-11.82,6.45-12.73,9.93-1.21,4.62,3.4,9.77,6.94,11.58,10.01,5.11,23.75,1.53,30.05-5.61,1.42-1.61,4.12-5.5,3.64-9.36-.8-6.47-10.15-8.05-10.7-8.13-2.64-.41-11.08-.44-17.21,1.6Z"/><path class="cls-13" d="m90.12,364.58c-.33,22.42,10.29,44.24,27.82,58.15,5.25,4.17,10.81,7.77,16.91,10.59,1.87.87,3.72,1.32,5.78.76,1.74-.48,3.63-1.82,4.48-3.45,1.75-3.31,1.11-8.51-2.69-10.26-3.19-1.47-6.29-3.15-9.26-5.04-1.45-.93-2.87-1.9-4.25-2.93-.28-.21-.57-.49-.88-.66.03.01,1.55,1.22.65.5-.14-.11-.29-.23-.43-.34-.66-.53-1.31-1.07-1.95-1.62-2.53-2.18-4.92-4.54-7.11-7.07-.5-.58-1-1.17-1.49-1.76-.26-.32-.51-.65-.77-.97-.49-.61.72.95.63.82-.16-.24-.36-.47-.53-.7-.98-1.32-1.91-2.67-2.79-4.05-1.97-3.09-3.67-6.35-5.11-9.72l.76,1.79c-2.21-5.27-3.73-10.8-4.5-16.46l.27,1.99c-.41-3.17-.6-6.36-.55-9.56.06-3.92-3.49-7.68-7.5-7.5s-7.44,3.29-7.5,7.5h0Z"/><path class="cls-13" d="m97.96,85.21c-2.61,5.47-4.06,11.85-2.7,17.85.6,2.65,1.4,4.8,3.21,6.88,2.02,2.32,4.55,4.22,7.23,5.7,1.69.94,3.21-1.65,1.51-2.59-2.3-1.27-4.42-2.84-6.2-4.77-.78-.85-1.54-1.77-2-2.84-.43-1-.62-2.12-.86-3.18-1.18-5.17.15-10.83,2.39-15.53.83-1.73-1.76-3.26-2.59-1.51h0Z"/></svg>