<?xml version="1.0" encoding="UTF-8"?><svg id="Layer_2" xmlns="http://www.w3.org/2000/svg" width="474.5" height="219.5" viewBox="0 0 474.5 219.5"><defs><style>.cls-1{fill:none;stroke:#020202;stroke-miterlimit:10;}.cls-2,.cls-3,.cls-4,.cls-5{stroke-width:0px;}.cls-3{fill:#cad4be;}.cls-4{fill:#dfdad2;}.cls-5{fill:#fff;}</style></defs><g id="Layer_1-2"><ellipse class="cls-3" cx="76" cy="104.5" rx="76" ry="104.5"/><path class="cls-5" d="m30.26,109.44l.62-4.71h-1.97v-1.42h2.18l.46-3.48h-2.06v-1.42h2.28l.62-4.58h1.39l-.6,4.58h2.5l.62-4.58h1.42l-.6,4.58h1.97v1.42h-2.18l-.43,3.48h2.06v1.42h-2.28l-.62,4.71h-1.44l.62-4.71h-2.5l-.62,4.71h-1.44Zm4.78-6.12l.46-3.48h-2.5l-.46,3.48h2.5Z"/><path class="cls-5" d="m41.78,93.48c1.27-.19,2.78-.34,4.44-.34,3,0,5.14.7,6.55,2.02,1.44,1.32,2.28,3.19,2.28,5.81s-.82,4.8-2.33,6.29c-1.51,1.51-4.01,2.33-7.15,2.33-1.49,0-2.74-.07-3.79-.19v-15.91Zm2.09,14.31c.53.1,1.3.12,2.11.12,4.46,0,6.89-2.5,6.89-6.87.02-3.82-2.14-6.24-6.55-6.24-1.08,0-1.9.1-2.45.22v12.77Z"/><path class="cls-5" d="m65.92,95.32c-.43-.02-.98,0-1.58.1-3.31.55-5.06,2.98-5.42,5.54h.07c.74-.98,2.04-1.8,3.77-1.8,2.76,0,4.7,1.99,4.7,5.04,0,2.86-1.94,5.5-5.18,5.5s-5.52-2.59-5.52-6.65c0-3.07,1.1-5.5,2.64-7.03,1.3-1.27,3.02-2.06,4.99-2.3.62-.1,1.15-.12,1.54-.12v1.73Zm-.6,9c0-2.23-1.27-3.58-3.22-3.58-1.27,0-2.45.79-3.02,1.92-.14.24-.24.55-.24.94.05,2.57,1.22,4.46,3.43,4.46,1.82,0,3.05-1.51,3.05-3.74Z"/><path class="cls-5" d="m78.45,101.85h-6.29v5.83h7.01v1.75h-9.1v-16.18h8.74v1.75h-6.65v5.11h6.29v1.73Z"/><path class="cls-5" d="m91.51,101.47c0,5.3-1.97,8.23-5.42,8.23-3.05,0-5.11-2.86-5.16-8.02,0-5.23,2.26-8.11,5.42-8.11s5.16,2.93,5.16,7.9Zm-8.47.24c0,4.06,1.25,6.36,3.17,6.36,2.16,0,3.19-2.52,3.19-6.5s-.98-6.36-3.17-6.36c-1.85,0-3.19,2.26-3.19,6.5Z"/><path class="cls-5" d="m105.5,108.91c-.77.38-2.3.77-4.27.77-4.56,0-7.99-2.88-7.99-8.19s3.43-8.5,8.45-8.5c2.02,0,3.29.43,3.84.72l-.5,1.7c-.79-.38-1.92-.67-3.26-.67-3.79,0-6.31,2.42-6.31,6.67,0,3.96,2.28,6.5,6.22,6.5,1.27,0,2.57-.26,3.41-.67l.43,1.66Z"/><path class="cls-5" d="m108.11,93.26h8.71v1.75h-6.62v5.38h6.12v1.73h-6.12v7.32h-2.09v-16.18Z"/><ellipse class="cls-4" cx="237" cy="109.5" rx="76" ry="104.5"/><path class="cls-5" d="m191.26,114.44l.62-4.71h-1.97v-1.42h2.18l.46-3.48h-2.06v-1.42h2.28l.62-4.58h1.39l-.6,4.58h2.5l.62-4.58h1.42l-.6,4.58h1.97v1.42h-2.18l-.43,3.48h2.06v1.42h-2.28l-.62,4.71h-1.44l.62-4.71h-2.5l-.62,4.71h-1.44Zm4.78-6.12l.46-3.48h-2.5l-.46,3.48h2.5Z"/><path class="cls-5" d="m202.78,98.48c1.27-.19,2.78-.34,4.44-.34,3,0,5.14.7,6.55,2.02,1.44,1.32,2.28,3.19,2.28,5.81s-.82,4.8-2.33,6.29c-1.51,1.51-4.01,2.33-7.15,2.33-1.49,0-2.74-.07-3.79-.19v-15.91Zm2.09,14.31c.53.1,1.3.12,2.11.12,4.46,0,6.89-2.5,6.89-6.87.02-3.82-2.14-6.24-6.55-6.24-1.08,0-1.9.1-2.45.22v12.77Z"/><path class="cls-5" d="m218.76,98.26h8.71v1.75h-6.62v5.38h6.12v1.73h-6.12v7.32h-2.09v-16.18Z"/><path class="cls-5" d="m230.45,98.48c1.27-.19,2.78-.34,4.44-.34,3,0,5.14.7,6.55,2.02,1.44,1.32,2.28,3.19,2.28,5.81s-.82,4.8-2.33,6.29c-1.51,1.51-4.01,2.33-7.15,2.33-1.49,0-2.74-.07-3.79-.19v-15.91Zm2.09,14.31c.53.1,1.3.12,2.11.12,4.46,0,6.89-2.5,6.89-6.87.02-3.82-2.14-6.24-6.55-6.24-1.08,0-1.9.1-2.45.22v12.77Z"/><path class="cls-5" d="m248.71,109.35l-1.68,5.09h-2.16l5.5-16.18h2.52l5.52,16.18h-2.23l-1.73-5.09h-5.74Zm5.3-1.63l-1.58-4.66c-.36-1.06-.6-2.02-.84-2.95h-.05c-.24.96-.5,1.94-.82,2.93l-1.58,4.68h4.87Z"/><path class="cls-5" d="m260.78,98.48c1.27-.19,2.78-.34,4.44-.34,3,0,5.14.7,6.55,2.02,1.44,1.32,2.28,3.19,2.28,5.81s-.82,4.8-2.33,6.29c-1.51,1.51-4.01,2.33-7.15,2.33-1.49,0-2.74-.07-3.79-.19v-15.91Zm2.09,14.31c.53.1,1.3.12,2.11.12,4.46,0,6.89-2.5,6.89-6.87.02-3.82-2.14-6.24-6.55-6.24-1.08,0-1.9.1-2.45.22v12.77Z"/><path class="cls-5" d="m276.02,114.44v-1.3l1.66-1.61c3.98-3.79,5.78-5.81,5.81-8.16,0-1.58-.77-3.05-3.1-3.05-1.42,0-2.59.72-3.31,1.32l-.67-1.49c1.08-.91,2.62-1.58,4.42-1.58,3.36,0,4.78,2.3,4.78,4.54,0,2.88-2.09,5.21-5.38,8.38l-1.25,1.15v.05h7.01v1.75h-9.96Z"/><ellipse class="cls-1" cx="398" cy="114.5" rx="76" ry="104.5"/><path class="cls-2" d="m357.34,119.25l.62-4.71h-1.97v-1.42h2.18l.46-3.48h-2.06v-1.42h2.28l.62-4.58h1.39l-.6,4.58h2.5l.62-4.58h1.42l-.6,4.58h1.97v1.42h-2.18l-.43,3.48h2.06v1.42h-2.28l-.62,4.71h-1.44l.62-4.71h-2.5l-.62,4.71h-1.44Zm4.78-6.12l.46-3.48h-2.5l-.46,3.48h2.5Z"/><path class="cls-2" d="m368.86,103.08h8.71v1.75h-6.62v5.38h6.12v1.73h-6.12v7.32h-2.09v-16.18Z"/><path class="cls-2" d="m380.55,103.08h8.71v1.75h-6.62v5.38h6.12v1.73h-6.12v7.32h-2.09v-16.18Z"/><path class="cls-2" d="m392.24,103.08h8.71v1.75h-6.62v5.38h6.12v1.73h-6.12v7.32h-2.09v-16.18Z"/><path class="cls-2" d="m403.93,103.08h8.71v1.75h-6.62v5.38h6.12v1.73h-6.12v7.32h-2.09v-16.18Z"/><path class="cls-2" d="m415.62,103.08h8.71v1.75h-6.62v5.38h6.12v1.73h-6.12v7.32h-2.09v-16.18Z"/><path class="cls-2" d="m427.3,103.08h8.71v1.75h-6.62v5.38h6.12v1.73h-6.12v7.32h-2.09v-16.18Z"/></g></svg>