<?xml version="1.0" encoding="UTF-8"?><svg id="Layer_1" xmlns="http://www.w3.org/2000/svg" width="500" height="250" viewBox="0 0 500 250"><defs><style>.cls-1{fill:#fff;stroke:#f0f1f2;stroke-width:16px;}.cls-1,.cls-2,.cls-3{stroke-miterlimit:10;}.cls-2{fill:#e8cde3;stroke:#b7e0e5;}.cls-2,.cls-3{stroke-width:30px;}.cls-3{fill:#eab9e4;stroke:#86eaf2;}.cls-4{fill:#e4eeef;}.cls-4,.cls-5{stroke-width:0px;}.cls-5{fill:#f4ed9a;}</style></defs><path class="cls-1" d="m-11.19,572.56L-1062.14,81.08c-16.64-12.7-40.03-16.05-62.1-6.7l-1131.33,479.48c-33.6,14.24-51.91,52.76-40.68,85.59l141.5,413.92c11.23,32.84,47.9,48.05,81.5,33.81l896.36-379.89,880.01,411.54c31.02,14.51,70.4-.4,87.51-33.12L14.09,658.42c17.11-32.72,5.73-71.36-25.29-85.87Z"/><rect class="cls-2" x="47.02" y="44.25" width="401.26" height="167" rx="83.5" ry="83.5"/><rect class="cls-3" x="59.79" y="29.25" width="401.26" height="167" rx="83.5" ry="83.5"/><path class="cls-5" d="m170.42,141.09c-.97-.9-1.45-2.75-1.45-5.55s.53-7.6,1.6-14.6c1.07-7.13,1.6-13.67,1.6-19.6,0-3.47-.17-6.4-.5-8.8-1.07.6-1.93.9-2.6.9-.6,0-1.03-.27-1.3-.8-.27-.53-.4-1.37-.4-2.5,0-2.07.47-3.78,1.4-5.15.93-1.37,2.57-2.65,4.9-3.85,2.47-1.33,5.28-2.4,8.45-3.2,3.17-.8,6.32-1.2,9.45-1.2,6.47,0,11.65,1.7,15.55,5.1,3.9,3.4,5.85,7.93,5.85,13.6,0,4.47-1.18,8.53-3.55,12.2-2.37,3.67-5.35,6.55-8.95,8.65-3.6,2.1-7.13,3.15-10.6,3.15-2.33,0-3.97-.52-4.9-1.55-.93-1.03-1.4-2.65-1.4-4.85,0-2.67.63-4,1.9-4,.33,0,1.03.13,2.1.4,1.33.33,2.73.5,4.2.5,3.67,0,6.65-1.03,8.95-3.1,2.3-2.07,3.45-4.73,3.45-8s-1.25-5.98-3.75-7.95c-2.5-1.97-5.78-2.95-9.85-2.95-2.73,0-5.77.43-9.1,1.3-.2,4.4-.67,9.4-1.4,15-1,8.4-1.5,14.63-1.5,18.7,0,2.6.23,4.73.7,6.4.47,1.67,1.33,3.1,2.6,4.3.93.93,1.4,1.93,1.4,3,0,1.53-.85,2.88-2.55,4.05-1.7,1.17-3.85,1.75-6.45,1.75-1.6,0-2.88-.45-3.85-1.35Z"/><path class="cls-5" d="m224.62,139.69c-2.43-2.03-3.65-5.05-3.65-9.05,0-1.8.33-4.87,1-9.2,1.2-7.33,1.8-13.83,1.8-19.5,0-4.33-.18-7.72-.55-10.15-.37-2.43-1.22-4.75-2.55-6.95-.67-1.07-1-1.83-1-2.3,0-.8.45-1.63,1.35-2.5.9-.87,2.03-1.6,3.4-2.2,1.37-.6,2.65-.9,3.85-.9,2.13,0,3.52.8,4.15,2.4.63,1.6.95,4.27.95,8,0,2-.53,7.53-1.6,16.6-1.07,8.07-1.6,14.03-1.6,17.9,0,2.73.32,4.78.95,6.15.63,1.37,1.68,2.28,3.15,2.75,1.47.53,3.53.8,6.2.8,5.93,0,11.2-1.03,15.8-3.1.8-.27,1.33-.4,1.6-.4.67,0,1.25.38,1.75,1.15.5.77.75,1.78.75,3.05,0,2.93-1.6,5.23-4.8,6.9-4.27,2.4-10.13,3.6-17.6,3.6-6.47,0-10.92-1.02-13.35-3.05Z"/><path class="cls-5" d="m307.52,139.94c-1.43-1.73-2.82-4.67-4.15-8.8-1.33-4.13-2.2-7.93-2.6-11.4-.87,1.33-1.65,2.22-2.35,2.65-.7.43-1.72.65-3.05.65-5.87,0-12.6-.13-20.2-.4-.33,2.67-.5,5.1-.5,7.3,0,1.53.13,3.63.4,6.3.2,1.87-.52,3.37-2.15,4.5-1.63,1.13-3.72,1.7-6.25,1.7-1.13,0-1.95-.22-2.45-.65-.5-.43-.75-1.15-.75-2.15,0-1.13.3-2.83.9-5.1.73-3.13,1.1-5.33,1.1-6.6,0-1.87-.57-3.13-1.7-3.8-.93-.53-1.4-1.23-1.4-2.1,0-1.2.4-2.7,1.2-4.5.8-1.8,1.63-3,2.5-3.6,1-.53,2.4-.9,4.2-1.1,3.93-11.4,8.55-20.32,13.85-26.75s10.78-9.65,16.45-9.65c2.33,0,4.03.8,5.1,2.4,1.07,1.6,1.6,4.2,1.6,7.8v4.5c0,6.47.48,12.55,1.45,18.25.97,5.7,2.22,10.42,3.75,14.15,1.47,3.73,3.5,6.8,6.1,9.2.8.67,1.33,1.23,1.6,1.7.27.47.4,1,.4,1.6,0,1.54-.83,3-2.5,4.4-1.67,1.4-3.43,2.1-5.3,2.1-2.07,0-3.82-.87-5.25-2.6Zm-14.55-28.2h7c-.33-4.13-.5-8.27-.5-12.4v-5.8c0-1.87-.22-3.13-.65-3.8-.43-.67-1.25-1-2.45-1-3.27,0-6.53,2.13-9.8,6.4-3.27,4.27-6.07,9.97-8.4,17.1,7.2-.33,12.13-.5,14.8-.5Z"/><path class="cls-5" d="m335.97,140.44c-1-.93-1.5-2.5-1.5-4.7,0-1.8.28-4.27.85-7.4.57-3.13,1.38-6.53,2.45-10.2-1.4-6.73-2.93-12.27-4.6-16.6-3.07-8.33-6.73-12.5-11-12.5-.73,0-1.57.13-2.5.4-.67.13-1.35-.35-2.05-1.45-.7-1.1-1.05-2.35-1.05-3.75,0-1.93.67-3.6,2-5,1.33-1.4,3.1-2.1,5.3-2.1,4.46,0,8.27,2.28,11.4,6.85,3.13,4.57,5.5,12.18,7.1,22.85,3.27-8.07,6.98-15.03,11.15-20.9,4.17-5.87,8.68-8.8,13.55-8.8,1.8,0,3.2.43,4.2,1.3,1,.87,1.5,2.07,1.5,3.6,0,1.67-.5,3.38-1.5,5.15-1,1.77-2.07,2.65-3.2,2.65-.73,0-1.33-.1-1.8-.3-.67-.33-1.43-.5-2.3-.5-2.27,0-4.65,1.52-7.15,4.55-2.5,3.03-4.95,7.52-7.35,13.45-2.53,6.47-3.8,12.73-3.8,18.8,0,3.33.87,5.97,2.6,7.9.67,1,1,1.93,1,2.8,0,1.54-.8,2.8-2.4,3.8-1.6,1-3.63,1.5-6.1,1.5-2.2,0-3.8-.47-4.8-1.4Z"/><path class="cls-4" d="m63.27,76.45c-4.37,6.51-5.88,14.32-6.81,21.97s-1.02,15.35-.11,22.97c1.77,14.89,7.06,28.94,16.52,40.66,4.8,5.95,10.7,11.05,17.31,14.89,2.04,1.18,5.02.54,6.16-1.61s.56-4.89-1.61-6.16c-1.35-.78-2.67-1.62-3.95-2.51-.64-.44-1.27-.9-1.89-1.37.8.61-.22-.18-.32-.25-.35-.28-.7-.57-1.05-.86-2.38-2.01-4.61-4.2-6.66-6.54-.47-.54-.93-1.08-1.39-1.64-.25-.3-.49-.61-.73-.91-.81-1.01.51.72-.25-.33-1-1.37-1.98-2.75-2.89-4.18-1.68-2.64-3.18-5.4-4.49-8.24-.27-.59-.54-1.19-.79-1.79.4.95-.1-.25-.14-.37-.15-.36-.29-.73-.43-1.09-.69-1.82-1.32-3.67-1.86-5.54-1.02-3.49-1.8-7.05-2.34-10.64.02.1-.2-1.37-.11-.75s-.1-.86-.09-.76c-.11-.9-.2-1.81-.28-2.72-.17-1.97-.28-3.94-.32-5.91-.08-3.65.04-7.3.36-10.94.08-.91.17-1.82.28-2.72.05-.45.11-.9.16-1.36.07-.56.08-.6.02-.13.04-.28.08-.57.12-.85.3-1.98.67-3.96,1.15-5.91.45-1.8,1.01-3.57,1.68-5.3-.34.86.19-.43.22-.49.24-.51.49-1.02.76-1.52.47-.88.99-1.73,1.54-2.55,1.32-1.96.44-5.07-1.61-6.16-2.27-1.2-4.75-.48-6.16,1.61h0Z"/><path class="cls-4" d="m109.4,190.28c4.49,3.41,9.71,5.92,15.14,7.43,2.27.63,5-.78,5.54-3.14s-.72-4.86-3.14-5.54c-1.72-.48-3.4-1.06-5.05-1.75l1.07.45c-3.21-1.37-6.24-3.12-9.02-5.23-.87-.66-2.47-.73-3.47-.45-1.04.29-2.18,1.09-2.69,2.07-.55,1.04-.83,2.31-.45,3.47s1.08,1.94,2.07,2.69h0Z"/><path class="cls-4" d="m141.84,191.94l-1.27.43c-.59.14-1.1.41-1.53.81-.49.32-.88.74-1.16,1.26-.33.52-.51,1.07-.53,1.67-.13.6-.11,1.2.08,1.79l.45,1.07c.4.68.94,1.21,1.61,1.61l1.07.45c.8.21,1.6.21,2.39,0l1.27-.43c.59-.14,1.1-.41,1.53-.81.49-.32.88-.74,1.16-1.26.33-.52.51-1.07.53-1.67.13-.6.11-1.2-.08-1.79l-.45-1.07c-.4-.68-.94-1.21-1.61-1.61l-1.07-.45c-.8-.21-1.6-.21-2.39,0h0Z"/></svg>